<?xml version="1.0" encoding="UTF-8" standalone="no"?>
<!-- Created with Inkscape (http://www.inkscape.org/) -->

<svg
   version="1.1"
   id="svg1"
   width="257.33334"
   height="108"
   viewBox="0 0 257.33334 108"
   sodipodi:docname="fig0a.pdf"
   inkscape:version="1.4.2 (1:1.4.2+202505120737+ebf0e940d0)"
   inkscape:dataloss="true"
   xmlns:inkscape="http://www.inkscape.org/namespaces/inkscape"
   xmlns:sodipodi="http://sodipodi.sourceforge.net/DTD/sodipodi-0.dtd"
   xmlns="http://www.w3.org/2000/svg"
   xmlns:svg="http://www.w3.org/2000/svg">
  <defs
     id="defs1">
    <clipPath
       clipPathUnits="userSpaceOnUse"
       id="clipPath9">
      <path
         d="M 0,0 H 193 V 81 H 0 Z"
         transform="scale(1.0053798,1)"
         id="path9" />
    </clipPath>
    <clipPath
       clipPathUnits="userSpaceOnUse"
       id="clipPath10">
      <path
         d="M 0,0 H 193 V 81 H 0 Z"
         transform="scale(1.3333333)"
         id="path10" />
    </clipPath>
    <clipPath
       clipPathUnits="userSpaceOnUse"
       id="clipPath11">
      <path
         d="M 4.074,1.766 H 165.078 V 81 H 4.074 Z"
         transform="scale(1.3333333)"
         id="path11" />
    </clipPath>
    <clipPath
       clipPathUnits="userSpaceOnUse"
       id="clipPath12">
      <path
         d="M 4.074,1.766 H 165.078 V 81 H 4.074 Z"
         transform="scale(1.3333333)"
         id="path12" />
    </clipPath>
    <clipPath
       clipPathUnits="userSpaceOnUse"
       id="clipPath17">
      <path
         d="M 40.676,29.832 C 41.922,17.363 41.922,17.363 41.922,17.363 26.016,15.754 26.016,15.754 26.016,15.754 M 40.766,29.535 25.469,15.516"
         transform="scale(1.3333333)"
         id="path17" />
    </clipPath>
    <clipPath
       clipPathUnits="userSpaceOnUse"
       id="clipPath25">
      <path
         d="M 0,0 H 193 V 81 H 0 Z"
         transform="scale(1.0053798,1)"
         id="path25" />
    </clipPath>
    <clipPath
       clipPathUnits="userSpaceOnUse"
       id="clipPath26">
      <path
         d="M 0,0 H 193 V 81 H 0 Z"
         transform="scale(1.3333333)"
         id="path26" />
    </clipPath>
    <clipPath
       clipPathUnits="userSpaceOnUse"
       id="clipPath27">
      <path
         d="m 9.301,0.98 h 161 V 81 h -161 z"
         transform="scale(1.3333333)"
         id="path27" />
    </clipPath>
    <clipPath
       clipPathUnits="userSpaceOnUse"
       id="clipPath28">
      <path
         d="m 9.301,0.98 h 161 V 81 h -161 z"
         transform="scale(1.3333333)"
         id="path28" />
    </clipPath>
    <clipPath
       clipPathUnits="userSpaceOnUse"
       id="clipPath33">
      <path
         d="m 171.418,29.496 c 1.246,-12.473 1.246,-12.473 1.246,-12.473 -15.906,-1.601 -15.906,-1.601 -15.906,-1.601 m 14.754,13.777 -15.301,-14.015"
         transform="scale(1.3333333)"
         id="path33" />
    </clipPath>
  </defs>
  <sodipodi:namedview
     id="namedview1"
     pagecolor="#ffffff"
     bordercolor="#000000"
     borderopacity="0.25"
     inkscape:showpageshadow="2"
     inkscape:pageopacity="0.0"
     inkscape:pagecheckerboard="0"
     inkscape:deskcolor="#d1d1d1"
     inkscape:zoom="8.0673571"
     inkscape:cx="128.66667"
     inkscape:cy="54.044961"
     inkscape:current-layer="g1">
    <inkscape:page
       x="0"
       y="0"
       id="page1"
       width="257.33334"
       height="108"
       margin="0"
       bleed="0" />
  </sodipodi:namedview>
  <g
     id="g1"
     inkscape:groupmode="layer"
     inkscape:label="">
    <path
       id="path1"
       d="m 37.149,40.879 c 15.172,0 15.172,0 15.172,0"
       style="fill:none;stroke:#87878c;stroke-width:0.939984;stroke-linecap:butt;stroke-linejoin:miter;stroke-miterlimit:4;stroke-dasharray:none;stroke-opacity:1"
       transform="scale(1.331916,1.3333333)" />
    <path
       id="path2"
       d="m 47.812,38.324 7.204,2.629 -7.204,2.637 c 1.309,-1.539 1.309,-3.731 0,-5.266 z"
       style="fill:#87878c;fill-opacity:1;fill-rule:evenodd;stroke:none"
       transform="scale(1.3333333)" />
    <path
       id="path5"
       d="m 6.747,18.633 h 29.415 c 0.813,0 1.469,0.652 1.469,1.469 V 59.18 c 0,0.816 -0.656,1.472 -1.469,1.472 H 6.747 C 5.93,60.652 5.274,59.996 5.274,59.18 V 20.102 c 0,-0.817 0.656,-1.469 1.473,-1.469 z"
       style="fill:none;stroke:#808080;stroke-width:1.10276;stroke-linecap:butt;stroke-linejoin:miter;stroke-miterlimit:4;stroke-dasharray:none;stroke-opacity:1"
       transform="scale(1.3261987,1.3333333)" />
    <path
       id="path6"
       d="m 9.814,27.406 c 13.738,0 13.738,0 13.738,0"
       style="fill:none;stroke:#808080;stroke-width:1.50167;stroke-linecap:butt;stroke-linejoin:miter;stroke-miterlimit:4;stroke-dasharray:none;stroke-opacity:1"
       transform="scale(1.3261987,1.3333333)" />
    <path
       id="path7"
       d="m 9.814,32.441 c 17.791,0 17.791,0 17.791,0"
       style="fill:none;stroke:#808080;stroke-width:1.50167;stroke-linecap:butt;stroke-linejoin:miter;stroke-miterlimit:4;stroke-dasharray:none;stroke-opacity:1"
       transform="scale(1.3261987,1.3333333)" />
    <path
       id="path8"
       d="m 9.94,37.223 c 22.322,0 22.322,0 22.322,0"
       style="fill:none;stroke:#808080;stroke-width:1.50167;stroke-linecap:butt;stroke-linejoin:miter;stroke-miterlimit:4;stroke-dasharray:none;stroke-opacity:1"
       transform="scale(1.3261987,1.3333333)" />
    <g
       id="g17"
       clip-path="url(#clipPath17)">
      <g
         id="g12" />
      <g
         clip-path="url(#clipPath12)"
         id="g16">
        <g
           id="g13" />
        <g
           clip-path="url(#clipPath11)"
           id="g15">
          <g
             clip-path="url(#clipPath10)"
             id="g14">
            <path
               d="m 7.022,18.422 h 29.415 c 0.817,0 1.473,0.656 1.473,1.469 v 39.078 c 0,0.816 -0.656,1.472 -1.473,1.472 H 7.022 c -0.817,0 -1.469,-0.656 -1.469,-1.472 V 19.891 c 0,-0.813 0.652,-1.469 1.469,-1.469 z"
               style="fill:#ffffff;fill-opacity:1;fill-rule:nonzero;stroke:#ffffff;stroke-width:1.10276;stroke-linecap:butt;stroke-linejoin:miter;stroke-miterlimit:4;stroke-dasharray:none;stroke-opacity:1"
               transform="scale(1.3261987,1.3333333)"
               clip-path="url(#clipPath9)"
               id="path13" />
          </g>
        </g>
      </g>
    </g>
    <path
       id="path18"
       d="m 28.257,18.613 -0.369,8.758 h 9.786"
       style="fill:none;stroke:#808080;stroke-width:1.50167;stroke-linecap:butt;stroke-linejoin:miter;stroke-miterlimit:4;stroke-dasharray:none;stroke-opacity:1"
       transform="scale(1.3261987,1.3333333)" />
    <path
       id="path19"
       d="m 28.708,18.711 8.947,8.547"
       style="fill:none;stroke:#808080;stroke-width:1.50167;stroke-linecap:butt;stroke-linejoin:miter;stroke-miterlimit:4;stroke-dasharray:none;stroke-opacity:1"
       transform="scale(1.3261987,1.3333333)" />
    <text
       id="text19"
       xml:space="preserve"
       transform="matrix(1.3333333,0,0,1.3405071,8.8569,64.530883)"><tspan
         id="tspan19"
         style="font-variant:normal;font-weight:700;font-size:8.20623px;font-family:'Helvetica Neue LT Std';writing-mode:lr-tb;fill:#000000;fill-opacity:1;fill-rule:nonzero;stroke:none"
         x="0"
         y="0">doc.tex</tspan></text>
    <path
       id="path20"
       d="m 137.457,18.293 h 29.254 c 0.812,0 1.465,0.66 1.465,1.477 v 39.078 c 0,0.812 -0.653,1.468 -1.465,1.468 h -29.254 c -0.812,0 -1.465,-0.656 -1.465,-1.468 V 19.77 c 0,-0.817 0.653,-1.477 1.465,-1.477 z"
       style="fill:#ffffff;fill-opacity:0.94902;fill-rule:nonzero;stroke:none"
       transform="scale(1.3333333)" />
    <path
       id="path21"
       d="m 137.603,18.293 h 29.285 c 0.814,0 1.467,0.66 1.467,1.477 v 39.078 c 0,0.812 -0.653,1.468 -1.467,1.468 h -29.285 c -0.813,0 -1.466,-0.656 -1.466,-1.468 V 19.77 c 0,-0.817 0.653,-1.477 1.466,-1.477 z"
       style="fill:none;stroke:#50a8d8;stroke-width:1.10039;stroke-linecap:butt;stroke-linejoin:miter;stroke-miterlimit:4;stroke-dasharray:none;stroke-opacity:1"
       transform="scale(1.331916,1.3333333)" />
    <path
       id="path22"
       d="m 140.653,27.074 c 13.683,0 13.683,0 13.683,0"
       style="fill:none;stroke:#499ecf;stroke-width:1.49844;stroke-linecap:butt;stroke-linejoin:miter;stroke-miterlimit:4;stroke-dasharray:none;stroke-opacity:1"
       transform="scale(1.331916,1.3333333)" />
    <path
       id="path23"
       d="m 140.653,32.102 c 17.715,0 17.715,0 17.715,0"
       style="fill:none;stroke:#50a7d8;stroke-width:1.49844;stroke-linecap:butt;stroke-linejoin:miter;stroke-miterlimit:4;stroke-dasharray:none;stroke-opacity:1"
       transform="scale(1.331916,1.3333333)" />
    <path
       id="path24"
       d="m 140.779,36.891 c 22.23,0 22.23,0 22.23,0"
       style="fill:none;stroke:#4fa6d7;stroke-width:1.49844;stroke-linecap:butt;stroke-linejoin:miter;stroke-miterlimit:4;stroke-dasharray:none;stroke-opacity:1"
       transform="scale(1.331916,1.3333333)" />
    <g
       id="g33"
       clip-path="url(#clipPath33)">
      <g
         id="g28" />
      <g
         clip-path="url(#clipPath28)"
         id="g32">
        <g
           id="g29" />
        <g
           clip-path="url(#clipPath27)"
           id="g31">
          <g
             clip-path="url(#clipPath26)"
             id="g30">
            <path
               d="m 138.471,18.082 h 29.412 c 0.817,0 1.472,0.66 1.472,1.477 v 39.078 c 0,0.816 -0.655,1.472 -1.472,1.472 h -29.412 c -0.816,0 -1.472,-0.656 -1.472,-1.472 V 19.559 c 0,-0.817 0.656,-1.477 1.472,-1.477 z"
               style="fill:#ffffff;fill-opacity:1;fill-rule:nonzero;stroke:#ffffff;stroke-width:1.10276;stroke-linecap:butt;stroke-linejoin:miter;stroke-miterlimit:4;stroke-dasharray:none;stroke-opacity:1"
               transform="scale(1.3261987,1.3333333)"
               clip-path="url(#clipPath25)"
               id="path29" />
          </g>
        </g>
      </g>
    </g>
    <path
       id="path34"
       d="m 158.848,18.277 -0.364,8.762 h 9.731"
       style="fill:#ffffff;fill-opacity:0.847059;fill-rule:nonzero;stroke:none"
       transform="scale(1.3333333)" />
    <path
       id="path35"
       d="m 159.017,18.277 -0.364,8.762 h 9.741"
       style="fill:none;stroke:#4da3d3;stroke-width:1.49844;stroke-linecap:butt;stroke-linejoin:miter;stroke-miterlimit:4;stroke-dasharray:none;stroke-opacity:1"
       transform="scale(1.331916,1.3333333)" />
    <path
       id="path36"
       d="m 158.605,18.047 9.672,9.082"
       style="fill:#0000ff;fill-opacity:0.341176;fill-rule:nonzero;stroke:none"
       transform="scale(1.3333333)" />
    <path
       id="path37"
       d="m 158.774,18.047 9.682,9.082"
       style="fill:none;stroke:#499ece;stroke-width:1.61044;stroke-linecap:butt;stroke-linejoin:miter;stroke-miterlimit:4;stroke-dasharray:none;stroke-opacity:1"
       transform="scale(1.331916,1.3333333)" />
    <text
       id="text37"
       xml:space="preserve"
       transform="matrix(1.3333333,0,0,1.7223144,184.57341,70.869104)"><tspan
         id="tspan37"
         style="font-variant:normal;font-weight:700;font-size:12.6758px;font-family:'Helvetica Neue LT Std';writing-mode:lr-tb;fill:#4fa7d8;fill-opacity:0.996078;fill-rule:nonzero;stroke:none"
         x="0"
         y="0">P</tspan></text>
    <text
       id="text38"
       xml:space="preserve"
       transform="matrix(1.3333333,0,0,1.7223144,195.84638,70.869104)"><tspan
         id="tspan38"
         style="font-variant:normal;font-weight:700;font-size:12.6758px;font-family:'Helvetica Neue LT Std';writing-mode:lr-tb;fill:#4fa7d8;fill-opacity:0.996078;fill-rule:nonzero;stroke:none"
         x="0"
         y="0">D</tspan></text>
    <text
       id="text39"
       xml:space="preserve"
       transform="matrix(1.3333333,0,0,1.7223144,208.37001,70.869104)"><tspan
         id="tspan39"
         style="font-variant:normal;font-weight:700;font-size:12.6758px;font-family:'Helvetica Neue LT Std';writing-mode:lr-tb;fill:#4fa7d8;fill-opacity:0.996078;fill-rule:nonzero;stroke:none"
         x="0"
         y="0">F</tspan></text>
    <path
       id="path39"
       d="m 55.453,32.352 h 62.43 V 49.7 h -62.43 z"
       style="fill:none;stroke:#87878c;stroke-width:0.790596;stroke-linecap:butt;stroke-linejoin:miter;stroke-miterlimit:4;stroke-dasharray:none;stroke-opacity:1"
       transform="scale(1.331916,1.3333333)" />
    <text
       id="text40"
       xml:space="preserve"
       transform="matrix(1.3333333,0,0,1.334752,76.959445,59.857896)"><tspan
         id="tspan40"
         style="font-variant:normal;font-weight:700;font-size:12.0001px;font-family:'Helvetica Neue LT Std';writing-mode:lr-tb;fill:#000000;fill-opacity:1;fill-rule:nonzero;stroke:none"
         x="0"
         dx="0 0 0 0 0 0 -1.3320103"
         y="0">PDFLaTeX</tspan></text>
    <path
       id="path40"
       d="m 117.672,40.773 c 15.172,0 15.172,0 15.172,0"
       style="fill:none;stroke:#87878c;stroke-width:0.939984;stroke-linecap:butt;stroke-linejoin:miter;stroke-miterlimit:4;stroke-dasharray:none;stroke-opacity:1"
       transform="scale(1.331916,1.3333333)" />
    <path
       id="path41"
       d="m 128.25,38.219 7.203,2.629 -7.203,2.636 c 1.305,-1.539 1.305,-3.726 0,-5.265 z"
       style="fill:#87878c;fill-opacity:1;fill-rule:evenodd;stroke:none"
       transform="scale(1.3333333)" />
  </g>
</svg>
