<?xml version="1.0" encoding="UTF-8" standalone="no"?>
<!-- Created with Inkscape (http://www.inkscape.org/) -->

<svg
   version="1.1"
   id="svg1"
   width="89.368385"
   height="101.52818"
   viewBox="0 0 89.368383 101.52818"
   xmlns="http://www.w3.org/2000/svg"
   xmlns:svg="http://www.w3.org/2000/svg">
  <defs
     id="defs1" />
  <g
     id="g1"
     transform="translate(19.052574,-14.498163)">
    <path
       id="path1"
       d="M -0.71325442,86.652313 16.562489,34.821153 51.117905,103.92806 -0.71325442,86.652313"
       style="fill:none;stroke:#000000;stroke-width:4.31926;stroke-linecap:square;stroke-linejoin:miter;stroke-miterlimit:3.25;stroke-dasharray:none;stroke-opacity:1" />
    <path
       id="path2"
       d="M -0.71325442,86.652313 16.562489,34.821153 51.117905,103.92806 Z"
       style="fill:#edecec;fill-opacity:1;fill-rule:nonzero;stroke:#edecec;stroke-width:0.0294774;stroke-linecap:square;stroke-linejoin:miter;stroke-miterlimit:3.25;stroke-dasharray:none;stroke-opacity:1" />
    <path
       id="path3"
       d="m 3.2170705,86.52949 c 0,-1.139794 -0.4529699,-2.233407 -1.2586866,-3.040106 -0.8066991,-0.805716 -1.90031205,-1.258686 -3.0401063,-1.258686 -1.1397942,0 -2.2334071,0.45297 -3.0401063,1.258686 -0.8057166,0.806699 -1.2586866,1.900312 -1.2586866,3.040106 0,1.139795 0.45297,2.233408 1.2586866,3.040107 0.8066992,0.805716 1.9003121,1.258686 3.0401063,1.258686 1.13979425,0 2.2334072,-0.45297 3.0401063,-1.258686 0.8057167,-0.806699 1.2586866,-1.900312 1.2586866,-3.040107 z"
       style="fill:#000000;fill-opacity:1;fill-rule:evenodd;stroke:none;stroke-width:0.982581" />
    <path
       id="path4"
       d="m 20.903533,34.452685 c 0,-1.139794 -0.45297,-2.233407 -1.258687,-3.040106 -0.806699,-0.805717 -1.900312,-1.258687 -3.040106,-1.258687 -1.139794,0 -2.233407,0.45297 -3.040107,1.258687 -0.805716,0.806699 -1.258686,1.900312 -1.258686,3.040106 0,1.139795 0.45297,2.233407 1.258686,3.040107 0.8067,0.805716 1.900313,1.258686 3.040107,1.258686 1.139794,0 2.233407,-0.45297 3.040106,-1.258686 0.805717,-0.8067 1.258687,-1.900312 1.258687,-3.040107 z"
       style="fill:#000000;fill-opacity:1;fill-rule:evenodd;stroke:none;stroke-width:0.982581" />
    <path
       id="path5"
       d="m 55.293876,104.21595 c 0,-1.13979 -0.45297,-2.2334 -1.258687,-3.0401 -0.806699,-0.80572 -1.900312,-1.25869 -3.040106,-1.25869 -1.139794,0 -2.233407,0.45297 -3.040107,1.25869 -0.805716,0.8067 -1.258686,1.90031 -1.258686,3.0401 0,1.1398 0.45297,2.23341 1.258686,3.04011 0.8067,0.80572 1.900313,1.25869 3.040107,1.25869 1.139794,0 2.233407,-0.45297 3.040106,-1.25869 0.805717,-0.8067 1.258687,-1.90031 1.258687,-3.04011 z"
       style="fill:#000000;fill-opacity:1;fill-rule:evenodd;stroke:none;stroke-width:0.982581" />
    <path
       id="path6"
       d="m 38.589995,86.52949 c 0,-1.139794 -0.45297,-2.233407 -1.258687,-3.040106 -0.806699,-0.805716 -1.900312,-1.258686 -3.040106,-1.258686 -1.139794,0 -2.233407,0.45297 -3.040106,1.258686 -0.805717,0.806699 -1.258687,1.900312 -1.258687,3.040106 0,1.139795 0.45297,2.233408 1.258687,3.040107 0.806699,0.805716 1.900312,1.258686 3.040106,1.258686 1.139794,0 2.233407,-0.45297 3.040106,-1.258686 0.805717,-0.806699 1.258687,-1.900312 1.258687,-3.040107 z"
       style="fill:#ff00ff;fill-opacity:1;fill-rule:evenodd;stroke:none;stroke-width:0.982581" />
    <text
       xml:space="preserve"
       style="font-style:normal;font-variant:normal;font-weight:bold;font-stretch:normal;font-size:19.0699px;line-height:normal;font-family:'Times New Roman';-inkscape-font-specification:'Times New Roman,  Bold';text-decoration-color:#000000;fill:#000000;stroke-width:1.728;-inkscape-stroke:none;stop-color:#000000"
       x="-19.201557"
       y="88.943748"
       id="text6"><tspan
         id="tspan6"
         x="-19.201557"
         y="88.943748"
         style="font-style:normal;font-variant:normal;font-weight:bold;font-stretch:normal;font-family:'Times New Roman';-inkscape-font-specification:'Times New Roman,  Bold';stroke-width:1.728">A</tspan></text>
    <text
       xml:space="preserve"
       style="font-style:normal;font-variant:normal;font-weight:bold;font-stretch:normal;font-size:19.0699px;line-height:normal;font-family:'Times New Roman';-inkscape-font-specification:'Times New Roman,  Bold';text-decoration-color:#000000;fill:#000000;stroke-width:1.728;-inkscape-stroke:none;stop-color:#000000"
       x="20.062069"
       y="27.124523"
       id="text6-5"><tspan
         id="tspan6-0"
         x="20.062069"
         y="27.124523"
         style="font-style:normal;font-variant:normal;font-weight:bold;font-stretch:normal;font-family:'Times New Roman';-inkscape-font-specification:'Times New Roman,  Bold';stroke-width:1.728">B</tspan></text>
    <text
       xml:space="preserve"
       style="font-style:normal;font-variant:normal;font-weight:bold;font-stretch:normal;font-size:19.0699px;line-height:normal;font-family:'Times New Roman';-inkscape-font-specification:'Times New Roman,  Bold';text-decoration-color:#000000;fill:#000000;stroke-width:1.728;-inkscape-stroke:none;stop-color:#000000"
       x="57.587025"
       y="115.73769"
       id="text6-3"><tspan
         id="tspan6-2"
         x="57.587025"
         y="115.73769"
         style="font-style:normal;font-variant:normal;font-weight:bold;font-stretch:normal;font-family:'Times New Roman';-inkscape-font-specification:'Times New Roman,  Bold';stroke-width:1.728">C</tspan></text>
    <text
       xml:space="preserve"
       style="font-style:normal;font-variant:normal;font-weight:bold;font-stretch:normal;font-size:19.0699px;line-height:normal;font-family:'Times New Roman';-inkscape-font-specification:'Times New Roman,  Bold';text-decoration-color:#000000;fill:#000000;stroke-width:1.728;-inkscape-stroke:none;stop-color:#000000"
       x="20.062071"
       y="84.090126"
       id="text6-54"><tspan
         id="tspan6-7"
         x="20.062071"
         y="84.090126"
         style="font-style:normal;font-variant:normal;font-weight:bold;font-stretch:normal;font-family:'Times New Roman';-inkscape-font-specification:'Times New Roman,  Bold';stroke-width:1.728">P</tspan></text>
  </g>
</svg>
