<?xml version="1.0" encoding="UTF-8" standalone="no"?>
<!-- Created with Inkscape (http://www.inkscape.org/) -->

<svg
   width="191.07939mm"
   height="71.753609mm"
   viewBox="0 0 191.07939 71.75361"
   version="1.1"
   id="svg828"
   inkscape:version="0.92.3 (2405546, 2018-03-11)"
   sodipodi:docname="sumaRiemann.svg"
   xmlns:inkscape="http://www.inkscape.org/namespaces/inkscape"
   xmlns:sodipodi="http://sodipodi.sourceforge.net/DTD/sodipodi-0.dtd"
   xmlns:xlink="http://www.w3.org/1999/xlink"
   xmlns="http://www.w3.org/2000/svg"
   xmlns:svg="http://www.w3.org/2000/svg"
   xmlns:rdf="http://www.w3.org/1999/02/22-rdf-syntax-ns#"
   xmlns:cc="http://creativecommons.org/ns#"
   xmlns:dc="http://purl.org/dc/elements/1.1/"
   xmlns:ns0="http://www.iki.fi/pav/software/textext/">
  <sodipodi:namedview
     id="base"
     pagecolor="#ffffff"
     bordercolor="#666666"
     borderopacity="1.0"
     inkscape:pageopacity="0.0"
     inkscape:pageshadow="2"
     inkscape:zoom="0.73"
     inkscape:cx="815.99436"
     inkscape:cy="99.017327"
     inkscape:document-units="mm"
     inkscape:current-layer="layer1"
     showgrid="false"
     inkscape:window-width="1850"
     inkscape:window-height="1016"
     inkscape:window-x="70"
     inkscape:window-y="27"
     inkscape:window-maximized="1"
     showguides="true"
     inkscape:guide-bbox="true"
     fit-margin-top="0"
     fit-margin-left="0"
     fit-margin-right="0"
     fit-margin-bottom="0"
     inkscape:snap-global="false"
     inkscape:showpageshadow="2"
     inkscape:pagecheckerboard="0"
     inkscape:deskcolor="#d1d1d1">
    <inkscape:page
       x="0"
       y="0"
       width="191.07939"
       height="71.753609"
       id="page2"
       margin="0"
       bleed="0" />
  </sodipodi:namedview>
  <defs
     id="defs822">
    <marker
       inkscape:stockid="Arrow1Mend"
       orient="auto"
       refY="0"
       refX="0"
       id="marker8939"
       style="overflow:visible"
       inkscape:isstock="true">
      <path
         id="path8937"
         d="M 0,0 5,-5 -12.5,0 5,5 Z"
         style="fill:#000000;fill-opacity:1;fill-rule:evenodd;stroke:#000000;stroke-width:1pt;stroke-opacity:1"
         transform="matrix(-0.4,0,0,-0.4,-4,0)"
         inkscape:connector-curvature="0" />
    </marker>
    <marker
       inkscape:stockid="Arrow1Mstart"
       orient="auto"
       refY="0"
       refX="0"
       id="Arrow1Mstart"
       style="overflow:visible"
       inkscape:isstock="true">
      <path
         id="path1381"
         d="M 0,0 5,-5 -12.5,0 5,5 Z"
         style="fill:#000000;fill-opacity:1;fill-rule:evenodd;stroke:#000000;stroke-width:1pt;stroke-opacity:1"
         transform="matrix(0.4,0,0,0.4,4,0)"
         inkscape:connector-curvature="0" />
    </marker>
    <marker
       inkscape:stockid="Arrow1Mend"
       orient="auto"
       refY="0"
       refX="0"
       id="Arrow1Mend"
       style="overflow:visible"
       inkscape:isstock="true">
      <path
         inkscape:connector-curvature="0"
         id="path1384"
         d="M 0,0 5,-5 -12.5,0 5,5 Z"
         style="fill:#8dd35f;fill-opacity:1;fill-rule:evenodd;stroke:#000000;stroke-width:1pt;stroke-opacity:1"
         transform="matrix(-0.4,0,0,-0.4,-4,0)" />
    </marker>
    <defs
       id="defs3671">
      <g
         id="g3669">
        <symbol
           id="textext-c0ef3d79-0"
           overflow="visible"
           style="overflow:visible">
          <path
             id="path3621"
             d=""
             style="stroke:none"
             inkscape:connector-curvature="0" />
        </symbol>
        <symbol
           id="textext-c0ef3d79-1"
           overflow="visible"
           style="overflow:visible">
          <path
             id="path3624"
             d="m 4.625,-1.09375 c -0.15625,0.140625 -0.203125,0.203125 -0.28125,0.28125 -0.296875,0.296875 -0.421875,0.40625 -0.515625,0.40625 -0.078125,0 -0.140625,-0.0625 -0.140625,-0.125 0,-0.203125 0.421875,-1.90625 0.890625,-3.625 0.03125,-0.09375 0.03125,-0.125 0.0625,-0.203125 L 4.5625,-4.390625 3.953125,-4.328125 3.921875,-4.296875 3.8125,-3.8125 c -0.078125,-0.375 -0.359375,-0.578125 -0.796875,-0.578125 -1.3125,0 -2.84375,1.8125 -2.84375,3.390625 0,0.703125 0.375,1.109375 1.015625,1.109375 0.703125,0 1.125,-0.328125 2,-1.5625 -0.203125,0.78125 -0.234375,0.90625 -0.234375,1.140625 0,0.296875 0.125,0.40625 0.40625,0.40625 C 3.765625,0.09375 4,-0.09375 4.75,-1 Z M 3.078125,-4.171875 c 0.34375,0.015625 0.5625,0.25 0.5625,0.609375 0,0.828125 -0.5,2 -1.1875,2.75 C 2.21875,-0.546875 1.875,-0.375 1.578125,-0.375 1.234375,-0.375 1,-0.671875 1,-1.125 1,-1.671875 1.390625,-2.6875 1.8125,-3.3125 2.21875,-3.890625 2.6875,-4.203125 3.078125,-4.171875 Z m 0,0"
             style="stroke:none"
             inkscape:connector-curvature="0" />
        </symbol>
        <symbol
           id="textext-c0ef3d79-2"
           overflow="visible"
           style="overflow:visible">
          <path
             id="path3627"
             d="M 4,-1.109375 C 3.921875,-1.015625 3.875,-0.953125 3.78125,-0.84375 3.5625,-0.53125 3.4375,-0.4375 3.328125,-0.4375 3.1875,-0.4375 3.09375,-0.5625 3.015625,-0.84375 3,-0.921875 2.984375,-0.984375 2.984375,-1.015625 2.734375,-2.03125 2.625,-2.484375 2.625,-2.625 c 0.4375,-0.78125 0.796875,-1.21875 0.96875,-1.21875 0.0625,0 0.140625,0.03125 0.25,0.078125 0.109375,0.078125 0.1875,0.09375 0.265625,0.09375 0.203125,0 0.34375,-0.140625 0.34375,-0.359375 0,-0.203125 -0.171875,-0.359375 -0.40625,-0.359375 -0.4375,0 -0.8125,0.359375 -1.5,1.421875 L 2.4375,-3.515625 c -0.140625,-0.6875 -0.25,-0.875 -0.53125,-0.875 -0.21875,0 -0.546875,0.078125 -1.15625,0.28125 L 0.640625,-4.0625 0.671875,-3.921875 C 1.0625,-4 1.140625,-4.03125 1.234375,-4.03125 c 0.25,0 0.3125,0.09375 0.453125,0.6875 l 0.28125,1.234375 -0.8125,1.15625 C 0.953125,-0.640625 0.75,-0.46875 0.640625,-0.46875 0.59375,-0.46875 0.484375,-0.5 0.390625,-0.5625 0.265625,-0.625 0.15625,-0.65625 0.0625,-0.65625 c -0.1875,0 -0.328125,0.140625 -0.328125,0.34375 0,0.265625 0.203125,0.421875 0.5,0.421875 0.296875,0 0.421875,-0.09375 0.921875,-0.703125 0.265625,-0.3125 0.484375,-0.578125 0.890625,-1.15625 l 0.3125,1.1875 c 0.125,0.515625 0.25,0.671875 0.578125,0.671875 0.375,0 0.625,-0.234375 1.203125,-1.140625 z m 0,0"
             style="stroke:none"
             inkscape:connector-curvature="0" />
        </symbol>
        <symbol
           id="textext-c0ef3d79-3"
           overflow="visible"
           style="overflow:visible">
          <path
             id="path3630"
             d="M 1.09375,-6.40625 C 1.6875,-6.390625 1.75,-6.359375 1.75,-6.140625 c 0,0.09375 -0.03125,0.203125 -0.09375,0.421875 -0.015625,0.078125 -0.046875,0.140625 -0.046875,0.203125 l -0.03125,0.0625 -1.34375,5 v 0.03125 c 0,0.234375 0.765625,0.53125 1.328125,0.53125 1.5,0 3.15625,-1.75 3.15625,-3.3125 0,-0.6875 -0.484375,-1.1875 -1.15625,-1.1875 -0.703125,0 -1.21875,0.40625 -1.921875,1.5 0.515625,-1.890625 0.578125,-2.15625 1.03125,-3.875 L 2.625,-6.8125 c -0.5,0.09375 -0.859375,0.15625 -1.53125,0.234375 z m 2.078125,2.5 c 0.421875,0 0.703125,0.328125 0.703125,0.859375 0,0.65625 -0.515625,1.71875 -1.109375,2.34375 -0.359375,0.375 -0.796875,0.578125 -1.21875,0.578125 -0.3125,0 -0.453125,-0.109375 -0.453125,-0.328125 0,-0.609375 0.296875,-1.578125 0.703125,-2.3125 C 2.25,-3.53125 2.6875,-3.90625 3.171875,-3.90625 Z m 0,0"
             style="stroke:none"
             inkscape:connector-curvature="0" />
        </symbol>
        <symbol
           id="textext-c0ef3d79-4"
           overflow="visible"
           style="overflow:visible">
          <path
             id="path3633"
             d=""
             style="stroke:none"
             inkscape:connector-curvature="0" />
        </symbol>
        <symbol
           id="textext-c0ef3d79-5"
           overflow="visible"
           style="overflow:visible">
          <path
             id="path3636"
             d="m 6.84375,-3.265625 c 0.15625,0 0.34375,0 0.34375,-0.1875 C 7.1875,-3.65625 7,-3.65625 6.859375,-3.65625 h -5.96875 c -0.140625,0 -0.328125,0 -0.328125,0.203125 0,0.1875 0.1875,0.1875 0.328125,0.1875 z m 0.015625,1.9375 c 0.140625,0 0.328125,0 0.328125,-0.203125 0,-0.1875 -0.1875,-0.1875 -0.34375,-0.1875 H 0.890625 c -0.140625,0 -0.328125,0 -0.328125,0.1875 0,0.203125 0.1875,0.203125 0.328125,0.203125 z m 0,0"
             style="stroke:none"
             inkscape:connector-curvature="0" />
        </symbol>
        <symbol
           id="textext-c0ef3d79-6"
           overflow="visible"
           style="overflow:visible">
          <path
             id="path3639"
             d=""
             style="stroke:none"
             inkscape:connector-curvature="0" />
        </symbol>
        <symbol
           id="textext-c0ef3d79-7"
           overflow="visible"
           style="overflow:visible">
          <path
             id="path3642"
             d="m 1.875,-4.984375 c -0.40625,0 -0.71875,0.125 -0.984375,0.375 -0.4375,0.421875 -0.71875,1.265625 -0.71875,2.125 0,0.8125 0.25,1.671875 0.59375,2.09375 0.28125,0.3125 0.65625,0.5 1.078125,0.5 0.375,0 0.6875,-0.125 0.953125,-0.390625 0.4375,-0.40625 0.71875,-1.265625 0.71875,-2.15625 0,-1.515625 -0.671875,-2.546875 -1.640625,-2.546875 z m -0.03125,0.1875 c 0.625,0 0.953125,0.84375 0.953125,2.375 0,1.546875 -0.3125,2.328125 -0.953125,2.328125 -0.640625,0 -0.953125,-0.78125 -0.953125,-2.3125 0,-1.5625 0.328125,-2.390625 0.953125,-2.390625 z m 0,0"
             style="stroke:none"
             inkscape:connector-curvature="0" />
        </symbol>
        <symbol
           id="textext-c0ef3d79-8"
           overflow="visible"
           style="overflow:visible">
          <path
             id="path3645"
             d="M 2.140625,-4.984375 0.8125,-4.3125 v 0.09375 C 0.90625,-4.25 0.984375,-4.28125 1.015625,-4.296875 1.15625,-4.34375 1.28125,-4.375 1.34375,-4.375 c 0.15625,0 0.234375,0.109375 0.234375,0.34375 v 3.34375 c 0,0.25 -0.0625,0.421875 -0.1875,0.484375 C 1.28125,-0.140625 1.1875,-0.125 0.875,-0.109375 V 0 H 2.90625 V -0.109375 C 2.328125,-0.125 2.203125,-0.1875 2.203125,-0.546875 V -4.96875 Z m 0,0"
             style="stroke:none"
             inkscape:connector-curvature="0" />
        </symbol>
        <symbol
           id="textext-c0ef3d79-9"
           overflow="visible"
           style="overflow:visible">
          <path
             id="path3648"
             d=""
             style="stroke:none"
             inkscape:connector-curvature="0" />
        </symbol>
        <symbol
           id="textext-c0ef3d79-10"
           overflow="visible"
           style="overflow:visible">
          <path
             id="path3651"
             d="m 3.046875,-0.796875 -0.109375,0.1875 c -0.125,0.21875 -0.21875,0.3125 -0.328125,0.3125 -0.15625,0 -0.3125,-0.25 -0.59375,-0.953125 -0.046875,-0.09375 -0.15625,-0.359375 -0.28125,-0.65625 1.09375,-0.96875 1.3125,-1.109375 1.671875,-1.125 v -0.125 H 2.046875 v 0.125 h 0.125 c 0.1875,0 0.28125,0.046875 0.28125,0.125 0,0.140625 -0.359375,0.515625 -1.046875,1.03125 -0.109375,0.078125 -0.203125,0.15625 -0.328125,0.25 L 1.96875,-5 1.9375,-5.03125 C 1.5,-4.9375 1.21875,-4.890625 0.78125,-4.84375 v 0.125 c 0.359375,-0.015625 0.5,0.046875 0.5,0.1875 -0.015625,0.125 -0.0625,0.3125 -0.15625,0.65625 -0.03125,0.109375 -0.0625,0.1875 -0.078125,0.25 v 0.0625 L 0.109375,0 H 0.65625 L 1.015625,-1.328125 1.3125,-1.5625 c 0.125,0.328125 0.3125,0.765625 0.453125,1.03125 C 2,-0.0625 2.125,0.078125 2.34375,0.078125 c 0.296875,0 0.484375,-0.1875 0.8125,-0.796875 z m 0,0"
             style="stroke:none"
             inkscape:connector-curvature="0" />
        </symbol>
        <symbol
           id="textext-c0ef3d79-11"
           overflow="visible"
           style="overflow:visible">
          <path
             id="path3654"
             d="m 3.390625,-0.859375 -0.15625,0.1875 c -0.203125,0.28125 -0.34375,0.390625 -0.453125,0.390625 -0.046875,0 -0.109375,-0.0625 -0.109375,-0.109375 0,-0.0625 0,-0.0625 0.09375,-0.46875 L 3.1875,-2.375 c 0.046875,-0.15625 0.078125,-0.328125 0.078125,-0.421875 0,-0.265625 -0.203125,-0.453125 -0.5,-0.453125 -0.46875,0 -0.921875,0.4375 -1.6875,1.625 l 0.5,-1.609375 L 1.546875,-3.25 C 1.15625,-3.171875 1,-3.140625 0.359375,-3.03125 v 0.125 c 0.375,0.015625 0.46875,0.046875 0.46875,0.203125 0,0.046875 -0.015625,0.078125 -0.015625,0.125 L 0.109375,0 H 0.65625 C 1,-1.171875 1.0625,-1.328125 1.390625,-1.828125 1.84375,-2.5 2.21875,-2.875 2.484375,-2.875 c 0.109375,0 0.171875,0.078125 0.171875,0.21875 0,0.078125 -0.03125,0.328125 -0.09375,0.546875 l -0.328125,1.21875 c -0.09375,0.375 -0.125,0.484375 -0.125,0.5625 0,0.28125 0.109375,0.390625 0.359375,0.390625 0.328125,0 0.515625,-0.15625 1.03125,-0.828125 z m 0,0"
             style="stroke:none"
             inkscape:connector-curvature="0" />
        </symbol>
        <symbol
           id="textext-c0ef3d79-12"
           overflow="visible"
           style="overflow:visible">
          <path
             id="path3657"
             d=""
             style="stroke:none"
             inkscape:connector-curvature="0" />
        </symbol>
        <symbol
           id="textext-c0ef3d79-13"
           overflow="visible"
           style="overflow:visible">
          <path
             id="path3660"
             d="m 4.859375,-1.703125 c 0.125,0 0.265625,0 0.265625,-0.140625 0,-0.140625 -0.140625,-0.140625 -0.265625,-0.140625 H 0.875 c -0.125,0 -0.265625,0 -0.265625,0.140625 0,0.140625 0.140625,0.140625 0.265625,0.140625 z m 0,0"
             style="stroke:none"
             inkscape:connector-curvature="0" />
        </symbol>
        <symbol
           id="textext-c0ef3d79-14"
           overflow="visible"
           style="overflow:visible">
          <path
             id="path3663"
             d=""
             style="stroke:none"
             inkscape:connector-curvature="0" />
        </symbol>
        <symbol
           id="textext-c0ef3d79-15"
           overflow="visible"
           style="overflow:visible">
          <path
             id="path3666"
             d="M 3,-7.609375 C 2.90625,-7.625 2.828125,-7.640625 2.78125,-7.640625 2.328125,-7.640625 1.890625,-7.28125 1.8125,-6.875 1.75,-6.5 1.921875,-6.28125 2.375,-6.140625 2.109375,-5.90625 1.921875,-5.609375 1.859375,-5.28125 c -0.0625,0.390625 0.046875,0.703125 0.375,1.0625 C 1.84375,-3.953125 1.65625,-3.8125 1.453125,-3.609375 1.015625,-3.1875 0.703125,-2.578125 0.609375,-2 0.46875,-1.21875 0.75,-0.484375 1.3125,-0.1875 c 0.296875,0.15625 0.65625,0.21875 1.265625,0.21875 0.1875,0 0.40625,-0.015625 0.875,-0.03125 0.390625,-0.015625 0.65625,0.265625 0.59375,0.65625 -0.0625,0.375 -0.375,0.65625 -0.75,0.65625 C 3.25,1.3125 3.0625,1.296875 2.875,1.25 2.640625,1.21875 2.5625,1.21875 2.46875,1.21875 c -0.25,0 -0.4375,0.171875 -0.484375,0.421875 -0.0625,0.328125 0.234375,0.578125 0.734375,0.578125 0.46875,0 0.84375,-0.203125 1.25,-0.640625 C 4.3125,1.203125 4.546875,0.75 4.625,0.296875 4.703125,-0.15625 4.59375,-0.515625 4.3125,-0.75 4.109375,-0.921875 3.890625,-0.984375 3.453125,-0.984375 h -0.875 c -0.421875,0 -0.75,-0.03125 -0.921875,-0.109375 C 1.265625,-1.28125 1.046875,-1.75 1.140625,-2.265625 1.25,-2.984375 1.78125,-3.578125 2.703125,-4.0625 c 0.25,0.109375 0.453125,0.140625 0.765625,0.140625 0.78125,0 1.296875,-0.21875 1.359375,-0.5625 C 4.859375,-4.71875 4.625,-4.84375 4.1875,-4.84375 c -0.390625,0 -0.765625,0.109375 -1.515625,0.421875 C 2.296875,-4.734375 2.1875,-4.9375 2.25,-5.25 2.296875,-5.5625 2.53125,-5.859375 2.953125,-6.140625 3.453125,-6.15625 3.796875,-6.21875 4.09375,-6.359375 4.453125,-6.53125 4.71875,-6.78125 4.75,-7.015625 4.796875,-7.203125 4.640625,-7.3125 4.359375,-7.3125 c -0.359375,0 -0.8125,0.234375 -1.53125,0.796875 -0.328125,0 -0.5,-0.1875 -0.453125,-0.453125 0.03125,-0.21875 0.234375,-0.375 0.59375,-0.46875 z m 0,0"
             style="stroke:none"
             inkscape:connector-curvature="0" />
        </symbol>
      </g>
    </defs>
    <marker
       inkscape:stockid="Arrow1Mend"
       orient="auto"
       refY="0"
       refX="0"
       id="Arrow1Mend-0"
       style="overflow:visible"
       inkscape:isstock="true">
      <path
         inkscape:connector-curvature="0"
         id="path1384-9"
         d="M 0,0 5,-5 -12.5,0 5,5 Z"
         style="fill:#000000;fill-opacity:1;fill-rule:evenodd;stroke:#000000;stroke-width:1pt;stroke-opacity:1"
         transform="matrix(-0.4,0,0,-0.4,-4,0)" />
    </marker>
    <defs
       id="defs8556">
      <g
         id="g8554">
        <symbol
           style="overflow:visible"
           overflow="visible"
           id="textext-5e4f410d-0">
          <path
             inkscape:connector-curvature="0"
             style="stroke:none"
             d=""
             id="path8512" />
        </symbol>
        <symbol
           style="overflow:visible"
           overflow="visible"
           id="textext-5e4f410d-1">
          <path
             inkscape:connector-curvature="0"
             style="stroke:none"
             d="M 0.34375,-3.953125 H 1.25 l -0.875,4.1875 c -0.21875,1.078125 -0.546875,1.625 -0.96875,1.625 -0.125,0 -0.203125,-0.078125 -0.203125,-0.171875 0,-0.015625 0.015625,-0.046875 0.046875,-0.109375 0.03125,-0.046875 0.046875,-0.09375 0.046875,-0.15625 0,-0.203125 -0.1875,-0.375 -0.390625,-0.375 -0.21875,0 -0.375,0.171875 -0.375,0.40625 0,0.34375 0.359375,0.609375 0.796875,0.609375 0.875,0 1.578125,-0.984375 1.984375,-2.8125 L 2.03125,-3.953125 H 3.125 l 0.0625,-0.3125 H 2.109375 c 0.28125,-1.5625 0.65625,-2.28125 1.203125,-2.28125 0.140625,0 0.21875,0.0625 0.21875,0.125 0,0.03125 0,0.046875 -0.03125,0.109375 -0.046875,0.078125 -0.0625,0.125 -0.0625,0.203125 0,0.234375 0.15625,0.390625 0.375,0.390625 0.21875,0 0.421875,-0.171875 0.421875,-0.390625 0,-0.375 -0.375,-0.65625 -0.859375,-0.65625 -0.5,0 -0.875,0.21875 -1.234375,0.6875 -0.3125,0.390625 -0.5,0.859375 -0.8125,1.8125 h -0.90625 z m 0,0"
             id="path8515" />
        </symbol>
        <symbol
           style="overflow:visible"
           overflow="visible"
           id="textext-5e4f410d-2">
          <path
             inkscape:connector-curvature="0"
             style="stroke:none"
             d="M 4,-1.109375 C 3.921875,-1.015625 3.875,-0.953125 3.78125,-0.84375 3.5625,-0.53125 3.4375,-0.4375 3.328125,-0.4375 3.1875,-0.4375 3.09375,-0.5625 3.015625,-0.84375 3,-0.921875 2.984375,-0.984375 2.984375,-1.015625 2.734375,-2.03125 2.625,-2.484375 2.625,-2.625 c 0.4375,-0.78125 0.796875,-1.21875 0.96875,-1.21875 0.0625,0 0.140625,0.03125 0.25,0.078125 0.109375,0.078125 0.1875,0.09375 0.265625,0.09375 0.203125,0 0.34375,-0.140625 0.34375,-0.359375 0,-0.203125 -0.171875,-0.359375 -0.40625,-0.359375 -0.4375,0 -0.8125,0.359375 -1.5,1.421875 L 2.4375,-3.515625 c -0.140625,-0.6875 -0.25,-0.875 -0.53125,-0.875 -0.21875,0 -0.546875,0.078125 -1.15625,0.28125 L 0.640625,-4.0625 0.671875,-3.921875 C 1.0625,-4 1.140625,-4.03125 1.234375,-4.03125 c 0.25,0 0.3125,0.09375 0.453125,0.6875 l 0.28125,1.234375 -0.8125,1.15625 C 0.953125,-0.640625 0.75,-0.46875 0.640625,-0.46875 0.59375,-0.46875 0.484375,-0.5 0.390625,-0.5625 0.265625,-0.625 0.15625,-0.65625 0.0625,-0.65625 c -0.1875,0 -0.328125,0.140625 -0.328125,0.34375 0,0.265625 0.203125,0.421875 0.5,0.421875 0.296875,0 0.421875,-0.09375 0.921875,-0.703125 0.265625,-0.3125 0.484375,-0.578125 0.890625,-1.15625 l 0.3125,1.1875 c 0.125,0.515625 0.25,0.671875 0.578125,0.671875 0.375,0 0.625,-0.234375 1.203125,-1.140625 z m 0,0"
             id="path8518" />
        </symbol>
        <symbol
           style="overflow:visible"
           overflow="visible"
           id="textext-5e4f410d-3">
          <path
             inkscape:connector-curvature="0"
             style="stroke:none"
             d="m 0.15625,-3.984375 c 0.125,-0.03125 0.1875,-0.046875 0.296875,-0.046875 0.578125,0 0.71875,0.25 1.1875,1.96875 0.15625,0.640625 0.40625,1.8125 0.40625,1.984375 0,0.15625 -0.0625,0.3125 -0.21875,0.5 -0.296875,0.40625 -0.5,0.671875 -0.609375,0.78125 C 1,1.421875 0.890625,1.5 0.75,1.5 0.703125,1.5 0.625,1.46875 0.515625,1.390625 0.375,1.28125 0.265625,1.21875 0.15625,1.21875 c -0.21875,0 -0.390625,0.171875 -0.390625,0.390625 0,0.25 0.21875,0.4375 0.5,0.4375 0.640625,0 1.953125,-1.484375 3.03125,-3.46875 C 3.96875,-2.640625 4.25,-3.359375 4.25,-3.84375 4.25,-4.140625 4,-4.390625 3.703125,-4.390625 3.46875,-4.390625 3.3125,-4.25 3.3125,-4.03125 c 0,0.15625 0.078125,0.265625 0.28125,0.390625 0.1875,0.109375 0.25,0.203125 0.25,0.34375 0,0.390625 -0.359375,1.171875 -1.21875,2.578125 L 2.4375,-1.875 C 2.28125,-2.75 1.71875,-4.390625 1.578125,-4.390625 H 1.53125 c 0,0 -0.046875,0 -0.078125,0 C 1.359375,-4.375 1,-4.3125 0.46875,-4.21875 c -0.046875,0.015625 -0.171875,0.046875 -0.3125,0.0625 z m 0,0"
             id="path8521" />
        </symbol>
        <symbol
           style="overflow:visible"
           overflow="visible"
           id="textext-5e4f410d-4">
          <path
             inkscape:connector-curvature="0"
             style="stroke:none"
             d="M 6.53125,-6.515625 H 4.453125 v 0.171875 c 0.484375,0.046875 0.609375,0.125 0.609375,0.359375 0,0.125 -0.0625,0.25 -0.203125,0.40625 l -1.4375,1.65625 -0.59375,-1.46875 C 2.71875,-5.640625 2.6875,-5.8125 2.6875,-5.9375 c 0,-0.25 0.15625,-0.34375 0.703125,-0.40625 V -6.515625 H 0.75 v 0.171875 c 0.578125,0.046875 0.734375,0.140625 0.921875,0.609375 l 1.0625,2.609375 c -0.375,0.421875 -0.703125,0.8125 -0.828125,0.96875 -1.390625,1.640625 -1.671875,1.890625 -2.203125,2 V 0 H 1.84375 V -0.15625 C 1.359375,-0.15625 1.203125,-0.25 1.203125,-0.5 c 0,-0.140625 0.078125,-0.3125 0.203125,-0.46875 l 1.5,-1.71875 0.671875,1.65625 c 0.078125,0.171875 0.109375,0.328125 0.109375,0.484375 0,0.28125 -0.09375,0.34375 -0.75,0.390625 V 0 H 5.65625 V -0.15625 C 4.953125,-0.234375 4.859375,-0.296875 4.609375,-0.890625 L 3.59375,-3.46875 l 1.6875,-1.9375 c 0.515625,-0.578125 0.8125,-0.796875 1.25,-0.9375 z m 0,0"
             id="path8524" />
        </symbol>
        <symbol
           style="overflow:visible"
           overflow="visible"
           id="textext-5e4f410d-5">
          <path
             inkscape:connector-curvature="0"
             style="stroke:none"
             d="M 0.90625,-6.34375 C 1.46875,-6.265625 1.5,-6.234375 1.671875,-5.6875 l 0.765625,2.671875 -0.609375,2.125 C 1.65625,-0.359375 1.4375,-0.203125 0.78125,-0.15625 V 0 h 2.875 V -0.15625 C 3.5,-0.171875 3.359375,-0.171875 3.296875,-0.1875 c -0.390625,-0.015625 -0.53125,-0.125 -0.53125,-0.375 0,-0.203125 0.078125,-0.5 0.3125,-1.28125 C 3.109375,-1.9375 3.125,-2 3.140625,-2.046875 l 0.28125,-1 2.1875,-2.6875 C 5.9375,-6.140625 6.015625,-6.203125 6.3125,-6.34375 V -6.515625 H 4.421875 v 0.171875 c 0.125,0 0.234375,0.015625 0.265625,0.03125 0.296875,0.015625 0.421875,0.109375 0.421875,0.265625 0,0.28125 -0.453125,0.921875 -1.484375,2.125 -0.171875,0.203125 -0.234375,0.28125 -0.390625,0.46875 C 3.125,-3.890625 3.09375,-4.03125 2.9375,-4.5625 2.6875,-5.40625 2.578125,-5.84375 2.578125,-5.984375 c 0,-0.25 0.109375,-0.3125 0.71875,-0.359375 V -6.515625 H 0.90625 Z m 0,0"
             id="path8527" />
        </symbol>
        <symbol
           style="overflow:visible"
           overflow="visible"
           id="textext-5e4f410d-6">
          <path
             inkscape:connector-curvature="0"
             style="stroke:none"
             d=""
             id="path8530" />
        </symbol>
        <symbol
           style="overflow:visible"
           overflow="visible"
           id="textext-5e4f410d-7">
          <path
             inkscape:connector-curvature="0"
             style="stroke:none"
             d="m 3.296875,2.390625 c 0,-0.03125 0,-0.046875 -0.171875,-0.21875 C 1.890625,0.921875 1.5625,-0.96875 1.5625,-2.5 c 0,-1.734375 0.375,-3.46875 1.609375,-4.703125 0.125,-0.125 0.125,-0.140625 0.125,-0.171875 0,-0.078125 -0.03125,-0.109375 -0.09375,-0.109375 -0.109375,0 -1,0.6875 -1.59375,1.953125 -0.5,1.09375 -0.625,2.203125 -0.625,3.03125 0,0.78125 0.109375,1.984375 0.65625,3.125 C 2.25,1.84375 3.09375,2.5 3.203125,2.5 c 0.0625,0 0.09375,-0.03125 0.09375,-0.109375 z m 0,0"
             id="path8533" />
        </symbol>
        <symbol
           style="overflow:visible"
           overflow="visible"
           id="textext-5e4f410d-8">
          <path
             inkscape:connector-curvature="0"
             style="stroke:none"
             d="m 2.875,-2.5 c 0,-0.765625 -0.109375,-1.96875 -0.65625,-3.109375 -0.59375,-1.21875 -1.453125,-1.875 -1.546875,-1.875 -0.0625,0 -0.109375,0.046875 -0.109375,0.109375 0,0.03125 0,0.046875 0.1875,0.234375 0.984375,0.984375 1.546875,2.5625 1.546875,4.640625 0,1.71875 -0.359375,3.46875 -1.59375,4.71875 C 0.5625,2.34375 0.5625,2.359375 0.5625,2.390625 0.5625,2.453125 0.609375,2.5 0.671875,2.5 0.765625,2.5 1.671875,1.8125 2.25,0.546875 2.765625,-0.546875 2.875,-1.65625 2.875,-2.5 Z m 0,0"
             id="path8536" />
        </symbol>
        <symbol
           style="overflow:visible"
           overflow="visible"
           id="textext-5e4f410d-9">
          <path
             inkscape:connector-curvature="0"
             style="stroke:none"
             d="m 6.84375,-3.265625 c 0.15625,0 0.34375,0 0.34375,-0.1875 C 7.1875,-3.65625 7,-3.65625 6.859375,-3.65625 h -5.96875 c -0.140625,0 -0.328125,0 -0.328125,0.203125 0,0.1875 0.1875,0.1875 0.328125,0.1875 z m 0.015625,1.9375 c 0.140625,0 0.328125,0 0.328125,-0.203125 0,-0.1875 -0.1875,-0.1875 -0.34375,-0.1875 H 0.890625 c -0.140625,0 -0.328125,0 -0.328125,0.1875 0,0.203125 0.1875,0.203125 0.328125,0.203125 z m 0,0"
             id="path8539" />
        </symbol>
        <symbol
           style="overflow:visible"
           overflow="visible"
           id="textext-5e4f410d-10">
          <path
             inkscape:connector-curvature="0"
             style="stroke:none"
             d=""
             id="path8542" />
        </symbol>
        <symbol
           style="overflow:visible"
           overflow="visible"
           id="textext-5e4f410d-11">
          <path
             inkscape:connector-curvature="0"
             style="stroke:none"
             d="m 3.046875,-0.796875 -0.109375,0.1875 c -0.125,0.21875 -0.21875,0.3125 -0.328125,0.3125 -0.15625,0 -0.3125,-0.25 -0.59375,-0.953125 -0.046875,-0.09375 -0.15625,-0.359375 -0.28125,-0.65625 1.09375,-0.96875 1.3125,-1.109375 1.671875,-1.125 v -0.125 H 2.046875 v 0.125 h 0.125 c 0.1875,0 0.28125,0.046875 0.28125,0.125 0,0.140625 -0.359375,0.515625 -1.046875,1.03125 -0.109375,0.078125 -0.203125,0.15625 -0.328125,0.25 L 1.96875,-5 1.9375,-5.03125 C 1.5,-4.9375 1.21875,-4.890625 0.78125,-4.84375 v 0.125 c 0.359375,-0.015625 0.5,0.046875 0.5,0.1875 -0.015625,0.125 -0.0625,0.3125 -0.15625,0.65625 -0.03125,0.109375 -0.0625,0.1875 -0.078125,0.25 v 0.0625 L 0.109375,0 H 0.65625 L 1.015625,-1.328125 1.3125,-1.5625 c 0.125,0.328125 0.3125,0.765625 0.453125,1.03125 C 2,-0.0625 2.125,0.078125 2.34375,0.078125 c 0.296875,0 0.484375,-0.1875 0.8125,-0.796875 z m 0,0"
             id="path8545" />
        </symbol>
        <symbol
           style="overflow:visible"
           overflow="visible"
           id="textext-5e4f410d-12">
          <path
             inkscape:connector-curvature="0"
             style="stroke:none"
             d=""
             id="path8548" />
        </symbol>
        <symbol
           style="overflow:visible"
           overflow="visible"
           id="textext-5e4f410d-13">
          <path
             inkscape:connector-curvature="0"
             style="stroke:none"
             d="m 0.0625,0 h 6 L 3.265625,-6.859375 Z m 0.703125,-0.515625 2.125,-4.5625 1.890625,4.5625 z m 0,0"
             id="path8551" />
        </symbol>
      </g>
    </defs>
    <marker
       inkscape:stockid="Arrow1Mstart"
       orient="auto"
       refY="0"
       refX="0"
       id="Arrow1Mstart-7"
       style="overflow:visible"
       inkscape:isstock="true">
      <path
         id="path1381-5"
         d="M 0,0 5,-5 -12.5,0 5,5 Z"
         style="fill:#000000;fill-opacity:1;fill-rule:evenodd;stroke:#000000;stroke-width:1pt;stroke-opacity:1"
         transform="matrix(0.4,0,0,0.4,4,0)"
         inkscape:connector-curvature="0" />
    </marker>
    <marker
       inkscape:stockid="Arrow1Mend"
       orient="auto"
       refY="0"
       refX="0"
       id="marker8939-9"
       style="overflow:visible"
       inkscape:isstock="true">
      <path
         id="path8937-2"
         d="M 0,0 5,-5 -12.5,0 5,5 Z"
         style="fill:#000000;fill-opacity:1;fill-rule:evenodd;stroke:#000000;stroke-width:1pt;stroke-opacity:1"
         transform="matrix(-0.4,0,0,-0.4,-4,0)"
         inkscape:connector-curvature="0" />
    </marker>
  </defs>
  <metadata
     id="metadata825">
    <rdf:RDF>
      <cc:Work
         rdf:about="">
        <dc:format>image/svg+xml</dc:format>
        <dc:type
           rdf:resource="http://purl.org/dc/dcmitype/StillImage" />
      </cc:Work>
    </rdf:RDF>
  </metadata>
  <g
     transform="translate(121.57975,-67.401258)"
     inkscape:label="Layer 1"
     inkscape:groupmode="layer"
     id="layer1">
    <path
       style="fill:#decd87;stroke:#decd87;stroke-width:0.359141;stroke-linecap:butt;stroke-linejoin:miter;stroke-miterlimit:4;stroke-dasharray:none;stroke-opacity:1"
       d="m -47.154384,117.1551 c 0,16.83713 0,16.83713 0,16.83713"
       id="path8875"
       inkscape:connector-curvature="0" />
    <rect
       y="109.02924"
       x="-78.170708"
       height="9.3966084"
       width="13.605889"
       id="rect8205"
       style="opacity:1;fill:#decd87;fill-opacity:1;stroke:#000000;stroke-width:0.209661;stroke-miterlimit:4;stroke-dasharray:none;stroke-dashoffset:0;stroke-opacity:1" />
    <rect
       y="101.3221"
       x="-64.430573"
       height="17.194101"
       width="7.3724489"
       id="rect8205-6"
       style="opacity:1;fill:#decd87;fill-opacity:1;stroke:#000000;stroke-width:0.1855;stroke-miterlimit:4;stroke-dasharray:none;stroke-dashoffset:0;stroke-opacity:1" />
    <rect
       y="97.534325"
       x="-56.95752"
       height="20.889099"
       width="10.065238"
       id="rect8205-6-0"
       style="opacity:1;fill:#decd87;fill-opacity:1;stroke:#000000;stroke-width:0.1855;stroke-miterlimit:4;stroke-dasharray:none;stroke-dashoffset:0;stroke-opacity:1" />
    <rect
       y="96.594597"
       x="-23.32103"
       height="21.966805"
       width="10.060557"
       id="rect8205-6-0-6"
       style="opacity:1;fill:#decd87;fill-opacity:1;stroke:#000000;stroke-width:0.190181;stroke-miterlimit:4;stroke-dasharray:none;stroke-dashoffset:0;stroke-opacity:1" />
    <rect
       y="92.109901"
       x="-32.973106"
       height="26.478365"
       width="10.04213"
       id="rect8205-6-0-6-2"
       style="opacity:1;fill:#decd87;fill-opacity:1;stroke:#000000;stroke-width:0.1855;stroke-miterlimit:4;stroke-dasharray:none;stroke-dashoffset:0;stroke-opacity:1" />
    <rect
       y="93.245361"
       x="-46.614227"
       height="25.049292"
       width="13.423663"
       id="rect8205-6-0-6-6"
       style="opacity:1;fill:#decd87;fill-opacity:1;stroke:#000000;stroke-width:0.2355;stroke-miterlimit:4;stroke-dasharray:none;stroke-dashoffset:0;stroke-opacity:1" />
    <rect
       y="102.85353"
       x="-13.490211"
       height="15.935228"
       width="6.3140187"
       id="rect8205-6-0-6-1"
       style="opacity:1;fill:#decd87;fill-opacity:1;stroke:#000000;stroke-width:0.128323;stroke-miterlimit:4;stroke-dasharray:none;stroke-dashoffset:0;stroke-opacity:1" />
    <rect
       y="118.25819"
       x="-85.113426"
       height="4.368331"
       width="6.7736363"
       id="rect8205-6-0-6-1-8"
       style="opacity:1;fill:#8dd35f;fill-opacity:1;stroke:#000000;stroke-width:0.069589;stroke-miterlimit:4;stroke-dasharray:none;stroke-dashoffset:0;stroke-opacity:1" />
    <rect
       y="118.27253"
       x="-91.513222"
       height="8.7493658"
       width="6.7449489"
       id="rect8205-6-0-6-1-8-7"
       style="opacity:1;fill:#8dd35f;fill-opacity:1;stroke:#000000;stroke-width:0.0982765;stroke-miterlimit:4;stroke-dasharray:none;stroke-dashoffset:0;stroke-opacity:1" />
    <rect
       y="118.28167"
       x="-98.319107"
       height="12.339046"
       width="6.726675"
       id="rect8205-6-0-6-1-8-7-9"
       style="opacity:1;fill:#8dd35f;fill-opacity:1;stroke:#000000;stroke-width:0.11655;stroke-miterlimit:4;stroke-dasharray:none;stroke-dashoffset:0;stroke-opacity:1" />
    <rect
       y="118.47775"
       x="-104.80177"
       height="10.543811"
       width="6.7354169"
       id="rect8205-6-0-6-1-8-7-2"
       style="opacity:1;fill:#8dd35f;fill-opacity:1;stroke:#000000;stroke-width:0.107809;stroke-miterlimit:4;stroke-dasharray:none;stroke-dashoffset:0;stroke-opacity:1" />
    <path
       style="fill:#8dd35f;stroke:#000000;stroke-width:0.5;stroke-linecap:butt;stroke-linejoin:miter;stroke-miterlimit:4;stroke-dasharray:none;stroke-opacity:1;marker-end:url(#Arrow1Mend)"
       d="m -111.05396,118.58682 c 111.76985228,0 111.76985228,0 111.76985228,0"
       id="path1373"
       inkscape:connector-curvature="0" />
    <use
       transform="matrix(0.57062865,0,0,0.57062865,-233.639,39.084589)"
       id="use3673"
       y="134.765"
       x="223.43201"
       xlink:href="#textext-c0ef3d79-1"
       width="100%"
       height="100%"
       style="fill:#000000;fill-opacity:1" />
    <use
       transform="matrix(0.57062865,0,0,0.57062865,-198.52157,46.56909)"
       id="use3697"
       y="134.765"
       x="257.797"
       xlink:href="#textext-c0ef3d79-2"
       width="100%"
       height="100%"
       style="fill:#000000;fill-opacity:1" />
    <use
       transform="matrix(0.57062865,0,0,0.57062865,-198.52157,46.56909)"
       id="use3701"
       y="136.41299"
       x="262.22101"
       xlink:href="#textext-c0ef3d79-10"
       width="100%"
       height="100%"
       style="fill:#000000;fill-opacity:1" />
    <use
       transform="matrix(0.57062865,0,0,0.57062865,-198.52157,46.56909)"
       id="use3705"
       y="136.41299"
       x="265.61899"
       xlink:href="#textext-c0ef3d79-13"
       width="100%"
       height="100%"
       style="fill:#000000;fill-opacity:1" />
    <use
       transform="matrix(0.57062865,0,0,0.57062865,-198.52157,46.56909)"
       id="use3709"
       y="136.41299"
       x="271.34698"
       xlink:href="#textext-c0ef3d79-8"
       width="100%"
       height="100%"
       style="fill:#000000;fill-opacity:1" />
    <use
       transform="matrix(0.57062865,0,0,0.57062865,-192.43614,46.837683)"
       id="use3713"
       y="134.765"
       x="275.53201"
       xlink:href="#textext-c0ef3d79-2"
       width="100%"
       height="100%"
       style="fill:#000000;fill-opacity:1" />
    <use
       transform="matrix(0.57062865,0,0,0.57062865,-192.43614,46.837683)"
       id="use3717"
       y="136.41299"
       x="279.95499"
       xlink:href="#textext-c0ef3d79-10"
       width="100%"
       height="100%"
       style="fill:#000000;fill-opacity:1" />
    <use
       transform="matrix(0.57062865,0,0,0.57062865,-174.82533,49.283075)"
       id="use3729"
       y="134.765"
       x="292.45901"
       xlink:href="#textext-c0ef3d79-3"
       width="100%"
       height="100%"
       style="fill:#000000;fill-opacity:1" />
    <use
       transform="matrix(0.57062865,0,0,0.57062865,-214.02776,38.459197)"
       id="use3737"
       y="136.41299"
       x="302.35199"
       xlink:href="#textext-c0ef3d79-10"
       width="100%"
       height="100%"
       style="fill:#000000;fill-opacity:1" />
    <path
       d="m -41.787459,118.62331 a 0.66145831,0.66145831 0 0 1 -0.65779,0.66144 0.66145831,0.66145831 0 0 1 -0.665086,-0.65411 0.66145831,0.66145831 0 0 1 0.650413,-0.6687 0.66145831,0.66145831 0 0 1 0.6723,0.64669"
       sodipodi:open="true"
       sodipodi:end="6.2610022"
       sodipodi:start="0"
       sodipodi:ry="0.66145831"
       sodipodi:rx="0.66145831"
       sodipodi:cy="118.62331"
       sodipodi:cx="-42.448917"
       sodipodi:type="arc"
       id="path3985"
       style="opacity:1;fill:#782121;fill-opacity:1;stroke:#501616;stroke-width:1.165;stroke-miterlimit:4;stroke-dasharray:none;stroke-dashoffset:0;stroke-opacity:1"
       sodipodi:arc-type="arc" />
    <path
       style="fill:none;stroke:#000000;stroke-width:0.5;stroke-linecap:butt;stroke-linejoin:miter;stroke-miterlimit:4;stroke-dasharray:none;stroke-opacity:1;marker-end:url(#Arrow1Mend-0)"
       d="m -72.461763,137.04067 c 0,-68.654071 0,-68.654071 0,-68.654071"
       id="path1373-3"
       inkscape:connector-curvature="0" />
    <path
       sodipodi:nodetypes="cc"
       inkscape:connector-curvature="0"
       id="path8203"
       d="m -110.05306,113.42688 c 19.099707,62.29124 58.978525,-69.254422 105.8333323,-1.80397"
       style="fill:none;stroke:#2a7fff;stroke-width:1;stroke-linecap:butt;stroke-linejoin:miter;stroke-miterlimit:4;stroke-dasharray:none;stroke-opacity:1" />
    <path
       inkscape:connector-curvature="0"
       id="path8402"
       d="m -7.0259127,118.23749 c 0,2.80619 0,2.80619 0,2.80619"
       style="fill:none;stroke:#000000;stroke-width:0.3825;stroke-linecap:butt;stroke-linejoin:miter;stroke-miterlimit:4;stroke-dasharray:none;stroke-opacity:1" />
    <path
       inkscape:connector-curvature="0"
       id="path8402-0"
       d="m -104.64113,117.43573 c 0,2.80618 0,2.80618 0,2.80618"
       style="fill:none;stroke:#000000;stroke-width:0.3825;stroke-linecap:butt;stroke-linejoin:miter;stroke-miterlimit:4;stroke-dasharray:none;stroke-opacity:1" />
    <path
       inkscape:connector-curvature="0"
       id="path8437"
       d="m -42.568274,118.23749 c 0.200443,-25.25568 0,-25.25568 0,-25.25568 -30.467169,-0.200441 -30.467169,0 -30.467169,0"
       style="fill:none;stroke:#000000;stroke-width:0.2825;stroke-linecap:butt;stroke-linejoin:miter;stroke-miterlimit:4;stroke-dasharray:1.13, 1.13;stroke-dashoffset:0;stroke-opacity:1" />
    <use
       transform="matrix(0.57062865,0,0,0.57062865,-214.02776,38.459197)"
       id="use3733"
       y="134.765"
       x="297.44101"
       xlink:href="#textext-c0ef3d79-15"
       width="100%"
       height="100%"
       style="fill:#000000;fill-opacity:1" />
    <use
       style="fill:#000000;fill-opacity:1"
       height="100%"
       width="100%"
       xlink:href="#textext-5e4f410d-13"
       x="245.201"
       y="134.765"
       id="use8578"
       transform="matrix(0.5904586,0,0,0.5904586,-188.14414,58.56251)" />
    <use
       style="fill:#000000;fill-opacity:1"
       height="100%"
       width="100%"
       xlink:href="#textext-5e4f410d-2"
       x="251.298"
       y="134.765"
       id="use8582"
       transform="matrix(0.5904586,0,0,0.5904586,-188.14414,58.56251)" />
    <use
       style="fill:#000000;fill-opacity:1"
       height="100%"
       width="100%"
       xlink:href="#textext-5e4f410d-11"
       x="255.722"
       y="136.41299"
       id="use8586"
       transform="matrix(0.5904586,0,0,0.5904586,-188.14414,58.56251)" />
    <use
       style="fill:#000000;fill-opacity:1"
       height="100%"
       width="100%"
       xlink:href="#textext-5e4f410d-3"
       x="259.61801"
       y="134.765"
       id="use8590"
       transform="matrix(0.5904586,0,0,0.5904586,-274.73505,29.939404)" />
    <use
       style="fill:#000000;fill-opacity:1"
       height="100%"
       width="100%"
       xlink:href="#textext-5e4f410d-9"
       x="266.25601"
       y="134.765"
       id="use8594"
       transform="matrix(0.5904586,0,0,0.5904586,-274.73505,29.939404)" />
    <use
       style="fill:#000000;fill-opacity:1"
       height="100%"
       width="100%"
       xlink:href="#textext-5e4f410d-1"
       x="277.70499"
       y="134.765"
       id="use8598"
       transform="matrix(0.5904586,0,0,0.5904586,-274.73505,29.939404)" />
    <use
       style="fill:#000000;fill-opacity:1"
       height="100%"
       width="100%"
       xlink:href="#textext-5e4f410d-7"
       x="281.92899"
       y="134.765"
       id="use8602"
       transform="matrix(0.5904586,0,0,0.5904586,-274.73505,29.939404)" />
    <use
       style="fill:#000000;fill-opacity:1"
       height="100%"
       width="100%"
       xlink:href="#textext-5e4f410d-2"
       x="285.79401"
       y="134.765"
       id="use8606"
       transform="matrix(0.5904586,0,0,0.5904586,-274.73505,29.939404)" />
    <use
       style="fill:#000000;fill-opacity:1"
       height="100%"
       width="100%"
       xlink:href="#textext-5e4f410d-8"
       x="290.24701"
       y="134.765"
       id="use8610"
       transform="matrix(0.5904586,0,0,0.5904586,-274.73505,29.939404)" />
    <use
       style="fill:#000000;fill-opacity:1"
       height="100%"
       width="100%"
       xlink:href="#textext-5e4f410d-4"
       x="294.11301"
       y="134.765"
       id="use8614"
       transform="matrix(0.5904586,0,0,0.5904586,-172.75021,44.611752)" />
    <use
       style="fill:#000000;fill-opacity:1"
       height="100%"
       width="100%"
       xlink:href="#textext-5e4f410d-5"
       x="300.63849"
       y="134.765"
       id="use8618"
       transform="matrix(0.5904586,0,0,0.5904586,-255.97369,-7.8238542)" />
    <path
       style="fill:#e9ddaf;stroke:#decd87;stroke-width:0.366756;stroke-linecap:butt;stroke-linejoin:miter;stroke-miterlimit:4;stroke-dasharray:none;stroke-opacity:1"
       d="m -32.987148,116.40946 c 0,17.55872 0,17.55872 0,17.55872"
       id="path8875-2"
       inkscape:connector-curvature="0" />
    <path
       d="m -41.682322,93.342606 a 0.66145831,0.66145831 0 0 1 -0.65779,0.661448 0.66145831,0.66145831 0 0 1 -0.665086,-0.654112 0.66145831,0.66145831 0 0 1 0.650413,-0.668703 0.66145831,0.66145831 0 0 1 0.6723,0.646695"
       sodipodi:open="true"
       sodipodi:end="6.2610022"
       sodipodi:start="0"
       sodipodi:ry="0.66145831"
       sodipodi:rx="0.66145831"
       sodipodi:cy="93.342606"
       sodipodi:cx="-42.343781"
       sodipodi:type="arc"
       id="path3985-3"
       style="opacity:1;fill:#808080;fill-opacity:1;stroke:#808080;stroke-width:1.165;stroke-miterlimit:4;stroke-dasharray:none;stroke-dashoffset:0;stroke-opacity:1"
       sodipodi:arc-type="arc" />
    <path
       style="fill:none;stroke:#000000;stroke-width:0.463543;stroke-linecap:butt;stroke-linejoin:miter;stroke-miterlimit:4;stroke-dasharray:none;stroke-opacity:1;marker-start:url(#Arrow1Mstart);marker-end:url(#marker8939)"
       d="m -46.481989,132.06798 c 12.654071,0 12.654071,0 12.654071,0"
       id="path8907"
       inkscape:connector-curvature="0" />
    <g
       transform="matrix(0.57890735,0,0,0.57890735,-215.7783,16.635707)"
       ns0:text="$f(\\xi_k)$"
       ns0:preamble="/home/walter/preambuloInkscape"
       id="g9217">
      <defs
         id="defs9194">
        <g
           id="g9192">
          <symbol
             style="overflow:visible"
             overflow="visible"
             id="textext-a1c33972-0">
            <path
               inkscape:connector-curvature="0"
               style="stroke:none"
               d=""
               id="path9165" />
          </symbol>
          <symbol
             style="overflow:visible"
             overflow="visible"
             id="textext-a1c33972-1">
            <path
               inkscape:connector-curvature="0"
               style="stroke:none"
               d="M 0.34375,-3.953125 H 1.25 l -0.875,4.1875 c -0.21875,1.078125 -0.546875,1.625 -0.96875,1.625 -0.125,0 -0.203125,-0.078125 -0.203125,-0.171875 0,-0.015625 0.015625,-0.046875 0.046875,-0.109375 0.03125,-0.046875 0.046875,-0.09375 0.046875,-0.15625 0,-0.203125 -0.1875,-0.375 -0.390625,-0.375 -0.21875,0 -0.375,0.171875 -0.375,0.40625 0,0.34375 0.359375,0.609375 0.796875,0.609375 0.875,0 1.578125,-0.984375 1.984375,-2.8125 L 2.03125,-3.953125 H 3.125 l 0.0625,-0.3125 H 2.109375 c 0.28125,-1.5625 0.65625,-2.28125 1.203125,-2.28125 0.140625,0 0.21875,0.0625 0.21875,0.125 0,0.03125 0,0.046875 -0.03125,0.109375 -0.046875,0.078125 -0.0625,0.125 -0.0625,0.203125 0,0.234375 0.15625,0.390625 0.375,0.390625 0.21875,0 0.421875,-0.171875 0.421875,-0.390625 0,-0.375 -0.375,-0.65625 -0.859375,-0.65625 -0.5,0 -0.875,0.21875 -1.234375,0.6875 -0.3125,0.390625 -0.5,0.859375 -0.8125,1.8125 h -0.90625 z m 0,0"
               id="path9168" />
          </symbol>
          <symbol
             style="overflow:visible"
             overflow="visible"
             id="textext-a1c33972-2">
            <path
               inkscape:connector-curvature="0"
               style="stroke:none"
               d=""
               id="path9171" />
          </symbol>
          <symbol
             style="overflow:visible"
             overflow="visible"
             id="textext-a1c33972-3">
            <path
               inkscape:connector-curvature="0"
               style="stroke:none"
               d="m 3.296875,2.390625 c 0,-0.03125 0,-0.046875 -0.171875,-0.21875 C 1.890625,0.921875 1.5625,-0.96875 1.5625,-2.5 c 0,-1.734375 0.375,-3.46875 1.609375,-4.703125 0.125,-0.125 0.125,-0.140625 0.125,-0.171875 0,-0.078125 -0.03125,-0.109375 -0.09375,-0.109375 -0.109375,0 -1,0.6875 -1.59375,1.953125 -0.5,1.09375 -0.625,2.203125 -0.625,3.03125 0,0.78125 0.109375,1.984375 0.65625,3.125 C 2.25,1.84375 3.09375,2.5 3.203125,2.5 c 0.0625,0 0.09375,-0.03125 0.09375,-0.109375 z m 0,0"
               id="path9174" />
          </symbol>
          <symbol
             style="overflow:visible"
             overflow="visible"
             id="textext-a1c33972-4">
            <path
               inkscape:connector-curvature="0"
               style="stroke:none"
               d="m 2.875,-2.5 c 0,-0.765625 -0.109375,-1.96875 -0.65625,-3.109375 -0.59375,-1.21875 -1.453125,-1.875 -1.546875,-1.875 -0.0625,0 -0.109375,0.046875 -0.109375,0.109375 0,0.03125 0,0.046875 0.1875,0.234375 0.984375,0.984375 1.546875,2.5625 1.546875,4.640625 0,1.71875 -0.359375,3.46875 -1.59375,4.71875 C 0.5625,2.34375 0.5625,2.359375 0.5625,2.390625 0.5625,2.453125 0.609375,2.5 0.671875,2.5 0.765625,2.5 1.671875,1.8125 2.25,0.546875 2.765625,-0.546875 2.875,-1.65625 2.875,-2.5 Z m 0,0"
               id="path9177" />
          </symbol>
          <symbol
             style="overflow:visible"
             overflow="visible"
             id="textext-a1c33972-5">
            <path
               inkscape:connector-curvature="0"
               style="stroke:none"
               d=""
               id="path9180" />
          </symbol>
          <symbol
             style="overflow:visible"
             overflow="visible"
             id="textext-a1c33972-6">
            <path
               inkscape:connector-curvature="0"
               style="stroke:none"
               d="M 3,-7.609375 C 2.90625,-7.625 2.828125,-7.640625 2.78125,-7.640625 2.328125,-7.640625 1.890625,-7.28125 1.8125,-6.875 1.75,-6.5 1.921875,-6.28125 2.375,-6.140625 2.109375,-5.90625 1.921875,-5.609375 1.859375,-5.28125 c -0.0625,0.390625 0.046875,0.703125 0.375,1.0625 C 1.84375,-3.953125 1.65625,-3.8125 1.453125,-3.609375 1.015625,-3.1875 0.703125,-2.578125 0.609375,-2 0.46875,-1.21875 0.75,-0.484375 1.3125,-0.1875 c 0.296875,0.15625 0.65625,0.21875 1.265625,0.21875 0.1875,0 0.40625,-0.015625 0.875,-0.03125 0.390625,-0.015625 0.65625,0.265625 0.59375,0.65625 -0.0625,0.375 -0.375,0.65625 -0.75,0.65625 C 3.25,1.3125 3.0625,1.296875 2.875,1.25 2.640625,1.21875 2.5625,1.21875 2.46875,1.21875 c -0.25,0 -0.4375,0.171875 -0.484375,0.421875 -0.0625,0.328125 0.234375,0.578125 0.734375,0.578125 0.46875,0 0.84375,-0.203125 1.25,-0.640625 C 4.3125,1.203125 4.546875,0.75 4.625,0.296875 4.703125,-0.15625 4.59375,-0.515625 4.3125,-0.75 4.109375,-0.921875 3.890625,-0.984375 3.453125,-0.984375 h -0.875 c -0.421875,0 -0.75,-0.03125 -0.921875,-0.109375 C 1.265625,-1.28125 1.046875,-1.75 1.140625,-2.265625 1.25,-2.984375 1.78125,-3.578125 2.703125,-4.0625 c 0.25,0.109375 0.453125,0.140625 0.765625,0.140625 0.78125,0 1.296875,-0.21875 1.359375,-0.5625 C 4.859375,-4.71875 4.625,-4.84375 4.1875,-4.84375 c -0.390625,0 -0.765625,0.109375 -1.515625,0.421875 C 2.296875,-4.734375 2.1875,-4.9375 2.25,-5.25 2.296875,-5.5625 2.53125,-5.859375 2.953125,-6.140625 3.453125,-6.15625 3.796875,-6.21875 4.09375,-6.359375 4.453125,-6.53125 4.71875,-6.78125 4.75,-7.015625 4.796875,-7.203125 4.640625,-7.3125 4.359375,-7.3125 c -0.359375,0 -0.8125,0.234375 -1.53125,0.796875 -0.328125,0 -0.5,-0.1875 -0.453125,-0.453125 0.03125,-0.21875 0.234375,-0.375 0.59375,-0.46875 z m 0,0"
               id="path9183" />
          </symbol>
          <symbol
             style="overflow:visible"
             overflow="visible"
             id="textext-a1c33972-7">
            <path
               inkscape:connector-curvature="0"
               style="stroke:none"
               d=""
               id="path9186" />
          </symbol>
          <symbol
             style="overflow:visible"
             overflow="visible"
             id="textext-a1c33972-8">
            <path
               inkscape:connector-curvature="0"
               style="stroke:none"
               d="m 3.046875,-0.796875 -0.109375,0.1875 c -0.125,0.21875 -0.21875,0.3125 -0.328125,0.3125 -0.15625,0 -0.3125,-0.25 -0.59375,-0.953125 -0.046875,-0.09375 -0.15625,-0.359375 -0.28125,-0.65625 1.09375,-0.96875 1.3125,-1.109375 1.671875,-1.125 v -0.125 H 2.046875 v 0.125 h 0.125 c 0.1875,0 0.28125,0.046875 0.28125,0.125 0,0.140625 -0.359375,0.515625 -1.046875,1.03125 -0.109375,0.078125 -0.203125,0.15625 -0.328125,0.25 L 1.96875,-5 1.9375,-5.03125 C 1.5,-4.9375 1.21875,-4.890625 0.78125,-4.84375 v 0.125 c 0.359375,-0.015625 0.5,0.046875 0.5,0.1875 -0.015625,0.125 -0.0625,0.3125 -0.15625,0.65625 -0.03125,0.109375 -0.0625,0.1875 -0.078125,0.25 v 0.0625 L 0.109375,0 H 0.65625 L 1.015625,-1.328125 1.3125,-1.5625 c 0.125,0.328125 0.3125,0.765625 0.453125,1.03125 C 2,-0.0625 2.125,0.078125 2.34375,0.078125 c 0.296875,0 0.484375,-0.1875 0.8125,-0.796875 z m 0,0"
               id="path9189" />
          </symbol>
        </g>
      </defs>
      <g
         id="textext-a1c33972-9">
        <g
           style="fill:#000000;fill-opacity:1"
           id="g9198">
          <use
             height="100%"
             width="100%"
             xlink:href="#textext-a1c33972-1"
             x="224.92599"
             y="134.765"
             id="use9196" />
        </g>
        <g
           style="fill:#000000;fill-opacity:1"
           id="g9202">
          <use
             height="100%"
             width="100%"
             xlink:href="#textext-a1c33972-3"
             x="229.151"
             y="134.765"
             id="use9200" />
        </g>
        <g
           style="fill:#000000;fill-opacity:1"
           id="g9206">
          <use
             height="100%"
             width="100%"
             xlink:href="#textext-a1c33972-6"
             x="233.01601"
             y="134.765"
             id="use9204" />
        </g>
        <g
           style="fill:#000000;fill-opacity:1"
           id="g9210">
          <use
             height="100%"
             width="100%"
             xlink:href="#textext-a1c33972-8"
             x="237.927"
             y="136.41299"
             id="use9208" />
        </g>
        <g
           style="fill:#000000;fill-opacity:1"
           id="g9214">
          <use
             height="100%"
             width="100%"
             xlink:href="#textext-a1c33972-4"
             x="241.82401"
             y="134.765"
             id="use9212" />
        </g>
      </g>
    </g>
    <rect
       y="92.334991"
       x="40.114044"
       height="25.049294"
       width="13.423663"
       id="rect8205-6-0-6-6-2"
       style="opacity:1;fill:#decd87;fill-opacity:1;stroke:#000000;stroke-width:0.2355;stroke-miterlimit:4;stroke-dasharray:none;stroke-dashoffset:0;stroke-opacity:1" />
    <use
       transform="matrix(0.57062865,0,0,0.57062865,-109.14745,45.658714)"
       id="use3697-8"
       y="134.765"
       x="257.797"
       xlink:href="#textext-c0ef3d79-2"
       width="100%"
       height="100%"
       style="fill:#000000;fill-opacity:1" />
    <use
       transform="matrix(0.57062865,0,0,0.57062865,-109.14745,45.658714)"
       id="use3701-9"
       y="136.41299"
       x="262.22101"
       xlink:href="#textext-c0ef3d79-10"
       width="100%"
       height="100%"
       style="fill:#000000;fill-opacity:1" />
    <use
       transform="matrix(0.57062865,0,0,0.57062865,-109.14745,45.658714)"
       id="use3705-7"
       y="136.41299"
       x="265.61899"
       xlink:href="#textext-c0ef3d79-13"
       width="100%"
       height="100%"
       style="fill:#000000;fill-opacity:1" />
    <use
       transform="matrix(0.57062865,0,0,0.57062865,-109.14745,45.658714)"
       id="use3709-3"
       y="136.41299"
       x="271.34698"
       xlink:href="#textext-c0ef3d79-8"
       width="100%"
       height="100%"
       style="fill:#000000;fill-opacity:1" />
    <use
       transform="matrix(0.57062865,0,0,0.57062865,-105.97245,45.927309)"
       id="use3713-6"
       y="134.765"
       x="275.53201"
       xlink:href="#textext-c0ef3d79-2"
       width="100%"
       height="100%"
       style="fill:#000000;fill-opacity:1" />
    <use
       transform="matrix(0.57062865,0,0,0.57062865,-105.97245,45.927309)"
       id="use3717-1"
       y="136.41299"
       x="279.95499"
       xlink:href="#textext-c0ef3d79-10"
       width="100%"
       height="100%"
       style="fill:#000000;fill-opacity:1" />
    <use
       style="fill:#000000;fill-opacity:1"
       height="100%"
       width="100%"
       xlink:href="#textext-5e4f410d-13"
       x="245.201"
       y="134.765"
       id="use8578-2"
       transform="matrix(0.5904586,0,0,0.5904586,-101.15129,52.62505)" />
    <use
       style="fill:#000000;fill-opacity:1"
       height="100%"
       width="100%"
       xlink:href="#textext-5e4f410d-2"
       x="251.298"
       y="134.765"
       id="use8582-9"
       transform="matrix(0.5904586,0,0,0.5904586,-101.15129,52.62505)" />
    <use
       style="fill:#000000;fill-opacity:1"
       height="100%"
       width="100%"
       xlink:href="#textext-5e4f410d-11"
       x="255.722"
       y="136.41299"
       id="use8586-3"
       transform="matrix(0.5904586,0,0,0.5904586,-101.15129,52.62505)" />
    <path
       style="fill:none;stroke:#000000;stroke-width:0.463543;stroke-linecap:butt;stroke-linejoin:miter;stroke-miterlimit:4;stroke-dasharray:none;stroke-opacity:1;marker-start:url(#Arrow1Mstart-7);marker-end:url(#marker8939-9)"
       d="m 40.510867,126.1305 c 12.65407,0 12.65407,0 12.65407,0"
       id="path8907-1"
       inkscape:connector-curvature="0" />
    <g
       id="g10768"
       ns0:preamble="/home/walter/preambuloInkscape"
       ns0:text="$A_k=f(\\xi_k)\\Delta x_k$"
       transform="matrix(0.59658645,0,0,0.59658645,-98.599478,6.9128988)">
      <defs
         id="defs10721">
        <g
           id="g10719">
          <symbol
             id="textext-0ec04678-0"
             overflow="visible"
             style="overflow:visible">
            <path
               id="path10677"
               d=""
               style="stroke:none"
               inkscape:connector-curvature="0" />
          </symbol>
          <symbol
             id="textext-0ec04678-1"
             overflow="visible"
             style="overflow:visible">
            <path
               id="path10680"
               d="M 5.625,-0.15625 C 5.046875,-0.203125 5,-0.296875 4.859375,-1.015625 l -0.9375,-5.640625 h -0.25 L 0.78125,-1.671875 c -0.796875,1.328125 -0.890625,1.4375 -1.296875,1.515625 V 0 h 1.875 v -0.15625 c -0.515625,-0.046875 -0.59375,-0.109375 -0.59375,-0.359375 0,-0.1875 0.03125,-0.265625 0.203125,-0.609375 l 0.5625,-1.125 h 2.203125 l 0.1875,1.296875 c 0.015625,0.09375 0.03125,0.1875 0.03125,0.265625 0,0.375 -0.140625,0.46875 -0.78125,0.53125 V 0 H 5.625 Z m -3.875,-2.453125 1.484375,-2.59375 0.4375,2.59375 z m 0,0"
               style="stroke:none"
               inkscape:connector-curvature="0" />
          </symbol>
          <symbol
             id="textext-0ec04678-2"
             overflow="visible"
             style="overflow:visible">
            <path
               id="path10683"
               d="M 0.34375,-3.953125 H 1.25 l -0.875,4.1875 c -0.21875,1.078125 -0.546875,1.625 -0.96875,1.625 -0.125,0 -0.203125,-0.078125 -0.203125,-0.171875 0,-0.015625 0.015625,-0.046875 0.046875,-0.109375 0.03125,-0.046875 0.046875,-0.09375 0.046875,-0.15625 0,-0.203125 -0.1875,-0.375 -0.390625,-0.375 -0.21875,0 -0.375,0.171875 -0.375,0.40625 0,0.34375 0.359375,0.609375 0.796875,0.609375 0.875,0 1.578125,-0.984375 1.984375,-2.8125 L 2.03125,-3.953125 H 3.125 l 0.0625,-0.3125 H 2.109375 c 0.28125,-1.5625 0.65625,-2.28125 1.203125,-2.28125 0.140625,0 0.21875,0.0625 0.21875,0.125 0,0.03125 0,0.046875 -0.03125,0.109375 -0.046875,0.078125 -0.0625,0.125 -0.0625,0.203125 0,0.234375 0.15625,0.390625 0.375,0.390625 0.21875,0 0.421875,-0.171875 0.421875,-0.390625 0,-0.375 -0.375,-0.65625 -0.859375,-0.65625 -0.5,0 -0.875,0.21875 -1.234375,0.6875 -0.3125,0.390625 -0.5,0.859375 -0.8125,1.8125 h -0.90625 z m 0,0"
               style="stroke:none"
               inkscape:connector-curvature="0" />
          </symbol>
          <symbol
             id="textext-0ec04678-3"
             overflow="visible"
             style="overflow:visible">
            <path
               id="path10686"
               d="M 4,-1.109375 C 3.921875,-1.015625 3.875,-0.953125 3.78125,-0.84375 3.5625,-0.53125 3.4375,-0.4375 3.328125,-0.4375 3.1875,-0.4375 3.09375,-0.5625 3.015625,-0.84375 3,-0.921875 2.984375,-0.984375 2.984375,-1.015625 2.734375,-2.03125 2.625,-2.484375 2.625,-2.625 c 0.4375,-0.78125 0.796875,-1.21875 0.96875,-1.21875 0.0625,0 0.140625,0.03125 0.25,0.078125 0.109375,0.078125 0.1875,0.09375 0.265625,0.09375 0.203125,0 0.34375,-0.140625 0.34375,-0.359375 0,-0.203125 -0.171875,-0.359375 -0.40625,-0.359375 -0.4375,0 -0.8125,0.359375 -1.5,1.421875 L 2.4375,-3.515625 c -0.140625,-0.6875 -0.25,-0.875 -0.53125,-0.875 -0.21875,0 -0.546875,0.078125 -1.15625,0.28125 L 0.640625,-4.0625 0.671875,-3.921875 C 1.0625,-4 1.140625,-4.03125 1.234375,-4.03125 c 0.25,0 0.3125,0.09375 0.453125,0.6875 l 0.28125,1.234375 -0.8125,1.15625 C 0.953125,-0.640625 0.75,-0.46875 0.640625,-0.46875 0.59375,-0.46875 0.484375,-0.5 0.390625,-0.5625 0.265625,-0.625 0.15625,-0.65625 0.0625,-0.65625 c -0.1875,0 -0.328125,0.140625 -0.328125,0.34375 0,0.265625 0.203125,0.421875 0.5,0.421875 0.296875,0 0.421875,-0.09375 0.921875,-0.703125 0.265625,-0.3125 0.484375,-0.578125 0.890625,-1.15625 l 0.3125,1.1875 c 0.125,0.515625 0.25,0.671875 0.578125,0.671875 0.375,0 0.625,-0.234375 1.203125,-1.140625 z m 0,0"
               style="stroke:none"
               inkscape:connector-curvature="0" />
          </symbol>
          <symbol
             id="textext-0ec04678-4"
             overflow="visible"
             style="overflow:visible">
            <path
               id="path10689"
               d=""
               style="stroke:none"
               inkscape:connector-curvature="0" />
          </symbol>
          <symbol
             id="textext-0ec04678-5"
             overflow="visible"
             style="overflow:visible">
            <path
               id="path10692"
               d="m 3.046875,-0.796875 -0.109375,0.1875 c -0.125,0.21875 -0.21875,0.3125 -0.328125,0.3125 -0.15625,0 -0.3125,-0.25 -0.59375,-0.953125 -0.046875,-0.09375 -0.15625,-0.359375 -0.28125,-0.65625 1.09375,-0.96875 1.3125,-1.109375 1.671875,-1.125 v -0.125 H 2.046875 v 0.125 h 0.125 c 0.1875,0 0.28125,0.046875 0.28125,0.125 0,0.140625 -0.359375,0.515625 -1.046875,1.03125 -0.109375,0.078125 -0.203125,0.15625 -0.328125,0.25 L 1.96875,-5 1.9375,-5.03125 C 1.5,-4.9375 1.21875,-4.890625 0.78125,-4.84375 v 0.125 c 0.359375,-0.015625 0.5,0.046875 0.5,0.1875 -0.015625,0.125 -0.0625,0.3125 -0.15625,0.65625 -0.03125,0.109375 -0.0625,0.1875 -0.078125,0.25 v 0.0625 L 0.109375,0 H 0.65625 L 1.015625,-1.328125 1.3125,-1.5625 c 0.125,0.328125 0.3125,0.765625 0.453125,1.03125 C 2,-0.0625 2.125,0.078125 2.34375,0.078125 c 0.296875,0 0.484375,-0.1875 0.8125,-0.796875 z m 0,0"
               style="stroke:none"
               inkscape:connector-curvature="0" />
          </symbol>
          <symbol
             id="textext-0ec04678-6"
             overflow="visible"
             style="overflow:visible">
            <path
               id="path10695"
               d=""
               style="stroke:none"
               inkscape:connector-curvature="0" />
          </symbol>
          <symbol
             id="textext-0ec04678-7"
             overflow="visible"
             style="overflow:visible">
            <path
               id="path10698"
               d="m 6.84375,-3.265625 c 0.15625,0 0.34375,0 0.34375,-0.1875 C 7.1875,-3.65625 7,-3.65625 6.859375,-3.65625 h -5.96875 c -0.140625,0 -0.328125,0 -0.328125,0.203125 0,0.1875 0.1875,0.1875 0.328125,0.1875 z m 0.015625,1.9375 c 0.140625,0 0.328125,0 0.328125,-0.203125 0,-0.1875 -0.1875,-0.1875 -0.34375,-0.1875 H 0.890625 c -0.140625,0 -0.328125,0 -0.328125,0.1875 0,0.203125 0.1875,0.203125 0.328125,0.203125 z m 0,0"
               style="stroke:none"
               inkscape:connector-curvature="0" />
          </symbol>
          <symbol
             id="textext-0ec04678-8"
             overflow="visible"
             style="overflow:visible">
            <path
               id="path10701"
               d="m 3.296875,2.390625 c 0,-0.03125 0,-0.046875 -0.171875,-0.21875 C 1.890625,0.921875 1.5625,-0.96875 1.5625,-2.5 c 0,-1.734375 0.375,-3.46875 1.609375,-4.703125 0.125,-0.125 0.125,-0.140625 0.125,-0.171875 0,-0.078125 -0.03125,-0.109375 -0.09375,-0.109375 -0.109375,0 -1,0.6875 -1.59375,1.953125 -0.5,1.09375 -0.625,2.203125 -0.625,3.03125 0,0.78125 0.109375,1.984375 0.65625,3.125 C 2.25,1.84375 3.09375,2.5 3.203125,2.5 c 0.0625,0 0.09375,-0.03125 0.09375,-0.109375 z m 0,0"
               style="stroke:none"
               inkscape:connector-curvature="0" />
          </symbol>
          <symbol
             id="textext-0ec04678-9"
             overflow="visible"
             style="overflow:visible">
            <path
               id="path10704"
               d="m 2.875,-2.5 c 0,-0.765625 -0.109375,-1.96875 -0.65625,-3.109375 -0.59375,-1.21875 -1.453125,-1.875 -1.546875,-1.875 -0.0625,0 -0.109375,0.046875 -0.109375,0.109375 0,0.03125 0,0.046875 0.1875,0.234375 0.984375,0.984375 1.546875,2.5625 1.546875,4.640625 0,1.71875 -0.359375,3.46875 -1.59375,4.71875 C 0.5625,2.34375 0.5625,2.359375 0.5625,2.390625 0.5625,2.453125 0.609375,2.5 0.671875,2.5 0.765625,2.5 1.671875,1.8125 2.25,0.546875 2.765625,-0.546875 2.875,-1.65625 2.875,-2.5 Z m 0,0"
               style="stroke:none"
               inkscape:connector-curvature="0" />
          </symbol>
          <symbol
             id="textext-0ec04678-10"
             overflow="visible"
             style="overflow:visible">
            <path
               id="path10707"
               d=""
               style="stroke:none"
               inkscape:connector-curvature="0" />
          </symbol>
          <symbol
             id="textext-0ec04678-11"
             overflow="visible"
             style="overflow:visible">
            <path
               id="path10710"
               d="M 3,-7.609375 C 2.90625,-7.625 2.828125,-7.640625 2.78125,-7.640625 2.328125,-7.640625 1.890625,-7.28125 1.8125,-6.875 1.75,-6.5 1.921875,-6.28125 2.375,-6.140625 2.109375,-5.90625 1.921875,-5.609375 1.859375,-5.28125 c -0.0625,0.390625 0.046875,0.703125 0.375,1.0625 C 1.84375,-3.953125 1.65625,-3.8125 1.453125,-3.609375 1.015625,-3.1875 0.703125,-2.578125 0.609375,-2 0.46875,-1.21875 0.75,-0.484375 1.3125,-0.1875 c 0.296875,0.15625 0.65625,0.21875 1.265625,0.21875 0.1875,0 0.40625,-0.015625 0.875,-0.03125 0.390625,-0.015625 0.65625,0.265625 0.59375,0.65625 -0.0625,0.375 -0.375,0.65625 -0.75,0.65625 C 3.25,1.3125 3.0625,1.296875 2.875,1.25 2.640625,1.21875 2.5625,1.21875 2.46875,1.21875 c -0.25,0 -0.4375,0.171875 -0.484375,0.421875 -0.0625,0.328125 0.234375,0.578125 0.734375,0.578125 0.46875,0 0.84375,-0.203125 1.25,-0.640625 C 4.3125,1.203125 4.546875,0.75 4.625,0.296875 4.703125,-0.15625 4.59375,-0.515625 4.3125,-0.75 4.109375,-0.921875 3.890625,-0.984375 3.453125,-0.984375 h -0.875 c -0.421875,0 -0.75,-0.03125 -0.921875,-0.109375 C 1.265625,-1.28125 1.046875,-1.75 1.140625,-2.265625 1.25,-2.984375 1.78125,-3.578125 2.703125,-4.0625 c 0.25,0.109375 0.453125,0.140625 0.765625,0.140625 0.78125,0 1.296875,-0.21875 1.359375,-0.5625 C 4.859375,-4.71875 4.625,-4.84375 4.1875,-4.84375 c -0.390625,0 -0.765625,0.109375 -1.515625,0.421875 C 2.296875,-4.734375 2.1875,-4.9375 2.25,-5.25 2.296875,-5.5625 2.53125,-5.859375 2.953125,-6.140625 3.453125,-6.15625 3.796875,-6.21875 4.09375,-6.359375 4.453125,-6.53125 4.71875,-6.78125 4.75,-7.015625 4.796875,-7.203125 4.640625,-7.3125 4.359375,-7.3125 c -0.359375,0 -0.8125,0.234375 -1.53125,0.796875 -0.328125,0 -0.5,-0.1875 -0.453125,-0.453125 0.03125,-0.21875 0.234375,-0.375 0.59375,-0.46875 z m 0,0"
               style="stroke:none"
               inkscape:connector-curvature="0" />
          </symbol>
          <symbol
             id="textext-0ec04678-12"
             overflow="visible"
             style="overflow:visible">
            <path
               id="path10713"
               d=""
               style="stroke:none"
               inkscape:connector-curvature="0" />
          </symbol>
          <symbol
             id="textext-0ec04678-13"
             overflow="visible"
             style="overflow:visible">
            <path
               id="path10716"
               d="m 0.0625,0 h 6 L 3.265625,-6.859375 Z m 0.703125,-0.515625 2.125,-4.5625 1.890625,4.5625 z m 0,0"
               style="stroke:none"
               inkscape:connector-curvature="0" />
          </symbol>
        </g>
      </defs>
      <g
         id="textext-0ec04678-14">
        <g
           id="g10725"
           style="fill:#000000;fill-opacity:1">
          <use
             id="use10723"
             y="134.765"
             x="223.43201"
             xlink:href="#textext-0ec04678-1"
             width="100%"
             height="100%" />
        </g>
        <g
           id="g10729"
           style="fill:#000000;fill-opacity:1">
          <use
             id="use10727"
             y="136.41299"
             x="229.519"
             xlink:href="#textext-0ec04678-5"
             width="100%"
             height="100%" />
        </g>
        <g
           id="g10733"
           style="fill:#000000;fill-opacity:1">
          <use
             id="use10731"
             y="134.765"
             x="235.63"
             xlink:href="#textext-0ec04678-7"
             width="100%"
             height="100%" />
        </g>
        <g
           id="g10737"
           style="fill:#000000;fill-opacity:1">
          <use
             id="use10735"
             y="134.765"
             x="247.07899"
             xlink:href="#textext-0ec04678-2"
             width="100%"
             height="100%" />
        </g>
        <g
           id="g10741"
           style="fill:#000000;fill-opacity:1">
          <use
             id="use10739"
             y="134.765"
             x="251.30299"
             xlink:href="#textext-0ec04678-8"
             width="100%"
             height="100%" />
        </g>
        <g
           id="g10745"
           style="fill:#000000;fill-opacity:1">
          <use
             id="use10743"
             y="134.765"
             x="255.168"
             xlink:href="#textext-0ec04678-11"
             width="100%"
             height="100%" />
        </g>
        <g
           id="g10749"
           style="fill:#000000;fill-opacity:1">
          <use
             id="use10747"
             y="136.41299"
             x="260.07999"
             xlink:href="#textext-0ec04678-5"
             width="100%"
             height="100%" />
        </g>
        <g
           id="g10753"
           style="fill:#000000;fill-opacity:1">
          <use
             id="use10751"
             y="134.765"
             x="263.97699"
             xlink:href="#textext-0ec04678-9"
             width="100%"
             height="100%" />
        </g>
        <g
           id="g10757"
           style="fill:#000000;fill-opacity:1">
          <use
             id="use10755"
             y="134.765"
             x="267.84201"
             xlink:href="#textext-0ec04678-13"
             width="100%"
             height="100%" />
        </g>
        <g
           id="g10761"
           style="fill:#000000;fill-opacity:1">
          <use
             id="use10759"
             y="134.765"
             x="273.939"
             xlink:href="#textext-0ec04678-3"
             width="100%"
             height="100%" />
        </g>
        <g
           id="g10765"
           style="fill:#000000;fill-opacity:1">
          <use
             id="use10763"
             y="136.41299"
             x="278.362"
             xlink:href="#textext-0ec04678-5"
             width="100%"
             height="100%" />
        </g>
      </g>
    </g>
    <use
       transform="matrix(0.57062865,0,0,0.57062865,-125.10517,36.952279)"
       id="use3737-9"
       y="136.41299"
       x="302.35199"
       xlink:href="#textext-c0ef3d79-10"
       width="100%"
       height="100%"
       style="fill:#000000;fill-opacity:1" />
    <path
       d="m 47.135137,117.11639 a 0.66145831,0.66145831 0 0 1 -0.65779,0.66144 0.66145831,0.66145831 0 0 1 -0.665086,-0.65411 0.66145831,0.66145831 0 0 1 0.650413,-0.6687 0.66145831,0.66145831 0 0 1 0.6723,0.64669"
       sodipodi:open="true"
       sodipodi:end="6.2610022"
       sodipodi:start="0"
       sodipodi:ry="0.66145831"
       sodipodi:rx="0.66145831"
       sodipodi:cy="117.11639"
       sodipodi:cx="46.473679"
       sodipodi:type="arc"
       id="path3985-4"
       style="opacity:1;fill:#782121;fill-opacity:1;stroke:#501616;stroke-width:1.165;stroke-miterlimit:4;stroke-dasharray:none;stroke-dashoffset:0;stroke-opacity:1"
       sodipodi:arc-type="arc" />
    <use
       transform="matrix(0.57062865,0,0,0.57062865,-125.10517,36.952279)"
       id="use3733-7"
       y="134.765"
       x="297.44101"
       xlink:href="#textext-c0ef3d79-15"
       width="100%"
       height="100%"
       style="fill:#000000;fill-opacity:1" />
    <path
       inkscape:connector-curvature="0"
       id="path8437-8"
       d="m 46.627552,117.64364 c 1.5e-4,-25.44954 0,-25.44954 0,-25.44954 -0.0228,-0.201979 -0.0228,0 -0.0228,0"
       style="fill:none;stroke:#000000;stroke-width:0.2825;stroke-linecap:butt;stroke-linejoin:miter;stroke-miterlimit:4;stroke-dasharray:1.13, 1.13;stroke-dashoffset:0;stroke-opacity:1" />
  </g>
</svg>
