<?xml version="1.0" encoding="UTF-8"?>
<svg xmlns="http://www.w3.org/2000/svg" xmlns:xlink="http://www.w3.org/1999/xlink" width="400" height="172.972973" viewBox="0 0 400 172.972973">
<path fill-rule="nonzero" fill="rgb(0%, 0%, 0%)" fill-opacity="1" d="M 38.550781 14.300781 L 38.550781 13.625 C 38.550781 6.828125 41.890625 5.855469 43.28125 5.855469 C 43.914062 5.855469 45.054688 6.023438 45.648438 6.953125 C 45.226562 6.953125 44.167969 6.953125 44.167969 8.136719 C 44.167969 8.980469 44.800781 9.402344 45.394531 9.402344 C 45.816406 9.402344 46.660156 9.148438 46.660156 8.09375 C 46.660156 6.488281 45.476562 5.179688 43.238281 5.179688 C 39.777344 5.179688 36.144531 8.640625 36.144531 14.597656 C 36.144531 21.816406 39.269531 23.71875 41.761719 23.71875 C 44.761719 23.71875 47.335938 21.183594 47.335938 17.636719 C 47.335938 14.214844 44.929688 11.640625 41.929688 11.640625 C 40.113281 11.640625 39.101562 12.992188 38.550781 14.300781 Z M 41.761719 22.957031 C 40.074219 22.957031 39.269531 21.351562 39.101562 20.929688 C 38.59375 19.664062 38.59375 17.511719 38.59375 17.046875 C 38.59375 14.933594 39.480469 12.230469 41.890625 12.230469 C 42.351562 12.230469 43.578125 12.230469 44.421875 13.921875 C 44.886719 14.890625 44.886719 16.285156 44.886719 17.59375 C 44.886719 18.902344 44.886719 20.253906 44.421875 21.226562 C 43.621094 22.832031 42.394531 22.957031 41.761719 22.957031 Z M 41.761719 22.957031 "/>
<path fill-rule="nonzero" fill="rgb(0%, 0%, 0%)" fill-opacity="1" d="M 57.464844 14.976562 C 57.632812 14.300781 58.265625 11.808594 60.125 11.808594 C 60.25 11.808594 60.925781 11.808594 61.476562 12.148438 C 60.714844 12.316406 60.207031 12.949219 60.207031 13.625 C 60.207031 14.046875 60.503906 14.554688 61.222656 14.554688 C 61.8125 14.554688 62.65625 14.089844 62.65625 12.992188 C 62.65625 11.597656 61.09375 11.21875 60.164062 11.21875 C 58.601562 11.21875 57.675781 12.652344 57.335938 13.246094 C 56.660156 11.472656 55.226562 11.21875 54.421875 11.21875 C 51.636719 11.21875 50.074219 14.679688 50.074219 15.355469 C 50.074219 15.652344 50.367188 15.652344 50.410156 15.652344 C 50.621094 15.652344 50.707031 15.566406 50.75 15.355469 C 51.679688 12.484375 53.453125 11.808594 54.378906 11.808594 C 54.886719 11.808594 55.816406 12.0625 55.816406 13.625 C 55.816406 14.46875 55.351562 16.242188 54.378906 20.042969 C 53.957031 21.691406 52.988281 22.832031 51.804688 22.832031 C 51.636719 22.832031 51.042969 22.832031 50.453125 22.492188 C 51.128906 22.324219 51.71875 21.777344 51.71875 21.015625 C 51.71875 20.296875 51.128906 20.085938 50.75 20.085938 C 49.902344 20.085938 49.269531 20.761719 49.269531 21.648438 C 49.269531 22.875 50.578125 23.421875 51.761719 23.421875 C 53.578125 23.421875 54.550781 21.523438 54.589844 21.394531 C 54.929688 22.367188 55.902344 23.421875 57.503906 23.421875 C 60.292969 23.421875 61.8125 19.960938 61.8125 19.285156 C 61.8125 18.988281 61.601562 18.988281 61.515625 18.988281 C 61.265625 18.988281 61.222656 19.113281 61.136719 19.285156 C 60.25 22.199219 58.433594 22.832031 57.589844 22.832031 C 56.535156 22.832031 56.113281 21.988281 56.113281 21.058594 C 56.113281 20.464844 56.238281 19.875 56.535156 18.691406 Z M 57.464844 14.976562 "/>
<path fill-rule="nonzero" fill="rgb(0%, 0%, 0%)" fill-opacity="1" d="M 69.011719 7.0625 C 70.488281 7.0625 71.546875 8.074219 71.546875 10.101562 C 71.546875 12.425781 70.152344 13.144531 69.097656 13.144531 C 68.335938 13.144531 66.648438 12.933594 65.886719 11.792969 C 66.773438 11.792969 66.984375 11.15625 66.984375 10.734375 C 66.984375 10.144531 66.519531 9.722656 65.929688 9.722656 C 65.421875 9.722656 64.871094 10.058594 64.871094 10.820312 C 64.871094 12.59375 66.816406 13.734375 69.097656 13.734375 C 71.714844 13.734375 73.53125 11.960938 73.53125 10.101562 C 73.53125 8.625 72.347656 7.144531 70.277344 6.722656 C 72.222656 6.007812 72.9375 4.613281 72.9375 3.429688 C 72.9375 1.953125 71.25 0.855469 69.136719 0.855469 C 67.070312 0.855469 65.464844 1.867188 65.464844 3.386719 C 65.464844 4.019531 65.886719 4.359375 66.433594 4.359375 C 67.027344 4.359375 67.40625 3.9375 67.40625 3.429688 C 67.40625 2.882812 67.027344 2.457031 66.433594 2.417969 C 67.109375 1.613281 68.378906 1.402344 69.097656 1.402344 C 69.941406 1.402344 71.121094 1.824219 71.121094 3.429688 C 71.121094 4.234375 70.871094 5.121094 70.363281 5.667969 C 69.773438 6.386719 69.222656 6.429688 68.292969 6.511719 C 67.828125 6.554688 67.785156 6.554688 67.703125 6.554688 C 67.660156 6.554688 67.492188 6.597656 67.492188 6.808594 C 67.492188 7.0625 67.660156 7.0625 67.996094 7.0625 Z M 69.011719 7.0625 "/>
<path fill-rule="nonzero" fill="rgb(0%, 0%, 0%)" fill-opacity="1" d="M 99.65625 16.917969 C 100.121094 16.917969 100.628906 16.917969 100.628906 16.371094 C 100.628906 15.863281 100.121094 15.863281 99.65625 15.863281 L 85.089844 15.863281 C 84.625 15.863281 84.160156 15.863281 84.160156 16.371094 C 84.160156 16.917969 84.625 16.917969 85.089844 16.917969 Z M 99.65625 16.917969 "/>
<path fill-rule="nonzero" fill="rgb(0%, 0%, 0%)" fill-opacity="1" d="M 112.261719 21.058594 L 115.132812 18.269531 C 119.316406 14.554688 120.917969 13.117188 120.917969 10.414062 C 120.917969 7.332031 118.511719 5.179688 115.21875 5.179688 C 112.179688 5.179688 110.195312 7.671875 110.195312 10.078125 C 110.195312 11.554688 111.542969 11.554688 111.628906 11.554688 C 112.09375 11.554688 113.023438 11.261719 113.023438 10.121094 C 113.023438 9.445312 112.515625 8.726562 111.585938 8.726562 C 111.375 8.726562 111.332031 8.726562 111.25 8.769531 C 111.839844 6.996094 113.320312 6.023438 114.882812 6.023438 C 117.332031 6.023438 118.46875 8.21875 118.46875 10.414062 C 118.46875 12.570312 117.160156 14.679688 115.640625 16.371094 L 110.488281 22.113281 C 110.195312 22.410156 110.195312 22.492188 110.195312 23.128906 L 120.203125 23.128906 L 120.917969 18.441406 L 120.285156 18.441406 C 120.117188 19.242188 119.949219 20.425781 119.652344 20.847656 C 119.484375 21.058594 117.710938 21.058594 117.121094 21.058594 Z M 112.261719 21.058594 "/>
<path fill-rule="nonzero" fill="rgb(0%, 0%, 0%)" fill-opacity="1" d="M 131.300781 14.976562 C 131.46875 14.300781 132.101562 11.808594 133.960938 11.808594 C 134.085938 11.808594 134.761719 11.808594 135.3125 12.148438 C 134.550781 12.316406 134.046875 12.949219 134.046875 13.625 C 134.046875 14.046875 134.339844 14.554688 135.058594 14.554688 C 135.648438 14.554688 136.496094 14.089844 136.496094 12.992188 C 136.496094 11.597656 134.933594 11.21875 134.003906 11.21875 C 132.441406 11.21875 131.511719 12.652344 131.171875 13.246094 C 130.496094 11.472656 129.0625 11.21875 128.257812 11.21875 C 125.472656 11.21875 123.910156 14.679688 123.910156 15.355469 C 123.910156 15.652344 124.207031 15.652344 124.246094 15.652344 C 124.457031 15.652344 124.542969 15.566406 124.585938 15.355469 C 125.515625 12.484375 127.289062 11.808594 128.21875 11.808594 C 128.722656 11.808594 129.652344 12.0625 129.652344 13.625 C 129.652344 14.46875 129.1875 16.242188 128.21875 20.042969 C 127.796875 21.691406 126.824219 22.832031 125.640625 22.832031 C 125.472656 22.832031 124.882812 22.832031 124.289062 22.492188 C 124.964844 22.324219 125.558594 21.777344 125.558594 21.015625 C 125.558594 20.296875 124.964844 20.085938 124.585938 20.085938 C 123.742188 20.085938 123.109375 20.761719 123.109375 21.648438 C 123.109375 22.875 124.417969 23.421875 125.597656 23.421875 C 127.414062 23.421875 128.386719 21.523438 128.429688 21.394531 C 128.765625 22.367188 129.738281 23.421875 131.34375 23.421875 C 134.128906 23.421875 135.648438 19.960938 135.648438 19.285156 C 135.648438 18.988281 135.4375 18.988281 135.355469 18.988281 C 135.101562 18.988281 135.058594 19.113281 134.972656 19.285156 C 134.085938 22.199219 132.269531 22.832031 131.425781 22.832031 C 130.371094 22.832031 129.949219 21.988281 129.949219 21.058594 C 129.949219 20.464844 130.074219 19.875 130.371094 18.691406 Z M 131.300781 14.976562 "/>
<path fill-rule="nonzero" fill="rgb(0%, 0%, 0%)" fill-opacity="1" d="M 147.203125 9.933594 L 146.566406 9.933594 C 146.527344 10.355469 146.316406 11.453125 146.0625 11.621094 C 145.933594 11.75 144.5 11.75 144.203125 11.75 L 140.742188 11.75 C 142.726562 10.019531 143.402344 9.46875 144.5 8.582031 C 145.890625 7.484375 147.203125 6.300781 147.203125 4.527344 C 147.203125 2.246094 145.21875 0.855469 142.808594 0.855469 C 140.488281 0.855469 138.882812 2.5 138.882812 4.234375 C 138.882812 5.160156 139.683594 5.289062 139.894531 5.289062 C 140.316406 5.289062 140.867188 4.949219 140.867188 4.273438 C 140.867188 3.9375 140.742188 3.261719 139.769531 3.261719 C 140.359375 1.953125 141.628906 1.53125 142.515625 1.53125 C 144.414062 1.53125 145.386719 3.007812 145.386719 4.527344 C 145.386719 6.175781 144.203125 7.441406 143.613281 8.117188 L 139.09375 12.636719 C 138.882812 12.804688 138.882812 12.847656 138.882812 13.355469 L 146.652344 13.355469 Z M 147.203125 9.933594 "/>
<path fill-rule="nonzero" fill="rgb(0%, 0%, 0%)" fill-opacity="1" d="M 180.246094 16.917969 L 187.761719 16.917969 C 188.144531 16.917969 188.648438 16.917969 188.648438 16.371094 C 188.648438 15.863281 188.144531 15.863281 187.761719 15.863281 L 180.246094 15.863281 L 180.246094 8.304688 C 180.246094 7.925781 180.246094 7.417969 179.699219 7.417969 C 179.148438 7.417969 179.148438 7.925781 179.148438 8.304688 L 179.148438 15.863281 L 171.632812 15.863281 C 171.25 15.863281 170.746094 15.863281 170.746094 16.371094 C 170.746094 16.917969 171.25 16.917969 171.632812 16.917969 L 179.148438 16.917969 L 179.148438 24.476562 C 179.148438 24.859375 179.148438 25.363281 179.699219 25.363281 C 180.246094 25.363281 180.246094 24.859375 180.246094 24.476562 Z M 180.246094 16.917969 "/>
<path fill-rule="nonzero" fill="rgb(0%, 0%, 0%)" fill-opacity="1" d="M 205.140625 14.976562 C 205.308594 14.300781 205.941406 11.808594 207.800781 11.808594 C 207.925781 11.808594 208.601562 11.808594 209.152344 12.148438 C 208.390625 12.316406 207.882812 12.949219 207.882812 13.625 C 207.882812 14.046875 208.179688 14.554688 208.898438 14.554688 C 209.488281 14.554688 210.335938 14.089844 210.335938 12.992188 C 210.335938 11.597656 208.773438 11.21875 207.84375 11.21875 C 206.28125 11.21875 205.351562 12.652344 205.011719 13.246094 C 204.335938 11.472656 202.902344 11.21875 202.097656 11.21875 C 199.3125 11.21875 197.75 14.679688 197.75 15.355469 C 197.75 15.652344 198.046875 15.652344 198.085938 15.652344 C 198.296875 15.652344 198.382812 15.566406 198.425781 15.355469 C 199.355469 12.484375 201.128906 11.808594 202.058594 11.808594 C 202.5625 11.808594 203.492188 12.0625 203.492188 13.625 C 203.492188 14.46875 203.027344 16.242188 202.058594 20.042969 C 201.632812 21.691406 200.664062 22.832031 199.480469 22.832031 C 199.3125 22.832031 198.722656 22.832031 198.128906 22.492188 C 198.804688 22.324219 199.398438 21.777344 199.398438 21.015625 C 199.398438 20.296875 198.804688 20.085938 198.425781 20.085938 C 197.582031 20.085938 196.945312 20.761719 196.945312 21.648438 C 196.945312 22.875 198.257812 23.421875 199.4375 23.421875 C 201.253906 23.421875 202.226562 21.523438 202.269531 21.394531 C 202.605469 22.367188 203.578125 23.421875 205.183594 23.421875 C 207.96875 23.421875 209.488281 19.960938 209.488281 19.285156 C 209.488281 18.988281 209.277344 18.988281 209.195312 18.988281 C 208.941406 18.988281 208.898438 19.113281 208.8125 19.285156 C 207.925781 22.199219 206.109375 22.832031 205.265625 22.832031 C 204.210938 22.832031 203.789062 21.988281 203.789062 21.058594 C 203.789062 20.464844 203.914062 19.875 204.210938 18.691406 Z M 205.140625 14.976562 "/>
<path fill-rule="nonzero" fill="rgb(0%, 0%, 0%)" fill-opacity="1" d="M 228.53125 16.917969 L 236.050781 16.917969 C 236.429688 16.917969 236.9375 16.917969 236.9375 16.371094 C 236.9375 15.863281 236.429688 15.863281 236.050781 15.863281 L 228.53125 15.863281 L 228.53125 8.304688 C 228.53125 7.925781 228.53125 7.417969 227.984375 7.417969 C 227.433594 7.417969 227.433594 7.925781 227.433594 8.304688 L 227.433594 15.863281 L 219.917969 15.863281 C 219.539062 15.863281 219.03125 15.863281 219.03125 16.371094 C 219.03125 16.917969 219.539062 16.917969 219.917969 16.917969 L 227.433594 16.917969 L 227.433594 24.476562 C 227.433594 24.859375 227.433594 25.363281 227.984375 25.363281 C 228.53125 25.363281 228.53125 24.859375 228.53125 24.476562 Z M 228.53125 16.917969 "/>
<path fill-rule="nonzero" fill="rgb(0%, 0%, 0%)" fill-opacity="1" d="M 252.269531 13.625 C 254.464844 12.90625 256.027344 11.050781 256.027344 8.894531 C 256.027344 6.699219 253.664062 5.179688 251.089844 5.179688 C 248.386719 5.179688 246.316406 6.785156 246.316406 8.851562 C 246.316406 9.738281 246.90625 10.246094 247.710938 10.246094 C 248.511719 10.246094 249.0625 9.65625 249.0625 8.851562 C 249.0625 7.542969 247.792969 7.542969 247.414062 7.542969 C 248.214844 6.191406 249.988281 5.855469 250.960938 5.855469 C 252.101562 5.855469 253.578125 6.445312 253.578125 8.851562 C 253.578125 9.191406 253.496094 10.753906 252.820312 11.9375 C 252.015625 13.246094 251.089844 13.328125 250.414062 13.328125 C 250.203125 13.371094 249.566406 13.414062 249.355469 13.414062 C 249.144531 13.457031 248.976562 13.5 248.976562 13.753906 C 248.976562 14.046875 249.144531 14.046875 249.609375 14.046875 L 250.792969 14.046875 C 252.988281 14.046875 254.003906 15.863281 254.003906 18.523438 C 254.003906 22.199219 252.144531 22.957031 250.960938 22.957031 C 249.777344 22.957031 247.753906 22.492188 246.824219 20.929688 C 247.753906 21.058594 248.597656 20.464844 248.597656 19.453125 C 248.597656 18.480469 247.878906 17.933594 247.117188 17.933594 C 246.441406 17.933594 245.597656 18.3125 245.597656 19.496094 C 245.597656 21.945312 248.089844 23.71875 251.046875 23.71875 C 254.339844 23.71875 256.789062 21.269531 256.789062 18.523438 C 256.789062 16.328125 255.058594 14.214844 252.269531 13.625 Z M 252.269531 13.625 "/>
<path fill="none" stroke-width="0.398" stroke-linecap="butt" stroke-linejoin="miter" stroke="rgb(0%, 0%, 0%)" stroke-opacity="1" stroke-miterlimit="10" d="M 0.000986328 -0.00196129 L 0.000986328 11.955109 " transform="matrix(2.702703, 0, 0, -2.702703, 267.427022, 32.818918)"/>
<path fill-rule="nonzero" fill="rgb(0%, 0%, 0%)" fill-opacity="1" d="M 285.933594 14.976562 C 286.105469 14.300781 286.738281 11.808594 288.597656 11.808594 C 288.722656 11.808594 289.398438 11.808594 289.949219 12.148438 C 289.1875 12.316406 288.679688 12.949219 288.679688 13.625 C 288.679688 14.046875 288.976562 14.554688 289.695312 14.554688 C 290.285156 14.554688 291.128906 14.089844 291.128906 12.992188 C 291.128906 11.597656 289.566406 11.21875 288.636719 11.21875 C 287.074219 11.21875 286.148438 12.652344 285.808594 13.246094 C 285.132812 11.472656 283.699219 11.21875 282.894531 11.21875 C 280.109375 11.21875 278.546875 14.679688 278.546875 15.355469 C 278.546875 15.652344 278.839844 15.652344 278.882812 15.652344 C 279.09375 15.652344 279.179688 15.566406 279.222656 15.355469 C 280.148438 12.484375 281.921875 11.808594 282.851562 11.808594 C 283.359375 11.808594 284.289062 12.0625 284.289062 13.625 C 284.289062 14.46875 283.824219 16.242188 282.851562 20.042969 C 282.429688 21.691406 281.460938 22.832031 280.277344 22.832031 C 280.109375 22.832031 279.515625 22.832031 278.925781 22.492188 C 279.601562 22.324219 280.191406 21.777344 280.191406 21.015625 C 280.191406 20.296875 279.601562 20.085938 279.222656 20.085938 C 278.375 20.085938 277.742188 20.761719 277.742188 21.648438 C 277.742188 22.875 279.050781 23.421875 280.234375 23.421875 C 282.050781 23.421875 283.023438 21.523438 283.0625 21.394531 C 283.402344 22.367188 284.371094 23.421875 285.976562 23.421875 C 288.765625 23.421875 290.285156 19.960938 290.285156 19.285156 C 290.285156 18.988281 290.074219 18.988281 289.988281 18.988281 C 289.734375 18.988281 289.695312 19.113281 289.609375 19.285156 C 288.722656 22.199219 286.90625 22.832031 286.0625 22.832031 C 285.007812 22.832031 284.585938 21.988281 284.585938 21.058594 C 284.585938 20.464844 284.710938 19.875 285.007812 18.691406 Z M 285.933594 14.976562 "/>
<path fill-rule="nonzero" fill="rgb(0%, 0%, 0%)" fill-opacity="1" d="M 301.832031 9.933594 L 301.199219 9.933594 C 301.15625 10.355469 300.945312 11.453125 300.691406 11.621094 C 300.566406 11.75 299.128906 11.75 298.832031 11.75 L 295.371094 11.75 C 297.355469 10.019531 298.03125 9.46875 299.128906 8.582031 C 300.523438 7.484375 301.832031 6.300781 301.832031 4.527344 C 301.832031 2.246094 299.847656 0.855469 297.441406 0.855469 C 295.117188 0.855469 293.511719 2.5 293.511719 4.234375 C 293.511719 5.160156 294.316406 5.289062 294.527344 5.289062 C 294.949219 5.289062 295.496094 4.949219 295.496094 4.273438 C 295.496094 3.9375 295.371094 3.261719 294.398438 3.261719 C 294.988281 1.953125 296.257812 1.53125 297.144531 1.53125 C 299.042969 1.53125 300.015625 3.007812 300.015625 4.527344 C 300.015625 6.175781 298.832031 7.441406 298.242188 8.117188 L 293.722656 12.636719 C 293.511719 12.804688 293.511719 12.847656 293.511719 13.355469 L 301.28125 13.355469 Z M 301.832031 9.933594 "/>
<path fill-rule="nonzero" fill="rgb(0%, 0%, 0%)" fill-opacity="1" d="M 328.128906 16.917969 C 328.59375 16.917969 329.101562 16.917969 329.101562 16.371094 C 329.101562 15.863281 328.59375 15.863281 328.128906 15.863281 L 313.558594 15.863281 C 313.09375 15.863281 312.628906 15.863281 312.628906 16.371094 C 312.628906 16.917969 313.09375 16.917969 313.558594 16.917969 Z M 328.128906 16.917969 "/>
<path fill-rule="nonzero" fill="rgb(0%, 0%, 0%)" fill-opacity="1" d="M 346.308594 14.976562 C 346.476562 14.300781 347.109375 11.808594 348.96875 11.808594 C 349.09375 11.808594 349.769531 11.808594 350.320312 12.148438 C 349.558594 12.316406 349.050781 12.949219 349.050781 13.625 C 349.050781 14.046875 349.347656 14.554688 350.066406 14.554688 C 350.65625 14.554688 351.5 14.089844 351.5 12.992188 C 351.5 11.597656 349.9375 11.21875 349.011719 11.21875 C 347.449219 11.21875 346.519531 12.652344 346.179688 13.246094 C 345.503906 11.472656 344.070312 11.21875 343.265625 11.21875 C 340.480469 11.21875 338.917969 14.679688 338.917969 15.355469 C 338.917969 15.652344 339.210938 15.652344 339.253906 15.652344 C 339.464844 15.652344 339.550781 15.566406 339.59375 15.355469 C 340.523438 12.484375 342.296875 11.808594 343.226562 11.808594 C 343.730469 11.808594 344.660156 12.0625 344.660156 13.625 C 344.660156 14.46875 344.195312 16.242188 343.226562 20.042969 C 342.800781 21.691406 341.832031 22.832031 340.648438 22.832031 C 340.480469 22.832031 339.886719 22.832031 339.296875 22.492188 C 339.972656 22.324219 340.5625 21.777344 340.5625 21.015625 C 340.5625 20.296875 339.972656 20.085938 339.59375 20.085938 C 338.75 20.085938 338.113281 20.761719 338.113281 21.648438 C 338.113281 22.875 339.425781 23.421875 340.605469 23.421875 C 342.421875 23.421875 343.394531 21.523438 343.4375 21.394531 C 343.773438 22.367188 344.746094 23.421875 346.351562 23.421875 C 349.136719 23.421875 350.65625 19.960938 350.65625 19.285156 C 350.65625 18.988281 350.445312 18.988281 350.363281 18.988281 C 350.109375 18.988281 350.066406 19.113281 349.980469 19.285156 C 349.09375 22.199219 347.277344 22.832031 346.433594 22.832031 C 345.378906 22.832031 344.957031 21.988281 344.957031 21.058594 C 344.957031 20.464844 345.082031 19.875 345.378906 18.691406 Z M 346.308594 14.976562 "/>
<path fill-rule="nonzero" fill="rgb(0%, 0%, 0%)" fill-opacity="1" d="M 369.699219 16.917969 L 377.21875 16.917969 C 377.597656 16.917969 378.105469 16.917969 378.105469 16.371094 C 378.105469 15.863281 377.597656 15.863281 377.21875 15.863281 L 369.699219 15.863281 L 369.699219 8.304688 C 369.699219 7.925781 369.699219 7.417969 369.152344 7.417969 C 368.601562 7.417969 368.601562 7.925781 368.601562 8.304688 L 368.601562 15.863281 L 361.085938 15.863281 C 360.707031 15.863281 360.199219 15.863281 360.199219 16.371094 C 360.199219 16.917969 360.707031 16.917969 361.085938 16.917969 L 368.601562 16.917969 L 368.601562 24.476562 C 368.601562 24.859375 368.601562 25.363281 369.152344 25.363281 C 369.699219 25.363281 369.699219 24.859375 369.699219 24.476562 Z M 369.699219 16.917969 "/>
<path fill-rule="nonzero" fill="rgb(0%, 0%, 0%)" fill-opacity="1" d="M 393.566406 5.898438 C 393.566406 5.222656 393.566406 5.179688 392.929688 5.179688 C 391.242188 6.910156 388.878906 6.910156 388.03125 6.910156 L 388.03125 7.753906 C 388.582031 7.753906 390.144531 7.753906 391.539062 7.039062 L 391.539062 21.015625 C 391.539062 21.988281 391.453125 22.28125 389.046875 22.28125 L 388.203125 22.28125 L 388.203125 23.128906 C 389.128906 23.042969 391.453125 23.042969 392.550781 23.042969 C 393.605469 23.042969 395.972656 23.042969 396.902344 23.128906 L 396.902344 22.28125 L 396.054688 22.28125 C 393.605469 22.28125 393.566406 21.988281 393.566406 21.015625 Z M 393.566406 5.898438 "/>
<path fill="none" stroke-width="0.398" stroke-linecap="butt" stroke-linejoin="miter" stroke="rgb(0%, 0%, 0%)" stroke-opacity="1" stroke-miterlimit="10" d="M -0.00136047 -0.00241405 L 48.91235 -0.00241405 " transform="matrix(2.702703, 0, 0, -2.702703, 266.886489, 33.356757)"/>
<path fill="none" stroke-width="0.398" stroke-linecap="butt" stroke-linejoin="miter" stroke="rgb(0%, 0%, 0%)" stroke-opacity="1" stroke-miterlimit="10" d="M 0.000986328 -0.00157761 L 0.000986328 13.23604 " transform="matrix(2.702703, 0, 0, -2.702703, 267.427022, 68.597299)"/>
<path fill-rule="nonzero" fill="rgb(0%, 0%, 0%)" fill-opacity="1" d="M 280.488281 50.078125 L 280.488281 49.402344 C 280.488281 42.601562 283.824219 41.628906 285.21875 41.628906 C 285.851562 41.628906 286.992188 41.800781 287.582031 42.730469 C 287.160156 42.730469 286.105469 42.730469 286.105469 43.910156 C 286.105469 44.753906 286.738281 45.179688 287.328125 45.179688 C 287.75 45.179688 288.597656 44.925781 288.597656 43.867188 C 288.597656 42.265625 287.414062 40.953125 285.175781 40.953125 C 281.710938 40.953125 278.082031 44.417969 278.082031 50.371094 C 278.082031 57.59375 281.207031 59.492188 283.699219 59.492188 C 286.695312 59.492188 289.273438 56.960938 289.273438 53.414062 C 289.273438 49.992188 286.863281 47.417969 283.867188 47.417969 C 282.050781 47.417969 281.035156 48.765625 280.488281 50.078125 Z M 283.699219 58.734375 C 282.007812 58.734375 281.207031 57.128906 281.035156 56.707031 C 280.53125 55.441406 280.53125 53.285156 280.53125 52.820312 C 280.53125 50.710938 281.417969 48.007812 283.824219 48.007812 C 284.289062 48.007812 285.511719 48.007812 286.359375 49.695312 C 286.824219 50.667969 286.824219 52.0625 286.824219 53.371094 C 286.824219 54.679688 286.824219 56.03125 286.359375 57.003906 C 285.554688 58.605469 284.332031 58.734375 283.699219 58.734375 Z M 283.699219 58.734375 "/>
<path fill-rule="nonzero" fill="rgb(0%, 0%, 0%)" fill-opacity="1" d="M 299.398438 50.753906 C 299.566406 50.078125 300.199219 47.585938 302.058594 47.585938 C 302.1875 47.585938 302.859375 47.585938 303.410156 47.921875 C 302.648438 48.09375 302.144531 48.726562 302.144531 49.402344 C 302.144531 49.824219 302.4375 50.328125 303.15625 50.328125 C 303.75 50.328125 304.59375 49.867188 304.59375 48.765625 C 304.59375 47.375 303.03125 46.992188 302.101562 46.992188 C 300.539062 46.992188 299.609375 48.429688 299.273438 49.019531 C 298.597656 47.246094 297.160156 46.992188 296.359375 46.992188 C 293.570312 46.992188 292.007812 50.457031 292.007812 51.132812 C 292.007812 51.429688 292.304688 51.429688 292.347656 51.429688 C 292.558594 51.429688 292.640625 51.34375 292.683594 51.132812 C 293.613281 48.261719 295.386719 47.585938 296.316406 47.585938 C 296.824219 47.585938 297.75 47.839844 297.75 49.402344 C 297.75 50.246094 297.285156 52.019531 296.316406 55.820312 C 295.894531 57.46875 294.921875 58.605469 293.738281 58.605469 C 293.570312 58.605469 292.980469 58.605469 292.386719 58.269531 C 293.0625 58.101562 293.65625 57.550781 293.65625 56.792969 C 293.65625 56.074219 293.0625 55.863281 292.683594 55.863281 C 291.839844 55.863281 291.207031 56.539062 291.207031 57.425781 C 291.207031 58.648438 292.515625 59.199219 293.699219 59.199219 C 295.511719 59.199219 296.484375 57.296875 296.527344 57.171875 C 296.863281 58.140625 297.835938 59.199219 299.441406 59.199219 C 302.226562 59.199219 303.75 55.734375 303.75 55.058594 C 303.75 54.765625 303.535156 54.765625 303.453125 54.765625 C 303.199219 54.765625 303.15625 54.890625 303.074219 55.058594 C 302.1875 57.972656 300.371094 58.605469 299.523438 58.605469 C 298.46875 58.605469 298.046875 57.761719 298.046875 56.832031 C 298.046875 56.242188 298.171875 55.652344 298.46875 54.46875 Z M 299.398438 50.753906 "/>
<path fill-rule="nonzero" fill="rgb(0%, 0%, 0%)" fill-opacity="1" d="M 322.792969 52.695312 L 330.308594 52.695312 C 330.6875 52.695312 331.195312 52.695312 331.195312 52.144531 C 331.195312 51.640625 330.6875 51.640625 330.308594 51.640625 L 322.792969 51.640625 L 322.792969 44.078125 C 322.792969 43.699219 322.792969 43.191406 322.242188 43.191406 C 321.691406 43.191406 321.691406 43.699219 321.691406 44.078125 L 321.691406 51.640625 L 314.175781 51.640625 C 313.796875 51.640625 313.289062 51.640625 313.289062 52.144531 C 313.289062 52.695312 313.796875 52.695312 314.175781 52.695312 L 321.691406 52.695312 L 321.691406 60.253906 C 321.691406 60.632812 321.691406 61.140625 322.242188 61.140625 C 322.792969 61.140625 322.792969 60.632812 322.792969 60.253906 Z M 322.792969 52.695312 "/>
<path fill-rule="nonzero" fill="rgb(0%, 0%, 0%)" fill-opacity="1" d="M 346.628906 54.46875 L 346.628906 56.792969 C 346.628906 57.761719 346.542969 58.058594 344.558594 58.058594 L 344.011719 58.058594 L 344.011719 58.902344 C 345.109375 58.816406 346.503906 58.816406 347.640625 58.816406 C 348.78125 58.816406 350.175781 58.816406 351.316406 58.902344 L 351.316406 58.058594 L 350.726562 58.058594 C 348.742188 58.058594 348.699219 57.761719 348.699219 56.792969 L 348.699219 54.46875 L 351.359375 54.46875 L 351.359375 53.625 L 348.699219 53.625 L 348.699219 41.378906 C 348.699219 40.828125 348.699219 40.660156 348.234375 40.660156 C 348.023438 40.660156 347.9375 40.660156 347.726562 40.996094 L 339.449219 53.625 L 339.449219 54.46875 Z M 346.753906 53.625 L 340.210938 53.625 L 346.753906 43.574219 Z M 346.753906 53.625 "/>
<path fill-rule="nonzero" fill="rgb(0%, 0%, 0%)" fill-opacity="1" d="M 25.828125 52.695312 C 26.292969 52.695312 26.800781 52.695312 26.800781 52.144531 C 26.800781 51.640625 26.292969 51.640625 25.828125 51.640625 L 11.261719 51.640625 C 10.796875 51.640625 10.332031 51.640625 10.332031 52.144531 C 10.332031 52.695312 10.796875 52.695312 11.261719 52.695312 Z M 25.828125 52.695312 "/>
<path fill-rule="nonzero" fill="rgb(0%, 0%, 0%)" fill-opacity="1" d="M 38.5625 50.078125 L 38.5625 49.402344 C 38.5625 42.601562 41.898438 41.628906 43.289062 41.628906 C 43.925781 41.628906 45.0625 41.800781 45.65625 42.730469 C 45.234375 42.730469 44.175781 42.730469 44.175781 43.910156 C 44.175781 44.753906 44.8125 45.179688 45.402344 45.179688 C 45.824219 45.179688 46.667969 44.925781 46.667969 43.867188 C 46.667969 42.265625 45.488281 40.953125 43.25 40.953125 C 39.785156 40.953125 36.152344 44.417969 36.152344 50.371094 C 36.152344 57.59375 39.277344 59.492188 41.769531 59.492188 C 44.769531 59.492188 47.34375 56.960938 47.34375 53.414062 C 47.34375 49.992188 44.9375 47.417969 41.9375 47.417969 C 40.125 47.417969 39.109375 48.765625 38.5625 50.078125 Z M 41.769531 58.734375 C 40.082031 58.734375 39.277344 57.128906 39.109375 56.707031 C 38.601562 55.441406 38.601562 53.285156 38.601562 52.820312 C 38.601562 50.710938 39.488281 48.007812 41.898438 48.007812 C 42.363281 48.007812 43.585938 48.007812 44.429688 49.695312 C 44.894531 50.667969 44.894531 52.0625 44.894531 53.371094 C 44.894531 54.679688 44.894531 56.03125 44.429688 57.003906 C 43.628906 58.605469 42.402344 58.734375 41.769531 58.734375 Z M 41.769531 58.734375 "/>
<path fill-rule="nonzero" fill="rgb(0%, 0%, 0%)" fill-opacity="1" d="M 57.472656 50.753906 C 57.640625 50.078125 58.273438 47.585938 60.132812 47.585938 C 60.257812 47.585938 60.933594 47.585938 61.484375 47.921875 C 60.722656 48.09375 60.214844 48.726562 60.214844 49.402344 C 60.214844 49.824219 60.511719 50.328125 61.230469 50.328125 C 61.820312 50.328125 62.664062 49.867188 62.664062 48.765625 C 62.664062 47.375 61.101562 46.992188 60.175781 46.992188 C 58.613281 46.992188 57.683594 48.429688 57.34375 49.019531 C 56.667969 47.246094 55.234375 46.992188 54.429688 46.992188 C 51.644531 46.992188 50.082031 50.457031 50.082031 51.132812 C 50.082031 51.429688 50.375 51.429688 50.417969 51.429688 C 50.628906 51.429688 50.714844 51.34375 50.757812 51.132812 C 51.6875 48.261719 53.460938 47.585938 54.390625 47.585938 C 54.894531 47.585938 55.824219 47.839844 55.824219 49.402344 C 55.824219 50.246094 55.359375 52.019531 54.390625 55.820312 C 53.964844 57.46875 52.996094 58.605469 51.8125 58.605469 C 51.644531 58.605469 51.050781 58.605469 50.460938 58.269531 C 51.136719 58.101562 51.726562 57.550781 51.726562 56.792969 C 51.726562 56.074219 51.136719 55.863281 50.757812 55.863281 C 49.914062 55.863281 49.277344 56.539062 49.277344 57.425781 C 49.277344 58.648438 50.589844 59.199219 51.769531 59.199219 C 53.585938 59.199219 54.558594 57.296875 54.601562 57.171875 C 54.9375 58.140625 55.910156 59.199219 57.515625 59.199219 C 60.300781 59.199219 61.820312 55.734375 61.820312 55.058594 C 61.820312 54.765625 61.609375 54.765625 61.527344 54.765625 C 61.273438 54.765625 61.230469 54.890625 61.144531 55.058594 C 60.257812 57.972656 58.441406 58.605469 57.597656 58.605469 C 56.542969 58.605469 56.121094 57.761719 56.121094 56.832031 C 56.121094 56.242188 56.246094 55.652344 56.542969 54.46875 Z M 57.472656 50.753906 "/>
<path fill-rule="nonzero" fill="rgb(0%, 0%, 0%)" fill-opacity="1" d="M 69.011719 42.839844 C 70.488281 42.839844 71.546875 43.855469 71.546875 45.878906 C 71.546875 48.203125 70.152344 48.921875 69.097656 48.921875 C 68.335938 48.921875 66.648438 48.710938 65.886719 47.570312 C 66.773438 47.570312 66.984375 46.9375 66.984375 46.515625 C 66.984375 45.921875 66.519531 45.5 65.929688 45.5 C 65.421875 45.5 64.871094 45.839844 64.871094 46.597656 C 64.871094 48.371094 66.816406 49.511719 69.097656 49.511719 C 71.714844 49.511719 73.53125 47.738281 73.53125 45.878906 C 73.53125 44.402344 72.347656 42.925781 70.277344 42.503906 C 72.222656 41.785156 72.9375 40.390625 72.9375 39.207031 C 72.9375 37.730469 71.25 36.632812 69.136719 36.632812 C 67.070312 36.632812 65.464844 37.644531 65.464844 39.167969 C 65.464844 39.800781 65.886719 40.136719 66.433594 40.136719 C 67.027344 40.136719 67.40625 39.714844 67.40625 39.207031 C 67.40625 38.660156 67.027344 38.238281 66.433594 38.195312 C 67.109375 37.390625 68.378906 37.179688 69.097656 37.179688 C 69.941406 37.179688 71.121094 37.605469 71.121094 39.207031 C 71.121094 40.011719 70.871094 40.898438 70.363281 41.445312 C 69.773438 42.164062 69.222656 42.207031 68.292969 42.292969 C 67.828125 42.332031 67.785156 42.332031 67.703125 42.332031 C 67.660156 42.332031 67.492188 42.375 67.492188 42.585938 C 67.492188 42.839844 67.660156 42.839844 67.996094 42.839844 Z M 69.011719 42.839844 "/>
<path fill-rule="nonzero" fill="rgb(0%, 0%, 0%)" fill-opacity="1" d="M 92.945312 52.695312 L 100.460938 52.695312 C 100.839844 52.695312 101.347656 52.695312 101.347656 52.144531 C 101.347656 51.640625 100.839844 51.640625 100.460938 51.640625 L 92.945312 51.640625 L 92.945312 44.078125 C 92.945312 43.699219 92.945312 43.191406 92.394531 43.191406 C 91.84375 43.191406 91.84375 43.699219 91.84375 44.078125 L 91.84375 51.640625 L 84.328125 51.640625 C 83.949219 51.640625 83.441406 51.640625 83.441406 52.144531 C 83.441406 52.695312 83.949219 52.695312 84.328125 52.695312 L 91.84375 52.695312 L 91.84375 60.253906 C 91.84375 60.632812 91.84375 61.140625 92.394531 61.140625 C 92.945312 61.140625 92.945312 60.632812 92.945312 60.253906 Z M 92.945312 52.695312 "/>
<path fill-rule="nonzero" fill="rgb(0%, 0%, 0%)" fill-opacity="1" d="M 112.390625 50.078125 L 112.390625 49.402344 C 112.390625 42.601562 115.726562 41.628906 117.121094 41.628906 C 117.753906 41.628906 118.894531 41.800781 119.484375 42.730469 C 119.0625 42.730469 118.007812 42.730469 118.007812 43.910156 C 118.007812 44.753906 118.640625 45.179688 119.230469 45.179688 C 119.652344 45.179688 120.496094 44.925781 120.496094 43.867188 C 120.496094 42.265625 119.316406 40.953125 117.078125 40.953125 C 113.613281 40.953125 109.980469 44.417969 109.980469 50.371094 C 109.980469 57.59375 113.105469 59.492188 115.597656 59.492188 C 118.597656 59.492188 121.171875 56.960938 121.171875 53.414062 C 121.171875 49.992188 118.765625 47.417969 115.769531 47.417969 C 113.953125 47.417969 112.9375 48.765625 112.390625 50.078125 Z M 115.597656 58.734375 C 113.910156 58.734375 113.105469 57.128906 112.9375 56.707031 C 112.433594 55.441406 112.433594 53.285156 112.433594 52.820312 C 112.433594 50.710938 113.320312 48.007812 115.726562 48.007812 C 116.191406 48.007812 117.414062 48.007812 118.257812 49.695312 C 118.722656 50.667969 118.722656 52.0625 118.722656 53.371094 C 118.722656 54.679688 118.722656 56.03125 118.257812 57.003906 C 117.457031 58.605469 116.230469 58.734375 115.597656 58.734375 Z M 115.597656 58.734375 "/>
<path fill-rule="nonzero" fill="rgb(0%, 0%, 0%)" fill-opacity="1" d="M 131.300781 50.753906 C 131.46875 50.078125 132.101562 47.585938 133.960938 47.585938 C 134.085938 47.585938 134.761719 47.585938 135.3125 47.921875 C 134.550781 48.09375 134.046875 48.726562 134.046875 49.402344 C 134.046875 49.824219 134.339844 50.328125 135.058594 50.328125 C 135.648438 50.328125 136.496094 49.867188 136.496094 48.765625 C 136.496094 47.375 134.933594 46.992188 134.003906 46.992188 C 132.441406 46.992188 131.511719 48.429688 131.171875 49.019531 C 130.496094 47.246094 129.0625 46.992188 128.257812 46.992188 C 125.472656 46.992188 123.910156 50.457031 123.910156 51.132812 C 123.910156 51.429688 124.207031 51.429688 124.246094 51.429688 C 124.457031 51.429688 124.542969 51.34375 124.585938 51.132812 C 125.515625 48.261719 127.289062 47.585938 128.21875 47.585938 C 128.722656 47.585938 129.652344 47.839844 129.652344 49.402344 C 129.652344 50.246094 129.1875 52.019531 128.21875 55.820312 C 127.796875 57.46875 126.824219 58.605469 125.640625 58.605469 C 125.472656 58.605469 124.882812 58.605469 124.289062 58.269531 C 124.964844 58.101562 125.558594 57.550781 125.558594 56.792969 C 125.558594 56.074219 124.964844 55.863281 124.585938 55.863281 C 123.742188 55.863281 123.109375 56.539062 123.109375 57.425781 C 123.109375 58.648438 124.417969 59.199219 125.597656 59.199219 C 127.414062 59.199219 128.386719 57.296875 128.429688 57.171875 C 128.765625 58.140625 129.738281 59.199219 131.34375 59.199219 C 134.128906 59.199219 135.648438 55.734375 135.648438 55.058594 C 135.648438 54.765625 135.4375 54.765625 135.355469 54.765625 C 135.101562 54.765625 135.058594 54.890625 134.972656 55.058594 C 134.085938 57.972656 132.269531 58.605469 131.425781 58.605469 C 130.371094 58.605469 129.949219 57.761719 129.949219 56.832031 C 129.949219 56.242188 130.074219 55.652344 130.371094 54.46875 Z M 131.300781 50.753906 "/>
<path fill-rule="nonzero" fill="rgb(0%, 0%, 0%)" fill-opacity="1" d="M 147.203125 45.710938 L 146.566406 45.710938 C 146.527344 46.132812 146.316406 47.230469 146.0625 47.402344 C 145.933594 47.527344 144.5 47.527344 144.203125 47.527344 L 140.742188 47.527344 C 142.726562 45.796875 143.402344 45.246094 144.5 44.359375 C 145.890625 43.261719 147.203125 42.078125 147.203125 40.304688 C 147.203125 38.027344 145.21875 36.632812 142.808594 36.632812 C 140.488281 36.632812 138.882812 38.28125 138.882812 40.011719 C 138.882812 40.941406 139.683594 41.066406 139.894531 41.066406 C 140.316406 41.066406 140.867188 40.730469 140.867188 40.054688 C 140.867188 39.714844 140.742188 39.039062 139.769531 39.039062 C 140.359375 37.730469 141.628906 37.308594 142.515625 37.308594 C 144.414062 37.308594 145.386719 38.785156 145.386719 40.304688 C 145.386719 41.953125 144.203125 43.21875 143.613281 43.894531 L 139.09375 48.414062 C 138.882812 48.582031 138.882812 48.625 138.882812 49.132812 L 146.652344 49.132812 Z M 147.203125 45.710938 "/>
<path fill-rule="nonzero" fill="rgb(0%, 0%, 0%)" fill-opacity="1" d="M 173.5 52.695312 C 173.964844 52.695312 174.46875 52.695312 174.46875 52.144531 C 174.46875 51.640625 173.964844 51.640625 173.5 51.640625 L 158.929688 51.640625 C 158.464844 51.640625 158 51.640625 158 52.144531 C 158 52.695312 158.464844 52.695312 158.929688 52.695312 Z M 173.5 52.695312 "/>
<path fill-rule="nonzero" fill="rgb(0%, 0%, 0%)" fill-opacity="1" d="M 186.230469 50.078125 L 186.230469 49.402344 C 186.230469 42.601562 189.566406 41.628906 190.960938 41.628906 C 191.59375 41.628906 192.734375 41.800781 193.324219 42.730469 C 192.902344 42.730469 191.847656 42.730469 191.847656 43.910156 C 191.847656 44.753906 192.480469 45.179688 193.070312 45.179688 C 193.492188 45.179688 194.339844 44.925781 194.339844 43.867188 C 194.339844 42.265625 193.15625 40.953125 190.917969 40.953125 C 187.453125 40.953125 183.824219 44.417969 183.824219 50.371094 C 183.824219 57.59375 186.949219 59.492188 189.441406 59.492188 C 192.4375 59.492188 195.015625 56.960938 195.015625 53.414062 C 195.015625 49.992188 192.605469 47.417969 189.609375 47.417969 C 187.792969 47.417969 186.777344 48.765625 186.230469 50.078125 Z M 189.441406 58.734375 C 187.75 58.734375 186.949219 57.128906 186.777344 56.707031 C 186.273438 55.441406 186.273438 53.285156 186.273438 52.820312 C 186.273438 50.710938 187.160156 48.007812 189.566406 48.007812 C 190.03125 48.007812 191.253906 48.007812 192.101562 49.695312 C 192.566406 50.667969 192.566406 52.0625 192.566406 53.371094 C 192.566406 54.679688 192.566406 56.03125 192.101562 57.003906 C 191.296875 58.605469 190.074219 58.734375 189.441406 58.734375 Z M 189.441406 58.734375 "/>
<path fill-rule="nonzero" fill="rgb(0%, 0%, 0%)" fill-opacity="1" d="M 205.140625 50.753906 C 205.308594 50.078125 205.941406 47.585938 207.800781 47.585938 C 207.929688 47.585938 208.601562 47.585938 209.152344 47.921875 C 208.390625 48.09375 207.886719 48.726562 207.886719 49.402344 C 207.886719 49.824219 208.179688 50.328125 208.898438 50.328125 C 209.492188 50.328125 210.335938 49.867188 210.335938 48.765625 C 210.335938 47.375 208.773438 46.992188 207.84375 46.992188 C 206.28125 46.992188 205.351562 48.429688 205.015625 49.019531 C 204.339844 47.246094 202.902344 46.992188 202.101562 46.992188 C 199.3125 46.992188 197.75 50.457031 197.75 51.132812 C 197.75 51.429688 198.046875 51.429688 198.089844 51.429688 C 198.300781 51.429688 198.382812 51.34375 198.425781 51.132812 C 199.355469 48.261719 201.128906 47.585938 202.058594 47.585938 C 202.566406 47.585938 203.492188 47.839844 203.492188 49.402344 C 203.492188 50.246094 203.027344 52.019531 202.058594 55.820312 C 201.636719 57.46875 200.664062 58.605469 199.480469 58.605469 C 199.3125 58.605469 198.722656 58.605469 198.128906 58.269531 C 198.804688 58.101562 199.398438 57.550781 199.398438 56.792969 C 199.398438 56.074219 198.804688 55.863281 198.425781 55.863281 C 197.582031 55.863281 196.949219 56.539062 196.949219 57.425781 C 196.949219 58.648438 198.257812 59.199219 199.441406 59.199219 C 201.253906 59.199219 202.226562 57.296875 202.269531 57.171875 C 202.605469 58.140625 203.578125 59.199219 205.183594 59.199219 C 207.96875 59.199219 209.492188 55.734375 209.492188 55.058594 C 209.492188 54.765625 209.277344 54.765625 209.195312 54.765625 C 208.941406 54.765625 208.898438 54.890625 208.816406 55.058594 C 207.929688 57.972656 206.113281 58.605469 205.265625 58.605469 C 204.210938 58.605469 203.789062 57.761719 203.789062 56.832031 C 203.789062 56.242188 203.914062 55.652344 204.210938 54.46875 Z M 205.140625 50.753906 "/>
<path fill="none" stroke-width="0.398" stroke-linecap="butt" stroke-linejoin="miter" stroke="rgb(0%, 0%, 0%)" stroke-opacity="1" stroke-miterlimit="10" d="M 0.0015781 0.00230461 L 77.493453 0.00230461 " transform="matrix(2.702703, 0, 0, -2.702703, 2.097297, 69.135135)"/>
<path fill-rule="nonzero" fill="rgb(0%, 0%, 0%)" fill-opacity="1" d="M 116.785156 94.859375 L 116.785156 97.179688 C 116.785156 98.152344 116.699219 98.449219 114.714844 98.449219 L 114.167969 98.449219 L 114.167969 99.292969 C 115.265625 99.207031 116.660156 99.207031 117.796875 99.207031 C 118.9375 99.207031 120.332031 99.207031 121.472656 99.292969 L 121.472656 98.449219 L 120.882812 98.449219 C 118.898438 98.449219 118.855469 98.152344 118.855469 97.179688 L 118.855469 94.859375 L 121.515625 94.859375 L 121.515625 94.011719 L 118.855469 94.011719 L 118.855469 81.765625 C 118.855469 81.21875 118.855469 81.046875 118.390625 81.046875 C 118.179688 81.046875 118.09375 81.046875 117.882812 81.386719 L 109.605469 94.011719 L 109.605469 94.859375 Z M 116.910156 94.011719 L 110.367188 94.011719 L 116.910156 83.960938 Z M 116.910156 94.011719 "/>
<path fill-rule="nonzero" fill="rgb(0%, 0%, 0%)" fill-opacity="1" d="M 131.304688 91.140625 C 131.472656 90.464844 132.105469 87.972656 133.964844 87.972656 C 134.089844 87.972656 134.765625 87.972656 135.316406 88.3125 C 134.554688 88.480469 134.046875 89.113281 134.046875 89.789062 C 134.046875 90.210938 134.34375 90.71875 135.0625 90.71875 C 135.652344 90.71875 136.5 90.253906 136.5 89.15625 C 136.5 87.761719 134.9375 87.382812 134.007812 87.382812 C 132.445312 87.382812 131.515625 88.820312 131.175781 89.410156 C 130.5 87.636719 129.066406 87.382812 128.261719 87.382812 C 125.476562 87.382812 123.914062 90.847656 123.914062 91.523438 C 123.914062 91.816406 124.210938 91.816406 124.25 91.816406 C 124.460938 91.816406 124.546875 91.734375 124.589844 91.523438 C 125.519531 88.648438 127.292969 87.972656 128.222656 87.972656 C 128.726562 87.972656 129.65625 88.226562 129.65625 89.789062 C 129.65625 90.636719 129.191406 92.410156 128.222656 96.210938 C 127.796875 97.855469 126.828125 98.996094 125.644531 98.996094 C 125.476562 98.996094 124.886719 98.996094 124.292969 98.660156 C 124.96875 98.488281 125.5625 97.941406 125.5625 97.179688 C 125.5625 96.460938 124.96875 96.25 124.589844 96.25 C 123.746094 96.25 123.109375 96.925781 123.109375 97.8125 C 123.109375 99.039062 124.421875 99.585938 125.601562 99.585938 C 127.417969 99.585938 128.390625 97.6875 128.433594 97.558594 C 128.769531 98.53125 129.742188 99.585938 131.347656 99.585938 C 134.132812 99.585938 135.652344 96.125 135.652344 95.449219 C 135.652344 95.152344 135.441406 95.152344 135.359375 95.152344 C 135.105469 95.152344 135.0625 95.28125 134.976562 95.449219 C 134.089844 98.363281 132.273438 98.996094 131.429688 98.996094 C 130.375 98.996094 129.953125 98.152344 129.953125 97.222656 C 129.953125 96.632812 130.078125 96.039062 130.375 94.859375 Z M 131.304688 91.140625 "/>
<path fill-rule="nonzero" fill="rgb(0%, 0%, 0%)" fill-opacity="1" d="M 147.203125 86.101562 L 146.566406 86.101562 C 146.527344 86.523438 146.316406 87.621094 146.0625 87.789062 C 145.933594 87.917969 144.5 87.917969 144.203125 87.917969 L 140.742188 87.917969 C 142.726562 86.183594 143.402344 85.636719 144.5 84.75 C 145.890625 83.652344 147.203125 82.46875 147.203125 80.695312 C 147.203125 78.414062 145.21875 77.023438 142.808594 77.023438 C 140.488281 77.023438 138.882812 78.667969 138.882812 80.398438 C 138.882812 81.328125 139.683594 81.457031 139.894531 81.457031 C 140.316406 81.457031 140.867188 81.117188 140.867188 80.441406 C 140.867188 80.105469 140.742188 79.429688 139.769531 79.429688 C 140.359375 78.121094 141.628906 77.699219 142.515625 77.699219 C 144.414062 77.699219 145.386719 79.175781 145.386719 80.695312 C 145.386719 82.34375 144.203125 83.609375 143.613281 84.285156 L 139.09375 88.804688 C 138.882812 88.972656 138.882812 89.015625 138.882812 89.523438 L 146.652344 89.523438 Z M 147.203125 86.101562 "/>
<path fill-rule="nonzero" fill="rgb(0%, 0%, 0%)" fill-opacity="1" d="M 173.5 93.085938 C 173.964844 93.085938 174.46875 93.085938 174.46875 92.535156 C 174.46875 92.027344 173.964844 92.027344 173.5 92.027344 L 158.929688 92.027344 C 158.464844 92.027344 158 92.027344 158 92.535156 C 158 93.085938 158.464844 93.085938 158.929688 93.085938 Z M 173.5 93.085938 "/>
<path fill-rule="nonzero" fill="rgb(0%, 0%, 0%)" fill-opacity="1" d="M 194.761719 93.886719 C 194.761719 90.675781 192.566406 87.972656 189.652344 87.972656 C 188.382812 87.972656 187.203125 88.398438 186.230469 89.367188 L 186.230469 84.089844 C 186.777344 84.257812 187.664062 84.425781 188.511719 84.425781 C 191.847656 84.425781 193.746094 81.976562 193.746094 81.640625 C 193.746094 81.472656 193.664062 81.34375 193.453125 81.34375 C 193.453125 81.34375 193.367188 81.34375 193.238281 81.429688 C 192.691406 81.683594 191.382812 82.230469 189.566406 82.230469 C 188.511719 82.230469 187.242188 82.019531 185.976562 81.472656 C 185.765625 81.386719 185.722656 81.386719 185.679688 81.386719 C 185.386719 81.386719 185.386719 81.597656 185.386719 82.019531 L 185.386719 90 C 185.386719 90.464844 185.386719 90.675781 185.765625 90.675781 C 185.976562 90.675781 186.019531 90.636719 186.144531 90.464844 C 186.441406 90.042969 187.414062 88.566406 189.609375 88.566406 C 191.003906 88.566406 191.675781 89.789062 191.890625 90.296875 C 192.3125 91.308594 192.394531 92.324219 192.394531 93.675781 C 192.394531 94.648438 192.394531 96.25 191.71875 97.390625 C 191.085938 98.449219 190.074219 99.121094 188.847656 99.121094 C 186.90625 99.121094 185.34375 97.6875 184.878906 96.125 C 184.964844 96.125 185.046875 96.167969 185.34375 96.167969 C 186.230469 96.167969 186.695312 95.492188 186.695312 94.859375 C 186.695312 94.183594 186.230469 93.507812 185.34375 93.507812 C 184.964844 93.507812 184.035156 93.71875 184.035156 94.941406 C 184.035156 97.265625 185.890625 99.882812 188.890625 99.882812 C 192.015625 99.882812 194.761719 97.308594 194.761719 93.886719 Z M 194.761719 93.886719 "/>
<path fill-rule="nonzero" fill="rgb(0%, 0%, 0%)" fill-opacity="1" d="M 205.140625 91.140625 C 205.308594 90.464844 205.941406 87.972656 207.800781 87.972656 C 207.929688 87.972656 208.601562 87.972656 209.152344 88.3125 C 208.390625 88.480469 207.886719 89.113281 207.886719 89.789062 C 207.886719 90.210938 208.179688 90.71875 208.898438 90.71875 C 209.492188 90.71875 210.335938 90.253906 210.335938 89.15625 C 210.335938 87.761719 208.773438 87.382812 207.84375 87.382812 C 206.28125 87.382812 205.351562 88.820312 205.015625 89.410156 C 204.339844 87.636719 202.902344 87.382812 202.101562 87.382812 C 199.3125 87.382812 197.75 90.847656 197.75 91.523438 C 197.75 91.816406 198.046875 91.816406 198.089844 91.816406 C 198.300781 91.816406 198.382812 91.734375 198.425781 91.523438 C 199.355469 88.648438 201.128906 87.972656 202.058594 87.972656 C 202.566406 87.972656 203.492188 88.226562 203.492188 89.789062 C 203.492188 90.636719 203.027344 92.410156 202.058594 96.210938 C 201.636719 97.855469 200.664062 98.996094 199.480469 98.996094 C 199.3125 98.996094 198.722656 98.996094 198.128906 98.660156 C 198.804688 98.488281 199.398438 97.941406 199.398438 97.179688 C 199.398438 96.460938 198.804688 96.25 198.425781 96.25 C 197.582031 96.25 196.949219 96.925781 196.949219 97.8125 C 196.949219 99.039062 198.257812 99.585938 199.441406 99.585938 C 201.253906 99.585938 202.226562 97.6875 202.269531 97.558594 C 202.605469 98.53125 203.578125 99.585938 205.183594 99.585938 C 207.96875 99.585938 209.492188 96.125 209.492188 95.449219 C 209.492188 95.152344 209.277344 95.152344 209.195312 95.152344 C 208.941406 95.152344 208.898438 95.28125 208.816406 95.449219 C 207.929688 98.363281 206.113281 98.996094 205.265625 98.996094 C 204.210938 98.996094 203.789062 98.152344 203.789062 97.222656 C 203.789062 96.632812 203.914062 96.039062 204.210938 94.859375 Z M 205.140625 91.140625 "/>
<path fill-rule="nonzero" fill="rgb(0%, 0%, 0%)" fill-opacity="1" d="M 228.535156 93.085938 L 236.050781 93.085938 C 236.429688 93.085938 236.9375 93.085938 236.9375 92.535156 C 236.9375 92.027344 236.429688 92.027344 236.050781 92.027344 L 228.535156 92.027344 L 228.535156 84.46875 C 228.535156 84.089844 228.535156 83.582031 227.984375 83.582031 C 227.433594 83.582031 227.433594 84.089844 227.433594 84.46875 L 227.433594 92.027344 L 219.917969 92.027344 C 219.539062 92.027344 219.03125 92.027344 219.03125 92.535156 C 219.03125 93.085938 219.539062 93.085938 219.917969 93.085938 L 227.433594 93.085938 L 227.433594 100.644531 C 227.433594 101.023438 227.433594 101.53125 227.984375 101.53125 C 228.535156 101.53125 228.535156 101.023438 228.535156 100.644531 Z M 228.535156 93.085938 "/>
<path fill-rule="nonzero" fill="rgb(0%, 0%, 0%)" fill-opacity="1" d="M 252.269531 89.789062 C 254.46875 89.074219 256.03125 87.214844 256.03125 85.058594 C 256.03125 82.863281 253.664062 81.34375 251.089844 81.34375 C 248.386719 81.34375 246.316406 82.949219 246.316406 85.019531 C 246.316406 85.90625 246.910156 86.410156 247.710938 86.410156 C 248.511719 86.410156 249.0625 85.820312 249.0625 85.019531 C 249.0625 83.710938 247.796875 83.710938 247.414062 83.710938 C 248.21875 82.359375 249.992188 82.019531 250.960938 82.019531 C 252.101562 82.019531 253.582031 82.609375 253.582031 85.019531 C 253.582031 85.355469 253.496094 86.917969 252.820312 88.101562 C 252.019531 89.410156 251.089844 89.496094 250.414062 89.496094 C 250.203125 89.535156 249.570312 89.578125 249.359375 89.578125 C 249.144531 89.621094 248.976562 89.664062 248.976562 89.917969 C 248.976562 90.210938 249.144531 90.210938 249.609375 90.210938 L 250.792969 90.210938 C 252.988281 90.210938 254.003906 92.027344 254.003906 94.6875 C 254.003906 98.363281 252.144531 99.121094 250.960938 99.121094 C 249.78125 99.121094 247.753906 98.660156 246.824219 97.097656 C 247.753906 97.222656 248.597656 96.632812 248.597656 95.617188 C 248.597656 94.648438 247.878906 94.097656 247.121094 94.097656 C 246.445312 94.097656 245.597656 94.476562 245.597656 95.660156 C 245.597656 98.109375 248.089844 99.882812 251.046875 99.882812 C 254.339844 99.882812 256.789062 97.433594 256.789062 94.6875 C 256.789062 92.492188 255.058594 90.382812 252.269531 89.789062 Z M 252.269531 89.789062 "/>
<path fill-rule="nonzero" fill="rgb(0%, 0%, 0%)" fill-opacity="1" d="M 99.65625 125.398438 C 100.121094 125.398438 100.628906 125.398438 100.628906 124.847656 C 100.628906 124.34375 100.121094 124.34375 99.65625 124.34375 L 85.089844 124.34375 C 84.625 124.34375 84.160156 124.34375 84.160156 124.847656 C 84.160156 125.398438 84.625 125.398438 85.089844 125.398438 Z M 99.65625 125.398438 "/>
<path fill-rule="nonzero" fill="rgb(0%, 0%, 0%)" fill-opacity="1" d="M 116.78125 127.171875 L 116.78125 129.492188 C 116.78125 130.464844 116.695312 130.761719 114.710938 130.761719 L 114.164062 130.761719 L 114.164062 131.605469 C 115.261719 131.519531 116.65625 131.519531 117.792969 131.519531 C 118.933594 131.519531 120.328125 131.519531 121.46875 131.605469 L 121.46875 130.761719 L 120.878906 130.761719 C 118.894531 130.761719 118.851562 130.464844 118.851562 129.492188 L 118.851562 127.171875 L 121.511719 127.171875 L 121.511719 126.328125 L 118.851562 126.328125 L 118.851562 114.078125 C 118.851562 113.53125 118.851562 113.363281 118.386719 113.363281 C 118.175781 113.363281 118.089844 113.363281 117.878906 113.699219 L 109.601562 126.328125 L 109.601562 127.171875 Z M 116.90625 126.328125 L 110.363281 126.328125 L 116.90625 116.277344 Z M 116.90625 126.328125 "/>
<path fill-rule="nonzero" fill="rgb(0%, 0%, 0%)" fill-opacity="1" d="M 131.300781 123.453125 C 131.46875 122.78125 132.101562 120.289062 133.960938 120.289062 C 134.085938 120.289062 134.761719 120.289062 135.3125 120.625 C 134.550781 120.792969 134.046875 121.429688 134.046875 122.105469 C 134.046875 122.527344 134.339844 123.03125 135.058594 123.03125 C 135.648438 123.03125 136.496094 122.566406 136.496094 121.46875 C 136.496094 120.078125 134.933594 119.695312 134.003906 119.695312 C 132.441406 119.695312 131.511719 121.132812 131.171875 121.722656 C 130.496094 119.949219 129.0625 119.695312 128.257812 119.695312 C 125.472656 119.695312 123.910156 123.160156 123.910156 123.835938 C 123.910156 124.128906 124.207031 124.128906 124.246094 124.128906 C 124.457031 124.128906 124.542969 124.046875 124.585938 123.835938 C 125.515625 120.964844 127.289062 120.289062 128.21875 120.289062 C 128.722656 120.289062 129.652344 120.542969 129.652344 122.105469 C 129.652344 122.949219 129.1875 124.722656 128.21875 128.523438 C 127.796875 130.167969 126.824219 131.308594 125.640625 131.308594 C 125.472656 131.308594 124.882812 131.308594 124.289062 130.972656 C 124.964844 130.804688 125.558594 130.253906 125.558594 129.492188 C 125.558594 128.777344 124.964844 128.566406 124.585938 128.566406 C 123.742188 128.566406 123.109375 129.242188 123.109375 130.128906 C 123.109375 131.351562 124.417969 131.902344 125.597656 131.902344 C 127.414062 131.902344 128.386719 130 128.429688 129.875 C 128.765625 130.84375 129.738281 131.902344 131.34375 131.902344 C 134.128906 131.902344 135.648438 128.4375 135.648438 127.761719 C 135.648438 127.46875 135.4375 127.46875 135.355469 127.46875 C 135.101562 127.46875 135.058594 127.59375 134.972656 127.761719 C 134.085938 130.675781 132.269531 131.308594 131.425781 131.308594 C 130.371094 131.308594 129.949219 130.464844 129.949219 129.535156 C 129.949219 128.945312 130.074219 128.355469 130.371094 127.171875 Z M 131.300781 123.453125 "/>
<path fill-rule="nonzero" fill="rgb(0%, 0%, 0%)" fill-opacity="1" d="M 147.203125 118.410156 L 146.566406 118.410156 C 146.527344 118.835938 146.316406 119.933594 146.0625 120.101562 C 145.933594 120.226562 144.5 120.226562 144.203125 120.226562 L 140.742188 120.226562 C 142.726562 118.496094 143.402344 117.949219 144.5 117.058594 C 145.890625 115.960938 147.203125 114.78125 147.203125 113.007812 C 147.203125 110.726562 145.21875 109.332031 142.808594 109.332031 C 140.488281 109.332031 138.882812 110.980469 138.882812 112.710938 C 138.882812 113.640625 139.683594 113.765625 139.894531 113.765625 C 140.316406 113.765625 140.867188 113.429688 140.867188 112.753906 C 140.867188 112.414062 140.742188 111.738281 139.769531 111.738281 C 140.359375 110.429688 141.628906 110.007812 142.515625 110.007812 C 144.414062 110.007812 145.386719 111.484375 145.386719 113.007812 C 145.386719 114.652344 144.203125 115.921875 143.613281 116.597656 L 139.09375 121.113281 C 138.882812 121.285156 138.882812 121.324219 138.882812 121.832031 L 146.652344 121.832031 Z M 147.203125 118.410156 "/>
<path fill-rule="nonzero" fill="rgb(0%, 0%, 0%)" fill-opacity="1" d="M 166.785156 125.398438 L 174.300781 125.398438 C 174.679688 125.398438 175.1875 125.398438 175.1875 124.847656 C 175.1875 124.34375 174.679688 124.34375 174.300781 124.34375 L 166.785156 124.34375 L 166.785156 116.78125 C 166.785156 116.402344 166.785156 115.894531 166.234375 115.894531 C 165.6875 115.894531 165.6875 116.402344 165.6875 116.78125 L 165.6875 124.34375 L 158.167969 124.34375 C 157.789062 124.34375 157.28125 124.34375 157.28125 124.847656 C 157.28125 125.398438 157.789062 125.398438 158.167969 125.398438 L 165.6875 125.398438 L 165.6875 132.957031 C 165.6875 133.335938 165.6875 133.84375 166.234375 133.84375 C 166.785156 133.84375 166.785156 133.335938 166.785156 132.957031 Z M 166.785156 125.398438 "/>
<path fill-rule="nonzero" fill="rgb(0%, 0%, 0%)" fill-opacity="1" d="M 190.621094 127.171875 L 190.621094 129.492188 C 190.621094 130.464844 190.539062 130.761719 188.550781 130.761719 L 188.003906 130.761719 L 188.003906 131.605469 C 189.101562 131.519531 190.496094 131.519531 191.636719 131.519531 C 192.777344 131.519531 194.167969 131.519531 195.308594 131.605469 L 195.308594 130.761719 L 194.71875 130.761719 C 192.734375 130.761719 192.691406 130.464844 192.691406 129.492188 L 192.691406 127.171875 L 195.351562 127.171875 L 195.351562 126.328125 L 192.691406 126.328125 L 192.691406 114.078125 C 192.691406 113.53125 192.691406 113.363281 192.226562 113.363281 C 192.015625 113.363281 191.929688 113.363281 191.71875 113.699219 L 183.441406 126.328125 L 183.441406 127.171875 Z M 190.75 126.328125 L 184.203125 126.328125 L 190.75 116.277344 Z M 190.75 126.328125 "/>
<path fill-rule="nonzero" fill="rgb(0%, 0%, 0%)" fill-opacity="1" d="M 205.140625 123.453125 C 205.308594 122.78125 205.941406 120.289062 207.800781 120.289062 C 207.929688 120.289062 208.601562 120.289062 209.152344 120.625 C 208.390625 120.792969 207.886719 121.429688 207.886719 122.105469 C 207.886719 122.527344 208.179688 123.03125 208.898438 123.03125 C 209.492188 123.03125 210.335938 122.566406 210.335938 121.46875 C 210.335938 120.078125 208.773438 119.695312 207.84375 119.695312 C 206.28125 119.695312 205.351562 121.132812 205.015625 121.722656 C 204.339844 119.949219 202.902344 119.695312 202.101562 119.695312 C 199.3125 119.695312 197.75 123.160156 197.75 123.835938 C 197.75 124.128906 198.046875 124.128906 198.089844 124.128906 C 198.300781 124.128906 198.382812 124.046875 198.425781 123.835938 C 199.355469 120.964844 201.128906 120.289062 202.058594 120.289062 C 202.566406 120.289062 203.492188 120.542969 203.492188 122.105469 C 203.492188 122.949219 203.027344 124.722656 202.058594 128.523438 C 201.636719 130.167969 200.664062 131.308594 199.480469 131.308594 C 199.3125 131.308594 198.722656 131.308594 198.128906 130.972656 C 198.804688 130.804688 199.398438 130.253906 199.398438 129.492188 C 199.398438 128.777344 198.804688 128.566406 198.425781 128.566406 C 197.582031 128.566406 196.949219 129.242188 196.949219 130.128906 C 196.949219 131.351562 198.257812 131.902344 199.441406 131.902344 C 201.253906 131.902344 202.226562 130 202.269531 129.875 C 202.605469 130.84375 203.578125 131.902344 205.183594 131.902344 C 207.96875 131.902344 209.492188 128.4375 209.492188 127.761719 C 209.492188 127.46875 209.277344 127.46875 209.195312 127.46875 C 208.941406 127.46875 208.898438 127.59375 208.816406 127.761719 C 207.929688 130.675781 206.113281 131.308594 205.265625 131.308594 C 204.210938 131.308594 203.789062 130.464844 203.789062 129.535156 C 203.789062 128.945312 203.914062 128.355469 204.210938 127.171875 Z M 205.140625 123.453125 "/>
<path fill-rule="nonzero" fill="rgb(0%, 0%, 0%)" fill-opacity="1" d="M 235.246094 125.398438 C 235.710938 125.398438 236.21875 125.398438 236.21875 124.847656 C 236.21875 124.34375 235.710938 124.34375 235.246094 124.34375 L 220.679688 124.34375 C 220.214844 124.34375 219.75 124.34375 219.75 124.847656 C 219.75 125.398438 220.214844 125.398438 220.679688 125.398438 Z M 235.246094 125.398438 "/>
<path fill-rule="nonzero" fill="rgb(0%, 0%, 0%)" fill-opacity="1" d="M 252.398438 127.171875 L 252.398438 129.492188 C 252.398438 130.464844 252.3125 130.761719 250.328125 130.761719 L 249.78125 130.761719 L 249.78125 131.605469 C 250.878906 131.519531 252.269531 131.519531 253.410156 131.519531 C 254.550781 131.519531 255.945312 131.519531 257.085938 131.605469 L 257.085938 130.761719 L 256.496094 130.761719 C 254.507812 130.761719 254.46875 130.464844 254.46875 129.492188 L 254.46875 127.171875 L 257.128906 127.171875 L 257.128906 126.328125 L 254.46875 126.328125 L 254.46875 114.078125 C 254.46875 113.53125 254.46875 113.363281 254.003906 113.363281 C 253.792969 113.363281 253.707031 113.363281 253.496094 113.699219 L 245.21875 126.328125 L 245.21875 127.171875 Z M 252.523438 126.328125 L 245.980469 126.328125 L 252.523438 116.277344 Z M 252.523438 126.328125 "/>
<path fill="none" stroke-width="0.398" stroke-linecap="butt" stroke-linejoin="miter" stroke="rgb(0%, 0%, 0%)" stroke-opacity="1" stroke-miterlimit="10" d="M 0.00132019 -0.0017421 L 67.332648 -0.0017421 " transform="matrix(2.702703, 0, 0, -2.702703, 75.937838, 141.835135)"/>
<path fill-rule="nonzero" fill="rgb(0%, 0%, 0%)" fill-opacity="1" d="M 186.960938 165.785156 C 187.425781 165.785156 187.933594 165.785156 187.933594 165.238281 C 187.933594 164.730469 187.425781 164.730469 186.960938 164.730469 L 172.390625 164.730469 C 171.925781 164.730469 171.460938 164.730469 171.460938 165.238281 C 171.460938 165.785156 171.925781 165.785156 172.390625 165.785156 Z M 186.960938 165.785156 "/>
<path fill-rule="nonzero" fill="rgb(0%, 0%, 0%)" fill-opacity="1" d="M 205.140625 163.84375 C 205.308594 163.167969 205.941406 160.675781 207.800781 160.675781 C 207.925781 160.675781 208.601562 160.675781 209.152344 161.015625 C 208.390625 161.183594 207.882812 161.816406 207.882812 162.492188 C 207.882812 162.914062 208.179688 163.421875 208.898438 163.421875 C 209.488281 163.421875 210.335938 162.957031 210.335938 161.859375 C 210.335938 160.464844 208.773438 160.085938 207.84375 160.085938 C 206.28125 160.085938 205.351562 161.523438 205.011719 162.113281 C 204.335938 160.339844 202.902344 160.085938 202.097656 160.085938 C 199.3125 160.085938 197.75 163.546875 197.75 164.222656 C 197.75 164.519531 198.046875 164.519531 198.085938 164.519531 C 198.296875 164.519531 198.382812 164.433594 198.425781 164.222656 C 199.355469 161.351562 201.128906 160.675781 202.058594 160.675781 C 202.5625 160.675781 203.492188 160.929688 203.492188 162.492188 C 203.492188 163.335938 203.027344 165.109375 202.058594 168.910156 C 201.632812 170.558594 200.664062 171.699219 199.480469 171.699219 C 199.3125 171.699219 198.722656 171.699219 198.128906 171.359375 C 198.804688 171.191406 199.398438 170.644531 199.398438 169.882812 C 199.398438 169.164062 198.804688 168.953125 198.425781 168.953125 C 197.582031 168.953125 196.945312 169.628906 196.945312 170.515625 C 196.945312 171.742188 198.257812 172.289062 199.4375 172.289062 C 201.253906 172.289062 202.226562 170.390625 202.269531 170.261719 C 202.605469 171.234375 203.578125 172.289062 205.183594 172.289062 C 207.96875 172.289062 209.488281 168.828125 209.488281 168.152344 C 209.488281 167.855469 209.277344 167.855469 209.195312 167.855469 C 208.941406 167.855469 208.898438 167.984375 208.8125 168.152344 C 207.925781 171.066406 206.109375 171.699219 205.265625 171.699219 C 204.210938 171.699219 203.789062 170.855469 203.789062 169.925781 C 203.789062 169.335938 203.914062 168.742188 204.210938 167.558594 Z M 205.140625 163.84375 "/>
<path fill-rule="nonzero" fill="rgb(0%, 0%, 0%)" fill-opacity="1" d="M 235.246094 165.785156 C 235.710938 165.785156 236.21875 165.785156 236.21875 165.238281 C 236.21875 164.730469 235.710938 164.730469 235.246094 164.730469 L 220.679688 164.730469 C 220.214844 164.730469 219.75 164.730469 219.75 165.238281 C 219.75 165.785156 220.214844 165.785156 220.679688 165.785156 Z M 235.246094 165.785156 "/>
<path fill-rule="nonzero" fill="rgb(0%, 0%, 0%)" fill-opacity="1" d="M 252.398438 154.765625 C 252.398438 154.089844 252.398438 154.046875 251.765625 154.046875 C 250.074219 155.777344 247.710938 155.777344 246.863281 155.777344 L 246.863281 156.621094 C 247.414062 156.621094 248.976562 156.621094 250.371094 155.90625 L 250.371094 169.882812 C 250.371094 170.855469 250.285156 171.148438 247.878906 171.148438 L 247.035156 171.148438 L 247.035156 171.996094 C 247.964844 171.910156 250.285156 171.910156 251.382812 171.910156 C 252.441406 171.910156 254.804688 171.910156 255.734375 171.996094 L 255.734375 171.148438 L 254.890625 171.148438 C 252.441406 171.148438 252.398438 170.855469 252.398438 169.882812 Z M 252.398438 154.765625 "/>
</svg>
