<?xml version="1.0" encoding="UTF-8"?>
<svg xmlns="http://www.w3.org/2000/svg" xmlns:xlink="http://www.w3.org/1999/xlink" width="399pt" height="246pt" viewBox="0 0 399 246" version="1.1">
<defs>
<g>
<symbol overflow="visible" id="glyph0-0">
<path style="stroke:none;" d="M 1.25 0 L 1.25 -6.25 L 6.25 -6.25 L 6.25 0 Z M 1.40625 -0.15625 L 6.09375 -0.15625 L 6.09375 -6.09375 L 1.40625 -6.09375 Z M 1.40625 -0.15625 "/>
</symbol>
<symbol overflow="visible" id="glyph0-1">
<path style="stroke:none;" d="M 0.421875 -3.53125 C 0.421875 -4.375 0.503906 -5.050781 0.671875 -5.5625 C 0.847656 -6.082031 1.109375 -6.484375 1.453125 -6.765625 C 1.796875 -7.046875 2.226562 -7.1875 2.75 -7.1875 C 3.132812 -7.1875 3.46875 -7.109375 3.75 -6.953125 C 4.039062 -6.796875 4.28125 -6.570312 4.46875 -6.28125 C 4.664062 -5.988281 4.816406 -5.632812 4.921875 -5.21875 C 5.023438 -4.800781 5.078125 -4.238281 5.078125 -3.53125 C 5.078125 -2.6875 4.988281 -2.003906 4.8125 -1.484375 C 4.644531 -0.972656 4.390625 -0.578125 4.046875 -0.296875 C 3.703125 -0.015625 3.269531 0.125 2.75 0.125 C 2.0625 0.125 1.519531 -0.125 1.125 -0.625 C 0.65625 -1.21875 0.421875 -2.1875 0.421875 -3.53125 Z M 1.3125 -3.53125 C 1.3125 -2.351562 1.445312 -1.566406 1.71875 -1.171875 C 2 -0.785156 2.34375 -0.59375 2.75 -0.59375 C 3.15625 -0.59375 3.492188 -0.785156 3.765625 -1.171875 C 4.046875 -1.566406 4.1875 -2.351562 4.1875 -3.53125 C 4.1875 -4.707031 4.046875 -5.488281 3.765625 -5.875 C 3.492188 -6.257812 3.148438 -6.453125 2.734375 -6.453125 C 2.335938 -6.453125 2.015625 -6.285156 1.765625 -5.953125 C 1.460938 -5.515625 1.3125 -4.707031 1.3125 -3.53125 Z M 1.3125 -3.53125 "/>
</symbol>
<symbol overflow="visible" id="glyph0-2">
<path style="stroke:none;" d="M 3.71875 0 L 2.84375 0 L 2.84375 -5.59375 C 2.632812 -5.394531 2.359375 -5.191406 2.015625 -4.984375 C 1.671875 -4.785156 1.363281 -4.640625 1.09375 -4.546875 L 1.09375 -5.390625 C 1.582031 -5.617188 2.007812 -5.894531 2.375 -6.21875 C 2.75 -6.550781 3.007812 -6.875 3.15625 -7.1875 L 3.71875 -7.1875 Z M 3.71875 0 "/>
</symbol>
<symbol overflow="visible" id="glyph0-3">
<path style="stroke:none;" d="M 5.03125 -0.84375 L 5.03125 0 L 0.296875 0 C 0.296875 -0.207031 0.332031 -0.410156 0.40625 -0.609375 C 0.53125 -0.929688 0.722656 -1.25 0.984375 -1.5625 C 1.242188 -1.875 1.628906 -2.234375 2.140625 -2.640625 C 2.910156 -3.285156 3.429688 -3.789062 3.703125 -4.15625 C 3.984375 -4.53125 4.125 -4.882812 4.125 -5.21875 C 4.125 -5.570312 4 -5.863281 3.75 -6.09375 C 3.5 -6.332031 3.175781 -6.453125 2.78125 -6.453125 C 2.351562 -6.453125 2.007812 -6.328125 1.75 -6.078125 C 1.5 -5.828125 1.375 -5.476562 1.375 -5.03125 L 0.46875 -5.125 C 0.53125 -5.789062 0.757812 -6.300781 1.15625 -6.65625 C 1.5625 -7.007812 2.109375 -7.1875 2.796875 -7.1875 C 3.484375 -7.1875 4.023438 -6.992188 4.421875 -6.609375 C 4.828125 -6.234375 5.03125 -5.765625 5.03125 -5.203125 C 5.03125 -4.910156 4.96875 -4.625 4.84375 -4.34375 C 4.726562 -4.070312 4.535156 -3.78125 4.265625 -3.46875 C 3.992188 -3.164062 3.539062 -2.75 2.90625 -2.21875 C 2.382812 -1.78125 2.046875 -1.476562 1.890625 -1.3125 C 1.742188 -1.15625 1.625 -1 1.53125 -0.84375 Z M 5.03125 -0.84375 "/>
</symbol>
<symbol overflow="visible" id="glyph0-4">
<path style="stroke:none;" d="M 0.421875 -1.890625 L 1.296875 -2 C 1.398438 -1.507812 1.570312 -1.148438 1.8125 -0.921875 C 2.050781 -0.703125 2.347656 -0.59375 2.703125 -0.59375 C 3.117188 -0.59375 3.46875 -0.734375 3.75 -1.015625 C 4.03125 -1.304688 4.171875 -1.664062 4.171875 -2.09375 C 4.171875 -2.5 4.039062 -2.832031 3.78125 -3.09375 C 3.519531 -3.351562 3.1875 -3.484375 2.78125 -3.484375 C 2.613281 -3.484375 2.40625 -3.453125 2.15625 -3.390625 L 2.25 -4.15625 C 2.3125 -4.15625 2.359375 -4.15625 2.390625 -4.15625 C 2.765625 -4.15625 3.101562 -4.25 3.40625 -4.4375 C 3.707031 -4.632812 3.859375 -4.9375 3.859375 -5.34375 C 3.859375 -5.664062 3.75 -5.929688 3.53125 -6.140625 C 3.3125 -6.359375 3.03125 -6.46875 2.6875 -6.46875 C 2.34375 -6.46875 2.054688 -6.359375 1.828125 -6.140625 C 1.597656 -5.929688 1.453125 -5.609375 1.390625 -5.171875 L 0.515625 -5.328125 C 0.617188 -5.921875 0.859375 -6.378906 1.234375 -6.703125 C 1.617188 -7.023438 2.09375 -7.1875 2.65625 -7.1875 C 3.050781 -7.1875 3.410156 -7.101562 3.734375 -6.9375 C 4.066406 -6.769531 4.316406 -6.539062 4.484375 -6.25 C 4.660156 -5.957031 4.75 -5.648438 4.75 -5.328125 C 4.75 -5.015625 4.664062 -4.734375 4.5 -4.484375 C 4.34375 -4.234375 4.097656 -4.03125 3.765625 -3.875 C 4.191406 -3.78125 4.519531 -3.578125 4.75 -3.265625 C 4.988281 -2.960938 5.109375 -2.578125 5.109375 -2.109375 C 5.109375 -1.484375 4.878906 -0.953125 4.421875 -0.515625 C 3.960938 -0.0859375 3.390625 0.125 2.703125 0.125 C 2.066406 0.125 1.539062 -0.0625 1.125 -0.4375 C 0.71875 -0.8125 0.484375 -1.296875 0.421875 -1.890625 Z M 0.421875 -1.890625 "/>
</symbol>
<symbol overflow="visible" id="glyph0-5">
<path style="stroke:none;" d="M 3.234375 0 L 3.234375 -1.71875 L 0.125 -1.71875 L 0.125 -2.515625 L 3.390625 -7.15625 L 4.109375 -7.15625 L 4.109375 -2.515625 L 5.078125 -2.515625 L 5.078125 -1.71875 L 4.109375 -1.71875 L 4.109375 0 Z M 3.234375 -2.515625 L 3.234375 -5.75 L 0.984375 -2.515625 Z M 3.234375 -2.515625 "/>
</symbol>
<symbol overflow="visible" id="glyph0-6">
<path style="stroke:none;" d="M 0.421875 -1.875 L 1.34375 -1.953125 C 1.40625 -1.503906 1.5625 -1.164062 1.8125 -0.9375 C 2.0625 -0.707031 2.363281 -0.59375 2.71875 -0.59375 C 3.132812 -0.59375 3.488281 -0.753906 3.78125 -1.078125 C 4.082031 -1.398438 4.234375 -1.820312 4.234375 -2.34375 C 4.234375 -2.84375 4.09375 -3.238281 3.8125 -3.53125 C 3.53125 -3.820312 3.160156 -3.96875 2.703125 -3.96875 C 2.421875 -3.96875 2.164062 -3.898438 1.9375 -3.765625 C 1.707031 -3.640625 1.523438 -3.476562 1.390625 -3.28125 L 0.578125 -3.390625 L 1.265625 -7.0625 L 4.828125 -7.0625 L 4.828125 -6.21875 L 1.96875 -6.21875 L 1.578125 -4.296875 C 2.015625 -4.597656 2.46875 -4.75 2.9375 -4.75 C 3.5625 -4.75 4.085938 -4.53125 4.515625 -4.09375 C 4.941406 -3.664062 5.15625 -3.109375 5.15625 -2.421875 C 5.15625 -1.773438 4.96875 -1.21875 4.59375 -0.75 C 4.132812 -0.164062 3.507812 0.125 2.71875 0.125 C 2.0625 0.125 1.523438 -0.0546875 1.109375 -0.421875 C 0.703125 -0.785156 0.472656 -1.269531 0.421875 -1.875 Z M 0.421875 -1.875 "/>
</symbol>
<symbol overflow="visible" id="glyph0-7">
<path style="stroke:none;" d="M 0.90625 0 L 0.90625 -1 L 1.90625 -1 L 1.90625 0 Z M 0.90625 0 "/>
</symbol>
</g>
</defs>
<g id="surface19">
<path style="fill:none;stroke-width:3.79;stroke-linecap:square;stroke-linejoin:miter;stroke:rgb(0%,0%,49.803162%);stroke-opacity:1;stroke-miterlimit:3.25;" d="M 386.199219 163.101562 L 386.164062 163.027344 L 386.125 162.953125 L 386.054688 162.808594 L 385.90625 162.515625 L 385.609375 161.933594 L 385.011719 160.773438 L 383.792969 158.460938 L 381.019531 153.523438 L 378.285156 148.992188 L 375.464844 144.640625 L 372.261719 140.015625 L 369.132812 135.800781 L 365.59375 131.34375 L 361.980469 127.085938 L 358.484375 123.222656 L 354.558594 119.15625 L 350.773438 115.484375 L 346.957031 111.996094 L 342.695312 108.347656 L 338.609375 105.070312 L 334.074219 101.664062 L 329.507812 98.46875 L 325.160156 95.628906 L 320.347656 92.695312 L 315.769531 90.105469 L 310.722656 87.460938 L 305.679688 85.03125 L 300.910156 82.914062 L 295.664062 80.789062 L 290.707031 78.960938 L 285.792969 77.320312 L 280.40625 75.714844 L 275.335938 74.375 L 269.796875 73.101562 L 269.710938 73.082031 L 269.628906 73.066406 L 269.457031 73.027344 L 269.117188 72.957031 L 268.433594 72.816406 L 267.0625 72.542969 L 264.320312 72.03125 L 264.242188 72.019531 L 264.160156 72.003906 L 264 71.976562 L 263.679688 71.917969 L 263.039062 71.808594 L 261.753906 71.59375 L 259.183594 71.199219 L 259.097656 71.1875 L 259.007812 71.171875 L 258.835938 71.148438 L 258.484375 71.097656 L 257.785156 71 L 256.386719 70.8125 L 256.300781 70.800781 L 256.210938 70.789062 L 256.039062 70.765625 L 255.6875 70.722656 L 254.988281 70.636719 L 253.585938 70.472656 L 253.503906 70.464844 L 253.421875 70.453125 L 253.257812 70.4375 L 252.929688 70.398438 L 252.277344 70.332031 L 250.964844 70.199219 L 249.652344 70.074219 L 248.339844 69.964844 L 248.261719 69.957031 L 248.179688 69.949219 L 247.699219 69.914062 L 247.054688 69.863281 L 246.972656 69.859375 L 246.894531 69.851562 L 246.730469 69.839844 L 246.410156 69.816406 L 245.765625 69.773438 L 245.683594 69.769531 L 245.605469 69.765625 L 245.445312 69.753906 L 245.121094 69.734375 L 244.476562 69.695312 L 243.1875 69.625 L 243.101562 69.621094 L 243.011719 69.613281 L 242.835938 69.605469 L 242.488281 69.589844 L 241.789062 69.558594 L 241.699219 69.554688 L 241.613281 69.550781 L 241.4375 69.542969 L 241.089844 69.53125 L 240.386719 69.503906 L 240.300781 69.5 L 240.210938 69.5 L 240.039062 69.492188 L 239.6875 69.480469 L 239.601562 69.480469 L 239.511719 69.476562 L 239.335938 69.472656 L 238.988281 69.460938 L 238.898438 69.460938 L 238.8125 69.457031 L 238.285156 69.445312 L 238.199219 69.445312 L 238.113281 69.441406 L 237.9375 69.4375 L 237.585938 69.433594 L 237.503906 69.429688 L 237.421875 69.429688 L 237.257812 69.425781 L 237.097656 69.425781 L 236.933594 69.421875 L 236.769531 69.421875 L 236.605469 69.417969 L 236.441406 69.417969 L 236.277344 69.414062 L 236.035156 69.414062 L 235.953125 69.410156 L 235.460938 69.410156 L 235.378906 69.40625 L 233.746094 69.40625 L 233.664062 69.410156 L 233.175781 69.410156 L 233.011719 69.414062 L 232.847656 69.414062 L 232.683594 69.417969 L 232.355469 69.421875 L 232.179688 69.421875 L 232.003906 69.425781 L 231.648438 69.433594 L 231.472656 69.433594 L 231.292969 69.4375 L 230.941406 69.445312 L 230.851562 69.449219 L 230.761719 69.449219 L 230.585938 69.453125 L 230.230469 69.460938 L 229.523438 69.480469 L 229.433594 69.484375 L 229.347656 69.488281 L 229.167969 69.492188 L 228.816406 69.503906 L 228.105469 69.53125 L 228.019531 69.535156 L 227.929688 69.539062 L 227.753906 69.542969 L 227.398438 69.558594 L 226.691406 69.589844 L 226.527344 69.597656 L 226.359375 69.605469 L 226.03125 69.621094 L 225.367188 69.65625 L 225.285156 69.664062 L 225.039062 69.675781 L 224.707031 69.695312 L 224.046875 69.734375 L 223.964844 69.738281 L 223.882812 69.746094 L 223.71875 69.753906 L 223.386719 69.777344 L 222.726562 69.824219 L 221.40625 69.921875 L 221.328125 69.925781 L 221.246094 69.933594 L 221.085938 69.945312 L 220.113281 70.027344 L 218.820312 70.140625 L 218.742188 70.148438 L 218.660156 70.15625 L 218.5 70.171875 L 218.175781 70.203125 L 216.242188 70.402344 L 216.152344 70.414062 L 216.066406 70.421875 L 215.890625 70.441406 L 215.542969 70.480469 L 214.84375 70.5625 L 213.445312 70.730469 L 210.65625 71.105469 L 210.492188 71.128906 L 210.332031 71.152344 L 210.003906 71.199219 L 209.355469 71.296875 L 208.058594 71.496094 L 205.464844 71.929688 L 205.378906 71.945312 L 205.289062 71.960938 L 205.117188 71.988281 L 204.765625 72.050781 L 204.066406 72.179688 L 202.667969 72.441406 L 199.875 73 L 194.421875 74.238281 L 189.378906 75.550781 L 183.953125 77.148438 L 178.941406 78.804688 L 174.082031 80.578125 L 168.871094 82.667969 L 164.074219 84.773438 L 163.910156 84.851562 L 163.742188 84.929688 L 163.410156 85.082031 L 162.746094 85.390625 L 161.425781 86.015625 L 161.097656 86.171875 L 160.769531 86.332031 L 160.109375 86.652344 L 159.945312 86.730469 L 159.78125 86.8125 L 159.453125 86.972656 L 159.371094 87.015625 L 159.289062 87.054688 L 159.128906 87.136719 L 159.046875 87.175781 L 158.964844 87.21875 L 158.882812 87.257812 L 158.800781 87.300781 " transform="matrix(1,0,0,1,-66,-5)"/>
<path style=" stroke:none;fill-rule:evenodd;fill:rgb(0%,0%,0%);fill-opacity:1;" d="M 98 82 C 98 80.675781 97.472656 79.402344 96.535156 78.464844 C 95.597656 77.527344 94.324219 77 93 77 C 91.675781 77 90.402344 77.527344 89.464844 78.464844 C 88.527344 79.402344 88 80.675781 88 82 C 88 83.324219 88.527344 84.597656 89.464844 85.535156 C 90.402344 86.472656 91.675781 87 93 87 C 94.324219 87 95.597656 86.472656 96.535156 85.535156 C 97.472656 84.597656 98 83.324219 98 82 Z M 98 82 "/>
<path style=" stroke:none;fill-rule:evenodd;fill:rgb(0%,0%,0%);fill-opacity:1;" d="M 325 158 C 325 156.675781 324.472656 155.402344 323.535156 154.464844 C 322.597656 153.527344 321.324219 153 320 153 C 318.675781 153 317.402344 153.527344 316.464844 154.464844 C 315.527344 155.402344 315 156.675781 315 158 C 315 159.324219 315.527344 160.597656 316.464844 161.535156 C 317.402344 162.472656 318.675781 163 320 163 C 321.324219 163 322.597656 162.472656 323.535156 161.535156 C 324.472656 160.597656 325 159.324219 325 158 Z M 325 158 "/>
<path style="fill:none;stroke-width:0.2;stroke-linecap:butt;stroke-linejoin:miter;stroke:rgb(39.99939%,39.99939%,39.99939%);stroke-opacity:1;stroke-miterlimit:3.25;" d="M 83 238.898438 L 83 234.839844 " transform="matrix(1,0,0,1,-66,-5)"/>
<g style="fill:rgb(39.99939%,39.99939%,39.99939%);fill-opacity:1;">
  <use xlink:href="#glyph0-1" x="14" y="245.9"/>
</g>
<path style="fill:none;stroke-width:0.2;stroke-linecap:butt;stroke-linejoin:miter;stroke:rgb(39.99939%,39.99939%,39.99939%);stroke-opacity:1;stroke-miterlimit:3.25;" d="M 98.160156 238.898438 L 98.160156 236.464844 " transform="matrix(1,0,0,1,-66,-5)"/>
<path style="fill:none;stroke-width:0.2;stroke-linecap:butt;stroke-linejoin:miter;stroke:rgb(39.99939%,39.99939%,39.99939%);stroke-opacity:1;stroke-miterlimit:3.25;" d="M 113.320312 238.898438 L 113.320312 236.464844 " transform="matrix(1,0,0,1,-66,-5)"/>
<path style="fill:none;stroke-width:0.2;stroke-linecap:butt;stroke-linejoin:miter;stroke:rgb(39.99939%,39.99939%,39.99939%);stroke-opacity:1;stroke-miterlimit:3.25;" d="M 128.480469 238.898438 L 128.480469 236.464844 " transform="matrix(1,0,0,1,-66,-5)"/>
<path style="fill:none;stroke-width:0.2;stroke-linecap:butt;stroke-linejoin:miter;stroke:rgb(39.99939%,39.99939%,39.99939%);stroke-opacity:1;stroke-miterlimit:3.25;" d="M 143.640625 238.898438 L 143.640625 236.464844 " transform="matrix(1,0,0,1,-66,-5)"/>
<path style="fill:none;stroke-width:0.2;stroke-linecap:butt;stroke-linejoin:miter;stroke:rgb(39.99939%,39.99939%,39.99939%);stroke-opacity:1;stroke-miterlimit:3.25;" d="M 158.800781 238.898438 L 158.800781 234.839844 " transform="matrix(1,0,0,1,-66,-5)"/>
<g style="fill:rgb(39.99939%,39.99939%,39.99939%);fill-opacity:1;">
  <use xlink:href="#glyph0-2" x="89.8" y="245.9"/>
</g>
<path style="fill:none;stroke-width:0.2;stroke-linecap:butt;stroke-linejoin:miter;stroke:rgb(39.99939%,39.99939%,39.99939%);stroke-opacity:1;stroke-miterlimit:3.25;" d="M 173.960938 238.898438 L 173.960938 236.464844 " transform="matrix(1,0,0,1,-66,-5)"/>
<path style="fill:none;stroke-width:0.2;stroke-linecap:butt;stroke-linejoin:miter;stroke:rgb(39.99939%,39.99939%,39.99939%);stroke-opacity:1;stroke-miterlimit:3.25;" d="M 189.121094 238.898438 L 189.121094 236.464844 " transform="matrix(1,0,0,1,-66,-5)"/>
<path style="fill:none;stroke-width:0.2;stroke-linecap:butt;stroke-linejoin:miter;stroke:rgb(39.99939%,39.99939%,39.99939%);stroke-opacity:1;stroke-miterlimit:3.25;" d="M 204.28125 238.898438 L 204.28125 236.464844 " transform="matrix(1,0,0,1,-66,-5)"/>
<path style="fill:none;stroke-width:0.2;stroke-linecap:butt;stroke-linejoin:miter;stroke:rgb(39.99939%,39.99939%,39.99939%);stroke-opacity:1;stroke-miterlimit:3.25;" d="M 219.441406 238.898438 L 219.441406 236.464844 " transform="matrix(1,0,0,1,-66,-5)"/>
<path style="fill:none;stroke-width:0.2;stroke-linecap:butt;stroke-linejoin:miter;stroke:rgb(39.99939%,39.99939%,39.99939%);stroke-opacity:1;stroke-miterlimit:3.25;" d="M 234.601562 238.898438 L 234.601562 234.839844 " transform="matrix(1,0,0,1,-66,-5)"/>
<g style="fill:rgb(39.99939%,39.99939%,39.99939%);fill-opacity:1;">
  <use xlink:href="#glyph0-3" x="165.6" y="245.9"/>
</g>
<path style="fill:none;stroke-width:0.2;stroke-linecap:butt;stroke-linejoin:miter;stroke:rgb(39.99939%,39.99939%,39.99939%);stroke-opacity:1;stroke-miterlimit:3.25;" d="M 249.761719 238.898438 L 249.761719 236.464844 " transform="matrix(1,0,0,1,-66,-5)"/>
<path style="fill:none;stroke-width:0.2;stroke-linecap:butt;stroke-linejoin:miter;stroke:rgb(39.99939%,39.99939%,39.99939%);stroke-opacity:1;stroke-miterlimit:3.25;" d="M 264.921875 238.898438 L 264.921875 236.464844 " transform="matrix(1,0,0,1,-66,-5)"/>
<path style="fill:none;stroke-width:0.2;stroke-linecap:butt;stroke-linejoin:miter;stroke:rgb(39.99939%,39.99939%,39.99939%);stroke-opacity:1;stroke-miterlimit:3.25;" d="M 280.078125 238.898438 L 280.078125 236.464844 " transform="matrix(1,0,0,1,-66,-5)"/>
<path style="fill:none;stroke-width:0.2;stroke-linecap:butt;stroke-linejoin:miter;stroke:rgb(39.99939%,39.99939%,39.99939%);stroke-opacity:1;stroke-miterlimit:3.25;" d="M 295.238281 238.898438 L 295.238281 236.464844 " transform="matrix(1,0,0,1,-66,-5)"/>
<path style="fill:none;stroke-width:0.2;stroke-linecap:butt;stroke-linejoin:miter;stroke:rgb(39.99939%,39.99939%,39.99939%);stroke-opacity:1;stroke-miterlimit:3.25;" d="M 310.398438 238.898438 L 310.398438 234.839844 " transform="matrix(1,0,0,1,-66,-5)"/>
<g style="fill:rgb(39.99939%,39.99939%,39.99939%);fill-opacity:1;">
  <use xlink:href="#glyph0-4" x="241.4" y="245.9"/>
</g>
<path style="fill:none;stroke-width:0.2;stroke-linecap:butt;stroke-linejoin:miter;stroke:rgb(39.99939%,39.99939%,39.99939%);stroke-opacity:1;stroke-miterlimit:3.25;" d="M 325.558594 238.898438 L 325.558594 236.464844 " transform="matrix(1,0,0,1,-66,-5)"/>
<path style="fill:none;stroke-width:0.2;stroke-linecap:butt;stroke-linejoin:miter;stroke:rgb(39.99939%,39.99939%,39.99939%);stroke-opacity:1;stroke-miterlimit:3.25;" d="M 340.71875 238.898438 L 340.71875 236.464844 " transform="matrix(1,0,0,1,-66,-5)"/>
<path style="fill:none;stroke-width:0.2;stroke-linecap:butt;stroke-linejoin:miter;stroke:rgb(39.99939%,39.99939%,39.99939%);stroke-opacity:1;stroke-miterlimit:3.25;" d="M 355.878906 238.898438 L 355.878906 236.464844 " transform="matrix(1,0,0,1,-66,-5)"/>
<path style="fill:none;stroke-width:0.2;stroke-linecap:butt;stroke-linejoin:miter;stroke:rgb(39.99939%,39.99939%,39.99939%);stroke-opacity:1;stroke-miterlimit:3.25;" d="M 371.039062 238.898438 L 371.039062 236.464844 " transform="matrix(1,0,0,1,-66,-5)"/>
<path style="fill:none;stroke-width:0.2;stroke-linecap:butt;stroke-linejoin:miter;stroke:rgb(39.99939%,39.99939%,39.99939%);stroke-opacity:1;stroke-miterlimit:3.25;" d="M 386.199219 238.898438 L 386.199219 234.839844 " transform="matrix(1,0,0,1,-66,-5)"/>
<g style="fill:rgb(39.99939%,39.99939%,39.99939%);fill-opacity:1;">
  <use xlink:href="#glyph0-5" x="317.2" y="245.9"/>
</g>
<path style="fill:none;stroke-width:0.2;stroke-linecap:butt;stroke-linejoin:miter;stroke:rgb(39.99939%,39.99939%,39.99939%);stroke-opacity:1;stroke-miterlimit:3.25;" d="M 401.359375 238.898438 L 401.359375 236.464844 " transform="matrix(1,0,0,1,-66,-5)"/>
<path style="fill:none;stroke-width:0.2;stroke-linecap:butt;stroke-linejoin:miter;stroke:rgb(39.99939%,39.99939%,39.99939%);stroke-opacity:1;stroke-miterlimit:3.25;" d="M 416.519531 238.898438 L 416.519531 236.464844 " transform="matrix(1,0,0,1,-66,-5)"/>
<path style="fill:none;stroke-width:0.2;stroke-linecap:butt;stroke-linejoin:miter;stroke:rgb(39.99939%,39.99939%,39.99939%);stroke-opacity:1;stroke-miterlimit:3.25;" d="M 431.679688 238.898438 L 431.679688 236.464844 " transform="matrix(1,0,0,1,-66,-5)"/>
<path style="fill:none;stroke-width:0.2;stroke-linecap:butt;stroke-linejoin:miter;stroke:rgb(39.99939%,39.99939%,39.99939%);stroke-opacity:1;stroke-miterlimit:3.25;" d="M 446.839844 238.898438 L 446.839844 236.464844 " transform="matrix(1,0,0,1,-66,-5)"/>
<path style="fill:none;stroke-width:0.2;stroke-linecap:butt;stroke-linejoin:miter;stroke:rgb(39.99939%,39.99939%,39.99939%);stroke-opacity:1;stroke-miterlimit:3.25;" d="M 462 238.898438 L 462 234.839844 " transform="matrix(1,0,0,1,-66,-5)"/>
<g style="fill:rgb(39.99939%,39.99939%,39.99939%);fill-opacity:1;">
  <use xlink:href="#glyph0-6" x="393" y="245.9"/>
</g>
<path style="fill:none;stroke-width:0.2;stroke-linecap:butt;stroke-linejoin:miter;stroke:rgb(39.99939%,39.99939%,39.99939%);stroke-opacity:1;stroke-miterlimit:3.25;" d="M 83 238.898438 L 462 238.898438 " transform="matrix(1,0,0,1,-66,-5)"/>
<path style="fill:none;stroke-width:0.2;stroke-linecap:butt;stroke-linejoin:miter;stroke:rgb(39.99939%,39.99939%,39.99939%);stroke-opacity:1;stroke-miterlimit:3.25;" d="M 83 238.898438 L 87.058594 238.898438 " transform="matrix(1,0,0,1,-66,-5)"/>
<g style="fill:rgb(39.99939%,39.99939%,39.99939%);fill-opacity:1;">
  <use xlink:href="#glyph0-1" x="0" y="236.4"/>
  <use xlink:href="#glyph0-7" x="6" y="236.4"/>
  <use xlink:href="#glyph0-1" x="9" y="236.4"/>
</g>
<path style="fill:none;stroke-width:0.2;stroke-linecap:butt;stroke-linejoin:miter;stroke:rgb(39.99939%,39.99939%,39.99939%);stroke-opacity:1;stroke-miterlimit:3.25;" d="M 83 231.320312 L 85.433594 231.320312 " transform="matrix(1,0,0,1,-66,-5)"/>
<path style="fill:none;stroke-width:0.2;stroke-linecap:butt;stroke-linejoin:miter;stroke:rgb(39.99939%,39.99939%,39.99939%);stroke-opacity:1;stroke-miterlimit:3.25;" d="M 83 223.738281 L 85.433594 223.738281 " transform="matrix(1,0,0,1,-66,-5)"/>
<path style="fill:none;stroke-width:0.2;stroke-linecap:butt;stroke-linejoin:miter;stroke:rgb(39.99939%,39.99939%,39.99939%);stroke-opacity:1;stroke-miterlimit:3.25;" d="M 83 216.160156 L 85.433594 216.160156 " transform="matrix(1,0,0,1,-66,-5)"/>
<path style="fill:none;stroke-width:0.2;stroke-linecap:butt;stroke-linejoin:miter;stroke:rgb(39.99939%,39.99939%,39.99939%);stroke-opacity:1;stroke-miterlimit:3.25;" d="M 83 208.578125 L 85.433594 208.578125 " transform="matrix(1,0,0,1,-66,-5)"/>
<path style="fill:none;stroke-width:0.2;stroke-linecap:butt;stroke-linejoin:miter;stroke:rgb(39.99939%,39.99939%,39.99939%);stroke-opacity:1;stroke-miterlimit:3.25;" d="M 83 201 L 87.058594 201 " transform="matrix(1,0,0,1,-66,-5)"/>
<g style="fill:rgb(39.99939%,39.99939%,39.99939%);fill-opacity:1;">
  <use xlink:href="#glyph0-1" x="0" y="198.5"/>
  <use xlink:href="#glyph0-7" x="6" y="198.5"/>
  <use xlink:href="#glyph0-6" x="9" y="198.5"/>
</g>
<path style="fill:none;stroke-width:0.2;stroke-linecap:butt;stroke-linejoin:miter;stroke:rgb(39.99939%,39.99939%,39.99939%);stroke-opacity:1;stroke-miterlimit:3.25;" d="M 83 193.421875 L 85.433594 193.421875 " transform="matrix(1,0,0,1,-66,-5)"/>
<path style="fill:none;stroke-width:0.2;stroke-linecap:butt;stroke-linejoin:miter;stroke:rgb(39.99939%,39.99939%,39.99939%);stroke-opacity:1;stroke-miterlimit:3.25;" d="M 83 185.839844 L 85.433594 185.839844 " transform="matrix(1,0,0,1,-66,-5)"/>
<path style="fill:none;stroke-width:0.2;stroke-linecap:butt;stroke-linejoin:miter;stroke:rgb(39.99939%,39.99939%,39.99939%);stroke-opacity:1;stroke-miterlimit:3.25;" d="M 83 178.261719 L 85.433594 178.261719 " transform="matrix(1,0,0,1,-66,-5)"/>
<path style="fill:none;stroke-width:0.2;stroke-linecap:butt;stroke-linejoin:miter;stroke:rgb(39.99939%,39.99939%,39.99939%);stroke-opacity:1;stroke-miterlimit:3.25;" d="M 83 170.679688 L 85.433594 170.679688 " transform="matrix(1,0,0,1,-66,-5)"/>
<path style="fill:none;stroke-width:0.2;stroke-linecap:butt;stroke-linejoin:miter;stroke:rgb(39.99939%,39.99939%,39.99939%);stroke-opacity:1;stroke-miterlimit:3.25;" d="M 83 163.101562 L 87.058594 163.101562 " transform="matrix(1,0,0,1,-66,-5)"/>
<g style="fill:rgb(39.99939%,39.99939%,39.99939%);fill-opacity:1;">
  <use xlink:href="#glyph0-2" x="0" y="160.6"/>
  <use xlink:href="#glyph0-7" x="6" y="160.6"/>
  <use xlink:href="#glyph0-1" x="9" y="160.6"/>
</g>
<path style="fill:none;stroke-width:0.2;stroke-linecap:butt;stroke-linejoin:miter;stroke:rgb(39.99939%,39.99939%,39.99939%);stroke-opacity:1;stroke-miterlimit:3.25;" d="M 83 155.519531 L 85.433594 155.519531 " transform="matrix(1,0,0,1,-66,-5)"/>
<path style="fill:none;stroke-width:0.2;stroke-linecap:butt;stroke-linejoin:miter;stroke:rgb(39.99939%,39.99939%,39.99939%);stroke-opacity:1;stroke-miterlimit:3.25;" d="M 83 147.941406 L 85.433594 147.941406 " transform="matrix(1,0,0,1,-66,-5)"/>
<path style="fill:none;stroke-width:0.2;stroke-linecap:butt;stroke-linejoin:miter;stroke:rgb(39.99939%,39.99939%,39.99939%);stroke-opacity:1;stroke-miterlimit:3.25;" d="M 83 140.359375 L 85.433594 140.359375 " transform="matrix(1,0,0,1,-66,-5)"/>
<path style="fill:none;stroke-width:0.2;stroke-linecap:butt;stroke-linejoin:miter;stroke:rgb(39.99939%,39.99939%,39.99939%);stroke-opacity:1;stroke-miterlimit:3.25;" d="M 83 132.78125 L 85.433594 132.78125 " transform="matrix(1,0,0,1,-66,-5)"/>
<path style="fill:none;stroke-width:0.2;stroke-linecap:butt;stroke-linejoin:miter;stroke:rgb(39.99939%,39.99939%,39.99939%);stroke-opacity:1;stroke-miterlimit:3.25;" d="M 83 125.199219 L 87.058594 125.199219 " transform="matrix(1,0,0,1,-66,-5)"/>
<g style="fill:rgb(39.99939%,39.99939%,39.99939%);fill-opacity:1;">
  <use xlink:href="#glyph0-2" x="0" y="122.7"/>
  <use xlink:href="#glyph0-7" x="6" y="122.7"/>
  <use xlink:href="#glyph0-6" x="9" y="122.7"/>
</g>
<path style="fill:none;stroke-width:0.2;stroke-linecap:butt;stroke-linejoin:miter;stroke:rgb(39.99939%,39.99939%,39.99939%);stroke-opacity:1;stroke-miterlimit:3.25;" d="M 83 117.621094 L 85.433594 117.621094 " transform="matrix(1,0,0,1,-66,-5)"/>
<path style="fill:none;stroke-width:0.2;stroke-linecap:butt;stroke-linejoin:miter;stroke:rgb(39.99939%,39.99939%,39.99939%);stroke-opacity:1;stroke-miterlimit:3.25;" d="M 83 110.039062 L 85.433594 110.039062 " transform="matrix(1,0,0,1,-66,-5)"/>
<path style="fill:none;stroke-width:0.2;stroke-linecap:butt;stroke-linejoin:miter;stroke:rgb(39.99939%,39.99939%,39.99939%);stroke-opacity:1;stroke-miterlimit:3.25;" d="M 83 102.460938 L 85.433594 102.460938 " transform="matrix(1,0,0,1,-66,-5)"/>
<path style="fill:none;stroke-width:0.2;stroke-linecap:butt;stroke-linejoin:miter;stroke:rgb(39.99939%,39.99939%,39.99939%);stroke-opacity:1;stroke-miterlimit:3.25;" d="M 83 94.878906 L 85.433594 94.878906 " transform="matrix(1,0,0,1,-66,-5)"/>
<path style="fill:none;stroke-width:0.2;stroke-linecap:butt;stroke-linejoin:miter;stroke:rgb(39.99939%,39.99939%,39.99939%);stroke-opacity:1;stroke-miterlimit:3.25;" d="M 83 87.300781 L 87.058594 87.300781 " transform="matrix(1,0,0,1,-66,-5)"/>
<g style="fill:rgb(39.99939%,39.99939%,39.99939%);fill-opacity:1;">
  <use xlink:href="#glyph0-3" x="0" y="84.8"/>
  <use xlink:href="#glyph0-7" x="6" y="84.8"/>
  <use xlink:href="#glyph0-1" x="9" y="84.8"/>
</g>
<path style="fill:none;stroke-width:0.2;stroke-linecap:butt;stroke-linejoin:miter;stroke:rgb(39.99939%,39.99939%,39.99939%);stroke-opacity:1;stroke-miterlimit:3.25;" d="M 83 79.71875 L 85.433594 79.71875 " transform="matrix(1,0,0,1,-66,-5)"/>
<path style="fill:none;stroke-width:0.2;stroke-linecap:butt;stroke-linejoin:miter;stroke:rgb(39.99939%,39.99939%,39.99939%);stroke-opacity:1;stroke-miterlimit:3.25;" d="M 83 72.140625 L 85.433594 72.140625 " transform="matrix(1,0,0,1,-66,-5)"/>
<path style="fill:none;stroke-width:0.2;stroke-linecap:butt;stroke-linejoin:miter;stroke:rgb(39.99939%,39.99939%,39.99939%);stroke-opacity:1;stroke-miterlimit:3.25;" d="M 83 64.558594 L 85.433594 64.558594 " transform="matrix(1,0,0,1,-66,-5)"/>
<path style="fill:none;stroke-width:0.2;stroke-linecap:butt;stroke-linejoin:miter;stroke:rgb(39.99939%,39.99939%,39.99939%);stroke-opacity:1;stroke-miterlimit:3.25;" d="M 83 56.980469 L 85.433594 56.980469 " transform="matrix(1,0,0,1,-66,-5)"/>
<path style="fill:none;stroke-width:0.2;stroke-linecap:butt;stroke-linejoin:miter;stroke:rgb(39.99939%,39.99939%,39.99939%);stroke-opacity:1;stroke-miterlimit:3.25;" d="M 83 49.398438 L 87.058594 49.398438 " transform="matrix(1,0,0,1,-66,-5)"/>
<g style="fill:rgb(39.99939%,39.99939%,39.99939%);fill-opacity:1;">
  <use xlink:href="#glyph0-3" x="0" y="46.9"/>
  <use xlink:href="#glyph0-7" x="6" y="46.9"/>
  <use xlink:href="#glyph0-6" x="9" y="46.9"/>
</g>
<path style="fill:none;stroke-width:0.2;stroke-linecap:butt;stroke-linejoin:miter;stroke:rgb(39.99939%,39.99939%,39.99939%);stroke-opacity:1;stroke-miterlimit:3.25;" d="M 83 41.820312 L 85.433594 41.820312 " transform="matrix(1,0,0,1,-66,-5)"/>
<path style="fill:none;stroke-width:0.2;stroke-linecap:butt;stroke-linejoin:miter;stroke:rgb(39.99939%,39.99939%,39.99939%);stroke-opacity:1;stroke-miterlimit:3.25;" d="M 83 34.238281 L 85.433594 34.238281 " transform="matrix(1,0,0,1,-66,-5)"/>
<path style="fill:none;stroke-width:0.2;stroke-linecap:butt;stroke-linejoin:miter;stroke:rgb(39.99939%,39.99939%,39.99939%);stroke-opacity:1;stroke-miterlimit:3.25;" d="M 83 26.660156 L 85.433594 26.660156 " transform="matrix(1,0,0,1,-66,-5)"/>
<path style="fill:none;stroke-width:0.2;stroke-linecap:butt;stroke-linejoin:miter;stroke:rgb(39.99939%,39.99939%,39.99939%);stroke-opacity:1;stroke-miterlimit:3.25;" d="M 83 19.078125 L 85.433594 19.078125 " transform="matrix(1,0,0,1,-66,-5)"/>
<path style="fill:none;stroke-width:0.2;stroke-linecap:butt;stroke-linejoin:miter;stroke:rgb(39.99939%,39.99939%,39.99939%);stroke-opacity:1;stroke-miterlimit:3.25;" d="M 83 11.5 L 87.058594 11.5 " transform="matrix(1,0,0,1,-66,-5)"/>
<g style="fill:rgb(39.99939%,39.99939%,39.99939%);fill-opacity:1;">
  <use xlink:href="#glyph0-4" x="0" y="9"/>
  <use xlink:href="#glyph0-7" x="6" y="9"/>
  <use xlink:href="#glyph0-1" x="9" y="9"/>
</g>
<path style="fill:none;stroke-width:0.2;stroke-linecap:butt;stroke-linejoin:miter;stroke:rgb(39.99939%,39.99939%,39.99939%);stroke-opacity:1;stroke-miterlimit:3.25;" d="M 83 238.898438 L 83 11.5 " transform="matrix(1,0,0,1,-66,-5)"/>
</g>
</svg>
