<?xml version="1.0" encoding="UTF-8"?>
<svg xmlns="http://www.w3.org/2000/svg" xmlns:xlink="http://www.w3.org/1999/xlink" width="301" height="299" viewBox="0 0 301 299">
<defs>
<filter id="filter-remove-color" x="0%" y="0%" width="100%" height="100%">
<feColorMatrix color-interpolation-filters="sRGB" values="0 0 0 0 1 0 0 0 0 1 0 0 0 0 1 0 0 0 1 0" />
</filter>
<clipPath id="clip-0">
<path clip-rule="nonzero" d="M 24.210938 4.195312 L 292.25 4.195312 L 292.25 270.722656 L 24.210938 270.722656 Z M 24.210938 4.195312 "/>
</clipPath>
<clipPath id="clip-1">
<path clip-rule="nonzero" d="M 0.210938 0.195312 L 1 0.195312 L 1 266.722656 L 0.210938 266.722656 Z M 0.210938 0.195312 "/>
</clipPath>
<clipPath id="clip-2">
<rect x="0" y="0" width="269" height="267"/>
</clipPath>
<g id="source-5" clip-path="url(#clip-2)">
<g clip-path="url(#clip-1)">
<path fill="none" stroke-width="0.701094" stroke-linecap="butt" stroke-linejoin="round" stroke="rgb(69.018555%, 69.018555%, 69.018555%)" stroke-opacity="0.7" stroke-dasharray="2.594047 1.12175" stroke-miterlimit="4" d="M 24.230928 270.722656 L 24.230928 4.195312 " transform="matrix(0.999175, 0, 0, 1, -24, -4)"/>
</g>
</g>
<clipPath id="clip-3">
<path clip-rule="nonzero" d="M 24.210938 4.195312 L 292.25 4.195312 L 292.25 270.722656 L 24.210938 270.722656 Z M 24.210938 4.195312 "/>
</clipPath>
<clipPath id="clip-4">
<path clip-rule="nonzero" d="M 44 0.195312 L 46 0.195312 L 46 266.722656 L 44 266.722656 Z M 44 0.195312 "/>
</clipPath>
<clipPath id="clip-5">
<rect x="0" y="0" width="269" height="267"/>
</clipPath>
<g id="source-8" clip-path="url(#clip-5)">
<g clip-path="url(#clip-4)">
<path fill="none" stroke-width="0.701094" stroke-linecap="butt" stroke-linejoin="round" stroke="rgb(69.018555%, 69.018555%, 69.018555%)" stroke-opacity="0.7" stroke-dasharray="2.594047 1.12175" stroke-miterlimit="4" d="M 68.939688 270.722656 L 68.939688 4.195312 " transform="matrix(0.999175, 0, 0, 1, -24, -4)"/>
</g>
</g>
<clipPath id="clip-6">
<path clip-rule="nonzero" d="M 24.210938 4.195312 L 292.25 4.195312 L 292.25 270.722656 L 24.210938 270.722656 Z M 24.210938 4.195312 "/>
</clipPath>
<clipPath id="clip-7">
<path clip-rule="nonzero" d="M 89 0.195312 L 90 0.195312 L 90 266.722656 L 89 266.722656 Z M 89 0.195312 "/>
</clipPath>
<clipPath id="clip-8">
<rect x="0" y="0" width="269" height="267"/>
</clipPath>
<g id="source-11" clip-path="url(#clip-8)">
<g clip-path="url(#clip-7)">
<path fill="none" stroke-width="0.701094" stroke-linecap="butt" stroke-linejoin="round" stroke="rgb(69.018555%, 69.018555%, 69.018555%)" stroke-opacity="0.7" stroke-dasharray="2.594047 1.12175" stroke-miterlimit="4" d="M 113.652357 270.722656 L 113.652357 4.195312 " transform="matrix(0.999175, 0, 0, 1, -24, -4)"/>
</g>
</g>
<clipPath id="clip-9">
<path clip-rule="nonzero" d="M 24.210938 4.195312 L 292.25 4.195312 L 292.25 270.722656 L 24.210938 270.722656 Z M 24.210938 4.195312 "/>
</clipPath>
<clipPath id="clip-10">
<path clip-rule="nonzero" d="M 133 0.195312 L 135 0.195312 L 135 266.722656 L 133 266.722656 Z M 133 0.195312 "/>
</clipPath>
<clipPath id="clip-11">
<rect x="0" y="0" width="269" height="267"/>
</clipPath>
<g id="source-14" clip-path="url(#clip-11)">
<g clip-path="url(#clip-10)">
<path fill="none" stroke-width="0.701094" stroke-linecap="butt" stroke-linejoin="round" stroke="rgb(69.018555%, 69.018555%, 69.018555%)" stroke-opacity="0.7" stroke-dasharray="2.594047 1.12175" stroke-miterlimit="4" d="M 158.361117 270.722656 L 158.361117 4.195312 " transform="matrix(0.999175, 0, 0, 1, -24, -4)"/>
</g>
</g>
<clipPath id="clip-12">
<path clip-rule="nonzero" d="M 24.210938 4.195312 L 292.25 4.195312 L 292.25 270.722656 L 24.210938 270.722656 Z M 24.210938 4.195312 "/>
</clipPath>
<clipPath id="clip-13">
<path clip-rule="nonzero" d="M 178 0.195312 L 180 0.195312 L 180 266.722656 L 178 266.722656 Z M 178 0.195312 "/>
</clipPath>
<clipPath id="clip-14">
<rect x="0" y="0" width="269" height="267"/>
</clipPath>
<g id="source-17" clip-path="url(#clip-14)">
<g clip-path="url(#clip-13)">
<path fill="none" stroke-width="0.701094" stroke-linecap="butt" stroke-linejoin="round" stroke="rgb(69.018555%, 69.018555%, 69.018555%)" stroke-opacity="0.7" stroke-dasharray="2.594047 1.12175" stroke-miterlimit="4" d="M 203.069876 270.722656 L 203.069876 4.195312 " transform="matrix(0.999175, 0, 0, 1, -24, -4)"/>
</g>
</g>
<clipPath id="clip-15">
<path clip-rule="nonzero" d="M 24.210938 4.195312 L 292.25 4.195312 L 292.25 270.722656 L 24.210938 270.722656 Z M 24.210938 4.195312 "/>
</clipPath>
<clipPath id="clip-16">
<path clip-rule="nonzero" d="M 223 0.195312 L 224 0.195312 L 224 266.722656 L 223 266.722656 Z M 223 0.195312 "/>
</clipPath>
<clipPath id="clip-17">
<rect x="0" y="0" width="269" height="267"/>
</clipPath>
<g id="source-20" clip-path="url(#clip-17)">
<g clip-path="url(#clip-16)">
<path fill="none" stroke-width="0.701094" stroke-linecap="butt" stroke-linejoin="round" stroke="rgb(69.018555%, 69.018555%, 69.018555%)" stroke-opacity="0.7" stroke-dasharray="2.594047 1.12175" stroke-miterlimit="4" d="M 247.778636 270.722656 L 247.778636 4.195312 " transform="matrix(0.999175, 0, 0, 1, -24, -4)"/>
</g>
</g>
<clipPath id="clip-18">
<path clip-rule="nonzero" d="M 24.210938 4.195312 L 292.25 4.195312 L 292.25 270.722656 L 24.210938 270.722656 Z M 24.210938 4.195312 "/>
</clipPath>
<clipPath id="clip-19">
<path clip-rule="nonzero" d="M 267 0.195312 L 268.25 0.195312 L 268.25 266.722656 L 267 266.722656 Z M 267 0.195312 "/>
</clipPath>
<clipPath id="clip-20">
<rect x="0" y="0" width="269" height="267"/>
</clipPath>
<g id="source-23" clip-path="url(#clip-20)">
<g clip-path="url(#clip-19)">
<path fill="none" stroke-width="0.701094" stroke-linecap="butt" stroke-linejoin="round" stroke="rgb(69.018555%, 69.018555%, 69.018555%)" stroke-opacity="0.7" stroke-dasharray="2.594047 1.12175" stroke-miterlimit="4" d="M 292.491305 270.722656 L 292.491305 4.195312 " transform="matrix(0.999175, 0, 0, 1, -24, -4)"/>
</g>
</g>
<clipPath id="clip-21">
<path clip-rule="nonzero" d="M 24.210938 4.195312 L 292.25 4.195312 L 292.25 270.722656 L 24.210938 270.722656 Z M 24.210938 4.195312 "/>
</clipPath>
<clipPath id="clip-22">
<path clip-rule="nonzero" d="M 0.210938 266 L 268.25 266 L 268.25 266.722656 L 0.210938 266.722656 Z M 0.210938 266 "/>
</clipPath>
<clipPath id="clip-23">
<rect x="0" y="0" width="269" height="267"/>
</clipPath>
<g id="source-26" clip-path="url(#clip-23)">
<g clip-path="url(#clip-22)">
<path fill="none" stroke-width="0.701094" stroke-linecap="butt" stroke-linejoin="round" stroke="rgb(69.018555%, 69.018555%, 69.018555%)" stroke-opacity="0.7" stroke-dasharray="2.594047 1.12175" stroke-miterlimit="4" d="M 24.230928 270.722656 L 292.491305 270.722656 " transform="matrix(0.999175, 0, 0, 1, -24, -4)"/>
</g>
</g>
<clipPath id="clip-24">
<path clip-rule="nonzero" d="M 24.210938 4.195312 L 292.25 4.195312 L 292.25 270.722656 L 24.210938 270.722656 Z M 24.210938 4.195312 "/>
</clipPath>
<clipPath id="clip-25">
<path clip-rule="nonzero" d="M 0.210938 213 L 268.25 213 L 268.25 214 L 0.210938 214 Z M 0.210938 213 "/>
</clipPath>
<clipPath id="clip-26">
<rect x="0" y="0" width="269" height="267"/>
</clipPath>
<g id="source-29" clip-path="url(#clip-26)">
<g clip-path="url(#clip-25)">
<path fill="none" stroke-width="0.701094" stroke-linecap="butt" stroke-linejoin="round" stroke="rgb(69.018555%, 69.018555%, 69.018555%)" stroke-opacity="0.7" stroke-dasharray="2.594047 1.12175" stroke-miterlimit="4" d="M 24.230928 217.417969 L 292.491305 217.417969 " transform="matrix(0.999175, 0, 0, 1, -24, -4)"/>
</g>
</g>
<clipPath id="clip-27">
<path clip-rule="nonzero" d="M 24.210938 4.195312 L 292.25 4.195312 L 292.25 270.722656 L 24.210938 270.722656 Z M 24.210938 4.195312 "/>
</clipPath>
<clipPath id="clip-28">
<path clip-rule="nonzero" d="M 0.210938 159 L 268.25 159 L 268.25 161 L 0.210938 161 Z M 0.210938 159 "/>
</clipPath>
<clipPath id="clip-29">
<rect x="0" y="0" width="269" height="267"/>
</clipPath>
<g id="source-32" clip-path="url(#clip-29)">
<g clip-path="url(#clip-28)">
<path fill="none" stroke-width="0.701094" stroke-linecap="butt" stroke-linejoin="round" stroke="rgb(69.018555%, 69.018555%, 69.018555%)" stroke-opacity="0.7" stroke-dasharray="2.594047 1.12175" stroke-miterlimit="4" d="M 24.230928 164.113281 L 292.491305 164.113281 " transform="matrix(0.999175, 0, 0, 1, -24, -4)"/>
</g>
</g>
<clipPath id="clip-30">
<path clip-rule="nonzero" d="M 24.210938 4.195312 L 292.25 4.195312 L 292.25 270.722656 L 24.210938 270.722656 Z M 24.210938 4.195312 "/>
</clipPath>
<clipPath id="clip-31">
<path clip-rule="nonzero" d="M 0.210938 106 L 268.25 106 L 268.25 108 L 0.210938 108 Z M 0.210938 106 "/>
</clipPath>
<clipPath id="clip-32">
<rect x="0" y="0" width="269" height="267"/>
</clipPath>
<g id="source-35" clip-path="url(#clip-32)">
<g clip-path="url(#clip-31)">
<path fill="none" stroke-width="0.701094" stroke-linecap="butt" stroke-linejoin="round" stroke="rgb(69.018555%, 69.018555%, 69.018555%)" stroke-opacity="0.7" stroke-dasharray="2.594047 1.12175" stroke-miterlimit="4" d="M 24.230928 110.808594 L 292.491305 110.808594 " transform="matrix(0.999175, 0, 0, 1, -24, -4)"/>
</g>
</g>
<clipPath id="clip-33">
<path clip-rule="nonzero" d="M 24.210938 4.195312 L 292.25 4.195312 L 292.25 270.722656 L 24.210938 270.722656 Z M 24.210938 4.195312 "/>
</clipPath>
<clipPath id="clip-34">
<path clip-rule="nonzero" d="M 0.210938 53 L 268.25 53 L 268.25 54 L 0.210938 54 Z M 0.210938 53 "/>
</clipPath>
<clipPath id="clip-35">
<rect x="0" y="0" width="269" height="267"/>
</clipPath>
<g id="source-38" clip-path="url(#clip-35)">
<g clip-path="url(#clip-34)">
<path fill="none" stroke-width="0.701094" stroke-linecap="butt" stroke-linejoin="round" stroke="rgb(69.018555%, 69.018555%, 69.018555%)" stroke-opacity="0.7" stroke-dasharray="2.594047 1.12175" stroke-miterlimit="4" d="M 24.230928 57.5 L 292.491305 57.5 " transform="matrix(0.999175, 0, 0, 1, -24, -4)"/>
</g>
</g>
<clipPath id="clip-36">
<path clip-rule="nonzero" d="M 24.210938 4.195312 L 292.25 4.195312 L 292.25 270.722656 L 24.210938 270.722656 Z M 24.210938 4.195312 "/>
</clipPath>
<clipPath id="clip-37">
<path clip-rule="nonzero" d="M 0.210938 0.195312 L 268.25 0.195312 L 268.25 1 L 0.210938 1 Z M 0.210938 0.195312 "/>
</clipPath>
<clipPath id="clip-38">
<rect x="0" y="0" width="269" height="267"/>
</clipPath>
<g id="source-41" clip-path="url(#clip-38)">
<g clip-path="url(#clip-37)">
<path fill="none" stroke-width="0.701094" stroke-linecap="butt" stroke-linejoin="round" stroke="rgb(69.018555%, 69.018555%, 69.018555%)" stroke-opacity="0.7" stroke-dasharray="2.594047 1.12175" stroke-miterlimit="4" d="M 24.230928 4.195312 L 292.491305 4.195312 " transform="matrix(0.999175, 0, 0, 1, -24, -4)"/>
</g>
</g>
<clipPath id="clip-39">
<path clip-rule="nonzero" d="M 24.210938 270 L 292.25 270 L 292.25 270.722656 L 24.210938 270.722656 Z M 24.210938 270 "/>
</clipPath>
<clipPath id="clip-40">
<path clip-rule="nonzero" d="M 24.210938 4.195312 L 25 4.195312 L 25 270.722656 L 24.210938 270.722656 Z M 24.210938 4.195312 "/>
</clipPath>
<mask id="mask-0">
<g filter="url(#filter-remove-color)">
<rect x="-30.1" y="-29.9" width="361.2" height="358.8" fill="rgb(0%, 0%, 0%)" fill-opacity="0.8"/>
</g>
</mask>
<clipPath id="clip-41">
<path clip-rule="nonzero" d="M 154 0 L 293 0 L 293 58 L 154 58 Z M 154 0 "/>
</clipPath>
<clipPath id="clip-42">
<rect x="0" y="0" width="301" height="299"/>
</clipPath>
<g id="source-44" clip-path="url(#clip-42)">
<path fill-rule="nonzero" fill="rgb(100%, 100%, 100%)" fill-opacity="1" d="M 161.863281 51.804688 L 285.242188 51.804688 C 286.578125 51.804688 287.246094 51.136719 287.246094 49.800781 L 287.246094 6.699219 C 287.246094 5.363281 286.578125 4.695312 285.242188 4.695312 L 161.863281 4.695312 C 160.53125 4.695312 159.863281 5.363281 159.863281 6.699219 L 159.863281 49.800781 C 159.863281 51.136719 160.53125 51.804688 161.863281 51.804688 Z M 161.863281 51.804688 "/>
<g clip-path="url(#clip-41)">
<path fill="none" stroke-width="1.001563" stroke-linecap="butt" stroke-linejoin="miter" stroke="rgb(79.998779%, 79.998779%, 79.998779%)" stroke-opacity="1" stroke-miterlimit="4" d="M 161.996929 51.804688 L 285.477707 51.804688 C 286.814747 51.804688 287.483267 51.136719 287.483267 49.800781 L 287.483267 6.699219 C 287.483267 5.363281 286.814747 4.695312 285.477707 4.695312 L 161.996929 4.695312 C 160.663798 4.695312 159.995277 5.363281 159.995277 6.699219 L 159.995277 49.800781 C 159.995277 51.136719 160.663798 51.804688 161.996929 51.804688 Z M 161.996929 51.804688 " transform="matrix(0.999175, 0, 0, 1, 0, 0)"/>
</g>
</g>
</defs>
<g clip-path="url(#clip-0)">
<use xlink:href="#source-5" transform="matrix(1, 0, 0, 1, 24, 4)"/>
</g>
<path fill="none" stroke-width="0.80125" stroke-linecap="butt" stroke-linejoin="round" stroke="rgb(10.195923%, 10.195923%, 10.195923%)" stroke-opacity="1" stroke-miterlimit="4" d="M 24.230928 270.722656 L 24.230928 267.21875 " transform="matrix(0.999175, 0, 0, 1, 0, 0)"/>
<path fill-rule="nonzero" fill="rgb(10.195923%, 10.195923%, 10.195923%)" fill-opacity="1" d="M 18.480469 275.378906 C 17.871094 275.378906 17.410156 275.679688 17.101562 276.28125 C 16.796875 276.882812 16.644531 277.785156 16.644531 278.988281 C 16.644531 280.191406 16.796875 281.089844 17.101562 281.691406 C 17.410156 282.292969 17.871094 282.59375 18.480469 282.59375 C 19.09375 282.59375 19.554688 282.292969 19.859375 281.691406 C 20.167969 281.089844 20.320312 280.191406 20.320312 278.988281 C 20.320312 277.785156 20.167969 276.882812 19.859375 276.28125 C 19.554688 275.679688 19.09375 275.378906 18.480469 275.378906 Z M 18.480469 274.441406 C 19.460938 274.441406 20.210938 274.832031 20.726562 275.609375 C 21.246094 276.382812 21.503906 277.511719 21.503906 278.988281 C 21.503906 280.464844 21.246094 281.589844 20.726562 282.367188 C 20.210938 283.144531 19.460938 283.53125 18.480469 283.53125 C 17.496094 283.53125 16.75 283.144531 16.230469 282.367188 C 15.710938 281.589844 15.453125 280.464844 15.453125 278.988281 C 15.453125 277.511719 15.710938 276.382812 16.230469 275.609375 C 16.75 274.832031 17.496094 274.441406 18.480469 274.441406 Z M 18.480469 274.441406 "/>
<path fill-rule="nonzero" fill="rgb(10.195923%, 10.195923%, 10.195923%)" fill-opacity="1" d="M 23.585938 281.871094 L 24.824219 281.871094 L 24.824219 283.363281 L 23.585938 283.363281 Z M 23.585938 281.871094 "/>
<path fill-rule="nonzero" fill="rgb(10.195923%, 10.195923%, 10.195923%)" fill-opacity="1" d="M 29.9375 275.378906 C 29.328125 275.378906 28.867188 275.679688 28.5625 276.28125 C 28.253906 276.882812 28.101562 277.785156 28.101562 278.988281 C 28.101562 280.191406 28.253906 281.089844 28.5625 281.691406 C 28.867188 282.292969 29.328125 282.59375 29.9375 282.59375 C 30.550781 282.59375 31.011719 282.292969 31.316406 281.691406 C 31.625 281.089844 31.777344 280.191406 31.777344 278.988281 C 31.777344 277.785156 31.625 276.882812 31.316406 276.28125 C 31.011719 275.679688 30.550781 275.378906 29.9375 275.378906 Z M 29.9375 274.441406 C 30.917969 274.441406 31.667969 274.832031 32.1875 275.609375 C 32.703125 276.382812 32.960938 277.511719 32.960938 278.988281 C 32.960938 280.464844 32.703125 281.589844 32.1875 282.367188 C 31.667969 283.144531 30.917969 283.53125 29.9375 283.53125 C 28.957031 283.53125 28.207031 283.144531 27.6875 282.367188 C 27.171875 281.589844 26.910156 280.464844 26.910156 278.988281 C 26.910156 277.511719 27.171875 276.382812 27.6875 275.609375 C 28.207031 274.832031 28.957031 274.441406 29.9375 274.441406 Z M 29.9375 274.441406 "/>
<g clip-path="url(#clip-3)">
<use xlink:href="#source-8" transform="matrix(1, 0, 0, 1, 24, 4)"/>
</g>
<path fill="none" stroke-width="0.80125" stroke-linecap="butt" stroke-linejoin="round" stroke="rgb(10.195923%, 10.195923%, 10.195923%)" stroke-opacity="1" stroke-miterlimit="4" d="M 68.939688 270.722656 L 68.939688 267.21875 " transform="matrix(0.999175, 0, 0, 1, 0, 0)"/>
<path fill-rule="nonzero" fill="rgb(10.195923%, 10.195923%, 10.195923%)" fill-opacity="1" d="M 63.152344 275.378906 C 62.542969 275.378906 62.082031 275.679688 61.777344 276.28125 C 61.46875 276.882812 61.316406 277.785156 61.316406 278.988281 C 61.316406 280.191406 61.46875 281.089844 61.777344 281.691406 C 62.082031 282.292969 62.542969 282.59375 63.152344 282.59375 C 63.765625 282.59375 64.226562 282.292969 64.53125 281.691406 C 64.839844 281.089844 64.992188 280.191406 64.992188 278.988281 C 64.992188 277.785156 64.839844 276.882812 64.53125 276.28125 C 64.226562 275.679688 63.765625 275.378906 63.152344 275.378906 Z M 63.152344 274.441406 C 64.132812 274.441406 64.882812 274.832031 65.402344 275.609375 C 65.917969 276.382812 66.179688 277.511719 66.179688 278.988281 C 66.179688 280.464844 65.917969 281.589844 65.402344 282.367188 C 64.882812 283.144531 64.132812 283.53125 63.152344 283.53125 C 62.171875 283.53125 61.421875 283.144531 60.902344 282.367188 C 60.386719 281.589844 60.125 280.464844 60.125 278.988281 C 60.125 277.511719 60.386719 276.382812 60.902344 275.609375 C 61.421875 274.832031 62.171875 274.441406 63.152344 274.441406 Z M 63.152344 274.441406 "/>
<path fill-rule="nonzero" fill="rgb(10.195923%, 10.195923%, 10.195923%)" fill-opacity="1" d="M 68.257812 281.871094 L 69.496094 281.871094 L 69.496094 283.363281 L 68.257812 283.363281 Z M 68.257812 281.871094 "/>
<path fill-rule="nonzero" fill="rgb(10.195923%, 10.195923%, 10.195923%)" fill-opacity="1" d="M 72.089844 274.597656 L 76.738281 274.597656 L 76.738281 275.597656 L 73.171875 275.597656 L 73.171875 277.746094 C 73.34375 277.6875 73.515625 277.640625 73.6875 277.613281 C 73.859375 277.585938 74.03125 277.570312 74.207031 277.570312 C 75.183594 277.570312 75.957031 277.839844 76.527344 278.375 C 77.097656 278.910156 77.382812 279.636719 77.382812 280.550781 C 77.382812 281.492188 77.089844 282.226562 76.503906 282.75 C 75.917969 283.273438 75.089844 283.53125 74.023438 283.53125 C 73.65625 283.53125 73.28125 283.5 72.898438 283.4375 C 72.519531 283.375 72.125 283.28125 71.71875 283.15625 L 71.71875 281.964844 C 72.070312 282.15625 72.433594 282.300781 72.808594 282.394531 C 73.183594 282.488281 73.582031 282.535156 74 282.535156 C 74.675781 282.535156 75.210938 282.355469 75.605469 282 C 76 281.644531 76.199219 281.160156 76.199219 280.550781 C 76.199219 279.941406 76 279.457031 75.605469 279.101562 C 75.210938 278.746094 74.675781 278.566406 74 278.566406 C 73.683594 278.566406 73.367188 278.601562 73.050781 278.671875 C 72.738281 278.742188 72.417969 278.851562 72.089844 279 Z M 72.089844 274.597656 "/>
<g clip-path="url(#clip-6)">
<use xlink:href="#source-11" transform="matrix(1, 0, 0, 1, 24, 4)"/>
</g>
<path fill="none" stroke-width="0.80125" stroke-linecap="butt" stroke-linejoin="round" stroke="rgb(10.195923%, 10.195923%, 10.195923%)" stroke-opacity="1" stroke-miterlimit="4" d="M 113.652357 270.722656 L 113.652357 267.21875 " transform="matrix(0.999175, 0, 0, 1, 0, 0)"/>
<path fill-rule="nonzero" fill="rgb(10.195923%, 10.195923%, 10.195923%)" fill-opacity="1" d="M 105.496094 282.363281 L 107.433594 282.363281 L 107.433594 275.679688 L 105.328125 276.101562 L 105.328125 275.023438 L 107.421875 274.597656 L 108.605469 274.597656 L 108.605469 282.363281 L 110.539062 282.363281 L 110.539062 283.363281 L 105.496094 283.363281 Z M 105.496094 282.363281 "/>
<path fill-rule="nonzero" fill="rgb(10.195923%, 10.195923%, 10.195923%)" fill-opacity="1" d="M 112.929688 281.871094 L 114.171875 281.871094 L 114.171875 283.363281 L 112.929688 283.363281 Z M 112.929688 281.871094 "/>
<path fill-rule="nonzero" fill="rgb(10.195923%, 10.195923%, 10.195923%)" fill-opacity="1" d="M 119.28125 275.378906 C 118.671875 275.378906 118.214844 275.679688 117.90625 276.28125 C 117.601562 276.882812 117.445312 277.785156 117.445312 278.988281 C 117.445312 280.191406 117.601562 281.089844 117.90625 281.691406 C 118.214844 282.292969 118.671875 282.59375 119.28125 282.59375 C 119.894531 282.59375 120.355469 282.292969 120.664062 281.691406 C 120.972656 281.089844 121.125 280.191406 121.125 278.988281 C 121.125 277.785156 120.972656 276.882812 120.664062 276.28125 C 120.355469 275.679688 119.894531 275.378906 119.28125 275.378906 Z M 119.28125 274.441406 C 120.265625 274.441406 121.015625 274.832031 121.53125 275.609375 C 122.050781 276.382812 122.308594 277.511719 122.308594 278.988281 C 122.308594 280.464844 122.050781 281.589844 121.53125 282.367188 C 121.015625 283.144531 120.265625 283.53125 119.28125 283.53125 C 118.300781 283.53125 117.550781 283.144531 117.035156 282.367188 C 116.515625 281.589844 116.257812 280.464844 116.257812 278.988281 C 116.257812 277.511719 116.515625 276.382812 117.035156 275.609375 C 117.550781 274.832031 118.300781 274.441406 119.28125 274.441406 Z M 119.28125 274.441406 "/>
<g clip-path="url(#clip-9)">
<use xlink:href="#source-14" transform="matrix(1, 0, 0, 1, 24, 4)"/>
</g>
<path fill="none" stroke-width="0.80125" stroke-linecap="butt" stroke-linejoin="round" stroke="rgb(10.195923%, 10.195923%, 10.195923%)" stroke-opacity="1" stroke-miterlimit="4" d="M 158.361117 270.722656 L 158.361117 267.21875 " transform="matrix(0.999175, 0, 0, 1, 0, 0)"/>
<path fill-rule="nonzero" fill="rgb(10.195923%, 10.195923%, 10.195923%)" fill-opacity="1" d="M 150.171875 282.363281 L 152.105469 282.363281 L 152.105469 275.679688 L 150 276.101562 L 150 275.023438 L 152.09375 274.597656 L 153.277344 274.597656 L 153.277344 282.363281 L 155.210938 282.363281 L 155.210938 283.363281 L 150.171875 283.363281 Z M 150.171875 282.363281 "/>
<path fill-rule="nonzero" fill="rgb(10.195923%, 10.195923%, 10.195923%)" fill-opacity="1" d="M 157.605469 281.871094 L 158.84375 281.871094 L 158.84375 283.363281 L 157.605469 283.363281 Z M 157.605469 281.871094 "/>
<path fill-rule="nonzero" fill="rgb(10.195923%, 10.195923%, 10.195923%)" fill-opacity="1" d="M 161.433594 274.597656 L 166.085938 274.597656 L 166.085938 275.597656 L 162.519531 275.597656 L 162.519531 277.746094 C 162.691406 277.6875 162.863281 277.640625 163.035156 277.613281 C 163.207031 277.585938 163.378906 277.570312 163.550781 277.570312 C 164.527344 277.570312 165.300781 277.839844 165.871094 278.375 C 166.445312 278.910156 166.730469 279.636719 166.730469 280.550781 C 166.730469 281.492188 166.4375 282.226562 165.851562 282.75 C 165.261719 283.273438 164.4375 283.53125 163.371094 283.53125 C 163 283.53125 162.628906 283.5 162.246094 283.4375 C 161.863281 283.375 161.472656 283.28125 161.066406 283.15625 L 161.066406 281.964844 C 161.417969 282.15625 161.78125 282.300781 162.15625 282.394531 C 162.53125 282.488281 162.925781 282.535156 163.34375 282.535156 C 164.023438 282.535156 164.558594 282.355469 164.953125 282 C 165.347656 281.644531 165.542969 281.160156 165.542969 280.550781 C 165.542969 279.941406 165.347656 279.457031 164.953125 279.101562 C 164.558594 278.746094 164.023438 278.566406 163.34375 278.566406 C 163.027344 278.566406 162.710938 278.601562 162.398438 278.671875 C 162.082031 278.742188 161.761719 278.851562 161.433594 279 Z M 161.433594 274.597656 "/>
<g clip-path="url(#clip-12)">
<use xlink:href="#source-17" transform="matrix(1, 0, 0, 1, 24, 4)"/>
</g>
<path fill="none" stroke-width="0.80125" stroke-linecap="butt" stroke-linejoin="round" stroke="rgb(10.195923%, 10.195923%, 10.195923%)" stroke-opacity="1" stroke-miterlimit="4" d="M 203.069876 270.722656 L 203.069876 267.21875 " transform="matrix(0.999175, 0, 0, 1, 0, 0)"/>
<path fill-rule="nonzero" fill="rgb(10.195923%, 10.195923%, 10.195923%)" fill-opacity="1" d="M 195.65625 282.363281 L 199.792969 282.363281 L 199.792969 283.363281 L 194.234375 283.363281 L 194.234375 282.363281 C 194.683594 281.898438 195.292969 281.273438 196.070312 280.492188 C 196.847656 279.707031 197.335938 279.199219 197.535156 278.972656 C 197.914062 278.546875 198.175781 278.183594 198.328125 277.890625 C 198.480469 277.59375 198.554688 277.304688 198.554688 277.019531 C 198.554688 276.550781 198.390625 276.171875 198.066406 275.878906 C 197.738281 275.585938 197.3125 275.4375 196.789062 275.4375 C 196.417969 275.4375 196.027344 275.503906 195.613281 275.632812 C 195.199219 275.761719 194.761719 275.957031 194.292969 276.21875 L 194.292969 275.023438 C 194.769531 274.832031 195.214844 274.6875 195.628906 274.589844 C 196.042969 274.492188 196.421875 274.441406 196.765625 274.441406 C 197.671875 274.441406 198.398438 274.667969 198.9375 275.125 C 199.476562 275.578125 199.746094 276.183594 199.746094 276.941406 C 199.746094 277.300781 199.675781 277.644531 199.542969 277.964844 C 199.40625 278.289062 199.164062 278.667969 198.804688 279.105469 C 198.707031 279.21875 198.398438 279.546875 197.875 280.089844 C 197.351562 280.632812 196.613281 281.390625 195.65625 282.363281 Z M 195.65625 282.363281 "/>
<path fill-rule="nonzero" fill="rgb(10.195923%, 10.195923%, 10.195923%)" fill-opacity="1" d="M 202.277344 281.871094 L 203.515625 281.871094 L 203.515625 283.363281 L 202.277344 283.363281 Z M 202.277344 281.871094 "/>
<path fill-rule="nonzero" fill="rgb(10.195923%, 10.195923%, 10.195923%)" fill-opacity="1" d="M 208.628906 275.378906 C 208.019531 275.378906 207.558594 275.679688 207.253906 276.28125 C 206.945312 276.882812 206.792969 277.785156 206.792969 278.988281 C 206.792969 280.191406 206.945312 281.089844 207.253906 281.691406 C 207.558594 282.292969 208.019531 282.59375 208.628906 282.59375 C 209.242188 282.59375 209.703125 282.292969 210.007812 281.691406 C 210.316406 281.089844 210.46875 280.191406 210.46875 278.988281 C 210.46875 277.785156 210.316406 276.882812 210.007812 276.28125 C 209.703125 275.679688 209.242188 275.378906 208.628906 275.378906 Z M 208.628906 274.441406 C 209.609375 274.441406 210.359375 274.832031 210.878906 275.609375 C 211.394531 276.382812 211.652344 277.511719 211.652344 278.988281 C 211.652344 280.464844 211.394531 281.589844 210.878906 282.367188 C 210.359375 283.144531 209.609375 283.53125 208.628906 283.53125 C 207.648438 283.53125 206.898438 283.144531 206.378906 282.367188 C 205.863281 281.589844 205.601562 280.464844 205.601562 278.988281 C 205.601562 277.511719 205.863281 276.382812 206.378906 275.609375 C 206.898438 274.832031 207.648438 274.441406 208.628906 274.441406 Z M 208.628906 274.441406 "/>
<g clip-path="url(#clip-15)">
<use xlink:href="#source-20" transform="matrix(1, 0, 0, 1, 24, 4)"/>
</g>
<path fill="none" stroke-width="0.80125" stroke-linecap="butt" stroke-linejoin="round" stroke="rgb(10.195923%, 10.195923%, 10.195923%)" stroke-opacity="1" stroke-miterlimit="4" d="M 247.778636 270.722656 L 247.778636 267.21875 " transform="matrix(0.999175, 0, 0, 1, 0, 0)"/>
<path fill-rule="nonzero" fill="rgb(10.195923%, 10.195923%, 10.195923%)" fill-opacity="1" d="M 240.332031 282.363281 L 244.464844 282.363281 L 244.464844 283.363281 L 238.90625 283.363281 L 238.90625 282.363281 C 239.355469 281.898438 239.96875 281.273438 240.742188 280.492188 C 241.519531 279.707031 242.007812 279.199219 242.207031 278.972656 C 242.585938 278.546875 242.851562 278.183594 243 277.890625 C 243.152344 277.59375 243.226562 277.304688 243.226562 277.019531 C 243.226562 276.550781 243.0625 276.171875 242.738281 275.878906 C 242.410156 275.585938 241.984375 275.4375 241.460938 275.4375 C 241.089844 275.4375 240.699219 275.503906 240.285156 275.632812 C 239.875 275.761719 239.433594 275.957031 238.964844 276.21875 L 238.964844 275.023438 C 239.441406 274.832031 239.886719 274.6875 240.300781 274.589844 C 240.714844 274.492188 241.09375 274.441406 241.441406 274.441406 C 242.347656 274.441406 243.070312 274.667969 243.609375 275.125 C 244.148438 275.578125 244.417969 276.183594 244.417969 276.941406 C 244.417969 277.300781 244.351562 277.644531 244.214844 277.964844 C 244.082031 278.289062 243.835938 278.667969 243.480469 279.105469 C 243.382812 279.21875 243.070312 279.546875 242.546875 280.089844 C 242.023438 280.632812 241.285156 281.390625 240.332031 282.363281 Z M 240.332031 282.363281 "/>
<path fill-rule="nonzero" fill="rgb(10.195923%, 10.195923%, 10.195923%)" fill-opacity="1" d="M 246.949219 281.871094 L 248.1875 281.871094 L 248.1875 283.363281 L 246.949219 283.363281 Z M 246.949219 281.871094 "/>
<path fill-rule="nonzero" fill="rgb(10.195923%, 10.195923%, 10.195923%)" fill-opacity="1" d="M 250.78125 274.597656 L 255.429688 274.597656 L 255.429688 275.597656 L 251.863281 275.597656 L 251.863281 277.746094 C 252.035156 277.6875 252.207031 277.640625 252.378906 277.613281 C 252.550781 277.585938 252.722656 277.570312 252.898438 277.570312 C 253.875 277.570312 254.648438 277.839844 255.21875 278.375 C 255.789062 278.910156 256.074219 279.636719 256.074219 280.550781 C 256.074219 281.492188 255.78125 282.226562 255.195312 282.75 C 254.609375 283.273438 253.78125 283.53125 252.714844 283.53125 C 252.347656 283.53125 251.972656 283.5 251.589844 283.4375 C 251.210938 283.375 250.816406 283.28125 250.410156 283.15625 L 250.410156 281.964844 C 250.761719 282.15625 251.125 282.300781 251.5 282.394531 C 251.875 282.488281 252.273438 282.535156 252.691406 282.535156 C 253.367188 282.535156 253.902344 282.355469 254.296875 282 C 254.691406 281.644531 254.890625 281.160156 254.890625 280.550781 C 254.890625 279.941406 254.691406 279.457031 254.296875 279.101562 C 253.902344 278.746094 253.367188 278.566406 252.691406 278.566406 C 252.375 278.566406 252.058594 278.601562 251.742188 278.671875 C 251.429688 278.742188 251.109375 278.851562 250.78125 279 Z M 250.78125 274.597656 "/>
<g clip-path="url(#clip-18)">
<use xlink:href="#source-23" transform="matrix(1, 0, 0, 1, 24, 4)"/>
</g>
<path fill="none" stroke-width="0.80125" stroke-linecap="butt" stroke-linejoin="round" stroke="rgb(10.195923%, 10.195923%, 10.195923%)" stroke-opacity="1" stroke-miterlimit="4" d="M 292.491305 270.722656 L 292.491305 267.21875 " transform="matrix(0.999175, 0, 0, 1, 0, 0)"/>
<path fill-rule="nonzero" fill="rgb(10.195923%, 10.195923%, 10.195923%)" fill-opacity="1" d="M 287.570312 278.636719 C 288.140625 278.757812 288.582031 279.011719 288.898438 279.394531 C 289.21875 279.777344 289.378906 280.253906 289.378906 280.816406 C 289.378906 281.679688 289.082031 282.347656 288.484375 282.824219 C 287.890625 283.296875 287.046875 283.53125 285.953125 283.53125 C 285.585938 283.53125 285.207031 283.496094 284.820312 283.425781 C 284.429688 283.351562 284.027344 283.242188 283.613281 283.097656 L 283.613281 281.953125 C 283.941406 282.144531 284.300781 282.289062 284.691406 282.386719 C 285.082031 282.484375 285.492188 282.535156 285.917969 282.535156 C 286.660156 282.535156 287.226562 282.386719 287.617188 282.09375 C 288.003906 281.800781 288.199219 281.375 288.199219 280.816406 C 288.199219 280.296875 288.019531 279.894531 287.65625 279.605469 C 287.296875 279.3125 286.792969 279.167969 286.148438 279.167969 L 285.128906 279.167969 L 285.128906 278.191406 L 286.195312 278.191406 C 286.777344 278.191406 287.222656 278.074219 287.53125 277.84375 C 287.839844 277.609375 287.996094 277.273438 287.996094 276.835938 C 287.996094 276.386719 287.835938 276.042969 287.515625 275.800781 C 287.199219 275.558594 286.742188 275.4375 286.148438 275.4375 C 285.824219 275.4375 285.472656 275.472656 285.101562 275.546875 C 284.730469 275.617188 284.324219 275.726562 283.878906 275.871094 L 283.878906 274.816406 C 284.328125 274.691406 284.75 274.597656 285.140625 274.535156 C 285.535156 274.472656 285.90625 274.441406 286.253906 274.441406 C 287.152344 274.441406 287.863281 274.644531 288.386719 275.054688 C 288.910156 275.464844 289.171875 276.015625 289.171875 276.710938 C 289.171875 277.199219 289.035156 277.609375 288.757812 277.941406 C 288.476562 278.277344 288.082031 278.507812 287.570312 278.636719 Z M 287.570312 278.636719 "/>
<path fill-rule="nonzero" fill="rgb(10.195923%, 10.195923%, 10.195923%)" fill-opacity="1" d="M 291.621094 281.871094 L 292.863281 281.871094 L 292.863281 283.363281 L 291.621094 283.363281 Z M 291.621094 281.871094 "/>
<path fill-rule="nonzero" fill="rgb(10.195923%, 10.195923%, 10.195923%)" fill-opacity="1" d="M 297.972656 275.378906 C 297.363281 275.378906 296.90625 275.679688 296.597656 276.28125 C 296.292969 276.882812 296.136719 277.785156 296.136719 278.988281 C 296.136719 280.191406 296.292969 281.089844 296.597656 281.691406 C 296.90625 282.292969 297.363281 282.59375 297.972656 282.59375 C 298.585938 282.59375 299.046875 282.292969 299.355469 281.691406 C 299.664062 281.089844 299.816406 280.191406 299.816406 278.988281 C 299.816406 277.785156 299.664062 276.882812 299.355469 276.28125 C 299.046875 275.679688 298.585938 275.378906 297.972656 275.378906 Z M 297.972656 274.441406 C 298.957031 274.441406 299.707031 274.832031 300.222656 275.609375 C 300.742188 276.382812 301 277.511719 301 278.988281 C 301 280.464844 300.742188 281.589844 300.222656 282.367188 C 299.707031 283.144531 298.957031 283.53125 297.972656 283.53125 C 296.992188 283.53125 296.242188 283.144531 295.726562 282.367188 C 295.207031 281.589844 294.949219 280.464844 294.949219 278.988281 C 294.949219 277.511719 295.207031 276.382812 295.726562 275.609375 C 296.242188 274.832031 296.992188 274.441406 297.972656 274.441406 Z M 297.972656 274.441406 "/>
<path fill-rule="nonzero" fill="rgb(10.195923%, 10.195923%, 10.195923%)" fill-opacity="1" d="M 161.265625 292.425781 L 158.890625 295.625 L 161.390625 299 L 160.117188 299 L 158.207031 296.417969 L 156.296875 299 L 155.019531 299 L 157.574219 295.5625 L 155.238281 292.425781 L 156.511719 292.425781 L 158.253906 294.769531 L 159.992188 292.425781 Z M 161.265625 292.425781 "/>
<g clip-path="url(#clip-21)">
<use xlink:href="#source-26" transform="matrix(1, 0, 0, 1, 24, 4)"/>
</g>
<path fill="none" stroke-width="0.80125" stroke-linecap="butt" stroke-linejoin="round" stroke="rgb(10.195923%, 10.195923%, 10.195923%)" stroke-opacity="1" stroke-miterlimit="4" d="M 24.230928 270.722656 L 27.737727 270.722656 " transform="matrix(0.999175, 0, 0, 1, 0, 0)"/>
<path fill-rule="nonzero" fill="rgb(10.195923%, 10.195923%, 10.195923%)" fill-opacity="1" d="M 16.882812 267.308594 C 16.273438 267.308594 15.816406 267.609375 15.507812 268.210938 C 15.203125 268.808594 15.050781 269.710938 15.050781 270.917969 C 15.050781 272.117188 15.203125 273.019531 15.507812 273.621094 C 15.816406 274.222656 16.273438 274.523438 16.882812 274.523438 C 17.5 274.523438 17.957031 274.222656 18.265625 273.621094 C 18.574219 273.019531 18.726562 272.117188 18.726562 270.917969 C 18.726562 269.710938 18.574219 268.808594 18.265625 268.210938 C 17.957031 267.609375 17.5 267.308594 16.882812 267.308594 Z M 16.882812 266.371094 C 17.867188 266.371094 18.617188 266.757812 19.132812 267.535156 C 19.652344 268.3125 19.910156 269.441406 19.910156 270.917969 C 19.910156 272.394531 19.652344 273.519531 19.132812 274.296875 C 18.617188 275.074219 17.867188 275.460938 16.882812 275.460938 C 15.902344 275.460938 15.152344 275.074219 14.636719 274.296875 C 14.117188 273.519531 13.859375 272.394531 13.859375 270.917969 C 13.859375 269.441406 14.117188 268.3125 14.636719 267.535156 C 15.152344 266.757812 15.902344 266.371094 16.882812 266.371094 Z M 16.882812 266.371094 "/>
<g clip-path="url(#clip-24)">
<use xlink:href="#source-29" transform="matrix(1, 0, 0, 1, 24, 4)"/>
</g>
<path fill="none" stroke-width="0.80125" stroke-linecap="butt" stroke-linejoin="round" stroke="rgb(10.195923%, 10.195923%, 10.195923%)" stroke-opacity="1" stroke-miterlimit="4" d="M 24.230928 217.417969 L 27.737727 217.417969 " transform="matrix(0.999175, 0, 0, 1, 0, 0)"/>
<path fill-rule="nonzero" fill="rgb(10.195923%, 10.195923%, 10.195923%)" fill-opacity="1" d="M 14.558594 220.988281 L 16.492188 220.988281 L 16.492188 214.300781 L 14.386719 214.722656 L 14.386719 213.644531 L 16.480469 213.222656 L 17.664062 213.222656 L 17.664062 220.988281 L 19.597656 220.988281 L 19.597656 221.984375 L 14.558594 221.984375 Z M 14.558594 220.988281 "/>
<g clip-path="url(#clip-27)">
<use xlink:href="#source-32" transform="matrix(1, 0, 0, 1, 24, 4)"/>
</g>
<path fill="none" stroke-width="0.80125" stroke-linecap="butt" stroke-linejoin="round" stroke="rgb(10.195923%, 10.195923%, 10.195923%)" stroke-opacity="1" stroke-miterlimit="4" d="M 24.230928 164.113281 L 27.737727 164.113281 " transform="matrix(0.999175, 0, 0, 1, 0, 0)"/>
<path fill-rule="nonzero" fill="rgb(10.195923%, 10.195923%, 10.195923%)" fill-opacity="1" d="M 15.371094 167.683594 L 19.503906 167.683594 L 19.503906 168.679688 L 13.949219 168.679688 L 13.949219 167.683594 C 14.398438 167.214844 15.007812 166.589844 15.785156 165.808594 C 16.5625 165.023438 17.050781 164.515625 17.25 164.289062 C 17.628906 163.863281 17.890625 163.503906 18.042969 163.207031 C 18.195312 162.910156 18.269531 162.621094 18.269531 162.335938 C 18.269531 161.871094 18.105469 161.492188 17.78125 161.199219 C 17.453125 160.902344 17.027344 160.757812 16.503906 160.757812 C 16.132812 160.757812 15.738281 160.820312 15.328125 160.949219 C 14.914062 161.078125 14.476562 161.273438 14.007812 161.539062 L 14.007812 160.339844 C 14.484375 160.148438 14.929688 160.003906 15.34375 159.90625 C 15.757812 159.808594 16.136719 159.757812 16.480469 159.757812 C 17.386719 159.757812 18.109375 159.984375 18.648438 160.441406 C 19.1875 160.894531 19.457031 161.5 19.457031 162.257812 C 19.457031 162.617188 19.390625 162.960938 19.257812 163.285156 C 19.121094 163.605469 18.878906 163.984375 18.519531 164.421875 C 18.421875 164.539062 18.113281 164.867188 17.589844 165.40625 C 17.066406 165.949219 16.328125 166.707031 15.371094 167.683594 Z M 15.371094 167.683594 "/>
<g clip-path="url(#clip-30)">
<use xlink:href="#source-35" transform="matrix(1, 0, 0, 1, 24, 4)"/>
</g>
<path fill="none" stroke-width="0.80125" stroke-linecap="butt" stroke-linejoin="round" stroke="rgb(10.195923%, 10.195923%, 10.195923%)" stroke-opacity="1" stroke-miterlimit="4" d="M 24.230928 110.808594 L 27.737727 110.808594 " transform="matrix(0.999175, 0, 0, 1, 0, 0)"/>
<path fill-rule="nonzero" fill="rgb(10.195923%, 10.195923%, 10.195923%)" fill-opacity="1" d="M 17.941406 110.648438 C 18.507812 110.769531 18.949219 111.023438 19.265625 111.40625 C 19.585938 111.789062 19.746094 112.265625 19.746094 112.828125 C 19.746094 113.691406 19.449219 114.359375 18.855469 114.835938 C 18.261719 115.308594 17.414062 115.542969 16.320312 115.542969 C 15.953125 115.542969 15.578125 115.507812 15.1875 115.433594 C 14.800781 115.363281 14.398438 115.253906 13.984375 115.109375 L 13.984375 113.964844 C 14.3125 114.15625 14.671875 114.300781 15.058594 114.398438 C 15.453125 114.496094 15.859375 114.546875 16.289062 114.546875 C 17.03125 114.546875 17.59375 114.398438 17.984375 114.105469 C 18.371094 113.8125 18.566406 113.386719 18.566406 112.828125 C 18.566406 112.308594 18.386719 111.90625 18.023438 111.617188 C 17.664062 111.324219 17.160156 111.179688 16.515625 111.179688 L 15.496094 111.179688 L 15.496094 110.203125 L 16.5625 110.203125 C 17.144531 110.203125 17.589844 110.085938 17.898438 109.855469 C 18.207031 109.621094 18.363281 109.285156 18.363281 108.847656 C 18.363281 108.398438 18.203125 108.054688 17.882812 107.8125 C 17.566406 107.570312 17.109375 107.449219 16.515625 107.449219 C 16.191406 107.449219 15.84375 107.484375 15.472656 107.558594 C 15.101562 107.628906 14.691406 107.738281 14.246094 107.882812 L 14.246094 106.828125 C 14.695312 106.703125 15.117188 106.609375 15.511719 106.546875 C 15.902344 106.484375 16.273438 106.453125 16.621094 106.453125 C 17.519531 106.453125 18.230469 106.65625 18.753906 107.066406 C 19.277344 107.476562 19.542969 108.027344 19.542969 108.722656 C 19.542969 109.210938 19.402344 109.621094 19.125 109.953125 C 18.847656 110.289062 18.453125 110.519531 17.941406 110.648438 Z M 17.941406 110.648438 "/>
<g clip-path="url(#clip-33)">
<use xlink:href="#source-38" transform="matrix(1, 0, 0, 1, 24, 4)"/>
</g>
<path fill="none" stroke-width="0.80125" stroke-linecap="butt" stroke-linejoin="round" stroke="rgb(10.195923%, 10.195923%, 10.195923%)" stroke-opacity="1" stroke-miterlimit="4" d="M 24.230928 57.5 L 27.737727 57.5 " transform="matrix(0.999175, 0, 0, 1, 0, 0)"/>
<path fill-rule="nonzero" fill="rgb(10.195923%, 10.195923%, 10.195923%)" fill-opacity="1" d="M 17.605469 54.339844 L 14.617188 59.015625 L 17.605469 59.015625 Z M 17.296875 53.304688 L 18.785156 53.304688 L 18.785156 59.015625 L 20.035156 59.015625 L 20.035156 60.003906 L 18.785156 60.003906 L 18.785156 62.066406 L 17.605469 62.066406 L 17.605469 60.003906 L 13.65625 60.003906 L 13.65625 58.859375 Z M 17.296875 53.304688 "/>
<g clip-path="url(#clip-36)">
<use xlink:href="#source-41" transform="matrix(1, 0, 0, 1, 24, 4)"/>
</g>
<path fill="none" stroke-width="0.80125" stroke-linecap="butt" stroke-linejoin="round" stroke="rgb(10.195923%, 10.195923%, 10.195923%)" stroke-opacity="1" stroke-miterlimit="4" d="M 24.230928 4.195312 L 27.737727 4.195312 " transform="matrix(0.999175, 0, 0, 1, 0, 0)"/>
<path fill-rule="nonzero" fill="rgb(10.195923%, 10.195923%, 10.195923%)" fill-opacity="1" d="M 14.363281 0 L 19.015625 0 L 19.015625 1 L 15.449219 1 L 15.449219 3.144531 C 15.621094 3.085938 15.792969 3.042969 15.964844 3.015625 C 16.136719 2.984375 16.308594 2.972656 16.480469 2.972656 C 17.457031 2.972656 18.230469 3.238281 18.800781 3.773438 C 19.375 4.308594 19.660156 5.035156 19.660156 5.949219 C 19.660156 6.894531 19.367188 7.625 18.78125 8.148438 C 18.191406 8.671875 17.367188 8.933594 16.300781 8.933594 C 15.929688 8.933594 15.554688 8.902344 15.175781 8.839844 C 14.792969 8.777344 14.402344 8.683594 13.996094 8.558594 L 13.996094 7.367188 C 14.347656 7.558594 14.710938 7.699219 15.085938 7.792969 C 15.460938 7.886719 15.855469 7.933594 16.273438 7.933594 C 16.953125 7.933594 17.488281 7.757812 17.878906 7.402344 C 18.277344 7.046875 18.472656 6.5625 18.472656 5.949219 C 18.472656 5.339844 18.277344 4.859375 17.878906 4.503906 C 17.488281 4.144531 16.953125 3.96875 16.273438 3.96875 C 15.957031 3.96875 15.640625 4.003906 15.328125 4.074219 C 15.011719 4.144531 14.691406 4.253906 14.363281 4.402344 Z M 14.363281 0 "/>
<path fill-rule="nonzero" fill="rgb(10.195923%, 10.195923%, 10.195923%)" fill-opacity="1" d="M 7.175781 137.148438 C 7.957031 137.453125 8.46875 137.75 8.707031 138.042969 C 8.945312 138.332031 9.066406 138.71875 9.066406 139.203125 L 9.066406 140.066406 L 8.164062 140.066406 L 8.164062 139.433594 C 8.164062 139.136719 8.089844 138.90625 7.949219 138.742188 C 7.808594 138.574219 7.476562 138.394531 6.953125 138.195312 L 6.460938 138 L 0 140.660156 L 0 139.515625 L 5.136719 137.460938 L 0 135.40625 L 0 134.261719 Z M 7.175781 137.148438 "/>
<path fill-rule="nonzero" fill="rgb(100%, 0%, 0%)" fill-opacity="1" d="M 113.558594 221.425781 C 114.617188 221.425781 115.636719 221.003906 116.386719 220.25 C 117.136719 219.5 117.558594 218.480469 117.558594 217.417969 C 117.558594 216.355469 117.136719 215.335938 116.386719 214.585938 C 115.636719 213.835938 114.617188 213.414062 113.558594 213.414062 C 112.496094 213.414062 111.476562 213.835938 110.726562 214.585938 C 109.976562 215.335938 109.554688 216.355469 109.554688 217.417969 C 109.554688 218.480469 109.976562 219.5 110.726562 220.25 C 111.476562 221.003906 112.496094 221.425781 113.558594 221.425781 Z M 113.558594 221.425781 "/>
<path fill-rule="nonzero" fill="rgb(0%, 0%, 100%)" fill-opacity="1" d="M 202.902344 61.507812 C 203.964844 61.507812 204.980469 61.085938 205.734375 60.335938 C 206.484375 59.582031 206.90625 58.5625 206.90625 57.5 C 206.90625 56.4375 206.484375 55.421875 205.734375 54.667969 C 204.980469 53.917969 203.964844 53.496094 202.902344 53.496094 C 201.839844 53.496094 200.824219 53.917969 200.070312 54.667969 C 199.320312 55.421875 198.898438 56.4375 198.898438 57.5 C 198.898438 58.5625 199.320312 59.582031 200.070312 60.335938 C 200.824219 61.085938 201.839844 61.507812 202.902344 61.507812 Z M 202.902344 61.507812 "/>
<path fill="none" stroke-width="1.502344" stroke-linecap="square" stroke-linejoin="round" stroke="rgb(0%, 0%, 0%)" stroke-opacity="1" stroke-miterlimit="4" d="M 113.652357 217.417969 L 203.069876 57.5 " transform="matrix(0.999175, 0, 0, 1, 0, 0)"/>
<g clip-path="url(#clip-39)">
<path fill="none" stroke-width="1.001563" stroke-linecap="square" stroke-linejoin="round" stroke="rgb(0%, 0%, 0%)" stroke-opacity="1" stroke-miterlimit="4" d="M 24.230928 270.722656 L 292.491305 270.722656 " transform="matrix(0.999175, 0, 0, 1, 0, 0)"/>
</g>
<g clip-path="url(#clip-40)">
<path fill="none" stroke-width="1.001563" stroke-linecap="square" stroke-linejoin="round" stroke="rgb(0%, 0%, 0%)" stroke-opacity="1" stroke-miterlimit="4" d="M 24.230928 270.722656 L 24.230928 4.195312 " transform="matrix(0.999175, 0, 0, 1, 0, 0)"/>
</g>
<path fill="none" stroke-width="1.001563" stroke-linecap="square" stroke-linejoin="miter" stroke="rgb(10.195923%, 10.195923%, 10.195923%)" stroke-opacity="1" stroke-miterlimit="4" d="M 24.230928 270.722656 L 24.230928 4.195312 " transform="matrix(0.999175, 0, 0, 1, 0, 0)"/>
<path fill="none" stroke-width="1.001563" stroke-linecap="square" stroke-linejoin="miter" stroke="rgb(10.195923%, 10.195923%, 10.195923%)" stroke-opacity="1" stroke-miterlimit="4" d="M 24.230928 270.722656 L 292.491305 270.722656 " transform="matrix(0.999175, 0, 0, 1, 0, 0)"/>
<g mask="url(#mask-0)">
<use xlink:href="#source-44"/>
</g>
<path fill="none" stroke-width="1.502344" stroke-linecap="square" stroke-linejoin="round" stroke="rgb(100%, 0%, 0%)" stroke-opacity="1" stroke-miterlimit="4" d="M 164.00249 17.316406 L 184.034641 17.316406 " transform="matrix(0.999175, 0, 0, 1, 0, 0)"/>
<path fill-rule="nonzero" fill="rgb(100%, 0%, 0%)" fill-opacity="1" d="M 173.875 21.320312 C 174.933594 21.320312 175.953125 20.898438 176.703125 20.148438 C 177.453125 19.398438 177.875 18.378906 177.875 17.316406 C 177.875 16.253906 177.453125 15.234375 176.703125 14.480469 C 175.953125 13.730469 174.933594 13.308594 173.875 13.308594 C 172.8125 13.308594 171.792969 13.730469 171.042969 14.480469 C 170.292969 15.234375 169.871094 16.253906 169.871094 17.316406 C 169.871094 18.378906 170.292969 19.398438 171.042969 20.148438 C 171.792969 20.898438 172.8125 21.320312 173.875 21.320312 Z M 173.875 21.320312 "/>
<path fill-rule="nonzero" fill="rgb(19.999695%, 19.999695%, 19.999695%)" fill-opacity="1" d="M 194.988281 13.222656 C 194.554688 13.96875 194.230469 14.710938 194.015625 15.445312 C 193.804688 16.179688 193.699219 16.921875 193.699219 17.675781 C 193.699219 18.429688 193.804688 19.175781 194.019531 19.914062 C 194.234375 20.652344 194.554688 21.394531 194.988281 22.140625 L 194.207031 22.140625 C 193.71875 21.375 193.355469 20.621094 193.109375 19.882812 C 192.867188 19.140625 192.746094 18.40625 192.746094 17.675781 C 192.746094 16.949219 192.867188 16.21875 193.109375 15.480469 C 193.351562 14.742188 193.714844 13.988281 194.207031 13.222656 Z M 194.988281 13.222656 "/>
<path fill-rule="nonzero" fill="rgb(19.999695%, 19.999695%, 19.999695%)" fill-opacity="1" d="M 197.03125 19.988281 L 198.644531 19.988281 L 198.644531 14.417969 L 196.890625 14.769531 L 196.890625 13.871094 L 198.636719 13.519531 L 199.621094 13.519531 L 199.621094 19.988281 L 201.234375 19.988281 L 201.234375 20.820312 L 197.03125 20.820312 Z M 197.03125 19.988281 "/>
<path fill-rule="nonzero" fill="rgb(19.999695%, 19.999695%, 19.999695%)" fill-opacity="1" d="M 203.332031 19.578125 L 204.359375 19.578125 L 204.359375 20.421875 L 203.5625 21.984375 L 202.929688 21.984375 L 203.332031 20.421875 Z M 203.332031 19.578125 "/>
<path fill-rule="nonzero" fill="rgb(19.999695%, 19.999695%, 19.999695%)" fill-opacity="1" d="M 206.582031 19.988281 L 208.191406 19.988281 L 208.191406 14.417969 L 206.4375 14.769531 L 206.4375 13.871094 L 208.183594 13.519531 L 209.171875 13.519531 L 209.171875 19.988281 L 210.78125 19.988281 L 210.78125 20.820312 L 206.582031 20.820312 Z M 206.582031 19.988281 "/>
<path fill-rule="nonzero" fill="rgb(19.999695%, 19.999695%, 19.999695%)" fill-opacity="1" d="M 212.507812 13.222656 L 213.289062 13.222656 C 213.777344 13.988281 214.144531 14.742188 214.386719 15.480469 C 214.628906 16.21875 214.75 16.949219 214.75 17.675781 C 214.75 18.40625 214.628906 19.140625 214.386719 19.882812 C 214.144531 20.621094 213.777344 21.375 213.289062 22.140625 L 212.507812 22.140625 C 212.941406 21.394531 213.265625 20.652344 213.476562 19.914062 C 213.691406 19.175781 213.796875 18.429688 213.796875 17.675781 C 213.796875 16.921875 213.691406 16.179688 213.476562 15.445312 C 213.265625 14.710938 212.941406 13.96875 212.507812 13.222656 Z M 212.507812 13.222656 "/>
<path fill="none" stroke-width="1.502344" stroke-linecap="square" stroke-linejoin="round" stroke="rgb(0%, 0%, 100%)" stroke-opacity="1" stroke-miterlimit="4" d="M 164.00249 32.015625 L 184.034641 32.015625 " transform="matrix(0.999175, 0, 0, 1, 0, 0)"/>
<path fill-rule="nonzero" fill="rgb(0%, 0%, 100%)" fill-opacity="1" d="M 173.875 36.023438 C 174.933594 36.023438 175.953125 35.601562 176.703125 34.847656 C 177.453125 34.097656 177.875 33.078125 177.875 32.015625 C 177.875 30.953125 177.453125 29.933594 176.703125 29.183594 C 175.953125 28.433594 174.933594 28.011719 173.875 28.011719 C 172.8125 28.011719 171.792969 28.433594 171.042969 29.183594 C 170.292969 29.933594 169.871094 30.953125 169.871094 32.015625 C 169.871094 33.078125 170.292969 34.097656 171.042969 34.847656 C 171.792969 35.601562 172.8125 36.023438 173.875 36.023438 Z M 173.875 36.023438 "/>
<path fill-rule="nonzero" fill="rgb(19.999695%, 19.999695%, 19.999695%)" fill-opacity="1" d="M 194.988281 27.921875 C 194.554688 28.671875 194.230469 29.414062 194.015625 30.148438 C 193.804688 30.882812 193.699219 31.625 193.699219 32.378906 C 193.699219 33.128906 193.804688 33.875 194.019531 34.613281 C 194.234375 35.351562 194.554688 36.09375 194.988281 36.84375 L 194.207031 36.84375 C 193.71875 36.074219 193.355469 35.324219 193.109375 34.582031 C 192.867188 33.84375 192.746094 33.109375 192.746094 32.378906 C 192.746094 31.652344 192.867188 30.917969 193.109375 30.183594 C 193.351562 29.445312 193.714844 28.691406 194.207031 27.921875 Z M 194.988281 27.921875 "/>
<path fill-rule="nonzero" fill="rgb(19.999695%, 19.999695%, 19.999695%)" fill-opacity="1" d="M 197.710938 34.691406 L 201.15625 34.691406 L 201.15625 35.523438 L 196.523438 35.523438 L 196.523438 34.691406 C 196.898438 34.300781 197.410156 33.78125 198.054688 33.128906 C 198.703125 32.476562 199.109375 32.050781 199.273438 31.863281 C 199.589844 31.507812 199.8125 31.207031 199.9375 30.960938 C 200.0625 30.714844 200.125 30.472656 200.125 30.234375 C 200.125 29.847656 199.988281 29.53125 199.71875 29.285156 C 199.445312 29.042969 199.089844 28.917969 198.652344 28.917969 C 198.34375 28.917969 198.019531 28.972656 197.671875 29.082031 C 197.332031 29.1875 196.964844 29.351562 196.574219 29.570312 L 196.574219 28.570312 C 196.96875 28.414062 197.339844 28.292969 197.6875 28.210938 C 198.03125 28.128906 198.347656 28.089844 198.636719 28.089844 C 199.390625 28.089844 199.992188 28.277344 200.441406 28.65625 C 200.890625 29.035156 201.117188 29.539062 201.117188 30.171875 C 201.117188 30.472656 201.058594 30.757812 200.949219 31.027344 C 200.835938 31.292969 200.632812 31.609375 200.335938 31.976562 C 200.253906 32.070312 199.996094 32.34375 199.558594 32.796875 C 199.121094 33.246094 198.507812 33.878906 197.710938 34.691406 Z M 197.710938 34.691406 "/>
<path fill-rule="nonzero" fill="rgb(19.999695%, 19.999695%, 19.999695%)" fill-opacity="1" d="M 203.332031 34.277344 L 204.359375 34.277344 L 204.359375 35.121094 L 203.5625 36.6875 L 202.929688 36.6875 L 203.332031 35.121094 Z M 203.332031 34.277344 "/>
<path fill-rule="nonzero" fill="rgb(19.999695%, 19.999695%, 19.999695%)" fill-opacity="1" d="M 209.121094 29.082031 L 206.628906 32.980469 L 209.121094 32.980469 Z M 208.863281 28.21875 L 210.101562 28.21875 L 210.101562 32.980469 L 211.144531 32.980469 L 211.144531 33.800781 L 210.101562 33.800781 L 210.101562 35.523438 L 209.121094 35.523438 L 209.121094 33.800781 L 205.828125 33.800781 L 205.828125 32.847656 Z M 208.863281 28.21875 "/>
<path fill-rule="nonzero" fill="rgb(19.999695%, 19.999695%, 19.999695%)" fill-opacity="1" d="M 212.507812 27.921875 L 213.289062 27.921875 C 213.777344 28.691406 214.144531 29.445312 214.386719 30.183594 C 214.628906 30.917969 214.75 31.652344 214.75 32.378906 C 214.75 33.109375 214.628906 33.84375 214.386719 34.582031 C 214.144531 35.324219 213.777344 36.074219 213.289062 36.84375 L 212.507812 36.84375 C 212.941406 36.09375 213.265625 35.351562 213.476562 34.613281 C 213.691406 33.875 213.796875 33.128906 213.796875 32.378906 C 213.796875 31.625 213.691406 30.882812 213.476562 30.148438 C 213.265625 29.414062 212.941406 28.671875 212.507812 27.921875 Z M 212.507812 27.921875 "/>
<path fill="none" stroke-width="1.502344" stroke-linecap="square" stroke-linejoin="round" stroke="rgb(0%, 0%, 0%)" stroke-opacity="1" stroke-miterlimit="4" d="M 164.00249 46.71875 L 184.034641 46.71875 " transform="matrix(0.999175, 0, 0, 1, 0, 0)"/>
<path fill-rule="nonzero" fill="rgb(19.999695%, 19.999695%, 19.999695%)" fill-opacity="1" d="M 198.332031 43.484375 L 198.332031 44.523438 C 198 44.214844 197.644531 43.984375 197.269531 43.832031 C 196.890625 43.679688 196.492188 43.601562 196.070312 43.601562 C 195.234375 43.601562 194.597656 43.855469 194.152344 44.367188 C 193.710938 44.875 193.488281 45.613281 193.488281 46.578125 C 193.488281 47.542969 193.710938 48.277344 194.152344 48.789062 C 194.597656 49.296875 195.234375 49.554688 196.070312 49.554688 C 196.492188 49.554688 196.890625 49.476562 197.269531 49.324219 C 197.644531 49.167969 198 48.9375 198.332031 48.628906 L 198.332031 49.660156 C 197.988281 49.894531 197.621094 50.070312 197.234375 50.191406 C 196.847656 50.308594 196.441406 50.363281 196.011719 50.363281 C 194.90625 50.363281 194.035156 50.027344 193.398438 49.351562 C 192.765625 48.675781 192.449219 47.75 192.449219 46.578125 C 192.449219 45.40625 192.765625 44.480469 193.398438 43.804688 C 194.035156 43.128906 194.90625 42.789062 196.011719 42.789062 C 196.449219 42.789062 196.859375 42.847656 197.242188 42.964844 C 197.628906 43.078125 197.992188 43.253906 198.332031 43.484375 Z M 198.332031 43.484375 "/>
<path fill-rule="nonzero" fill="rgb(19.999695%, 19.999695%, 19.999695%)" fill-opacity="1" d="M 202.304688 47.46875 C 201.578125 47.46875 201.074219 47.554688 200.792969 47.71875 C 200.515625 47.882812 200.375 48.167969 200.375 48.570312 C 200.375 48.890625 200.480469 49.144531 200.691406 49.332031 C 200.898438 49.515625 201.1875 49.609375 201.546875 49.609375 C 202.046875 49.609375 202.445312 49.433594 202.746094 49.082031 C 203.046875 48.726562 203.199219 48.257812 203.199219 47.671875 L 203.199219 47.46875 Z M 204.097656 47.097656 L 204.097656 50.222656 L 203.199219 50.222656 L 203.199219 49.390625 C 202.992188 49.722656 202.738281 49.96875 202.429688 50.128906 C 202.125 50.285156 201.75 50.363281 201.308594 50.363281 C 200.746094 50.363281 200.300781 50.207031 199.96875 49.890625 C 199.640625 49.578125 199.476562 49.15625 199.476562 48.628906 C 199.476562 48.011719 199.679688 47.546875 200.09375 47.234375 C 200.503906 46.921875 201.121094 46.765625 201.9375 46.765625 L 203.199219 46.765625 L 203.199219 46.675781 C 203.199219 46.261719 203.0625 45.941406 202.792969 45.714844 C 202.519531 45.488281 202.136719 45.375 201.644531 45.375 C 201.332031 45.375 201.027344 45.414062 200.730469 45.488281 C 200.433594 45.5625 200.148438 45.675781 199.875 45.828125 L 199.875 44.996094 C 200.203125 44.867188 200.523438 44.773438 200.832031 44.710938 C 201.144531 44.644531 201.445312 44.613281 201.738281 44.613281 C 202.53125 44.613281 203.121094 44.820312 203.511719 45.230469 C 203.902344 45.640625 204.097656 46.261719 204.097656 47.097656 Z M 204.097656 47.097656 "/>
<path fill-rule="nonzero" fill="rgb(19.999695%, 19.999695%, 19.999695%)" fill-opacity="1" d="M 210.210938 45.796875 C 210.4375 45.390625 210.703125 45.09375 211.015625 44.902344 C 211.332031 44.710938 211.699219 44.613281 212.121094 44.613281 C 212.691406 44.613281 213.132812 44.8125 213.441406 45.214844 C 213.75 45.613281 213.90625 46.179688 213.90625 46.914062 L 213.90625 50.222656 L 213 50.222656 L 213 46.945312 C 213 46.421875 212.910156 46.03125 212.722656 45.777344 C 212.535156 45.523438 212.253906 45.394531 211.871094 45.394531 C 211.40625 45.394531 211.039062 45.550781 210.765625 45.859375 C 210.496094 46.171875 210.363281 46.59375 210.363281 47.128906 L 210.363281 50.222656 L 209.457031 50.222656 L 209.457031 46.945312 C 209.457031 46.417969 209.367188 46.027344 209.179688 45.773438 C 208.996094 45.523438 208.707031 45.394531 208.320312 45.394531 C 207.859375 45.394531 207.496094 45.550781 207.222656 45.863281 C 206.953125 46.171875 206.820312 46.59375 206.820312 47.128906 L 206.820312 50.222656 L 205.914062 50.222656 L 205.914062 44.746094 L 206.820312 44.746094 L 206.820312 45.597656 C 207.023438 45.261719 207.269531 45.011719 207.558594 44.851562 C 207.84375 44.695312 208.183594 44.613281 208.578125 44.613281 C 208.976562 44.613281 209.316406 44.714844 209.59375 44.917969 C 209.871094 45.117188 210.078125 45.410156 210.210938 45.796875 Z M 210.210938 45.796875 "/>
<path fill-rule="nonzero" fill="rgb(19.999695%, 19.999695%, 19.999695%)" fill-opacity="1" d="M 215.699219 44.746094 L 216.597656 44.746094 L 216.597656 50.222656 L 215.699219 50.222656 Z M 215.699219 42.613281 L 216.597656 42.613281 L 216.597656 43.753906 L 215.699219 43.753906 Z M 215.699219 42.613281 "/>
<path fill-rule="nonzero" fill="rgb(19.999695%, 19.999695%, 19.999695%)" fill-opacity="1" d="M 223.027344 46.914062 L 223.027344 50.222656 L 222.128906 50.222656 L 222.128906 46.945312 C 222.128906 46.425781 222.027344 46.039062 221.828125 45.78125 C 221.625 45.523438 221.320312 45.394531 220.917969 45.394531 C 220.433594 45.394531 220.046875 45.550781 219.769531 45.859375 C 219.488281 46.171875 219.347656 46.59375 219.347656 47.128906 L 219.347656 50.222656 L 218.445312 50.222656 L 218.445312 44.746094 L 219.347656 44.746094 L 219.347656 45.597656 C 219.5625 45.265625 219.816406 45.019531 220.109375 44.859375 C 220.398438 44.695312 220.734375 44.613281 221.117188 44.613281 C 221.746094 44.613281 222.222656 44.808594 222.542969 45.199219 C 222.867188 45.585938 223.027344 46.160156 223.027344 46.914062 Z M 223.027344 46.914062 "/>
<path fill-rule="nonzero" fill="rgb(19.999695%, 19.999695%, 19.999695%)" fill-opacity="1" d="M 226.941406 45.375 C 226.460938 45.375 226.078125 45.5625 225.796875 45.941406 C 225.519531 46.316406 225.378906 46.832031 225.378906 47.488281 C 225.378906 48.144531 225.515625 48.660156 225.796875 49.035156 C 226.074219 49.414062 226.457031 49.601562 226.941406 49.601562 C 227.421875 49.601562 227.800781 49.414062 228.078125 49.035156 C 228.359375 48.65625 228.5 48.140625 228.5 47.488281 C 228.5 46.839844 228.359375 46.324219 228.078125 45.945312 C 227.800781 45.566406 227.421875 45.375 226.941406 45.375 Z M 226.941406 44.613281 C 227.722656 44.613281 228.335938 44.867188 228.785156 45.378906 C 229.230469 45.886719 229.453125 46.589844 229.453125 47.488281 C 229.453125 48.386719 229.230469 49.089844 228.785156 49.601562 C 228.335938 50.109375 227.722656 50.363281 226.941406 50.363281 C 226.15625 50.363281 225.542969 50.109375 225.097656 49.601562 C 224.652344 49.089844 224.429688 48.386719 224.429688 47.488281 C 224.429688 46.589844 224.652344 45.886719 225.097656 45.378906 C 225.542969 44.867188 226.15625 44.613281 226.941406 44.613281 Z M 226.941406 44.613281 "/>
<path fill-rule="nonzero" fill="rgb(19.999695%, 19.999695%, 19.999695%)" fill-opacity="1" d="M 238.386719 45.796875 C 238.609375 45.390625 238.878906 45.09375 239.191406 44.902344 C 239.503906 44.710938 239.875 44.613281 240.296875 44.613281 C 240.867188 44.613281 241.304688 44.8125 241.617188 45.214844 C 241.925781 45.613281 242.082031 46.179688 242.082031 46.914062 L 242.082031 50.222656 L 241.175781 50.222656 L 241.175781 46.945312 C 241.175781 46.421875 241.082031 46.03125 240.898438 45.777344 C 240.710938 45.523438 240.429688 45.394531 240.046875 45.394531 C 239.582031 45.394531 239.214844 45.550781 238.941406 45.859375 C 238.671875 46.171875 238.539062 46.59375 238.539062 47.128906 L 238.539062 50.222656 L 237.632812 50.222656 L 237.632812 46.945312 C 237.632812 46.417969 237.539062 46.027344 237.355469 45.773438 C 237.167969 45.523438 236.882812 45.394531 236.496094 45.394531 C 236.035156 45.394531 235.671875 45.550781 235.398438 45.863281 C 235.128906 46.171875 234.992188 46.59375 234.992188 47.128906 L 234.992188 50.222656 L 234.089844 50.222656 L 234.089844 44.746094 L 234.992188 44.746094 L 234.992188 45.597656 C 235.199219 45.261719 235.445312 45.011719 235.730469 44.851562 C 236.019531 44.695312 236.359375 44.613281 236.753906 44.613281 C 237.152344 44.613281 237.488281 44.714844 237.769531 44.917969 C 238.046875 45.117188 238.253906 45.410156 238.386719 45.796875 Z M 238.386719 45.796875 "/>
<path fill-rule="nonzero" fill="rgb(19.999695%, 19.999695%, 19.999695%)" fill-opacity="1" d="M 246.359375 47.46875 C 245.632812 47.46875 245.128906 47.554688 244.851562 47.71875 C 244.570312 47.882812 244.429688 48.167969 244.429688 48.570312 C 244.429688 48.890625 244.535156 49.144531 244.746094 49.332031 C 244.957031 49.515625 245.242188 49.609375 245.601562 49.609375 C 246.101562 49.609375 246.503906 49.433594 246.804688 49.082031 C 247.105469 48.726562 247.253906 48.257812 247.253906 47.671875 L 247.253906 47.46875 Z M 248.15625 47.097656 L 248.15625 50.222656 L 247.253906 50.222656 L 247.253906 49.390625 C 247.050781 49.722656 246.792969 49.96875 246.488281 50.128906 C 246.179688 50.285156 245.804688 50.363281 245.363281 50.363281 C 244.804688 50.363281 244.359375 50.207031 244.027344 49.890625 C 243.695312 49.578125 243.53125 49.15625 243.53125 48.628906 C 243.53125 48.011719 243.738281 47.546875 244.148438 47.234375 C 244.5625 46.921875 245.175781 46.765625 245.992188 46.765625 L 247.253906 46.765625 L 247.253906 46.675781 C 247.253906 46.261719 247.121094 45.941406 246.847656 45.714844 C 246.574219 45.488281 246.191406 45.375 245.699219 45.375 C 245.386719 45.375 245.082031 45.414062 244.785156 45.488281 C 244.488281 45.5625 244.207031 45.675781 243.933594 45.828125 L 243.933594 44.996094 C 244.261719 44.867188 244.578125 44.773438 244.890625 44.710938 C 245.199219 44.644531 245.5 44.613281 245.792969 44.613281 C 246.585938 44.613281 247.175781 44.820312 247.566406 45.230469 C 247.957031 45.640625 248.15625 46.261719 248.15625 47.097656 Z M 246.511719 42.210938 L 247.484375 42.210938 L 245.890625 44.050781 L 245.144531 44.050781 Z M 246.511719 42.210938 "/>
<path fill-rule="nonzero" fill="rgb(19.999695%, 19.999695%, 19.999695%)" fill-opacity="1" d="M 253.492188 44.90625 L 253.492188 45.757812 C 253.242188 45.628906 252.976562 45.53125 252.703125 45.464844 C 252.429688 45.398438 252.144531 45.367188 251.851562 45.367188 C 251.40625 45.367188 251.070312 45.433594 250.847656 45.570312 C 250.625 45.707031 250.515625 45.914062 250.515625 46.1875 C 250.515625 46.398438 250.59375 46.5625 250.753906 46.679688 C 250.914062 46.796875 251.234375 46.910156 251.714844 47.019531 L 252.023438 47.089844 C 252.664062 47.226562 253.117188 47.417969 253.382812 47.667969 C 253.652344 47.917969 253.789062 48.265625 253.789062 48.710938 C 253.789062 49.21875 253.585938 49.625 253.183594 49.921875 C 252.78125 50.21875 252.230469 50.363281 251.523438 50.363281 C 251.234375 50.363281 250.925781 50.335938 250.609375 50.277344 C 250.292969 50.222656 249.957031 50.136719 249.605469 50.023438 L 249.605469 49.09375 C 249.9375 49.265625 250.265625 49.394531 250.585938 49.484375 C 250.910156 49.566406 251.230469 49.609375 251.546875 49.609375 C 251.96875 49.609375 252.292969 49.539062 252.519531 49.394531 C 252.75 49.25 252.863281 49.042969 252.863281 48.78125 C 252.863281 48.535156 252.78125 48.347656 252.617188 48.21875 C 252.453125 48.085938 252.09375 47.960938 251.535156 47.839844 L 251.222656 47.765625 C 250.664062 47.652344 250.261719 47.46875 250.015625 47.226562 C 249.769531 46.984375 249.644531 46.652344 249.644531 46.226562 C 249.644531 45.710938 249.828125 45.316406 250.191406 45.035156 C 250.554688 44.753906 251.074219 44.613281 251.746094 44.613281 C 252.078125 44.613281 252.390625 44.636719 252.683594 44.6875 C 252.976562 44.734375 253.246094 44.808594 253.492188 44.90625 Z M 253.492188 44.90625 "/>
<path fill-rule="nonzero" fill="rgb(19.999695%, 19.999695%, 19.999695%)" fill-opacity="1" d="M 262.339844 44.957031 L 262.339844 45.796875 C 262.085938 45.65625 261.828125 45.550781 261.574219 45.480469 C 261.320312 45.410156 261.0625 45.375 260.800781 45.375 C 260.214844 45.375 259.761719 45.5625 259.441406 45.933594 C 259.117188 46.300781 258.957031 46.820312 258.957031 47.488281 C 258.957031 48.15625 259.117188 48.675781 259.441406 49.046875 C 259.761719 49.417969 260.214844 49.601562 260.800781 49.601562 C 261.0625 49.601562 261.320312 49.566406 261.574219 49.496094 C 261.828125 49.425781 262.085938 49.320312 262.339844 49.179688 L 262.339844 50.011719 C 262.089844 50.128906 261.828125 50.21875 261.558594 50.277344 C 261.289062 50.335938 261.003906 50.363281 260.703125 50.363281 C 259.878906 50.363281 259.222656 50.105469 258.738281 49.585938 C 258.25 49.070312 258.007812 48.371094 258.007812 47.488281 C 258.007812 46.597656 258.253906 45.894531 258.746094 45.382812 C 259.234375 44.871094 259.90625 44.613281 260.761719 44.613281 C 261.039062 44.613281 261.308594 44.644531 261.570312 44.699219 C 261.835938 44.757812 262.089844 44.839844 262.339844 44.957031 Z M 262.339844 44.957031 "/>
<path fill-rule="nonzero" fill="rgb(19.999695%, 19.999695%, 19.999695%)" fill-opacity="1" d="M 266.023438 45.375 C 265.542969 45.375 265.160156 45.5625 264.878906 45.941406 C 264.597656 46.316406 264.460938 46.832031 264.460938 47.488281 C 264.460938 48.144531 264.597656 48.660156 264.875 49.035156 C 265.15625 49.414062 265.539062 49.601562 266.023438 49.601562 C 266.503906 49.601562 266.882812 49.414062 267.160156 49.035156 C 267.441406 48.65625 267.582031 48.140625 267.582031 47.488281 C 267.582031 46.839844 267.441406 46.324219 267.160156 45.945312 C 266.882812 45.566406 266.503906 45.375 266.023438 45.375 Z M 266.023438 44.613281 C 266.804688 44.613281 267.417969 44.867188 267.863281 45.378906 C 268.3125 45.886719 268.535156 46.589844 268.535156 47.488281 C 268.535156 48.386719 268.3125 49.089844 267.863281 49.601562 C 267.417969 50.109375 266.804688 50.363281 266.023438 50.363281 C 265.238281 50.363281 264.621094 50.109375 264.175781 49.601562 C 263.734375 49.089844 263.511719 48.386719 263.511719 47.488281 C 263.511719 46.589844 263.734375 45.886719 264.175781 45.378906 C 264.621094 44.867188 265.238281 44.613281 266.023438 44.613281 Z M 266.023438 44.613281 "/>
<path fill-rule="nonzero" fill="rgb(19.999695%, 19.999695%, 19.999695%)" fill-opacity="1" d="M 273.195312 45.585938 C 273.09375 45.527344 272.984375 45.484375 272.867188 45.457031 C 272.746094 45.429688 272.617188 45.414062 272.472656 45.414062 C 271.964844 45.414062 271.574219 45.582031 271.300781 45.910156 C 271.03125 46.242188 270.894531 46.71875 270.894531 47.335938 L 270.894531 50.222656 L 269.992188 50.222656 L 269.992188 44.746094 L 270.894531 44.746094 L 270.894531 45.597656 C 271.085938 45.265625 271.332031 45.015625 271.632812 44.855469 C 271.9375 44.695312 272.304688 44.613281 272.738281 44.613281 C 272.800781 44.613281 272.867188 44.617188 272.941406 44.625 C 273.019531 44.632812 273.101562 44.644531 273.191406 44.664062 Z M 273.195312 45.585938 "/>
<path fill-rule="nonzero" fill="rgb(19.999695%, 19.999695%, 19.999695%)" fill-opacity="1" d="M 275.027344 43.191406 L 275.027344 44.746094 L 276.878906 44.746094 L 276.878906 45.445312 L 275.027344 45.445312 L 275.027344 48.417969 C 275.027344 48.863281 275.089844 49.152344 275.210938 49.277344 C 275.335938 49.40625 275.582031 49.46875 275.957031 49.46875 L 276.878906 49.46875 L 276.878906 50.222656 L 275.957031 50.222656 C 275.265625 50.222656 274.785156 50.09375 274.519531 49.835938 C 274.257812 49.574219 274.125 49.101562 274.125 48.417969 L 274.125 45.445312 L 273.464844 45.445312 L 273.464844 44.746094 L 274.125 44.746094 L 274.125 43.191406 Z M 275.027344 43.191406 "/>
<path fill-rule="nonzero" fill="rgb(19.999695%, 19.999695%, 19.999695%)" fill-opacity="1" d="M 280.183594 45.375 C 279.703125 45.375 279.320312 45.5625 279.039062 45.941406 C 278.761719 46.316406 278.621094 46.832031 278.621094 47.488281 C 278.621094 48.144531 278.757812 48.660156 279.039062 49.035156 C 279.316406 49.414062 279.699219 49.601562 280.183594 49.601562 C 280.664062 49.601562 281.042969 49.414062 281.320312 49.035156 C 281.601562 48.65625 281.742188 48.140625 281.742188 47.488281 C 281.742188 46.839844 281.601562 46.324219 281.320312 45.945312 C 281.042969 45.566406 280.664062 45.375 280.183594 45.375 Z M 280.183594 44.613281 C 280.964844 44.613281 281.578125 44.867188 282.027344 45.378906 C 282.472656 45.886719 282.695312 46.589844 282.695312 47.488281 C 282.695312 48.386719 282.472656 49.089844 282.027344 49.601562 C 281.578125 50.109375 280.964844 50.363281 280.183594 50.363281 C 279.398438 50.363281 278.785156 50.109375 278.339844 49.601562 C 277.894531 49.089844 277.671875 48.386719 277.671875 47.488281 C 277.671875 46.589844 277.894531 45.886719 278.339844 45.378906 C 278.785156 44.867188 279.398438 44.613281 280.183594 44.613281 Z M 280.183594 44.613281 "/>
</svg>
