<?xml version="1.0" encoding="UTF-8" standalone="no"?>
<svg
   width="390.76151"
   height="147.59702"
   viewBox="0 0 390.76151 147.59702"
   version="1.1"
   id="svg529"
   sodipodi:docname="conv-fig-2.svg"
   inkscape:version="1.2.2 (b0a8486541, 2022-12-01)"
   xmlns:inkscape="http://www.inkscape.org/namespaces/inkscape"
   xmlns:sodipodi="http://sodipodi.sourceforge.net/DTD/sodipodi-0.dtd"
   xmlns:xlink="http://www.w3.org/1999/xlink"
   xmlns="http://www.w3.org/2000/svg"
   xmlns:svg="http://www.w3.org/2000/svg">
  <sodipodi:namedview
     id="namedview531"
     pagecolor="#ffffff"
     bordercolor="#000000"
     borderopacity="0.25"
     inkscape:showpageshadow="2"
     inkscape:pageopacity="0.0"
     inkscape:pagecheckerboard="0"
     inkscape:deskcolor="#d1d1d1"
     showgrid="false"
     inkscape:zoom="1.0729879"
     inkscape:cx="138.39857"
     inkscape:cy="111.37124"
     inkscape:window-width="3374"
     inkscape:window-height="1363"
     inkscape:window-x="0"
     inkscape:window-y="0"
     inkscape:window-maximized="1"
     inkscape:current-layer="svg529" />
  <defs
     id="defs79">
    <g
       id="g77">
      <g
         id="glyph-0-0">
        <path
           d="m 4.9375,-3.765625 c 0.234375,-0.671875 0.484375,-1.5 0.609375,-2.203125 H 7.25 c 0.390625,0 0.578125,0.03125 0.71875,0.078125 v 0.03125 c 0,0.03125 0.015625,0.140625 0.171875,0.140625 0.390625,0 1.125,-0.46875 1.125,-0.78125 0,-0.3125 -0.546875,-0.34375 -0.9375,-0.34375 H 4.90625 C 4.25,-6.84375 3.5,-6.671875 2.71875,-6.1875 1.640625,-5.515625 1.5,-4.78125 1.5,-4.71875 c 0,0.078125 0.0625,0.140625 0.15625,0.140625 0.21875,0 0.5,-0.140625 0.6875,-0.25 C 2.71875,-5.0625 2.75,-5.21875 2.8125,-5.375 2.921875,-5.6875 3.09375,-5.96875 3.953125,-5.96875 h 0.40625 C 4.203125,-4.796875 3.84375,-3.6875 3.484375,-2.828125 3.015625,-1.671875 2.4375,-0.734375 2.34375,-0.5625 2.15625,-0.59375 1.75,-0.625 1.46875,-1.015625 c -0.0625,-0.09375 -0.109375,-0.09375 -0.1875,-0.09375 -0.390625,0 -1.109375,0.46875 -1.109375,0.734375 0,0.109375 0.40625,0.6875 1.265625,0.6875 0.75,0 1.515625,-0.515625 1.9375,-1.015625 0.34375,-0.40625 0.890625,-1.515625 1.203125,-2.203125 h 1.96875 c 0,0.046875 0.015625,0.15625 0.15625,0.15625 0.34375,0 1.15625,-0.40625 1.15625,-0.890625 0,-0.125 -0.125,-0.125 -0.28125,-0.125 z m 0,0"
           id="path2" />
      </g>
      <g
         id="glyph-1-0">
        <path
           d="m 2.265625,-4.359375 c 0,-0.109375 -0.09375,-0.265625 -0.28125,-0.265625 -0.1875,0 -0.390625,0.1875 -0.390625,0.390625 0,0.109375 0.078125,0.265625 0.28125,0.265625 0.1875,0 0.390625,-0.203125 0.390625,-0.390625 z M 0.84375,-0.8125 c -0.03125,0.09375 -0.0625,0.171875 -0.0625,0.296875 0,0.328125 0.265625,0.578125 0.65625,0.578125 0.6875,0 1,-0.953125 1,-1.0625 0,-0.09375 -0.09375,-0.09375 -0.109375,-0.09375 -0.09375,0 -0.109375,0.046875 -0.140625,0.125 -0.15625,0.5625 -0.453125,0.84375 -0.734375,0.84375 -0.140625,0 -0.171875,-0.09375 -0.171875,-0.25 0,-0.15625 0.046875,-0.28125 0.109375,-0.4375 C 1.46875,-1 1.546875,-1.1875 1.609375,-1.375 1.671875,-1.546875 1.9375,-2.171875 1.953125,-2.265625 1.984375,-2.328125 2,-2.40625 2,-2.484375 2,-2.8125 1.71875,-3.078125 1.34375,-3.078125 0.640625,-3.078125 0.328125,-2.125 0.328125,-2 c 0,0.078125 0.09375,0.078125 0.125,0.078125 0.09375,0 0.09375,-0.03125 0.125,-0.109375 C 0.75,-2.625 1.0625,-2.875 1.3125,-2.875 c 0.109375,0 0.171875,0.046875 0.171875,0.234375 0,0.171875 -0.03125,0.265625 -0.203125,0.703125 z m 0,0"
           id="path5" />
      </g>
      <g
         id="glyph-1-1">
        <path
           d="m 1.5625,-3 c -0.25,0 -0.46875,0.03125 -0.796875,0.359375 -0.1875,0.171875 -0.453125,0.53125 -0.453125,0.59375 0,0.078125 0.09375,0.078125 0.125,0.078125 0.078125,0 0.078125,-0.015625 0.125,-0.078125 0.09375,-0.125 0.21875,-0.265625 0.4375,-0.375 0.21875,-0.109375 0.296875,-0.109375 0.734375,-0.109375 -0.1875,0.21875 -0.6875,0.84375 -0.6875,1.6875 0,0.328125 0.109375,0.90625 0.71875,0.90625 0.5625,0 1.1875,-0.390625 1.609375,-1.125 0,0.234375 0,1.125 0.828125,1.125 1.03125,0 1.75,-1.375 1.75,-2.09375 0,-0.046875 0,-0.265625 -0.078125,-0.5 h 0.1875 c 0.140625,0 0.359375,-0.046875 0.359375,-0.28125 C 6.421875,-3 6.234375,-3 6.125,-3 Z m 4.0625,0.46875 c 0.078125,0.234375 0.09375,0.46875 0.09375,0.5 0,0.734375 -0.6875,1.625 -1.4375,1.625 -0.484375,0 -0.625,-0.40625 -0.625,-0.890625 C 3.65625,-1.5 3.671875,-1.71875 3.734375,-1.90625 3.734375,-1.953125 3.75,-1.953125 3.75,-1.984375 3.75,-2.0625 3.65625,-2.0625 3.625,-2.0625 c -0.09375,0 -0.109375,0.03125 -0.125,0.109375 -0.28125,0.921875 -1,1.546875 -1.65625,1.546875 -0.5,0 -0.53125,-0.515625 -0.53125,-0.640625 0,-0.25 0.09375,-0.796875 0.71875,-1.484375 z m 0,0"
           id="path8" />
      </g>
      <g
         id="glyph-1-2">
        <path
           d="M 3.890625,-1.890625 C 3.9375,-2.09375 3.953125,-2.125 3.953125,-2.28125 c 0,-0.109375 0,-0.40625 -0.265625,-0.609375 -0.109375,-0.078125 -0.3125,-0.1875 -0.640625,-0.1875 -0.296875,0 -0.71875,0.078125 -1.171875,0.625 -0.0625,-0.515625 -0.53125,-0.625 -0.75,-0.625 -0.265625,0 -0.4375,0.1875 -0.546875,0.375 -0.140625,0.234375 -0.25,0.65625 -0.25,0.703125 0,0.078125 0.09375,0.078125 0.125,0.078125 0.09375,0 0.09375,-0.015625 0.140625,-0.203125 0.109375,-0.40625 0.25,-0.75 0.515625,-0.75 0.1875,0 0.234375,0.15625 0.234375,0.34375 0,0.125 -0.0625,0.390625 -0.125,0.578125 -0.046875,0.1875 -0.109375,0.46875 -0.140625,0.625 L 0.84375,-0.4375 c -0.015625,0.09375 -0.0625,0.265625 -0.0625,0.28125 0,0.15625 0.125,0.21875 0.234375,0.21875 0.125,0 0.234375,-0.078125 0.28125,-0.140625 0.03125,-0.0625 0.078125,-0.296875 0.125,-0.4375 0.03125,-0.125 0.109375,-0.453125 0.140625,-0.625 0.046875,-0.15625 0.09375,-0.3125 0.125,-0.46875 0.078125,-0.296875 0.078125,-0.3125 0.21875,-0.53125 C 2.125,-2.484375 2.46875,-2.875 3.015625,-2.875 c 0.390625,0 0.40625,0.3125 0.40625,0.484375 0,0.1875 0,0.25 -0.046875,0.390625 L 2.59375,1.125 C 2.5625,1.21875 2.5625,1.265625 2.5625,1.265625 c 0,0.15625 0.125,0.21875 0.234375,0.21875 0.25,0 0.3125,-0.234375 0.34375,-0.328125 z m 0,0"
           id="path11" />
      </g>
      <g
         id="glyph-2-0">
        <path
           d="m 6.84375,-3.265625 c 0.15625,0 0.34375,0 0.34375,-0.1875 C 7.1875,-3.65625 7,-3.65625 6.859375,-3.65625 h -5.96875 c -0.140625,0 -0.328125,0 -0.328125,0.203125 0,0.1875 0.1875,0.1875 0.328125,0.1875 z m 0.015625,1.9375 c 0.140625,0 0.328125,0 0.328125,-0.203125 0,-0.1875 -0.1875,-0.1875 -0.34375,-0.1875 H 0.890625 c -0.140625,0 -0.328125,0 -0.328125,0.1875 0,0.203125 0.1875,0.203125 0.328125,0.203125 z m 0,0"
           id="path14" />
      </g>
      <g
         id="glyph-3-0">
        <path
           d="m 3.25,17.546875 h 0.6875 v -17.25 h 2.625 v -0.6875 H 3.25 Z m 0,0"
           id="path17" />
      </g>
      <g
         id="glyph-3-1">
        <path
           d="m 3.25,5.984375 h 0.6875 v -6 H 3.25 Z m 0,0"
           id="path20" />
      </g>
      <g
         id="glyph-3-2">
        <path
           d="m 3.25,17.53125 h 3.3125 v -0.6875 h -2.625 v -17.25 H 3.25 Z m 0,0"
           id="path23" />
      </g>
      <g
         id="glyph-3-3">
        <path
           d="m 2.703125,17.546875 h 0.6875 v -17.9375 H 0.0625 v 0.6875 h 2.640625 z m 0,0"
           id="path26" />
      </g>
      <g
         id="glyph-3-4">
        <path
           d="m 2.703125,5.984375 h 0.6875 v -6 h -0.6875 z m 0,0"
           id="path29" />
      </g>
      <g
         id="glyph-3-5">
        <path
           d="M 2.703125,16.84375 H 0.0625 v 0.6875 h 3.328125 v -17.9375 h -0.6875 z m 0,0"
           id="path32" />
      </g>
      <g
         id="glyph-3-6">
        <path
           d="M 2.734375,29.5 H 5.6875 V 28.875 H 3.359375 V 0.21875 H 5.6875 v -0.625 H 2.734375 Z m 0,0"
           id="path35" />
      </g>
      <g
         id="glyph-3-7">
        <path
           d="M 2.4375,28.875 H 0.109375 V 29.5 H 3.0625 V -0.40625 H 0.109375 v 0.625 H 2.4375 Z m 0,0"
           id="path38" />
      </g>
      <g
         id="glyph-3-8">
        <path
           d="m 4.578125,-0.921875 c 0,-0.265625 0,-0.28125 -0.203125,-0.28125 -1.015625,0 -3.265625,0.484375 -4.609375,2.921875 V 1.875 c 0,0.25 0,0.265625 0.234375,0.265625 0.1875,0 0.203125,-0.015625 0.25,-0.09375 C 1.0625,0.75 2.4375,0.046875 4.46875,0 4.578125,0 4.578125,-0.0625 4.578125,-0.28125 Z m 0,0"
           id="path41" />
      </g>
      <g
         id="glyph-3-9">
        <path
           d="m 4.71875,-3.078125 c 0,-0.234375 0,-0.25 -0.234375,-0.25 -0.1875,0 -0.203125,0.015625 -0.25,0.078125 -0.8125,1.3125 -2.1875,2.015625 -4.21875,2.046875 -0.109375,0 -0.109375,0.078125 -0.109375,0.28125 v 0.640625 c 0,0.265625 0,0.28125 0.203125,0.28125 C 1.125,0 3.375,-0.484375 4.71875,-2.90625 Z m 0,0"
           id="path44" />
      </g>
      <g
         id="glyph-3-10">
        <path
           d="m 4.578125,-0.921875 c 0,-0.21875 0,-0.28125 -0.125,-0.28125 -0.609375,0 -1.609375,-0.078125 -2.5,-0.515625 C 0.875,-2.265625 0.46875,-2.890625 0.21875,-3.28125 0.1875,-3.328125 0.125,-3.328125 0,-3.328125 c -0.234375,0 -0.234375,0.015625 -0.234375,0.25 V -2.90625 C 1.109375,-0.46875 3.359375,0 4.375,0 4.578125,0 4.578125,-0.015625 4.578125,-0.28125 Z m 0,0"
           id="path47" />
      </g>
      <g
         id="glyph-3-11">
        <path
           d="M 4.71875,1.71875 C 3.375,-0.734375 1.125,-1.203125 0.109375,-1.203125 c -0.203125,0 -0.203125,0.015625 -0.203125,0.28125 v 0.640625 c 0,0.234375 0,0.28125 0.140625,0.28125 0.59375,0.015625 1.59375,0.09375 2.484375,0.53125 1.078125,0.53125 1.484375,1.15625 1.734375,1.546875 0.03125,0.0625 0.09375,0.0625 0.21875,0.0625 C 4.71875,2.140625 4.71875,2.125 4.71875,1.875 Z m 0,0"
           id="path50" />
      </g>
      <g
         id="glyph-4-0">
        <path
           d="m 2.515625,-3.6875 h 1.21875 c 0.15625,0 0.40625,0 0.40625,-0.296875 0,-0.3125 -0.25,-0.3125 -0.40625,-0.3125 h -1.21875 v -0.46875 c 0,-0.78125 0.671875,-0.78125 0.96875,-0.78125 0,0.046875 0.09375,0.4375 0.4375,0.4375 0.203125,0 0.4375,-0.171875 0.4375,-0.4375 0,-0.609375 -0.796875,-0.609375 -0.953125,-0.609375 -0.796875,0 -1.578125,0.46875 -1.578125,1.328125 v 0.53125 H 0.84375 c -0.171875,0 -0.421875,0 -0.421875,0.3125 0,0.296875 0.25,0.296875 0.40625,0.296875 h 1 v 3.078125 h -1 c -0.15625,0 -0.40625,0 -0.40625,0.296875 C 0.421875,0 0.671875,0 0.828125,0 H 3.53125 c 0.140625,0 0.40625,0 0.40625,-0.296875 0,-0.3125 -0.265625,-0.3125 -0.40625,-0.3125 H 2.515625 Z m 0,0"
           id="path53" />
      </g>
      <g
         id="glyph-5-0">
        <path
           d="m 2.328125,-4.4375 c 0,-0.1875 0,-0.1875 -0.203125,-0.1875 -0.453125,0.4375 -1.078125,0.4375 -1.359375,0.4375 v 0.25 c 0.15625,0 0.625,0 1,-0.1875 v 3.546875 c 0,0.234375 0,0.328125 -0.6875,0.328125 H 0.8125 V 0 c 0.125,0 0.984375,-0.03125 1.234375,-0.03125 0.21875,0 1.09375,0.03125 1.25,0.03125 V -0.25 H 3.03125 c -0.703125,0 -0.703125,-0.09375 -0.703125,-0.328125 z m 0,0"
           id="path56" />
      </g>
      <g
         id="glyph-5-1">
        <path
           d="M 2.46875,-5.21875 C 1.15625,-4.296875 0.796875,-2.8125 0.796875,-1.75 c 0,0.984375 0.296875,2.515625 1.671875,3.484375 0.0625,0 0.140625,0 0.140625,-0.078125 0,-0.046875 -0.015625,-0.0625 -0.0625,-0.109375 C 1.609375,0.703125 1.28125,-0.46875 1.28125,-1.734375 1.28125,-3.625 2,-4.546875 2.5625,-5.0625 2.59375,-5.09375 2.609375,-5.109375 2.609375,-5.140625 2.609375,-5.21875 2.53125,-5.21875 2.46875,-5.21875 Z m 0,0"
           id="path59" />
      </g>
      <g
         id="glyph-5-2">
        <path
           d="m 3.21875,-1.578125 h 2.140625 c 0.09375,0 0.25,0 0.25,-0.15625 0,-0.1875 -0.15625,-0.1875 -0.25,-0.1875 H 3.21875 V -4.0625 c 0,-0.078125 0,-0.25 -0.15625,-0.25 -0.171875,0 -0.171875,0.15625 -0.171875,0.25 v 2.140625 H 0.75 c -0.09375,0 -0.265625,0 -0.265625,0.171875 0,0.171875 0.15625,0.171875 0.265625,0.171875 H 2.890625 V 0.5625 c 0,0.09375 0,0.265625 0.15625,0.265625 0.171875,0 0.171875,-0.171875 0.171875,-0.265625 z m 0,0"
           id="path62" />
      </g>
      <g
         id="glyph-5-3">
        <path
           d="m 0.625,-5.21875 c -0.046875,0 -0.125,0 -0.125,0.078125 0,0.03125 0.015625,0.046875 0.0625,0.109375 0.59375,0.546875 1.265625,1.484375 1.265625,3.28125 0,1.453125 -0.453125,2.5625 -1.203125,3.234375 -0.125,0.125 -0.125,0.125 -0.125,0.171875 0,0.03125 0.015625,0.078125 0.078125,0.078125 0.09375,0 0.75,-0.453125 1.21875,-1.328125 0.296875,-0.578125 0.5,-1.328125 0.5,-2.140625 C 2.296875,-2.71875 2,-4.25 0.625,-5.21875 Z m 0,0"
           id="path65" />
      </g>
      <g
         id="glyph-6-0">
        <path
           d="m 6.390625,-4.5 c 0,-0.21875 -0.34375,-0.265625 -0.5,-0.265625 H 2.65625 C 2,-4.765625 1.59375,-4.4375 1.5,-4.25 c -0.015625,0.03125 -0.03125,0.0625 -0.03125,0.09375 0,0.046875 0.03125,0.0625 0.078125,0.0625 0.15625,0 0.359375,-0.125 0.46875,-0.234375 0.125,-0.015625 0.375,-0.015625 0.546875,-0.015625 H 3.21875 C 3.03125,-3.375 2.875,-2.953125 2.671875,-2.359375 c -0.15625,0.515625 -0.8125,1.96875 -1.015625,2.15625 -0.546875,0 -0.6875,-0.28125 -0.78125,-0.46875 -0.03125,-0.015625 -0.046875,-0.03125 -0.078125,-0.03125 -0.203125,0 -0.5625,0.25 -0.5625,0.375 0,0.046875 0.234375,0.5625 0.890625,0.5625 0.453125,0 0.953125,-0.328125 1.171875,-0.671875 0.265625,-0.390625 0.640625,-1.21875 0.8125,-1.671875 h 1.5 v 0.03125 c 0.015625,0.03125 0.03125,0.046875 0.078125,0.046875 0.203125,0 0.59375,-0.21875 0.59375,-0.4375 0,-0.03125 -0.03125,-0.0625 -0.0625,-0.0625 H 3.28125 C 3.515625,-3.109375 3.6875,-3.71875 3.8125,-4.34375 H 5.234375 C 5.5,-4.34375 5.75,-4.3125 5.75,-4.1875 c 0,0.03125 0,0.046875 0,0.0625 0,0.03125 0.015625,0.046875 0.078125,0.046875 0.09375,0 0.5625,-0.171875 0.5625,-0.421875 z m 0,0"
           id="path68" />
      </g>
      <g
         id="glyph-7-0">
        <path
           d="m 1.96875,-3.109375 c 0,-0.125 -0.078125,-0.21875 -0.21875,-0.21875 -0.140625,0 -0.296875,0.140625 -0.296875,0.296875 0,0.140625 0.109375,0.21875 0.21875,0.21875 0.15625,0 0.296875,-0.140625 0.296875,-0.296875 z m 0.234375,2.390625 c 0,-0.0625 -0.078125,-0.0625 -0.09375,-0.0625 -0.09375,0 -0.09375,0.015625 -0.125,0.109375 -0.078125,0.265625 -0.3125,0.5625 -0.5625,0.5625 -0.109375,0 -0.140625,-0.078125 -0.140625,-0.1875 0,-0.109375 0.015625,-0.171875 0.0625,-0.265625 0.03125,-0.09375 0.078125,-0.1875 0.109375,-0.265625 0.015625,-0.046875 0.203125,-0.5 0.28125,-0.6875 0.03125,-0.09375 0.0625,-0.171875 0.0625,-0.25 0,-0.234375 -0.234375,-0.4375 -0.546875,-0.4375 -0.515625,0 -0.796875,0.640625 -0.796875,0.765625 0,0.078125 0.078125,0.078125 0.109375,0.078125 0.078125,0 0.078125,-0.03125 0.109375,-0.09375 0.109375,-0.359375 0.34375,-0.578125 0.5625,-0.578125 0.09375,0 0.15625,0.046875 0.15625,0.1875 0,0.015625 0,0.078125 -0.03125,0.171875 -0.03125,0.09375 -0.265625,0.625 -0.328125,0.796875 -0.046875,0.09375 -0.046875,0.09375 -0.109375,0.265625 -0.03125,0.078125 -0.0625,0.140625 -0.0625,0.21875 0,0.265625 0.25,0.453125 0.546875,0.453125 0.515625,0 0.796875,-0.65625 0.796875,-0.78125 z m 0,0"
           id="path71" />
      </g>
      <g
         id="glyph-7-1">
        <path
           d="m 4.765625,-2.84375 c 0.03125,-0.125 0.078125,-0.328125 0.53125,-0.34375 0.046875,0 0.125,0 0.125,-0.125 0,-0.03125 -0.015625,-0.09375 -0.078125,-0.09375 -0.09375,0 -0.1875,0.015625 -0.28125,0.015625 -0.09375,0 -0.1875,0 -0.28125,0 -0.09375,0 -0.203125,0 -0.296875,0 -0.09375,0 -0.1875,-0.015625 -0.28125,-0.015625 -0.03125,0 -0.125,0 -0.125,0.140625 0,0.078125 0.078125,0.078125 0.125,0.078125 0.328125,0.015625 0.359375,0.109375 0.359375,0.203125 0,0.03125 -0.015625,0.0625 -0.015625,0.09375 L 4,-0.75 2.5,-3.3125 C 2.453125,-3.40625 2.453125,-3.40625 2.328125,-3.40625 H 1.5625 c -0.109375,0 -0.1875,0 -0.1875,0.140625 0,0.078125 0.078125,0.078125 0.1875,0.078125 0.015625,0 0.21875,0 0.34375,0.03125 L 1.25,-0.5625 c -0.03125,0.140625 -0.078125,0.328125 -0.546875,0.34375 -0.03125,0 -0.125,0 -0.125,0.140625 C 0.578125,-0.046875 0.625,0 0.671875,0 0.75,0 0.859375,-0.015625 0.953125,-0.015625 c 0.09375,0 0.1875,0 0.28125,0 0.09375,0 0.203125,0 0.296875,0 C 1.625,-0.015625 1.71875,0 1.8125,0 1.875,0 1.9375,-0.03125 1.9375,-0.140625 1.9375,-0.21875 1.859375,-0.21875 1.796875,-0.21875 1.5625,-0.234375 1.453125,-0.296875 1.453125,-0.40625 c 0,-0.046875 0.015625,-0.078125 0.03125,-0.125 l 0.625,-2.5 1.703125,2.9375 C 3.875,0 3.890625,0 3.953125,0 c 0.09375,0 0.109375,-0.03125 0.125,-0.125 z m 0,0"
           id="path74" />
      </g>
    </g>
  </defs>
  <g
     fill="#000000"
     fill-opacity="1"
     id="g83"
     transform="matrix(1.5345057,0,0,1.5345057,-1.1767741,-0.05505052)">
    <use
       xlink:href="#glyph-0-0"
       x="0.59500003"
       y="59.860001"
       id="use81" />
  </g>
  <g
     fill="#000000"
     fill-opacity="1"
     id="g87"
     transform="matrix(1.5345057,0,0,1.5345057,-1.1767741,-0.05505052)">
    <use
       xlink:href="#glyph-1-0"
       x="9.7189999"
       y="55.487999"
       id="use85" />
  </g>
  <g
     fill="#000000"
     fill-opacity="1"
     id="g91"
     transform="matrix(1.5345057,0,0,1.5345057,-1.1767741,-0.05505052)">
    <use
       xlink:href="#glyph-2-0"
       x="15.804"
       y="59.860001"
       id="use89" />
  </g>
  <g
     fill="#000000"
     fill-opacity="1"
     id="g95"
     transform="matrix(1.5345057,0,0,1.5345057,-1.1767741,-0.05505052)">
    <use
       xlink:href="#glyph-3-0"
       x="26.32"
       y="18.913"
       id="use93" />
  </g>
  <g
     fill="#000000"
     fill-opacity="1"
     id="g99"
     transform="matrix(1.5345057,0,0,1.5345057,-1.1767741,-0.05505052)">
    <use
       xlink:href="#glyph-3-1"
       x="26.32"
       y="36.448002"
       id="use97" />
  </g>
  <g
     fill="#000000"
     fill-opacity="1"
     id="g103"
     transform="matrix(1.5345057,0,0,1.5345057,-1.1767741,-0.05505052)">
    <use
       xlink:href="#glyph-3-1"
       x="26.32"
       y="42.424999"
       id="use101" />
  </g>
  <g
     fill="#000000"
     fill-opacity="1"
     id="g107"
     transform="matrix(1.5345057,0,0,1.5345057,-1.1767741,-0.05505052)">
    <use
       xlink:href="#glyph-3-1"
       x="26.32"
       y="48.403"
       id="use105" />
  </g>
  <g
     fill="#000000"
     fill-opacity="1"
     id="g111"
     transform="matrix(1.5345057,0,0,1.5345057,-1.1767741,-0.05505052)">
    <use
       xlink:href="#glyph-3-1"
       x="26.32"
       y="54.381001"
       id="use109" />
  </g>
  <g
     fill="#000000"
     fill-opacity="1"
     id="g115"
     transform="matrix(1.5345057,0,0,1.5345057,-1.1767741,-0.05505052)">
    <use
       xlink:href="#glyph-3-1"
       x="26.32"
       y="60.358002"
       id="use113" />
  </g>
  <g
     fill="#000000"
     fill-opacity="1"
     id="g119"
     transform="matrix(1.5345057,0,0,1.5345057,-1.1767741,-0.05505052)">
    <use
       xlink:href="#glyph-3-1"
       x="26.32"
       y="66.335999"
       id="use117" />
  </g>
  <g
     fill="#000000"
     fill-opacity="1"
     id="g123"
     transform="matrix(1.5345057,0,0,1.5345057,-1.1767741,-0.05505052)">
    <use
       xlink:href="#glyph-3-1"
       x="26.32"
       y="72.314003"
       id="use121" />
  </g>
  <g
     fill="#000000"
     fill-opacity="1"
     id="g127"
     transform="matrix(1.5345057,0,0,1.5345057,-1.1767741,-0.05505052)">
    <use
       xlink:href="#glyph-3-2"
       x="26.32"
       y="78.690002"
       id="use125" />
  </g>
  <g
     fill="#000000"
     fill-opacity="1"
     id="g131"
     transform="matrix(1.5345057,0,0,1.5345057,-1.1767741,-0.05505052)">
    <use
       xlink:href="#glyph-4-0"
       x="47.534"
       y="26.639"
       id="use129" />
  </g>
  <g
     fill="#000000"
     fill-opacity="1"
     id="g135"
     transform="matrix(1.5345057,0,0,1.5345057,-1.1767741,-0.05505052)">
    <use
       xlink:href="#glyph-5-0"
       x="52.764"
       y="28.134001"
       id="use133" />
  </g>
  <g
     fill="#000000"
     fill-opacity="1"
     id="g139"
     transform="matrix(1.5345057,0,0,1.5345057,-1.1767741,-0.05505052)">
    <use
       xlink:href="#glyph-5-0"
       x="58.09547"
       y="28.134001"
       id="use137" />
  </g>
  <g
     fill="#000000"
     fill-opacity="1"
     id="g143"
     transform="matrix(1.5345057,0,0,1.5345057,-1.1767741,-0.05505052)">
    <use
       xlink:href="#glyph-4-0"
       x="101.673"
       y="26.639"
       id="use141" />
  </g>
  <g
     fill="#000000"
     fill-opacity="1"
     id="g147"
     transform="matrix(1.5345057,0,0,1.5345057,-1.1767741,-0.05505052)">
    <use
       xlink:href="#glyph-5-0"
       x="106.903"
       y="28.134001"
       id="use145" />
  </g>
  <g
     fill="#000000"
     fill-opacity="1"
     id="g151"
     transform="matrix(1.5345057,0,0,1.5345057,-1.1767741,-0.05505052)">
    <use
       xlink:href="#glyph-1-1"
       x="112.23447"
       y="28.134001"
       id="use149" />
  </g>
  <g
     fill="#000000"
     fill-opacity="1"
     id="g155"
     transform="matrix(1.5345057,0,0,1.5345057,-1.1767741,-0.05505052)">
    <use
       xlink:href="#glyph-4-0"
       x="148.717"
       y="26.639"
       id="use153" />
  </g>
  <g
     fill="#000000"
     fill-opacity="1"
     id="g159"
     transform="matrix(1.5345057,0,0,1.5345057,-1.1767741,-0.05505052)">
    <use
       xlink:href="#glyph-5-0"
       x="153.94701"
       y="28.438"
       id="use157" />
  </g>
  <g
     fill="#000000"
     fill-opacity="1"
     id="g163"
     transform="matrix(1.5345057,0,0,1.5345057,-1.1767741,-0.05505052)">
    <use
       xlink:href="#glyph-5-1"
       x="159.27847"
       y="28.438"
       id="use161" />
  </g>
  <g
     fill="#000000"
     fill-opacity="1"
     id="g167"
     transform="matrix(1.5345057,0,0,1.5345057,-1.1767741,-0.05505052)">
    <use
       xlink:href="#glyph-1-1"
       x="162.39157"
       y="28.438"
       id="use165" />
  </g>
  <g
     fill="#000000"
     fill-opacity="1"
     id="g175"
     transform="matrix(1.5345057,0,0,1.5345057,-1.1767741,-0.05505052)">
    <use
       xlink:href="#glyph-5-2"
       x="169.23286"
       y="28.438"
       id="use169" />
    <use
       xlink:href="#glyph-5-0"
       x="175.34889"
       y="28.438"
       id="use171" />
    <use
       xlink:href="#glyph-5-3"
       x="179.32048"
       y="28.438"
       id="use173" />
  </g>
  <g
     fill="#000000"
     fill-opacity="1"
     id="g179"
     transform="matrix(1.5345057,0,0,1.5345057,-1.1767741,-0.05505052)">
    <use
       xlink:href="#glyph-4-0"
       x="222.03799"
       y="26.639"
       id="use177" />
  </g>
  <g
     fill="#000000"
     fill-opacity="1"
     id="g183"
     transform="matrix(1.5345057,0,0,1.5345057,-1.1767741,-0.05505052)">
    <use
       xlink:href="#glyph-5-0"
       x="227.26801"
       y="28.134001"
       id="use181" />
  </g>
  <g
     fill="#000000"
     fill-opacity="1"
     id="g187"
     transform="matrix(1.5345057,0,0,1.5345057,-1.1767741,-0.05505052)">
    <use
       xlink:href="#glyph-1-2"
       x="232.59947"
       y="28.134001"
       id="use185" />
  </g>
  <g
     fill="#000000"
     fill-opacity="1"
     id="g191"
     transform="matrix(1.5345057,0,0,1.5345057,-1.1767741,-0.05505052)">
    <use
       xlink:href="#glyph-4-0"
       x="46.099998"
       y="50.549999"
       id="use189" />
  </g>
  <g
     fill="#000000"
     fill-opacity="1"
     id="g195"
     transform="matrix(1.5345057,0,0,1.5345057,-1.1767741,-0.05505052)">
    <use
       xlink:href="#glyph-1-1"
       x="51.330002"
       y="52.043999"
       id="use193" />
  </g>
  <g
     fill="#000000"
     fill-opacity="1"
     id="g199"
     transform="matrix(1.5345057,0,0,1.5345057,-1.1767741,-0.05505052)">
    <use
       xlink:href="#glyph-5-0"
       x="59.531189"
       y="52.043999"
       id="use197" />
  </g>
  <g
     fill="#000000"
     fill-opacity="1"
     id="g203"
     transform="matrix(1.5345057,0,0,1.5345057,-1.1767741,-0.05505052)">
    <use
       xlink:href="#glyph-4-0"
       x="100.239"
       y="50.549999"
       id="use201" />
  </g>
  <g
     fill="#000000"
     fill-opacity="1"
     id="g207"
     transform="matrix(1.5345057,0,0,1.5345057,-1.1767741,-0.05505052)">
    <use
       xlink:href="#glyph-1-1"
       x="105.469"
       y="52.043999"
       id="use205" />
  </g>
  <g
     fill="#000000"
     fill-opacity="1"
     id="g211"
     transform="matrix(1.5345057,0,0,1.5345057,-1.1767741,-0.05505052)">
    <use
       xlink:href="#glyph-1-1"
       x="113.67019"
       y="52.043999"
       id="use209" />
  </g>
  <g
     fill="#000000"
     fill-opacity="1"
     id="g215"
     transform="matrix(1.5345057,0,0,1.5345057,-1.1767741,-0.05505052)">
    <use
       xlink:href="#glyph-4-0"
       x="147.283"
       y="50.549999"
       id="use213" />
  </g>
  <g
     fill="#000000"
     fill-opacity="1"
     id="g219"
     transform="matrix(1.5345057,0,0,1.5345057,-1.1767741,-0.05505052)">
    <use
       xlink:href="#glyph-1-1"
       x="152.513"
       y="52.348999"
       id="use217" />
  </g>
  <g
     fill="#000000"
     fill-opacity="1"
     id="g223"
     transform="matrix(1.5345057,0,0,1.5345057,-1.1767741,-0.05505052)">
    <use
       xlink:href="#glyph-5-1"
       x="160.71419"
       y="52.348999"
       id="use221" />
  </g>
  <g
     fill="#000000"
     fill-opacity="1"
     id="g227"
     transform="matrix(1.5345057,0,0,1.5345057,-1.1767741,-0.05505052)">
    <use
       xlink:href="#glyph-1-1"
       x="163.82729"
       y="52.348999"
       id="use225" />
  </g>
  <g
     fill="#000000"
     fill-opacity="1"
     id="g235"
     transform="matrix(1.5345057,0,0,1.5345057,-1.1767741,-0.05505052)">
    <use
       xlink:href="#glyph-5-2"
       x="170.66859"
       y="52.348999"
       id="use229" />
    <use
       xlink:href="#glyph-5-0"
       x="176.78461"
       y="52.348999"
       id="use231" />
    <use
       xlink:href="#glyph-5-3"
       x="180.7562"
       y="52.348999"
       id="use233" />
  </g>
  <g
     fill="#000000"
     fill-opacity="1"
     id="g239"
     transform="matrix(1.5345057,0,0,1.5345057,-1.1767741,-0.05505052)">
    <use
       xlink:href="#glyph-4-0"
       x="220.604"
       y="50.549999"
       id="use237" />
  </g>
  <g
     fill="#000000"
     fill-opacity="1"
     id="g243"
     transform="matrix(1.5345057,0,0,1.5345057,-1.1767741,-0.05505052)">
    <use
       xlink:href="#glyph-1-1"
       x="225.834"
       y="52.043999"
       id="use241" />
  </g>
  <g
     fill="#000000"
     fill-opacity="1"
     id="g247"
     transform="matrix(1.5345057,0,0,1.5345057,-1.1767741,-0.05505052)">
    <use
       xlink:href="#glyph-1-2"
       x="234.03519"
       y="52.043999"
       id="use245" />
  </g>
  <g
     fill="#000000"
     fill-opacity="1"
     id="g251"
     transform="matrix(1.5345057,0,0,1.5345057,-1.1767741,-0.05505052)">
    <use
       xlink:href="#glyph-4-0"
       x="37.943001"
       y="68.174004"
       id="use249" />
  </g>
  <g
     fill="#000000"
     fill-opacity="1"
     id="g255"
     transform="matrix(1.5345057,0,0,1.5345057,-1.1767741,-0.05505052)">
    <use
       xlink:href="#glyph-5-1"
       x="43.173"
       y="69.973"
       id="use253" />
  </g>
  <g
     fill="#000000"
     fill-opacity="1"
     id="g259"
     transform="matrix(1.5345057,0,0,1.5345057,-1.1767741,-0.05505052)">
    <use
       xlink:href="#glyph-1-1"
       x="46.286102"
       y="69.973"
       id="use257" />
  </g>
  <g
     fill="#000000"
     fill-opacity="1"
     id="g267"
     transform="matrix(1.5345057,0,0,1.5345057,-1.1767741,-0.05505052)">
    <use
       xlink:href="#glyph-5-2"
       x="53.127403"
       y="69.973"
       id="use261" />
    <use
       xlink:href="#glyph-5-0"
       x="59.243423"
       y="69.973"
       id="use263" />
    <use
       xlink:href="#glyph-5-3"
       x="63.215004"
       y="69.973"
       id="use265" />
  </g>
  <g
     fill="#000000"
     fill-opacity="1"
     id="g271"
     transform="matrix(1.5345057,0,0,1.5345057,-1.1767741,-0.05505052)">
    <use
       xlink:href="#glyph-5-0"
       x="67.687996"
       y="69.973"
       id="use269" />
  </g>
  <g
     fill="#000000"
     fill-opacity="1"
     id="g275"
     transform="matrix(1.5345057,0,0,1.5345057,-1.1767741,-0.05505052)">
    <use
       xlink:href="#glyph-4-0"
       x="92.082001"
       y="68.174004"
       id="use273" />
  </g>
  <g
     fill="#000000"
     fill-opacity="1"
     id="g279"
     transform="matrix(1.5345057,0,0,1.5345057,-1.1767741,-0.05505052)">
    <use
       xlink:href="#glyph-5-1"
       x="97.311996"
       y="69.973"
       id="use277" />
  </g>
  <g
     fill="#000000"
     fill-opacity="1"
     id="g283"
     transform="matrix(1.5345057,0,0,1.5345057,-1.1767741,-0.05505052)">
    <use
       xlink:href="#glyph-1-1"
       x="100.4251"
       y="69.973"
       id="use281" />
  </g>
  <g
     fill="#000000"
     fill-opacity="1"
     id="g291"
     transform="matrix(1.5345057,0,0,1.5345057,-1.1767741,-0.05505052)">
    <use
       xlink:href="#glyph-5-2"
       x="107.2664"
       y="69.973"
       id="use285" />
    <use
       xlink:href="#glyph-5-0"
       x="113.38242"
       y="69.973"
       id="use287" />
    <use
       xlink:href="#glyph-5-3"
       x="117.354"
       y="69.973"
       id="use289" />
  </g>
  <g
     fill="#000000"
     fill-opacity="1"
     id="g295"
     transform="matrix(1.5345057,0,0,1.5345057,-1.1767741,-0.05505052)">
    <use
       xlink:href="#glyph-1-1"
       x="121.827"
       y="69.973"
       id="use293" />
  </g>
  <g
     fill="#000000"
     fill-opacity="1"
     id="g299"
     transform="matrix(1.5345057,0,0,1.5345057,-1.1767741,-0.05505052)">
    <use
       xlink:href="#glyph-4-0"
       x="139.12601"
       y="68.174004"
       id="use297" />
  </g>
  <g
     fill="#000000"
     fill-opacity="1"
     id="g303"
     transform="matrix(1.5345057,0,0,1.5345057,-1.1767741,-0.05505052)">
    <use
       xlink:href="#glyph-5-1"
       x="144.35699"
       y="69.973"
       id="use301" />
  </g>
  <g
     fill="#000000"
     fill-opacity="1"
     id="g307"
     transform="matrix(1.5345057,0,0,1.5345057,-1.1767741,-0.05505052)">
    <use
       xlink:href="#glyph-1-1"
       x="147.47011"
       y="69.973"
       id="use305" />
  </g>
  <g
     fill="#000000"
     fill-opacity="1"
     id="g315"
     transform="matrix(1.5345057,0,0,1.5345057,-1.1767741,-0.05505052)">
    <use
       xlink:href="#glyph-5-2"
       x="154.3114"
       y="69.973"
       id="use309" />
    <use
       xlink:href="#glyph-5-0"
       x="160.42743"
       y="69.973"
       id="use311" />
    <use
       xlink:href="#glyph-5-3"
       x="164.399"
       y="69.973"
       id="use313" />
  </g>
  <g
     fill="#000000"
     fill-opacity="1"
     id="g319"
     transform="matrix(1.5345057,0,0,1.5345057,-1.1767741,-0.05505052)">
    <use
       xlink:href="#glyph-5-1"
       x="168.87199"
       y="69.973"
       id="use317" />
  </g>
  <g
     fill="#000000"
     fill-opacity="1"
     id="g323"
     transform="matrix(1.5345057,0,0,1.5345057,-1.1767741,-0.05505052)">
    <use
       xlink:href="#glyph-1-1"
       x="171.98511"
       y="69.973"
       id="use321" />
  </g>
  <g
     fill="#000000"
     fill-opacity="1"
     id="g329"
     transform="matrix(1.5345057,0,0,1.5345057,-1.1767741,-0.05505052)">
    <use
       xlink:href="#glyph-5-2"
       x="178.8264"
       y="69.973"
       id="use325" />
    <use
       xlink:href="#glyph-5-0"
       x="184.94243"
       y="69.973"
       id="use327" />
  </g>
  <g
     fill="#000000"
     fill-opacity="1"
     id="g333"
     transform="matrix(1.5345057,0,0,1.5345057,-1.1767741,-0.05505052)">
    <use
       xlink:href="#glyph-5-3"
       x="188.90703"
       y="69.973"
       id="use331" />
  </g>
  <g
     fill="#000000"
     fill-opacity="1"
     id="g337"
     transform="matrix(1.5345057,0,0,1.5345057,-1.1767741,-0.05505052)">
    <use
       xlink:href="#glyph-4-0"
       x="212.44701"
       y="68.174004"
       id="use335" />
  </g>
  <g
     fill="#000000"
     fill-opacity="1"
     id="g341"
     transform="matrix(1.5345057,0,0,1.5345057,-1.1767741,-0.05505052)">
    <use
       xlink:href="#glyph-5-1"
       x="217.677"
       y="69.973"
       id="use339" />
  </g>
  <g
     fill="#000000"
     fill-opacity="1"
     id="g345"
     transform="matrix(1.5345057,0,0,1.5345057,-1.1767741,-0.05505052)">
    <use
       xlink:href="#glyph-1-1"
       x="220.7901"
       y="69.973"
       id="use343" />
  </g>
  <g
     fill="#000000"
     fill-opacity="1"
     id="g353"
     transform="matrix(1.5345057,0,0,1.5345057,-1.1767741,-0.05505052)">
    <use
       xlink:href="#glyph-5-2"
       x="227.63141"
       y="69.973"
       id="use347" />
    <use
       xlink:href="#glyph-5-0"
       x="233.74742"
       y="69.973"
       id="use349" />
    <use
       xlink:href="#glyph-5-3"
       x="237.71901"
       y="69.973"
       id="use351" />
  </g>
  <g
     fill="#000000"
     fill-opacity="1"
     id="g357"
     transform="matrix(1.5345057,0,0,1.5345057,-1.1767741,-0.05505052)">
    <use
       xlink:href="#glyph-1-2"
       x="242.192"
       y="69.973"
       id="use355" />
  </g>
  <g
     fill="#000000"
     fill-opacity="1"
     id="g361"
     transform="matrix(1.5345057,0,0,1.5345057,-1.1767741,-0.05505052)">
    <use
       xlink:href="#glyph-4-0"
       x="47.341999"
       y="92.084999"
       id="use359" />
  </g>
  <g
     fill="#000000"
     fill-opacity="1"
     id="g365"
     transform="matrix(1.5345057,0,0,1.5345057,-1.1767741,-0.05505052)">
    <use
       xlink:href="#glyph-1-2"
       x="52.571999"
       y="93.579002"
       id="use363" />
  </g>
  <g
     fill="#000000"
     fill-opacity="1"
     id="g369"
     transform="matrix(1.5345057,0,0,1.5345057,-1.1767741,-0.05505052)">
    <use
       xlink:href="#glyph-5-0"
       x="58.287727"
       y="93.579002"
       id="use367" />
  </g>
  <g
     fill="#000000"
     fill-opacity="1"
     id="g373"
     transform="matrix(1.5345057,0,0,1.5345057,-1.1767741,-0.05505052)">
    <use
       xlink:href="#glyph-4-0"
       x="101.481"
       y="92.084999"
       id="use371" />
  </g>
  <g
     fill="#000000"
     fill-opacity="1"
     id="g377"
     transform="matrix(1.5345057,0,0,1.5345057,-1.1767741,-0.05505052)">
    <use
       xlink:href="#glyph-1-2"
       x="106.711"
       y="93.579002"
       id="use375" />
  </g>
  <g
     fill="#000000"
     fill-opacity="1"
     id="g381"
     transform="matrix(1.5345057,0,0,1.5345057,-1.1767741,-0.05505052)">
    <use
       xlink:href="#glyph-1-1"
       x="112.42673"
       y="93.579002"
       id="use379" />
  </g>
  <g
     fill="#000000"
     fill-opacity="1"
     id="g385"
     transform="matrix(1.5345057,0,0,1.5345057,-1.1767741,-0.05505052)">
    <use
       xlink:href="#glyph-4-0"
       x="148.52499"
       y="92.084999"
       id="use383" />
  </g>
  <g
     fill="#000000"
     fill-opacity="1"
     id="g389"
     transform="matrix(1.5345057,0,0,1.5345057,-1.1767741,-0.05505052)">
    <use
       xlink:href="#glyph-1-2"
       x="153.756"
       y="93.883003"
       id="use387" />
  </g>
  <g
     fill="#000000"
     fill-opacity="1"
     id="g393"
     transform="matrix(1.5345057,0,0,1.5345057,-1.1767741,-0.05505052)">
    <use
       xlink:href="#glyph-5-1"
       x="159.47173"
       y="93.883003"
       id="use391" />
  </g>
  <g
     fill="#000000"
     fill-opacity="1"
     id="g397"
     transform="matrix(1.5345057,0,0,1.5345057,-1.1767741,-0.05505052)">
    <use
       xlink:href="#glyph-1-1"
       x="162.58482"
       y="93.883003"
       id="use395" />
  </g>
  <g
     fill="#000000"
     fill-opacity="1"
     id="g405"
     transform="matrix(1.5345057,0,0,1.5345057,-1.1767741,-0.05505052)">
    <use
       xlink:href="#glyph-5-2"
       x="169.42613"
       y="93.883003"
       id="use399" />
    <use
       xlink:href="#glyph-5-0"
       x="175.54214"
       y="93.883003"
       id="use401" />
    <use
       xlink:href="#glyph-5-3"
       x="179.51373"
       y="93.883003"
       id="use403" />
  </g>
  <g
     fill="#000000"
     fill-opacity="1"
     id="g409"
     transform="matrix(1.5345057,0,0,1.5345057,-1.1767741,-0.05505052)">
    <use
       xlink:href="#glyph-4-0"
       x="221.84599"
       y="92.084999"
       id="use407" />
  </g>
  <g
     fill="#000000"
     fill-opacity="1"
     id="g413"
     transform="matrix(1.5345057,0,0,1.5345057,-1.1767741,-0.05505052)">
    <use
       xlink:href="#glyph-1-2"
       x="227.077"
       y="93.579002"
       id="use411" />
  </g>
  <g
     fill="#000000"
     fill-opacity="1"
     id="g417"
     transform="matrix(1.5345057,0,0,1.5345057,-1.1767741,-0.05505052)">
    <use
       xlink:href="#glyph-1-2"
       x="232.79272"
       y="93.579002"
       id="use415" />
  </g>
  <g
     fill="#000000"
     fill-opacity="1"
     id="g421"
     transform="matrix(1.5345057,0,0,1.5345057,-1.1767741,-0.05505052)">
    <use
       xlink:href="#glyph-3-3"
       x="252.026"
       y="18.913"
       id="use419" />
  </g>
  <g
     fill="#000000"
     fill-opacity="1"
     id="g425"
     transform="matrix(1.5345057,0,0,1.5345057,-1.1767741,-0.05505052)">
    <use
       xlink:href="#glyph-3-4"
       x="252.026"
       y="36.448002"
       id="use423" />
  </g>
  <g
     fill="#000000"
     fill-opacity="1"
     id="g429"
     transform="matrix(1.5345057,0,0,1.5345057,-1.1767741,-0.05505052)">
    <use
       xlink:href="#glyph-3-4"
       x="252.026"
       y="42.424999"
       id="use427" />
  </g>
  <g
     fill="#000000"
     fill-opacity="1"
     id="g433"
     transform="matrix(1.5345057,0,0,1.5345057,-1.1767741,-0.05505052)">
    <use
       xlink:href="#glyph-3-4"
       x="252.026"
       y="48.403"
       id="use431" />
  </g>
  <g
     fill="#000000"
     fill-opacity="1"
     id="g437"
     transform="matrix(1.5345057,0,0,1.5345057,-1.1767741,-0.05505052)">
    <use
       xlink:href="#glyph-3-4"
       x="252.026"
       y="54.381001"
       id="use435" />
  </g>
  <g
     fill="#000000"
     fill-opacity="1"
     id="g441"
     transform="matrix(1.5345057,0,0,1.5345057,-1.1767741,-0.05505052)">
    <use
       xlink:href="#glyph-3-4"
       x="252.026"
       y="60.358002"
       id="use439" />
  </g>
  <g
     fill="#000000"
     fill-opacity="1"
     id="g445"
     transform="matrix(1.5345057,0,0,1.5345057,-1.1767741,-0.05505052)">
    <use
       xlink:href="#glyph-3-4"
       x="252.026"
       y="66.335999"
       id="use443" />
  </g>
  <g
     fill="#000000"
     fill-opacity="1"
     id="g449"
     transform="matrix(1.5345057,0,0,1.5345057,-1.1767741,-0.05505052)">
    <use
       xlink:href="#glyph-3-4"
       x="252.026"
       y="72.314003"
       id="use447" />
  </g>
  <g
     fill="#000000"
     fill-opacity="1"
     id="g453"
     transform="matrix(1.5345057,0,0,1.5345057,-1.1767741,-0.05505052)">
    <use
       xlink:href="#glyph-3-5"
       x="252.026"
       y="78.690002"
       id="use451" />
  </g>
  <path
     fill-rule="nonzero"
     fill="#000000"
     fill-opacity="1"
     d="m 84.102182,48.761413 c 0,-0.443568 -0.35965,-0.809213 -0.809212,-0.809213 -0.443569,0 -0.809213,0.365645 -0.809213,0.809213 0,0.449562 0.365644,0.815206 0.809213,0.815206 0.449562,0 0.809212,-0.365644 0.809212,-0.815206 z m 0,6.881299 c 0,-0.449563 -0.35965,-0.809213 -0.809212,-0.809213 -0.443569,0 -0.809213,0.35965 -0.809213,0.809213 0,0.449562 0.365644,0.809212 0.809213,0.809212 0.449562,0 0.809212,-0.35965 0.809212,-0.809212 z m 0,6.881298 c 0,-0.449562 -0.35965,-0.809212 -0.809212,-0.809212 -0.443569,0 -0.809213,0.35965 -0.809213,0.809212 0,0.443568 0.365644,0.809213 0.809213,0.809213 0.449562,0 0.809212,-0.365645 0.809212,-0.809213 z m 0,0"
     id="path455"
     style="stroke-width:1.53451" />
  <path
     fill-rule="nonzero"
     fill="#000000"
     fill-opacity="1"
     d="m 169.38113,48.761413 c 0,-0.443568 -0.35965,-0.809213 -0.80921,-0.809213 -0.44956,0 -0.80921,0.365645 -0.80921,0.809213 0,0.449562 0.35965,0.815206 0.80921,0.815206 0.44956,0 0.80921,-0.365644 0.80921,-0.815206 z m 0,6.881299 c 0,-0.449563 -0.35965,-0.809213 -0.80921,-0.809213 -0.44956,0 -0.80921,0.35965 -0.80921,0.809213 0,0.449562 0.35965,0.809212 0.80921,0.809212 0.44956,0 0.80921,-0.35965 0.80921,-0.809212 z m 0,6.881298 c 0,-0.449562 -0.35965,-0.809212 -0.80921,-0.809212 -0.44956,0 -0.80921,0.35965 -0.80921,0.809212 0,0.443568 0.35965,0.809213 0.80921,0.809213 0.44956,0 0.80921,-0.365645 0.80921,-0.809213 z m 0,0"
     id="path457"
     style="stroke-width:1.53451" />
  <path
     fill-rule="nonzero"
     fill="#000000"
     fill-opacity="1"
     d="m 254.09064,50.337878 c 0,-0.449563 -0.36564,-0.815206 -0.80921,-0.815206 -0.44956,0 -0.80921,0.365643 -0.80921,0.815206 0,0.443567 0.35965,0.809212 0.80921,0.809212 0.44357,0 0.80921,-0.365645 0.80921,-0.809212 z m 0,6.875304 c 0,-0.443568 -0.36564,-0.809211 -0.80921,-0.809211 -0.44956,0 -0.80921,0.365643 -0.80921,0.809211 0,0.449562 0.35965,0.809212 0.80921,0.809212 0.44357,0 0.80921,-0.35965 0.80921,-0.809212 z m 0,6.8813 c 0,-0.449563 -0.36564,-0.809213 -0.80921,-0.809213 -0.44956,0 -0.80921,0.35965 -0.80921,0.809213 0,0.449561 0.35965,0.809211 0.80921,0.809211 0.44357,0 0.80921,-0.35965 0.80921,-0.809211 z m 0,0"
     id="path459"
     style="stroke-width:1.53451" />
  <path
     fill-rule="nonzero"
     fill="#000000"
     fill-opacity="1"
     d="m 352.17913,49.804398 c 0,-0.449563 -0.35966,-0.809213 -0.80922,-0.809213 -0.44956,0 -0.80921,0.35965 -0.80921,0.809213 0,0.449561 0.35965,0.809211 0.80921,0.809211 0.44956,0 0.80922,-0.35965 0.80922,-0.809211 z m 0,6.881297 c 0,-0.449561 -0.35966,-0.815206 -0.80922,-0.815206 -0.44956,0 -0.80921,0.365645 -0.80921,0.815206 0,0.443569 0.35965,0.809213 0.80921,0.809213 0.44956,0 0.80922,-0.365644 0.80922,-0.809213 z m 0,6.875305 c 0,-0.443567 -0.35966,-0.809211 -0.80922,-0.809211 -0.44956,0 -0.80921,0.365644 -0.80921,0.809211 0,0.449563 0.35965,0.815206 0.80921,0.815206 0.44956,0 0.80922,-0.365643 0.80922,-0.815206 z m 0,0"
     id="path461"
     style="stroke-width:1.53451" />
  <path
     fill-rule="nonzero"
     fill="#000000"
     fill-opacity="1"
     d="m 84.102182,114.07381 c 0,-0.44956 -0.35965,-0.8152 -0.809212,-0.8152 -0.443569,0 -0.809213,0.36564 -0.809213,0.8152 0,0.44357 0.365644,0.80921 0.809213,0.80921 0.449562,0 0.809212,-0.36564 0.809212,-0.80921 z m 0,6.87531 c 0,-0.44357 -0.35965,-0.80922 -0.809212,-0.80922 -0.443569,0 -0.809213,0.36565 -0.809213,0.80922 0,0.44956 0.365644,0.80921 0.809213,0.80921 0.449562,0 0.809212,-0.35965 0.809212,-0.80921 z m 0,6.8813 c 0,-0.44957 -0.35965,-0.80922 -0.809212,-0.80922 -0.443569,0 -0.809213,0.35965 -0.809213,0.80922 0,0.44956 0.365644,0.80921 0.809213,0.80921 0.449562,0 0.809212,-0.35965 0.809212,-0.80921 z m 0,0"
     id="path463"
     style="stroke-width:1.53451" />
  <path
     fill-rule="nonzero"
     fill="#000000"
     fill-opacity="1"
     d="m 169.38113,114.07381 c 0,-0.44956 -0.35965,-0.8152 -0.80921,-0.8152 -0.44956,0 -0.80921,0.36564 -0.80921,0.8152 0,0.44357 0.35965,0.80921 0.80921,0.80921 0.44956,0 0.80921,-0.36564 0.80921,-0.80921 z m 0,6.87531 c 0,-0.44357 -0.35965,-0.80922 -0.80921,-0.80922 -0.44956,0 -0.80921,0.36565 -0.80921,0.80922 0,0.44956 0.35965,0.80921 0.80921,0.80921 0.44956,0 0.80921,-0.35965 0.80921,-0.80921 z m 0,6.8813 c 0,-0.44957 -0.35965,-0.80922 -0.80921,-0.80922 -0.44956,0 -0.80921,0.35965 -0.80921,0.80922 0,0.44956 0.35965,0.80921 0.80921,0.80921 0.44956,0 0.80921,-0.35965 0.80921,-0.80921 z m 0,0"
     id="path465"
     style="stroke-width:1.53451" />
  <path
     fill-rule="nonzero"
     fill="#000000"
     fill-opacity="1"
     d="m 254.09064,114.07381 c 0,-0.44956 -0.36564,-0.8152 -0.80921,-0.8152 -0.44956,0 -0.80921,0.36564 -0.80921,0.8152 0,0.44357 0.35965,0.80921 0.80921,0.80921 0.44357,0 0.80921,-0.36564 0.80921,-0.80921 z m 0,6.87531 c 0,-0.44357 -0.36564,-0.80922 -0.80921,-0.80922 -0.44956,0 -0.80921,0.36565 -0.80921,0.80922 0,0.44956 0.35965,0.80921 0.80921,0.80921 0.44357,0 0.80921,-0.35965 0.80921,-0.80921 z m 0,6.8813 c 0,-0.44957 -0.36564,-0.80922 -0.80921,-0.80922 -0.44956,0 -0.80921,0.35965 -0.80921,0.80922 0,0.44956 0.35965,0.80921 0.80921,0.80921 0.44357,0 0.80921,-0.35965 0.80921,-0.80921 z m 0,0"
     id="path467"
     style="stroke-width:1.53451" />
  <path
     fill-rule="nonzero"
     fill="#000000"
     fill-opacity="1"
     d="m 352.17913,114.07381 c 0,-0.44956 -0.35966,-0.8152 -0.80922,-0.8152 -0.44956,0 -0.80921,0.36564 -0.80921,0.8152 0,0.44357 0.35965,0.80921 0.80921,0.80921 0.44956,0 0.80922,-0.36564 0.80922,-0.80921 z m 0,6.87531 c 0,-0.44357 -0.35966,-0.80922 -0.80922,-0.80922 -0.44956,0 -0.80921,0.36565 -0.80921,0.80922 0,0.44956 0.35965,0.80921 0.80921,0.80921 0.44956,0 0.80922,-0.35965 0.80922,-0.80921 z m 0,6.8813 c 0,-0.44957 -0.35966,-0.80922 -0.80922,-0.80922 -0.44956,0 -0.80921,0.35965 -0.80921,0.80922 0,0.44956 0.35965,0.80921 0.80921,0.80921 0.44956,0 0.80922,-0.35965 0.80922,-0.80921 z m 0,0"
     id="path469"
     style="stroke-width:1.53451" />
  <path
     fill-rule="nonzero"
     fill="#000000"
     fill-opacity="1"
     d="m 99.237445,44.829242 c 0,-0.449563 -0.359652,-0.809213 -0.809214,-0.809213 -0.449561,0 -0.809213,0.35965 -0.809213,0.809213 0,0.449562 0.359652,0.809212 0.809213,0.809212 0.449562,0 0.809214,-0.35965 0.809214,-0.809212 z m 6.329825,2.703368 c 0,-0.449563 -0.36564,-0.809213 -0.8152,-0.809213 -0.44357,0 -0.80921,0.35965 -0.80921,0.809213 0,0.449562 0.36564,0.80921 0.80921,0.80921 0.44956,0 0.8152,-0.359648 0.8152,-0.80921 z m 6.32385,2.703367 c 0,-0.449562 -0.36565,-0.809212 -0.80922,-0.809212 -0.44956,0 -0.80921,0.35965 -0.80921,0.809212 0,0.449562 0.35965,0.809211 0.80921,0.809211 0.44357,0 0.80922,-0.359649 0.80922,-0.809211 z m 6.32384,2.703367 c 0,-0.449561 -0.35965,-0.809213 -0.80921,-0.809213 -0.44957,0 -0.80922,0.359652 -0.80922,0.809213 0,0.449562 0.35965,0.809212 0.80922,0.809212 0.44956,0 0.80921,-0.35965 0.80921,-0.809212 z m 6.32983,2.703368 c 0,-0.449563 -0.36564,-0.809213 -0.80921,-0.809213 -0.44956,0 -0.8152,0.35965 -0.8152,0.809213 0,0.449562 0.36564,0.809212 0.8152,0.809212 0.44357,0 0.80921,-0.35965 0.80921,-0.809212 z m 6.32385,2.703367 c 0,-0.449562 -0.35965,-0.809212 -0.80922,-0.809212 -0.44956,0 -0.80921,0.35965 -0.80921,0.809212 0,0.449562 0.35965,0.809213 0.80921,0.809213 0.44957,0 0.80922,-0.359651 0.80922,-0.809213 z m 6.32384,2.703367 c 0,-0.449561 -0.35965,-0.809211 -0.80921,-0.809211 -0.44357,0 -0.80922,0.35965 -0.80922,0.809211 0,0.449562 0.36565,0.809212 0.80922,0.809212 0.44956,0 0.80921,-0.35965 0.80921,-0.809212 z m 6.32983,2.703367 c 0,-0.449562 -0.36564,-0.809211 -0.80921,-0.809211 -0.44956,0 -0.8152,0.359649 -0.8152,0.809211 0,0.449563 0.36564,0.809213 0.8152,0.809213 0.44357,0 0.80921,-0.35965 0.80921,-0.809213 z m 6.32385,2.703368 c 0,-0.449563 -0.35965,-0.809212 -0.80922,-0.809212 -0.44956,0 -0.80921,0.359649 -0.80921,0.809212 0,0.449563 0.35965,0.809212 0.80921,0.809212 0.44957,0 0.80922,-0.359649 0.80922,-0.809212 z m 0,0"
     id="path471"
     style="stroke-width:1.53451" />
  <path
     fill-rule="nonzero"
     fill="#000000"
     fill-opacity="1"
     d="m 298.57932,111.67615 c 0,-0.44957 -0.35965,-0.80922 -0.80921,-0.80922 -0.44956,0 -0.80921,0.35965 -0.80921,0.80922 0,0.44356 0.35965,0.80921 0.80921,0.80921 0.44956,0 0.80921,-0.36565 0.80921,-0.80921 z m 6.32384,2.70336 c 0,-0.44956 -0.35965,-0.80921 -0.80921,-0.80921 -0.44357,0 -0.80921,0.35965 -0.80921,0.80921 0,0.44357 0.36564,0.80922 0.80921,0.80922 0.44956,0 0.80921,-0.36565 0.80921,-0.80922 z m 6.32984,2.70337 c 0,-0.44956 -0.36565,-0.80921 -0.80921,-0.80921 -0.44957,0 -0.80922,0.35965 -0.80922,0.80921 0,0.44357 0.35965,0.80921 0.80922,0.80921 0.44356,0 0.80921,-0.36564 0.80921,-0.80921 z m 6.32384,2.70337 c 0,-0.44956 -0.35965,-0.80921 -0.80921,-0.80921 -0.44956,0 -0.80921,0.35965 -0.80921,0.80921 0,0.44357 0.35965,0.80921 0.80921,0.80921 0.44956,0 0.80921,-0.36564 0.80921,-0.80921 z m 6.32984,2.70337 c 0,-0.44957 -0.36565,-0.80922 -0.81521,-0.80922 -0.44357,0 -0.80921,0.35965 -0.80921,0.80922 0,0.44357 0.36564,0.80921 0.80921,0.80921 0.44956,0 0.81521,-0.36564 0.81521,-0.80921 z m 6.32384,2.70336 c 0,-0.44956 -0.36565,-0.80921 -0.80921,-0.80921 -0.44957,0 -0.80922,0.35965 -0.80922,0.80921 0,0.44357 0.35965,0.80922 0.80922,0.80922 0.44356,0 0.80921,-0.36565 0.80921,-0.80922 z m 6.32384,2.70337 c 0,-0.44956 -0.35965,-0.80921 -0.80921,-0.80921 -0.44357,0 -0.80921,0.35965 -0.80921,0.80921 0,0.44357 0.36564,0.80921 0.80921,0.80921 0.44956,0 0.80921,-0.36564 0.80921,-0.80921 z m 0,0"
     id="path473"
     style="stroke-width:1.53451" />
  <path
     fill-rule="nonzero"
     fill="#000000"
     fill-opacity="1"
     d="m 101.56317,37.528352 c 0,-0.443569 -0.35965,-0.809213 -0.80921,-0.809213 -0.44956,0 -0.809205,0.365644 -0.809205,0.809213 0,0.449561 0.359645,0.815206 0.809205,0.815206 0.44956,0 0.80921,-0.365645 0.80921,-0.815206 z m 6.8813,0 c 0,-0.443569 -0.36564,-0.809213 -0.80921,-0.809213 -0.44956,0 -0.80921,0.365644 -0.80921,0.809213 0,0.449561 0.35965,0.815206 0.80921,0.815206 0.44357,0 0.80921,-0.365645 0.80921,-0.815206 z m 6.8813,0 c 0,-0.443569 -0.36564,-0.809213 -0.80921,-0.809213 -0.44956,0 -0.81521,0.365644 -0.81521,0.809213 0,0.449561 0.36565,0.815206 0.81521,0.815206 0.44357,0 0.80921,-0.365645 0.80921,-0.815206 z m 6.87531,0 c 0,-0.443569 -0.35965,-0.809213 -0.80922,-0.809213 -0.44356,0 -0.80921,0.365644 -0.80921,0.809213 0,0.449561 0.36565,0.815206 0.80921,0.815206 0.44957,0 0.80922,-0.365645 0.80922,-0.815206 z m 6.8813,0 c 0,-0.443569 -0.35965,-0.809213 -0.80922,-0.809213 -0.44956,0 -0.80921,0.365644 -0.80921,0.809213 0,0.449561 0.35965,0.815206 0.80921,0.815206 0.44957,0 0.80922,-0.365645 0.80922,-0.815206 z m 6.88129,0 c 0,-0.443569 -0.36564,-0.809213 -0.80921,-0.809213 -0.44956,0 -0.8152,0.365644 -0.8152,0.809213 0,0.449561 0.36564,0.815206 0.8152,0.815206 0.44357,0 0.80921,-0.365645 0.80921,-0.815206 z m 6.8813,0 c 0,-0.443569 -0.36564,-0.809213 -0.8152,-0.809213 -0.44357,0 -0.80921,0.365644 -0.80921,0.809213 0,0.449561 0.36564,0.815206 0.80921,0.815206 0.44956,0 0.8152,-0.365645 0.8152,-0.815206 z m 6.87531,0 c 0,-0.443569 -0.35965,-0.809213 -0.80921,-0.809213 -0.44957,0 -0.80922,0.365644 -0.80922,0.809213 0,0.449561 0.35965,0.815206 0.80922,0.815206 0.44956,0 0.80921,-0.365645 0.80921,-0.815206 z m 0,0"
     id="path475"
     style="stroke-width:1.53451" />
  <path
     fill-rule="nonzero"
     fill="#000000"
     fill-opacity="1"
     d="m 286.26731,37.528352 c 0,-0.443569 -0.35965,-0.809213 -0.80921,-0.809213 -0.44956,0 -0.80921,0.365644 -0.80921,0.809213 0,0.449561 0.35965,0.815206 0.80921,0.815206 0.44956,0 0.80921,-0.365645 0.80921,-0.815206 z m 6.8813,0 c 0,-0.443569 -0.36565,-0.809213 -0.80921,-0.809213 -0.44957,0 -0.80922,0.365644 -0.80922,0.809213 0,0.449561 0.35965,0.815206 0.80922,0.815206 0.44356,0 0.80921,-0.365645 0.80921,-0.815206 z m 6.8813,0 c 0,-0.443569 -0.36565,-0.809213 -0.81521,-0.809213 -0.44357,0 -0.80921,0.365644 -0.80921,0.809213 0,0.449561 0.36564,0.815206 0.80921,0.815206 0.44956,0 0.81521,-0.365645 0.81521,-0.815206 z m 6.8753,0 c 0,-0.443569 -0.35965,-0.809213 -0.80921,-0.809213 -0.44956,0 -0.80921,0.365644 -0.80921,0.809213 0,0.449561 0.35965,0.815206 0.80921,0.815206 0.44956,0 0.80921,-0.365645 0.80921,-0.815206 z m 6.8813,0 c 0,-0.443569 -0.36564,-0.809213 -0.80921,-0.809213 -0.44956,0 -0.80921,0.365644 -0.80921,0.809213 0,0.449561 0.35965,0.815206 0.80921,0.815206 0.44357,0 0.80921,-0.365645 0.80921,-0.815206 z m 6.8813,0 c 0,-0.443569 -0.36564,-0.809213 -0.80921,-0.809213 -0.44956,0 -0.81521,0.365644 -0.81521,0.809213 0,0.449561 0.36565,0.815206 0.81521,0.815206 0.44357,0 0.80921,-0.365645 0.80921,-0.815206 z m 6.87531,0 c 0,-0.443569 -0.35965,-0.809213 -0.80922,-0.809213 -0.44356,0 -0.80921,0.365644 -0.80921,0.809213 0,0.449561 0.36565,0.815206 0.80921,0.815206 0.44957,0 0.80922,-0.365645 0.80922,-0.815206 z m 6.88129,0 c 0,-0.443569 -0.35965,-0.809213 -0.80921,-0.809213 -0.44956,0 -0.80921,0.365644 -0.80921,0.809213 0,0.449561 0.35965,0.815206 0.80921,0.815206 0.44956,0 0.80921,-0.365645 0.80921,-0.815206 z m 0,0"
     id="path477"
     style="stroke-width:1.53451" />
  <path
     fill-rule="nonzero"
     fill="#000000"
     fill-opacity="1"
     d="m 101.56317,74.224616 c 0,-0.449562 -0.35965,-0.815206 -0.80921,-0.815206 -0.44956,0 -0.809205,0.365644 -0.809205,0.815206 0,0.443568 0.359645,0.809213 0.809205,0.809213 0.44956,0 0.80921,-0.365645 0.80921,-0.809213 z m 6.8813,0 c 0,-0.449562 -0.36564,-0.815206 -0.80921,-0.815206 -0.44956,0 -0.80921,0.365644 -0.80921,0.815206 0,0.443568 0.35965,0.809213 0.80921,0.809213 0.44357,0 0.80921,-0.365645 0.80921,-0.809213 z m 6.8813,0 c 0,-0.449562 -0.36564,-0.815206 -0.80921,-0.815206 -0.44956,0 -0.81521,0.365644 -0.81521,0.815206 0,0.443568 0.36565,0.809213 0.81521,0.809213 0.44357,0 0.80921,-0.365645 0.80921,-0.809213 z m 6.87531,0 c 0,-0.449562 -0.35965,-0.815206 -0.80922,-0.815206 -0.44356,0 -0.80921,0.365644 -0.80921,0.815206 0,0.443568 0.36565,0.809213 0.80921,0.809213 0.44957,0 0.80922,-0.365645 0.80922,-0.809213 z m 6.8813,0 c 0,-0.449562 -0.35965,-0.815206 -0.80922,-0.815206 -0.44956,0 -0.80921,0.365644 -0.80921,0.815206 0,0.443568 0.35965,0.809213 0.80921,0.809213 0.44957,0 0.80922,-0.365645 0.80922,-0.809213 z m 6.88129,0 c 0,-0.449562 -0.36564,-0.815206 -0.80921,-0.815206 -0.44956,0 -0.8152,0.365644 -0.8152,0.815206 0,0.443568 0.36564,0.809213 0.8152,0.809213 0.44357,0 0.80921,-0.365645 0.80921,-0.809213 z m 6.8813,0 c 0,-0.449562 -0.36564,-0.815206 -0.8152,-0.815206 -0.44357,0 -0.80921,0.365644 -0.80921,0.815206 0,0.443568 0.36564,0.809213 0.80921,0.809213 0.44956,0 0.8152,-0.365645 0.8152,-0.809213 z m 6.87531,0 c 0,-0.449562 -0.35965,-0.815206 -0.80921,-0.815206 -0.44957,0 -0.80922,0.365644 -0.80922,0.815206 0,0.443568 0.35965,0.809213 0.80922,0.809213 0.44956,0 0.80921,-0.365645 0.80921,-0.809213 z m 0,0"
     id="path479"
     style="stroke-width:1.53451" />
  <path
     fill-rule="nonzero"
     fill="#000000"
     fill-opacity="1"
     d="m 286.26731,74.224616 c 0,-0.449562 -0.35965,-0.815206 -0.80921,-0.815206 -0.44956,0 -0.80921,0.365644 -0.80921,0.815206 0,0.443568 0.35965,0.809213 0.80921,0.809213 0.44956,0 0.80921,-0.365645 0.80921,-0.809213 z m 6.8813,0 c 0,-0.449562 -0.36565,-0.815206 -0.80921,-0.815206 -0.44957,0 -0.80922,0.365644 -0.80922,0.815206 0,0.443568 0.35965,0.809213 0.80922,0.809213 0.44356,0 0.80921,-0.365645 0.80921,-0.809213 z m 6.8813,0 c 0,-0.449562 -0.36565,-0.815206 -0.81521,-0.815206 -0.44357,0 -0.80921,0.365644 -0.80921,0.815206 0,0.443568 0.36564,0.809213 0.80921,0.809213 0.44956,0 0.81521,-0.365645 0.81521,-0.809213 z m 6.8753,0 c 0,-0.449562 -0.35965,-0.815206 -0.80921,-0.815206 -0.44956,0 -0.80921,0.365644 -0.80921,0.815206 0,0.443568 0.35965,0.809213 0.80921,0.809213 0.44956,0 0.80921,-0.365645 0.80921,-0.809213 z m 6.8813,0 c 0,-0.449562 -0.36564,-0.815206 -0.80921,-0.815206 -0.44956,0 -0.80921,0.365644 -0.80921,0.815206 0,0.443568 0.35965,0.809213 0.80921,0.809213 0.44357,0 0.80921,-0.365645 0.80921,-0.809213 z m 6.8813,0 c 0,-0.449562 -0.36564,-0.815206 -0.80921,-0.815206 -0.44956,0 -0.81521,0.365644 -0.81521,0.815206 0,0.443568 0.36565,0.809213 0.81521,0.809213 0.44357,0 0.80921,-0.365645 0.80921,-0.809213 z m 6.87531,0 c 0,-0.449562 -0.35965,-0.815206 -0.80922,-0.815206 -0.44356,0 -0.80921,0.365644 -0.80921,0.815206 0,0.443568 0.36565,0.809213 0.80921,0.809213 0.44957,0 0.80922,-0.365645 0.80922,-0.809213 z m 6.88129,0 c 0,-0.449562 -0.35965,-0.815206 -0.80921,-0.815206 -0.44956,0 -0.80921,0.365644 -0.80921,0.815206 0,0.443568 0.35965,0.809213 0.80921,0.809213 0.44956,0 0.80921,-0.365645 0.80921,-0.809213 z m 0,0"
     id="path481"
     style="stroke-width:1.53451" />
  <path
     fill-rule="nonzero"
     fill="#000000"
     fill-opacity="1"
     d="m 115.32577,101.27028 c 0,-0.44956 -0.36564,-0.81521 -0.80921,-0.81521 -0.44956,0 -0.81521,0.36565 -0.81521,0.81521 0,0.44357 0.36565,0.80921 0.81521,0.80921 0.44357,0 0.80921,-0.36564 0.80921,-0.80921 z m 6.87531,0 c 0,-0.44956 -0.35965,-0.81521 -0.80922,-0.81521 -0.44356,0 -0.80921,0.36565 -0.80921,0.81521 0,0.44357 0.36565,0.80921 0.80921,0.80921 0.44957,0 0.80922,-0.36564 0.80922,-0.80921 z m 6.8813,0 c 0,-0.44956 -0.35965,-0.81521 -0.80922,-0.81521 -0.44956,0 -0.80921,0.36565 -0.80921,0.81521 0,0.44357 0.35965,0.80921 0.80921,0.80921 0.44957,0 0.80922,-0.36564 0.80922,-0.80921 z m 6.88129,0 c 0,-0.44956 -0.36564,-0.81521 -0.80921,-0.81521 -0.44956,0 -0.8152,0.36565 -0.8152,0.81521 0,0.44357 0.36564,0.80921 0.8152,0.80921 0.44357,0 0.80921,-0.36564 0.80921,-0.80921 z m 0,0"
     id="path483"
     style="stroke-width:1.53451" />
  <path
     fill-rule="nonzero"
     fill="#000000"
     fill-opacity="1"
     d="m 300.02991,101.27028 c 0,-0.44956 -0.36565,-0.81521 -0.81521,-0.81521 -0.44357,0 -0.80921,0.36565 -0.80921,0.81521 0,0.44357 0.36564,0.80921 0.80921,0.80921 0.44956,0 0.81521,-0.36564 0.81521,-0.80921 z m 6.8753,0 c 0,-0.44956 -0.35965,-0.81521 -0.80921,-0.81521 -0.44956,0 -0.80921,0.36565 -0.80921,0.81521 0,0.44357 0.35965,0.80921 0.80921,0.80921 0.44956,0 0.80921,-0.36564 0.80921,-0.80921 z m 6.8813,0 c 0,-0.44956 -0.36564,-0.81521 -0.80921,-0.81521 -0.44956,0 -0.80921,0.36565 -0.80921,0.81521 0,0.44357 0.35965,0.80921 0.80921,0.80921 0.44357,0 0.80921,-0.36564 0.80921,-0.80921 z m 6.8813,0 c 0,-0.44956 -0.36564,-0.81521 -0.80921,-0.81521 -0.44956,0 -0.81521,0.36565 -0.81521,0.81521 0,0.44357 0.36565,0.80921 0.81521,0.80921 0.44357,0 0.80921,-0.36564 0.80921,-0.80921 z m 0,0"
     id="path485"
     style="stroke-width:1.53451" />
  <path
     fill-rule="nonzero"
     fill="#000000"
     fill-opacity="1"
     d="m 101.56317,137.96055 c 0,-0.44956 -0.35965,-0.81521 -0.80921,-0.81521 -0.44956,0 -0.809205,0.36565 -0.809205,0.81521 0,0.44357 0.359645,0.80921 0.809205,0.80921 0.44956,0 0.80921,-0.36564 0.80921,-0.80921 z m 6.8813,0 c 0,-0.44956 -0.36564,-0.81521 -0.80921,-0.81521 -0.44956,0 -0.80921,0.36565 -0.80921,0.81521 0,0.44357 0.35965,0.80921 0.80921,0.80921 0.44357,0 0.80921,-0.36564 0.80921,-0.80921 z m 6.8813,0 c 0,-0.44956 -0.36564,-0.81521 -0.80921,-0.81521 -0.44956,0 -0.81521,0.36565 -0.81521,0.81521 0,0.44357 0.36565,0.80921 0.81521,0.80921 0.44357,0 0.80921,-0.36564 0.80921,-0.80921 z m 6.87531,0 c 0,-0.44956 -0.35965,-0.81521 -0.80922,-0.81521 -0.44356,0 -0.80921,0.36565 -0.80921,0.81521 0,0.44357 0.36565,0.80921 0.80921,0.80921 0.44957,0 0.80922,-0.36564 0.80922,-0.80921 z m 6.8813,0 c 0,-0.44956 -0.35965,-0.81521 -0.80922,-0.81521 -0.44956,0 -0.80921,0.36565 -0.80921,0.81521 0,0.44357 0.35965,0.80921 0.80921,0.80921 0.44957,0 0.80922,-0.36564 0.80922,-0.80921 z m 6.88129,0 c 0,-0.44956 -0.36564,-0.81521 -0.80921,-0.81521 -0.44956,0 -0.8152,0.36565 -0.8152,0.81521 0,0.44357 0.36564,0.80921 0.8152,0.80921 0.44357,0 0.80921,-0.36564 0.80921,-0.80921 z m 6.8813,0 c 0,-0.44956 -0.36564,-0.81521 -0.8152,-0.81521 -0.44357,0 -0.80921,0.36565 -0.80921,0.81521 0,0.44357 0.36564,0.80921 0.80921,0.80921 0.44956,0 0.8152,-0.36564 0.8152,-0.80921 z m 6.87531,0 c 0,-0.44956 -0.35965,-0.81521 -0.80921,-0.81521 -0.44957,0 -0.80922,0.36565 -0.80922,0.81521 0,0.44357 0.35965,0.80921 0.80922,0.80921 0.44956,0 0.80921,-0.36564 0.80921,-0.80921 z m 0,0"
     id="path487"
     style="stroke-width:1.53451" />
  <path
     fill-rule="nonzero"
     fill="#000000"
     fill-opacity="1"
     d="m 286.26731,137.96055 c 0,-0.44956 -0.35965,-0.81521 -0.80921,-0.81521 -0.44956,0 -0.80921,0.36565 -0.80921,0.81521 0,0.44357 0.35965,0.80921 0.80921,0.80921 0.44956,0 0.80921,-0.36564 0.80921,-0.80921 z m 6.8813,0 c 0,-0.44956 -0.36565,-0.81521 -0.80921,-0.81521 -0.44957,0 -0.80922,0.36565 -0.80922,0.81521 0,0.44357 0.35965,0.80921 0.80922,0.80921 0.44356,0 0.80921,-0.36564 0.80921,-0.80921 z m 6.8813,0 c 0,-0.44956 -0.36565,-0.81521 -0.81521,-0.81521 -0.44357,0 -0.80921,0.36565 -0.80921,0.81521 0,0.44357 0.36564,0.80921 0.80921,0.80921 0.44956,0 0.81521,-0.36564 0.81521,-0.80921 z m 6.8753,0 c 0,-0.44956 -0.35965,-0.81521 -0.80921,-0.81521 -0.44956,0 -0.80921,0.36565 -0.80921,0.81521 0,0.44357 0.35965,0.80921 0.80921,0.80921 0.44956,0 0.80921,-0.36564 0.80921,-0.80921 z m 6.8813,0 c 0,-0.44956 -0.36564,-0.81521 -0.80921,-0.81521 -0.44956,0 -0.80921,0.36565 -0.80921,0.81521 0,0.44357 0.35965,0.80921 0.80921,0.80921 0.44357,0 0.80921,-0.36564 0.80921,-0.80921 z m 6.8813,0 c 0,-0.44956 -0.36564,-0.81521 -0.80921,-0.81521 -0.44956,0 -0.81521,0.36565 -0.81521,0.81521 0,0.44357 0.36565,0.80921 0.81521,0.80921 0.44357,0 0.80921,-0.36564 0.80921,-0.80921 z m 6.87531,0 c 0,-0.44956 -0.35965,-0.81521 -0.80922,-0.81521 -0.44356,0 -0.80921,0.36565 -0.80921,0.81521 0,0.44357 0.36565,0.80921 0.80921,0.80921 0.44957,0 0.80922,-0.36564 0.80922,-0.80921 z m 6.88129,0 c 0,-0.44956 -0.35965,-0.81521 -0.80921,-0.81521 -0.44956,0 -0.80921,0.36565 -0.80921,0.81521 0,0.44357 0.35965,0.80921 0.80921,0.80921 0.44956,0 0.80921,-0.36564 0.80921,-0.80921 z m 0,0"
     id="path489"
     style="stroke-width:1.53451" />
  <g
     fill="#000000"
     fill-opacity="1"
     id="g493"
     transform="matrix(1.5345057,0,0,1.5345057,-1.1767741,-0.05505052)">
    <use
       xlink:href="#glyph-3-6"
       x="37.035"
       y="21.636"
       id="use491" />
  </g>
  <g
     fill="#000000"
     fill-opacity="1"
     id="g497"
     transform="matrix(1.5345057,0,0,1.5345057,-1.1767741,-0.05505052)">
    <use
       xlink:href="#glyph-3-7"
       x="124.26"
       y="21.636"
       id="use495" />
  </g>
  <g
     fill="#000000"
     fill-opacity="1"
     id="g501"
     transform="matrix(1.5345057,0,0,1.5345057,-1.1767741,-0.05505052)">
    <use
       xlink:href="#glyph-6-0"
       x="77.5"
       y="6.3699999"
       id="use499" />
  </g>
  <g
     fill="#000000"
     fill-opacity="1"
     id="g505"
     transform="matrix(1.5345057,0,0,1.5345057,-1.1767741,-0.05505052)">
    <use
       xlink:href="#glyph-7-0"
       x="83.910004"
       y="3.3640001"
       id="use503" />
  </g>
  <g
     fill="#000000"
     fill-opacity="1"
     id="g509"
     transform="matrix(1.5345057,0,0,1.5345057,-1.1767741,-0.05505052)">
    <use
       xlink:href="#glyph-7-1"
       x="83.207001"
       y="8.3629999"
       id="use507" />
  </g>
  <g
     fill="#000000"
     fill-opacity="1"
     id="g513"
     transform="matrix(1.5345057,0,0,1.5345057,-1.1767741,-0.05505052)">
    <use
       xlink:href="#glyph-3-8"
       x="45.901001"
       y="15.436"
       id="use511" />
  </g>
  <path
     fill-rule="nonzero"
     fill="#000000"
     fill-opacity="1"
     d="M 76.135939,23.633881 H 120.15707 V 21.799668 H 76.135939 Z m 0,0"
     id="path515"
     style="stroke-width:1.53451" />
  <g
     fill="#000000"
     fill-opacity="1"
     id="g521"
     transform="matrix(1.5345057,0,0,1.5345057,-1.1767741,-0.05505052)">
    <use
       xlink:href="#glyph-3-9"
       x="79.07"
       y="15.436"
       id="use517" />
    <use
       xlink:href="#glyph-3-10"
       x="83.553169"
       y="15.436"
       id="use519" />
  </g>
  <path
     fill-rule="nonzero"
     fill="#000000"
     fill-opacity="1"
     d="m 133.91367,23.633881 h 44.02113 v -1.834213 h -44.02113 z m 0,0"
     id="path523"
     style="stroke-width:1.53451" />
  <g
     fill="#000000"
     fill-opacity="1"
     id="g527"
     transform="matrix(1.5345057,0,0,1.5345057,-1.1767741,-0.05505052)">
    <use
       xlink:href="#glyph-3-11"
       x="116.723"
       y="15.436"
       id="use525" />
  </g>
</svg>
