<?xml version="1.0" encoding="UTF-8" standalone="no"?>
<!-- Created with Inkscape (http://www.inkscape.org/) -->

<svg
   version="1.1"
   id="svg1"
   width="258.66666"
   height="109.33333"
   viewBox="0 0 258.66666 109.33333"
   sodipodi:docname="fig0b.pdf"
   inkscape:version="1.4.2 (1:1.4.2+202505120737+ebf0e940d0)"
   inkscape:export-filename="fig0b.svg"
   inkscape:export-xdpi="96"
   inkscape:export-ydpi="96"
   inkscape:dataloss="true"
   xmlns:inkscape="http://www.inkscape.org/namespaces/inkscape"
   xmlns:sodipodi="http://sodipodi.sourceforge.net/DTD/sodipodi-0.dtd"
   xmlns="http://www.w3.org/2000/svg"
   xmlns:svg="http://www.w3.org/2000/svg">
  <defs
     id="defs1">
    <clipPath
       clipPathUnits="userSpaceOnUse"
       id="clipPath19">
      <path
         d="M 0,0 H 194 V 82 H 0 Z"
         transform="scale(1.0003401,1)"
         id="path19" />
    </clipPath>
    <clipPath
       clipPathUnits="userSpaceOnUse"
       id="clipPath20">
      <path
         d="M 0,0 H 194 V 82 H 0 Z"
         transform="scale(1.3333333)"
         id="path20" />
    </clipPath>
    <clipPath
       clipPathUnits="userSpaceOnUse"
       id="clipPath21">
      <path
         d="M 0,0 H 194 V 82 H 0 Z"
         transform="scale(1.3333333)"
         id="path21" />
    </clipPath>
    <clipPath
       clipPathUnits="userSpaceOnUse"
       id="clipPath22">
      <path
         d="M 0,0 H 194 V 82 H 0 Z"
         transform="scale(1.3333333)"
         id="path22" />
    </clipPath>
    <clipPath
       clipPathUnits="userSpaceOnUse"
       id="clipPath26">
      <path
         d="M 36.461,30.516 C 37.727,17.938 37.727,17.938 37.727,17.938 21.602,16.32 21.602,16.32 21.602,16.32 M 36.559,30.215 21.051,16.078"
         transform="scale(1.3333333)"
         id="path26" />
    </clipPath>
    <clipPath
       clipPathUnits="userSpaceOnUse"
       id="clipPath34">
      <path
         d="M 0,0 H 194 V 82 H 0 Z"
         transform="scale(1.0003401,1)"
         id="path34" />
    </clipPath>
    <clipPath
       clipPathUnits="userSpaceOnUse"
       id="clipPath35">
      <path
         d="M 0,0 H 194 V 82 H 0 Z"
         transform="scale(1.3333333)"
         id="path35" />
    </clipPath>
    <clipPath
       clipPathUnits="userSpaceOnUse"
       id="clipPath36">
      <path
         d="M 0,0 H 194 V 82 H 0 Z"
         transform="scale(1.3333333)"
         id="path36" />
    </clipPath>
    <clipPath
       clipPathUnits="userSpaceOnUse"
       id="clipPath37">
      <path
         d="M 0,0 H 194 V 82 H 0 Z"
         transform="scale(1.3333333)"
         id="path37" />
    </clipPath>
    <clipPath
       clipPathUnits="userSpaceOnUse"
       id="clipPath41">
      <path
         d="M 181.137,13.223 C 182.402,0.648 182.402,0.648 182.402,0.648 166.277,-0.973 166.277,-0.973 166.277,-0.973 M 181.23,12.926 165.723,-1.215"
         transform="scale(1.3333333)"
         id="path41" />
    </clipPath>
    <clipPath
       clipPathUnits="userSpaceOnUse"
       id="clipPath53">
      <path
         d="M 0,0 H 194 V 82 H 0 Z"
         transform="scale(1,1.1425999)"
         id="path53" />
    </clipPath>
    <clipPath
       clipPathUnits="userSpaceOnUse"
       id="clipPath54">
      <path
         d="M 0,0 H 194 V 82 H 0 Z"
         transform="scale(1.3333333)"
         id="path54" />
    </clipPath>
    <clipPath
       clipPathUnits="userSpaceOnUse"
       id="clipPath55">
      <path
         d="M 0,0 H 194 V 82 H 0 Z"
         transform="scale(1.3333333)"
         id="path55" />
    </clipPath>
    <clipPath
       clipPathUnits="userSpaceOnUse"
       id="clipPath56">
      <path
         d="M 0,0 H 194 V 82 H 0 Z"
         transform="scale(1.3333333)"
         id="path56" />
    </clipPath>
    <clipPath
       clipPathUnits="userSpaceOnUse"
       id="clipPath60">
      <path
         d="m 179.527,55.859 c 1.192,-10.394 1.192,-10.394 1.192,-10.394 -15.227,-1.336 -15.227,-1.336 -15.227,-1.336 m 14.125,11.48 -14.644,-11.679"
         transform="scale(1.3333333)"
         id="path60" />
    </clipPath>
  </defs>
  <sodipodi:namedview
     id="namedview1"
     pagecolor="#ffffff"
     bordercolor="#000000"
     borderopacity="0.25"
     inkscape:showpageshadow="2"
     inkscape:pageopacity="0.0"
     inkscape:pagecheckerboard="0"
     inkscape:deskcolor="#d1d1d1"
     inkscape:zoom="3.49"
     inkscape:cx="97.707736"
     inkscape:cy="54.727794"
     inkscape:current-layer="g1">
    <inkscape:page
       x="0"
       y="0"
       id="page1"
       width="258.66666"
       height="109.33333"
       margin="0"
       bleed="0" />
  </sodipodi:namedview>
  <g
     id="g1"
     inkscape:groupmode="layer"
     inkscape:label="">
    <path
       id="path1"
       d="m 48.711,33.999 h 70.27 v 17.355 h -70.27 z"
       style="fill:none;stroke:#87878c;stroke-width:1.16928;stroke-linecap:butt;stroke-linejoin:miter;stroke-miterlimit:4;stroke-dasharray:none;stroke-opacity:1"
       transform="scale(1.3333333,1.32646)" />
    <path
       id="path2"
       d="m 127.988,25.828 c 14.426,0.24 14.426,0 14.426,0"
       style="fill:none;stroke:#87878c;stroke-width:0.678239;stroke-linecap:butt;stroke-linejoin:miter;stroke-miterlimit:4;stroke-dasharray:none;stroke-opacity:1"
       transform="scale(1.3333333,1.32646)" />
    <path
       id="path3"
       d="m 128.086,55.399 c 13.465,0.247 13.465,0 13.465,0"
       style="fill:none;stroke:#87878c;stroke-width:0.665162;stroke-linecap:butt;stroke-linejoin:miter;stroke-miterlimit:4;stroke-dasharray:none;stroke-opacity:1"
       transform="scale(1.3333333,1.32646)" />
    <path
       id="path4"
       d="m 32.512,41.64 c 10.558,0 10.558,0 10.558,0"
       style="fill:none;stroke:#87878c;stroke-width:0.907603;stroke-linecap:butt;stroke-linejoin:miter;stroke-miterlimit:4;stroke-dasharray:none;stroke-opacity:1"
       transform="scale(1.3333333,1.32646)" />
    <path
       id="path5"
       d="M 41,38.711 48.867,41.574 41,44.438 c 1.434,-1.668 1.434,-4.051 0,-5.727 z"
       style="fill:#87878c;fill-opacity:1;fill-rule:evenodd;stroke:none"
       transform="scale(1.3333333)" />
    <path
       id="path6"
       d="m 118.375,42.037 c 5.344,0 5.344,0 5.344,0"
       style="fill:none;stroke:#87878c;stroke-width:0.645741;stroke-linecap:butt;stroke-linejoin:miter;stroke-miterlimit:4;stroke-dasharray:none;stroke-opacity:1"
       transform="scale(1.3333333,1.32646)" />
    <path
       id="path7"
       d="m 122.844,39.84 5.879,2.14 -5.879,2.137 c 1.07,-1.246 1.07,-3.023 0,-4.277 z"
       style="fill:#87878c;fill-opacity:1;fill-rule:evenodd;stroke:none"
       transform="scale(1.3333333)" />
    <path
       id="path8"
       d="m 192.938,71.435 c 0,-39.363 0,-39.363 0,-39.363"
       style="fill:none;stroke:#87878c;stroke-width:0.741825;stroke-linecap:butt;stroke-linejoin:miter;stroke-miterlimit:4;stroke-dasharray:none;stroke-opacity:1"
       transform="scale(1.3333333,1.32646)" />
    <path
       id="path9"
       d="m 176.109,70.81 c 17.582,0.236 17.582,0 17.582,0"
       style="fill:none;stroke:#87878c;stroke-width:0.622398;stroke-linecap:butt;stroke-linejoin:miter;stroke-miterlimit:4;stroke-dasharray:none;stroke-opacity:1"
       transform="scale(1.3333333,1.32646)" />
    <path
       id="path10"
       d="m 182.305,31.958 c 11.242,0.11 11.242,0 11.242,0"
       style="fill:none;stroke:#87878c;stroke-width:0.679325;stroke-linecap:butt;stroke-linejoin:miter;stroke-miterlimit:4;stroke-dasharray:none;stroke-opacity:1"
       transform="scale(1.3333333,1.32646)" />
    <path
       id="path11"
       d="m 182.301,31.793 1.711,-1.676 -5.942,1.637 5.91,1.75 z"
       style="fill:#87878c;fill-opacity:1;fill-rule:evenodd;stroke:none"
       transform="scale(1.3333333)" />
    <path
       id="path12"
       d="m 137.715,23.359 6.574,2.395 -6.574,2.391 c 1.195,-1.395 1.195,-3.387 0,-4.786 z"
       style="fill:#87878c;fill-opacity:1;fill-rule:evenodd;stroke:none"
       transform="scale(1.3333333)" />
    <path
       id="path13"
       d="m 137.398,52.676 6.579,2.398 -6.579,2.391 c 1.196,-1.395 1.196,-3.387 0,-4.789 z"
       style="fill:#87878c;fill-opacity:1;fill-rule:evenodd;stroke:none"
       transform="scale(1.3333333)" />
    <path
       id="path14"
       d="m 128.043,25.883 c 0,29.343 0.648,29.343 0.648,29.343"
       style="fill:#000000;fill-opacity:1;fill-rule:nonzero;stroke:#808080;stroke-width:0.75902;stroke-linecap:butt;stroke-linejoin:miter;stroke-miterlimit:4;stroke-dasharray:none;stroke-opacity:1"
       transform="scale(1.3333333,1.32646)" />
    <path
       id="path15"
       d="m 2.043,19.318 h 29.648 c 0.825,0 1.485,0.668 1.485,1.492 v 39.615 c 0,0.824 -0.66,1.492 -1.485,1.492 H 2.043 c -0.824,0 -1.484,-0.668 -1.484,-1.492 V 20.81 c 0,-0.824 0.66,-1.492 1.484,-1.492 z"
       style="fill:none;stroke:#808080;stroke-width:1.11479;stroke-linecap:butt;stroke-linejoin:miter;stroke-miterlimit:4;stroke-dasharray:none;stroke-opacity:1"
       transform="scale(1.3333333,1.32646)" />
    <path
       id="path16"
       d="m 5.133,28.216 c 13.851,0 13.851,0 13.851,0"
       style="fill:none;stroke:#808080;stroke-width:1.51804;stroke-linecap:butt;stroke-linejoin:miter;stroke-miterlimit:4;stroke-dasharray:none;stroke-opacity:1"
       transform="scale(1.3333333,1.32646)" />
    <path
       id="path17"
       d="m 5.133,33.316 c 17.929,0 17.929,0 17.929,0"
       style="fill:none;stroke:#808080;stroke-width:1.51804;stroke-linecap:butt;stroke-linejoin:miter;stroke-miterlimit:4;stroke-dasharray:none;stroke-opacity:1"
       transform="scale(1.3333333,1.32646)" />
    <path
       id="path18"
       d="m 5.254,38.165 c 22.512,0 22.512,0 22.512,0"
       style="fill:none;stroke:#808080;stroke-width:1.51804;stroke-linecap:butt;stroke-linejoin:miter;stroke-miterlimit:4;stroke-dasharray:none;stroke-opacity:1"
       transform="scale(1.3333333,1.32646)" />
    <g
       id="g26"
       clip-path="url(#clipPath26)">
      <g
         clip-path="url(#clipPath22)"
         id="g25">
        <g
           clip-path="url(#clipPath21)"
           id="g24">
          <g
             clip-path="url(#clipPath20)"
             id="g23">
            <path
               d="M 2.317,19.008 H 31.98 c 0.82,0 1.485,0.66 1.485,1.484 v 39.41 c 0,0.821 -0.665,1.485 -1.485,1.485 H 2.317 c -0.82,0 -1.485,-0.664 -1.485,-1.485 v -39.41 c 0,-0.824 0.665,-1.484 1.485,-1.484 z"
               style="fill:#ffffff;fill-opacity:1;fill-rule:nonzero;stroke:#ffffff;stroke-width:1.1121;stroke-linecap:butt;stroke-linejoin:miter;stroke-miterlimit:4;stroke-dasharray:none;stroke-opacity:1"
               transform="scale(1.33288,1.3333333)"
               clip-path="url(#clipPath19)"
               id="path23" />
          </g>
        </g>
      </g>
    </g>
    <path
       id="path27"
       d="m 23.723,19.303 -0.371,8.877 h 9.863"
       style="fill:none;stroke:#808080;stroke-width:1.51804;stroke-linecap:butt;stroke-linejoin:miter;stroke-miterlimit:4;stroke-dasharray:none;stroke-opacity:1"
       transform="scale(1.3333333,1.32646)" />
    <path
       id="path28"
       d="m 24.18,19.401 9.015,8.666"
       style="fill:none;stroke:#808080;stroke-width:1.51804;stroke-linecap:butt;stroke-linejoin:miter;stroke-miterlimit:4;stroke-dasharray:none;stroke-opacity:1"
       transform="scale(1.3333333,1.32646)" />
    <text
       id="text28"
       xml:space="preserve"
       transform="matrix(1.3333333,0,0,1.3337867,2.6250587,65.652272)"><tspan
         id="tspan28"
         style="font-variant:normal;font-weight:700;font-size:8.31745px;font-family:'Helvetica Neue LT Std';writing-mode:lr-tb;fill:#000000;fill-opacity:1;fill-rule:nonzero;stroke:none"
         x="0"
         y="0">doc.tex</tspan></text>
    <path
       id="path29"
       d="m 146.715,1.93 h 29.652 c 0.824,0 1.485,0.66 1.485,1.484 V 42.82 c 0,0.825 -0.661,1.485 -1.485,1.485 h -29.652 c -0.82,0 -1.485,-0.66 -1.485,-1.485 V 3.414 c 0,-0.824 0.665,-1.484 1.485,-1.484 z"
       style="fill:#ffffff;fill-opacity:0.94902;fill-rule:nonzero;stroke:none"
       transform="scale(1.3333333)" />
    <path
       id="path30"
       d="m 146.715,1.94 h 29.652 c 0.824,0 1.485,0.663 1.485,1.492 v 39.61 c 0,0.829 -0.661,1.492 -1.485,1.492 h -29.652 c -0.824,0 -1.485,-0.663 -1.485,-1.492 V 3.432 c 0,-0.829 0.661,-1.492 1.485,-1.492 z"
       style="fill:none;stroke:#50a8d8;stroke-width:1.11479;stroke-linecap:butt;stroke-linejoin:miter;stroke-miterlimit:4;stroke-dasharray:none;stroke-opacity:1"
       transform="scale(1.3333333,1.32646)" />
    <path
       id="path31"
       d="m 149.805,10.837 c 13.851,0 13.851,0 13.851,0"
       style="fill:none;stroke:#499ecf;stroke-width:1.51804;stroke-linecap:butt;stroke-linejoin:miter;stroke-miterlimit:4;stroke-dasharray:none;stroke-opacity:1"
       transform="scale(1.3333333,1.32646)" />
    <path
       id="path32"
       d="m 149.805,15.934 c 17.933,0 17.933,0 17.933,0"
       style="fill:none;stroke:#50a7d8;stroke-width:1.51804;stroke-linecap:butt;stroke-linejoin:miter;stroke-miterlimit:4;stroke-dasharray:none;stroke-opacity:1"
       transform="scale(1.3333333,1.32646)" />
    <path
       id="path33"
       d="m 149.93,20.787 c 22.508,0 22.508,0 22.508,0"
       style="fill:none;stroke:#4fa6d7;stroke-width:1.51804;stroke-linecap:butt;stroke-linejoin:miter;stroke-miterlimit:4;stroke-dasharray:none;stroke-opacity:1"
       transform="scale(1.3333333,1.32646)" />
    <g
       id="g41"
       clip-path="url(#clipPath41)">
      <g
         clip-path="url(#clipPath37)"
         id="g40">
        <g
           clip-path="url(#clipPath36)"
           id="g39">
          <g
             clip-path="url(#clipPath35)"
             id="g38">
            <path
               d="m 147.042,1.715 h 29.663 c 0.82,0 1.485,0.664 1.485,1.484 v 39.41 c 0,0.825 -0.665,1.485 -1.485,1.485 h -29.663 c -0.824,0 -1.485,-0.66 -1.485,-1.485 V 3.199 c 0,-0.82 0.661,-1.484 1.485,-1.484 z"
               style="fill:#ffffff;fill-opacity:1;fill-rule:nonzero;stroke:#ffffff;stroke-width:1.1121;stroke-linecap:butt;stroke-linejoin:miter;stroke-miterlimit:4;stroke-dasharray:none;stroke-opacity:1"
               transform="scale(1.33288,1.3333333)"
               clip-path="url(#clipPath34)"
               id="path38" />
          </g>
        </g>
      </g>
    </g>
    <path
       id="path42"
       d="m 168.398,1.91 -0.371,8.832 h 9.864"
       style="fill:#ffffff;fill-opacity:0.847059;fill-rule:nonzero;stroke:none"
       transform="scale(1.3333333)" />
    <path
       id="path43"
       d="m 168.398,1.92 -0.371,8.878 h 9.864"
       style="fill:none;stroke:#4da3d3;stroke-width:1.51804;stroke-linecap:butt;stroke-linejoin:miter;stroke-miterlimit:4;stroke-dasharray:none;stroke-opacity:1"
       transform="scale(1.3333333,1.32646)" />
    <path
       id="path44"
       d="m 168.148,1.68 9.809,9.156"
       style="fill:#0000ff;fill-opacity:0.341176;fill-rule:nonzero;stroke:none"
       transform="scale(1.3333333)" />
    <path
       id="path45"
       d="m 168.148,1.688 9.809,9.204"
       style="fill:none;stroke:#499ece;stroke-width:1.63152;stroke-linecap:butt;stroke-linejoin:miter;stroke-miterlimit:4;stroke-dasharray:none;stroke-opacity:1"
       transform="scale(1.3333333,1.32646)" />
    <text
       id="text45"
       xml:space="preserve"
       transform="matrix(1.3333333,0,0,2.2321603,196.90712,49.135599)"><tspan
         id="tspan45"
         style="font-variant:normal;font-weight:700;font-size:9.86338px;font-family:'Helvetica Neue LT Std';writing-mode:lr-tb;fill:#4fa7d8;fill-opacity:0.996078;fill-rule:nonzero;stroke:none"
         x="0"
         y="0">H</tspan></text>
    <text
       id="text46"
       xml:space="preserve"
       transform="matrix(1.3333333,0,0,2.2321603,206.65211,49.135599)"><tspan
         id="tspan46"
         style="font-variant:normal;font-weight:700;font-size:9.86338px;font-family:'Helvetica Neue LT Std';writing-mode:lr-tb;fill:#4fa7d8;fill-opacity:0.996078;fill-rule:nonzero;stroke:none"
         x="0"
         y="0">T</tspan></text>
    <text
       id="text47"
       xml:space="preserve"
       transform="matrix(1.3333333,0,0,2.2321603,214.68744,49.135599)"><tspan
         id="tspan47"
         style="font-variant:normal;font-weight:700;font-size:9.86338px;font-family:'Helvetica Neue LT Std';writing-mode:lr-tb;fill:#4fa7d8;fill-opacity:0.996078;fill-rule:nonzero;stroke:none"
         x="0"
         y="0">M</tspan></text>
    <text
       id="text48"
       xml:space="preserve"
       transform="matrix(1.3333333,0,0,2.2321603,226.61551,49.135599)"><tspan
         id="tspan48"
         style="font-variant:normal;font-weight:700;font-size:9.86338px;font-family:'Helvetica Neue LT Std';writing-mode:lr-tb;fill:#4fa7d8;fill-opacity:0.996078;fill-rule:nonzero;stroke:none"
         x="0"
         y="0">L</tspan></text>
    <path
       id="path48"
       d="m 147.02,46.523 h 28.003 c 0.778,0 1.403,0.547 1.403,1.227 v 32.562 c 0,0.68 -0.625,1.227 -1.403,1.227 H 147.02 c -0.778,0 -1.403,-0.547 -1.403,-1.227 V 47.75 c 0,-0.68 0.625,-1.227 1.403,-1.227 z"
       style="fill:#ffffff;fill-opacity:0.94902;fill-rule:nonzero;stroke:none"
       transform="scale(1.3333333)" />
    <path
       id="path49"
       d="m 147.02,46.764 h 28.003 c 0.778,0 1.403,0.55 1.403,1.233 v 32.732 c 0,0.683 -0.625,1.233 -1.403,1.233 H 147.02 c -0.778,0 -1.403,-0.55 -1.403,-1.233 V 47.997 c 0,-0.683 0.625,-1.233 1.403,-1.233 z"
       style="fill:none;stroke:#50a8d8;stroke-width:0.984794;stroke-linecap:butt;stroke-linejoin:miter;stroke-miterlimit:4;stroke-dasharray:none;stroke-opacity:1"
       transform="scale(1.3333333,1.32646)" />
    <path
       id="path50"
       d="m 149.938,54.119 c 13.082,0 13.082,0 13.082,0"
       style="fill:none;stroke:#499ecf;stroke-width:1.34104;stroke-linecap:butt;stroke-linejoin:miter;stroke-miterlimit:4;stroke-dasharray:none;stroke-opacity:1"
       transform="scale(1.3333333,1.32646)" />
    <path
       id="path51"
       d="m 149.938,58.332 c 16.933,0 16.933,0 16.933,0"
       style="fill:none;stroke:#50a7d8;stroke-width:1.34104;stroke-linecap:butt;stroke-linejoin:miter;stroke-miterlimit:4;stroke-dasharray:none;stroke-opacity:1"
       transform="scale(1.3333333,1.32646)" />
    <path
       id="path52"
       d="m 150.055,62.337 c 21.257,0 21.257,0 21.257,0"
       style="fill:none;stroke:#4fa6d7;stroke-width:1.34104;stroke-linecap:butt;stroke-linejoin:miter;stroke-miterlimit:4;stroke-dasharray:none;stroke-opacity:1"
       transform="scale(1.3333333,1.32646)" />
    <g
       id="g60"
       clip-path="url(#clipPath60)">
      <g
         clip-path="url(#clipPath56)"
         id="g59">
        <g
           clip-path="url(#clipPath55)"
           id="g58">
          <g
             clip-path="url(#clipPath54)"
             id="g57">
            <path
               d="m 147.277,52.957 h 28.004 c 0.778,0 1.403,0.625 1.403,1.401 v 37.206 c 0,0.777 -0.625,1.406 -1.403,1.406 h -28.004 c -0.777,0 -1.402,-0.629 -1.402,-1.406 V 54.358 c 0,-0.776 0.625,-1.401 1.402,-1.401 z"
               style="fill:#ffffff;fill-opacity:1;fill-rule:nonzero;stroke:#ffffff;stroke-width:1.04995;stroke-linecap:butt;stroke-linejoin:miter;stroke-miterlimit:4;stroke-dasharray:none;stroke-opacity:1"
               transform="scale(1.3333333,1.1669293)"
               clip-path="url(#clipPath53)"
               id="path57" />
          </g>
        </g>
      </g>
    </g>
    <path
       id="path61"
       d="m 167.496,46.508 -0.348,7.301 h 9.313"
       style="fill:#ffffff;fill-opacity:0.847059;fill-rule:nonzero;stroke:none"
       transform="scale(1.3333333)" />
    <path
       id="path62"
       d="m 167.496,46.749 -0.348,7.338 h 9.313"
       style="fill:none;stroke:#4da3d3;stroke-width:1.34104;stroke-linecap:butt;stroke-linejoin:miter;stroke-miterlimit:4;stroke-dasharray:none;stroke-opacity:1"
       transform="scale(1.3333333,1.32646)" />
    <path
       id="path63"
       d="m 167.262,46.316 9.261,7.567"
       style="fill:#0000ff;fill-opacity:0.341176;fill-rule:nonzero;stroke:none"
       transform="scale(1.3333333)" />
    <path
       id="path64"
       d="m 167.262,46.556 9.261,7.606"
       style="fill:none;stroke:#499ece;stroke-width:1.44126;stroke-linecap:butt;stroke-linejoin:miter;stroke-miterlimit:4;stroke-dasharray:none;stroke-opacity:1"
       transform="scale(1.3333333,1.32646)" />
    <text
       id="text64"
       xml:space="preserve"
       transform="matrix(1.3333333,0,0,1.7195117,197.23913,100.53859)"><tspan
         id="tspan64"
         style="font-variant:normal;font-weight:700;font-size:9.31539px;font-family:'Helvetica Neue LT Std';writing-mode:lr-tb;fill:#ff00ff;fill-opacity:0.996078;fill-rule:nonzero;stroke:none"
         x="0"
         y="0">c</tspan></text>
    <text
       id="text65"
       xml:space="preserve"
       transform="matrix(1.3333333,0,0,1.7195117,204.36849,100.53859)"><tspan
         id="tspan65"
         style="font-variant:normal;font-weight:700;font-size:9.31539px;font-family:'Helvetica Neue LT Std';writing-mode:lr-tb;fill:#ff00ff;fill-opacity:0.996078;fill-rule:nonzero;stroke:none"
         x="0"
         y="0">s</tspan></text>
    <text
       id="text66"
       xml:space="preserve"
       transform="matrix(1.3333333,0,0,1.7195117,211.03833,100.53859)"><tspan
         id="tspan66"
         style="font-variant:normal;font-weight:700;font-size:9.31539px;font-family:'Helvetica Neue LT Std';writing-mode:lr-tb;fill:#ff00ff;fill-opacity:0.996078;fill-rule:nonzero;stroke:none"
         x="0"
         y="0">s</tspan></text>
    <text
       id="text67"
       xml:space="preserve"
       transform="matrix(1.3333333,0,0,1.7195117,217.70815,100.53859)"><tspan
         id="tspan67"
         style="font-variant:normal;font-weight:700;font-size:9.31539px;font-family:'Helvetica Neue LT Std';writing-mode:lr-tb;fill:#ff00ff;fill-opacity:0.996078;fill-rule:nonzero;stroke:none"
         x="0"
         y="0"> </tspan></text>
    <text
       id="text68"
       xml:space="preserve"
       transform="matrix(1.3333333,0,0,1.7195118,218.52643,99.7721)"><tspan
         id="tspan68"
         style="font-variant:normal;font-weight:700;font-size:7.06286px;font-family:'Helvetica Neue LT Std';writing-mode:lr-tb;fill:#ff00ff;fill-opacity:0.996078;fill-rule:nonzero;stroke:none"
         x="0"
         y="0">&lt;</tspan></text>
    <text
       id="text69"
       xml:space="preserve"
       transform="matrix(1.3333333,0,0,1.7195118,224.17672,99.7721)"><tspan
         id="tspan69"
         style="font-variant:normal;font-weight:700;font-size:7.06286px;font-family:'Helvetica Neue LT Std';writing-mode:lr-tb;fill:#ff00ff;fill-opacity:0.996078;fill-rule:nonzero;stroke:none"
         x="0"
         y="0">/</tspan></text>
    <text
       id="text70"
       xml:space="preserve"
       transform="matrix(1.3333333,0,0,1.7195118,227.67048,99.7721)"><tspan
         id="tspan70"
         style="font-variant:normal;font-weight:700;font-size:7.06286px;font-family:'Helvetica Neue LT Std';writing-mode:lr-tb;fill:#ff00ff;fill-opacity:0.996078;fill-rule:nonzero;stroke:none"
         x="0"
         y="0">&gt;</tspan></text>
    <path
       id="path70"
       d="m 113.55667,68.401465 c 0,28.172 0,28.172 0,28.172 16.412,0 16.412,0 16.412,0"
       style="fill:#ffffff;fill-opacity:0.996078;fill-rule:nonzero;stroke:none;stroke-width:1.33333" />
    <path
       id="path71"
       d="m 113.34867,68.323284 c 0,28.322574 0,28.322574 0,28.322574 7.984,0 7.984,0 7.984,0"
       style="fill:none;stroke:#ff00ff;stroke-width:1.2031;stroke-linecap:butt;stroke-linejoin:miter;stroke-miterlimit:4;stroke-dasharray:none;stroke-opacity:1" />
    <text
       id="text71"
       xml:space="preserve"
       transform="scale(0.99982993,1.0001701)"
       x="121.93565"
       y="99.280434"
       style="font-size:16.0027px;stroke-width:1.33356"><tspan
         id="tspan71"
         style="font-variant:normal;font-weight:700;font-size:13.3677px;font-family:'Helvetica Neue LT Std';writing-mode:lr-tb;fill:#ff00ff;fill-opacity:1;fill-rule:nonzero;stroke:none;stroke-width:1.33356"
         x="121.93565"
         y="99.280434">conﬁg.cfg</tspan></text>
    <path
       id="path72"
       d="m 186.67892,96.113912 c 8.01907,0 8.01907,0 8.01907,0"
       style="fill:none;stroke:#ff00ff;stroke-width:0.994159;stroke-linecap:butt;stroke-linejoin:miter;stroke-miterlimit:4;stroke-dasharray:none;stroke-opacity:1" />
    <text
       id="text72"
       xml:space="preserve"
       transform="matrix(1.3333333,0,0,1.3264606,72.017561,61.890251)"><tspan
         id="tspan72"
         style="font-variant:normal;font-weight:700;font-size:14.0726px;font-family:'Helvetica Neue LT Std';writing-mode:lr-tb;fill:#000000;fill-opacity:1;fill-rule:nonzero;stroke:none"
         x="0"
         y="0">Make4ht</tspan></text>
  </g>
</svg>
