<?xml version="1.0" encoding="UTF-8" standalone="no"?>
<svg
   width="300.77859pt"
   height="298.53357pt"
   viewBox="0 0 300.7786 298.53356"
   version="1.1"
   id="svg134"
   xmlns:xlink="http://www.w3.org/1999/xlink"
   xmlns="http://www.w3.org/2000/svg"
   xmlns:svg="http://www.w3.org/2000/svg"
   xmlns:rdf="http://www.w3.org/1999/02/22-rdf-syntax-ns#"
   xmlns:cc="http://creativecommons.org/ns#"
   xmlns:dc="http://purl.org/dc/elements/1.1/">
  <metadata
     id="metadata1">
    <rdf:RDF>
      <cc:Work>
        <dc:type
           rdf:resource="http://purl.org/dc/dcmitype/StillImage" />
        <dc:date>2025-03-31T18:18:11.078613</dc:date>
        <dc:format>image/svg+xml</dc:format>
        <dc:creator>
          <cc:Agent>
            <dc:title>Matplotlib v3.6.3, https://matplotlib.org/</dc:title>
          </cc:Agent>
        </dc:creator>
      </cc:Work>
    </rdf:RDF>
  </metadata>
  <defs
     id="defs1">
    <style
       type="text/css"
       id="style1">*{stroke-linejoin: round; stroke-linecap: butt}</style>
    <defs
       id="defs45">
      <path
         id="m3813ee2cf7"
         d="M 0,4 C 1.060812,4 2.078319,3.578535 2.828427,2.828427 3.578535,2.078319 4,1.060812 4,0 4,-1.060812 3.578535,-2.078319 2.828427,-2.828427 2.078319,-3.578535 1.060812,-4 0,-4 -1.060812,-4 -2.078319,-3.578535 -2.828427,-2.828427 -3.578535,-2.078319 -4,-1.060812 -4,0 -4,1.060812 -3.578535,2.078319 -2.828427,2.828427 -2.078319,3.578535 -1.060812,4 0,4 Z" />
    </defs>
    <defs
       id="defs44">
      <path
         id="ma4ec53129b"
         d="M 0,4 C 1.060812,4 2.078319,3.578535 2.828427,2.828427 3.578535,2.078319 4,1.060812 4,0 4,-1.060812 3.578535,-2.078319 2.828427,-2.828427 2.078319,-3.578535 1.060812,-4 0,-4 -1.060812,-4 -2.078319,-3.578535 -2.828427,-2.828427 -3.578535,-2.078319 -4,-1.060812 -4,0 -4,1.060812 -3.578535,2.078319 -2.828427,2.828427 -2.078319,3.578535 -1.060812,4 0,4 Z" />
    </defs>
    <defs
       id="defs50">
      <path
         id="DejaVuSans-43"
         d="m 4122,4306 v -665 q -319,297 -680,443 -361,147 -767,147 -800,0 -1225,-489 -425,-489 -425,-1414 0,-922 425,-1411 425,-489 1225,-489 406,0 767,147 361,147 680,444 V 359 Q 3791,134 3420,21 3050,-91 2638,-91 1578,-91 968,557 359,1206 359,2328 q 0,1125 609,1773 610,649 1670,649 418,0 788,-111 371,-111 696,-333 z"
         transform="scale(0.015625)" />
      <path
         id="DejaVuSans-61"
         d="m 2194,1759 q -697,0 -966,-159 -269,-159 -269,-544 0,-306 202,-486 202,-179 548,-179 479,0 768,339 289,339 289,901 v 128 z m 1147,238 V 0 H 2766 V 531 Q 2569,213 2275,61 1981,-91 1556,-91 q -537,0 -855,302 -317,302 -317,808 0,590 395,890 396,300 1180,300 h 807 v 57 q 0,397 -261,614 -261,217 -733,217 -300,0 -585,-72 -284,-72 -546,-216 v 532 q 315,122 612,182 297,61 578,61 760,0 1135,-394 375,-393 375,-1193 z"
         transform="scale(0.015625)" />
      <path
         id="DejaVuSans-6d"
         d="m 3328,2828 q 216,388 516,572 300,184 706,184 547,0 844,-383 297,-382 297,-1088 V 0 h -578 v 2094 q 0,503 -179,746 -178,244 -543,244 -447,0 -707,-297 -259,-296 -259,-809 V 0 h -578 v 2094 q 0,506 -178,748 -178,242 -550,242 -441,0 -701,-298 -259,-298 -259,-808 V 0 H 581 v 3500 h 578 v -544 q 197,322 472,475 275,153 653,153 382,0 649,-194 267,-193 395,-562 z"
         transform="scale(0.015625)" />
      <path
         id="DejaVuSans-69"
         d="m 603,3500 h 575 V 0 H 603 Z m 0,1363 h 575 V 4134 H 603 Z"
         transform="scale(0.015625)" />
      <path
         id="DejaVuSans-6e"
         d="M 3513,2113 V 0 h -575 v 2094 q 0,497 -194,743 -194,247 -581,247 -466,0 -735,-297 -269,-296 -269,-809 V 0 H 581 v 3500 h 578 v -544 q 207,316 486,472 280,156 646,156 603,0 912,-373 310,-373 310,-1098 z"
         transform="scale(0.015625)" />
      <path
         id="DejaVuSans-6f"
         d="m 1959,3097 q -462,0 -731,-361 -269,-361 -269,-989 0,-628 267,-989 268,-361 733,-361 460,0 728,362 269,363 269,988 0,622 -269,986 -268,364 -728,364 z m 0,487 q 750,0 1178,-488 429,-487 429,-1349 Q 3566,888 3137,398 2709,-91 1959,-91 1206,-91 779,398 353,888 353,1747 q 0,862 426,1349 427,488 1180,488 z"
         transform="scale(0.015625)" />
      <path
         id="DejaVuSans-20"
         transform="scale(0.015625)"
         d="" />
      <path
         id="DejaVuSans-e1"
         d="m 2194,1759 q -697,0 -966,-159 -269,-159 -269,-544 0,-306 202,-486 202,-179 548,-179 479,0 768,339 289,339 289,901 v 128 z m 1147,238 V 0 H 2766 V 531 Q 2569,213 2275,61 1981,-91 1556,-91 q -537,0 -855,302 -317,302 -317,808 0,590 395,890 396,300 1180,300 h 807 v 57 q 0,397 -261,614 -261,217 -733,217 -300,0 -585,-72 -284,-72 -546,-216 v 532 q 315,122 612,182 297,61 578,61 760,0 1135,-394 375,-393 375,-1193 z M 2290,5119 h 622 L 1894,3944 h -479 z"
         transform="scale(0.015625)" />
      <path
         id="DejaVuSans-73"
         d="m 2834,3397 v -544 q -243,125 -506,187 -262,63 -544,63 -428,0 -642,-131 -214,-131 -214,-394 0,-200 153,-314 153,-114 616,-217 l 197,-44 q 612,-131 870,-370 258,-239 258,-667 0,-488 -386,-773 Q 2250,-91 1575,-91 1294,-91 989,-36 684,19 347,128 v 594 q 319,-166 628,-249 309,-82 613,-82 406,0 624,139 219,139 219,392 0,234 -158,359 -157,125 -692,241 l -200,47 q -534,112 -772,345 -237,233 -237,639 0,494 350,762 350,269 994,269 318,0 599,-47 282,-46 519,-140 z"
         transform="scale(0.015625)" />
      <path
         id="DejaVuSans-63"
         d="m 3122,3366 v -538 q -244,135 -489,202 -245,67 -495,67 -560,0 -870,-355 -309,-354 -309,-995 0,-641 309,-996 310,-354 870,-354 250,0 495,67 245,67 489,202 V 134 Q 2881,22 2623,-34 2366,-91 2075,-91 1284,-91 818,406 353,903 353,1747 q 0,856 470,1346 471,491 1290,491 265,0 518,-55 253,-54 491,-163 z"
         transform="scale(0.015625)" />
      <path
         id="DejaVuSans-72"
         d="m 2631,2963 q -97,56 -211,82 -114,27 -251,27 -488,0 -749,-317 -261,-317 -261,-911 V 0 H 581 v 3500 h 578 v -544 q 182,319 472,473 291,155 707,155 59,0 131,-8 72,-7 159,-23 z"
         transform="scale(0.015625)" />
      <path
         id="DejaVuSans-74"
         d="M 1172,4494 V 3500 H 2356 V 3053 H 1172 V 1153 q 0,-428 117,-550 117,-122 477,-122 h 590 V 0 H 1766 Q 1100,0 847,248 594,497 594,1153 V 3053 H 172 v 447 h 422 v 994 z"
         transform="scale(0.015625)" />
      <path
         id="DejaVuSans-65"
         d="M 3597,1894 V 1613 H 953 q 38,-594 358,-905 320,-311 892,-311 331,0 642,81 311,81 618,244 V 178 Q 3153,47 2828,-22 2503,-91 2169,-91 1331,-91 842,396 353,884 353,1716 q 0,859 464,1363 464,505 1252,505 706,0 1117,-455 411,-454 411,-1235 z m -575,169 q -6,471 -264,752 -258,282 -683,282 -481,0 -770,-272 -289,-272 -333,-766 z"
         transform="scale(0.015625)" />
      <path
         id="DejaVuSans-28"
         d="m 1984,4856 q -418,-718 -622,-1422 -203,-703 -203,-1425 0,-721 205,-1429 205,-708 620,-1424 h -500 q -468,735 -701,1444 -233,709 -233,1409 0,697 231,1403 232,707 703,1444 z"
         transform="scale(0.015625)" />
      <path
         id="DejaVuSans-2c"
         d="m 750,794 h 659 V 256 L 897,-744 H 494 L 750,256 Z"
         transform="scale(0.015625)" />
      <path
         id="DejaVuSans-29"
         d="m 513,4856 h 500 q 468,-737 701,-1444 233,-706 233,-1403 0,-700 -233,-1409 -233,-709 -701,-1444 H 513 q 415,716 620,1424 205,708 205,1429 0,722 -205,1425 -205,704 -620,1422 z"
         transform="scale(0.015625)" />
      <path
         id="DejaVuSans-6c"
         d="m 603,4863 h 575 V 0 H 603 Z"
         transform="scale(0.015625)" />
      <path
         id="DejaVuSans-70"
         d="M 1159,525 V -1331 H 581 v 4831 h 578 v -531 q 182,312 458,463 277,152 661,152 638,0 1036,-506 399,-506 399,-1331 0,-825 -399,-1332 -398,-506 -1036,-506 -384,0 -661,152 -276,152 -458,464 z m 1957,1222 q 0,634 -261,995 -261,361 -717,361 -457,0 -718,-361 -261,-361 -261,-995 0,-634 261,-995 261,-361 718,-361 456,0 717,361 261,361 261,995 z"
         transform="scale(0.015625)" />
      <path
         id="DejaVuSans-75"
         d="m 544,1381 v 2119 h 575 V 1403 q 0,-497 193,-746 194,-248 582,-248 465,0 735,297 271,297 271,810 v 1984 h 575 V 0 H 2900 V 538 Q 2691,219 2414,64 2138,-91 1772,-91 1169,-91 856,284 544,659 544,1381 Z m 1447,2203 z"
         transform="scale(0.015625)" />
      <path
         id="DejaVuSans-ed"
         d="m 1322,5119 h 622 L 926,3944 H 447 Z M 603,3500 h 575 V 0 H 603 Z m 288,84 z"
         transform="scale(0.015625)" />
      <path
         id="DejaVuSans-64"
         d="m 2906,2969 v 1894 h 575 V 0 H 2906 V 525 Q 2725,213 2448,61 2172,-91 1784,-91 1150,-91 751,415 353,922 353,1747 q 0,825 398,1331 399,506 1033,506 388,0 664,-152 277,-151 458,-463 z M 947,1747 q 0,-634 261,-995 261,-361 717,-361 456,0 718,361 263,361 263,995 0,634 -263,995 -262,361 -718,361 -456,0 -717,-361 -261,-361 -261,-995 z"
         transform="scale(0.015625)" />
    </defs>
  </defs>
  <path
     d="M -50.541406,308.22918 H 366.76765 V -20.208125 H -50.541406 Z"
     style="fill:none"
     id="path1" />
  <path
     d="M 24.193125,270.30168 H 292.03312 V 4.189687 H 24.193125 Z"
     style="fill:none"
     id="path2" />
  <g
     id="xtick_1"
     transform="translate(-50.541406,-20.208125)">
    <g
       id="line2d_1">
      <path
         d="M 74.734531,290.50981 V 24.397812"
         clip-path="url(#p405a44f149)"
         style="fill:none;stroke:#b0b0b0;stroke-width:0.7;stroke-dasharray:2.59, 1.12;stroke-dashoffset:0;stroke-opacity:0.7"
         id="path3" />
    </g>
    <g
       id="line2d_2">
      <defs
         id="defs3">
        <path
           id="mb0309a6863"
           d="M 0,0 V -3.5"
           style="stroke:#1a1a1a;stroke-width:0.8" />
      </defs>
      <g
         id="g3">
        <use
           xlink:href="#mb0309a6863"
           x="74.734528"
           y="290.50983"
           style="fill:#1a1a1a;stroke:#1a1a1a;stroke-width:0.8"
           id="use3" />
      </g>
    </g>
    <g
       id="text_1">
      <!-- 0.0 -->
      <g
         style="fill:#1a1a1a"
         transform="matrix(0.12,0,0,-0.12,65.192656,303.12794)"
         id="g6">
        <defs
           id="defs4">
          <path
             id="DejaVuSans-30"
             d="m 2034,4250 q -487,0 -733,-480 -245,-479 -245,-1442 0,-959 245,-1439 246,-480 733,-480 491,0 736,480 246,480 246,1439 0,963 -246,1442 -245,480 -736,480 z m 0,500 q 785,0 1199,-621 414,-620 414,-1801 0,-1178 -414,-1799 -414,-620 -1199,-620 -784,0 -1198,620 -414,621 -414,1799 0,1181 414,1801 414,621 1198,621 z"
             transform="scale(0.015625)" />
          <path
             id="DejaVuSans-2e"
             d="m 684,794 h 660 V 0 H 684 Z"
             transform="scale(0.015625)" />
        </defs>
        <use
           xlink:href="#DejaVuSans-30"
           id="use4" />
        <use
           xlink:href="#DejaVuSans-2e"
           x="63.623047"
           id="use5" />
        <use
           xlink:href="#DejaVuSans-30"
           x="95.410156"
           id="use6" />
      </g>
    </g>
  </g>
  <g
     id="xtick_2"
     transform="translate(-50.541406,-20.208125)">
    <g
       id="line2d_3">
      <path
         d="M 119.37453,290.50981 V 24.397812"
         clip-path="url(#p405a44f149)"
         style="fill:none;stroke:#b0b0b0;stroke-width:0.7;stroke-dasharray:2.59, 1.12;stroke-dashoffset:0;stroke-opacity:0.7"
         id="path6" />
    </g>
    <g
       id="line2d_4">
      <g
         id="g7">
        <use
           xlink:href="#mb0309a6863"
           x="119.37453"
           y="290.50983"
           style="fill:#1a1a1a;stroke:#1a1a1a;stroke-width:0.8"
           id="use7" />
      </g>
    </g>
    <g
       id="text_2">
      <!-- 0.5 -->
      <g
         style="fill:#1a1a1a"
         transform="matrix(0.12,0,0,-0.12,109.83266,303.12794)"
         id="g10">
        <defs
           id="defs7">
          <path
             id="DejaVuSans-35"
             d="M 691,4666 H 3169 V 4134 H 1269 V 2991 q 137,47 274,70 138,23 276,23 781,0 1237,-428 457,-428 457,-1159 Q 3513,744 3044,326 2575,-91 1722,-91 1428,-91 1123,-41 819,9 494,109 v 635 q 281,-153 581,-228 300,-75 634,-75 541,0 856,284 316,284 316,772 0,487 -316,771 -315,285 -856,285 -253,0 -505,-56 -251,-56 -513,-175 z"
             transform="scale(0.015625)" />
        </defs>
        <use
           xlink:href="#DejaVuSans-30"
           id="use8" />
        <use
           xlink:href="#DejaVuSans-2e"
           x="63.623047"
           id="use9" />
        <use
           xlink:href="#DejaVuSans-35"
           x="95.410156"
           id="use10" />
      </g>
    </g>
  </g>
  <g
     id="xtick_3"
     transform="translate(-50.541406,-20.208125)">
    <g
       id="line2d_5">
      <path
         d="M 164.01453,290.50981 V 24.397812"
         clip-path="url(#p405a44f149)"
         style="fill:none;stroke:#b0b0b0;stroke-width:0.7;stroke-dasharray:2.59, 1.12;stroke-dashoffset:0;stroke-opacity:0.7"
         id="path10" />
    </g>
    <g
       id="line2d_6">
      <g
         id="g11">
        <use
           xlink:href="#mb0309a6863"
           x="164.01453"
           y="290.50983"
           style="fill:#1a1a1a;stroke:#1a1a1a;stroke-width:0.8"
           id="use11" />
      </g>
    </g>
    <g
       id="text_3">
      <!-- 1.0 -->
      <g
         style="fill:#1a1a1a"
         transform="matrix(0.12,0,0,-0.12,154.47266,303.12794)"
         id="g14">
        <defs
           id="defs11">
          <path
             id="DejaVuSans-31"
             d="M 794,531 H 1825 V 4091 L 703,3866 v 575 l 1116,225 h 631 V 531 H 3481 V 0 H 794 Z"
             transform="scale(0.015625)" />
        </defs>
        <use
           xlink:href="#DejaVuSans-31"
           id="use12" />
        <use
           xlink:href="#DejaVuSans-2e"
           x="63.623047"
           id="use13" />
        <use
           xlink:href="#DejaVuSans-30"
           x="95.410156"
           id="use14" />
      </g>
    </g>
  </g>
  <g
     id="xtick_4"
     transform="translate(-50.541406,-20.208125)">
    <g
       id="line2d_7">
      <path
         d="M 208.65453,290.50981 V 24.397812"
         clip-path="url(#p405a44f149)"
         style="fill:none;stroke:#b0b0b0;stroke-width:0.7;stroke-dasharray:2.59, 1.12;stroke-dashoffset:0;stroke-opacity:0.7"
         id="path14" />
    </g>
    <g
       id="line2d_8">
      <g
         id="g15">
        <use
           xlink:href="#mb0309a6863"
           x="208.65453"
           y="290.50983"
           style="fill:#1a1a1a;stroke:#1a1a1a;stroke-width:0.8"
           id="use15" />
      </g>
    </g>
    <g
       id="text_4">
      <!-- 1.5 -->
      <g
         style="fill:#1a1a1a"
         transform="matrix(0.12,0,0,-0.12,199.11266,303.12794)"
         id="g18">
        <use
           xlink:href="#DejaVuSans-31"
           id="use16" />
        <use
           xlink:href="#DejaVuSans-2e"
           x="63.623047"
           id="use17" />
        <use
           xlink:href="#DejaVuSans-35"
           x="95.410156"
           id="use18" />
      </g>
    </g>
  </g>
  <g
     id="xtick_5"
     transform="translate(-50.541406,-20.208125)">
    <g
       id="line2d_9">
      <path
         d="M 253.29453,290.50981 V 24.397812"
         clip-path="url(#p405a44f149)"
         style="fill:none;stroke:#b0b0b0;stroke-width:0.7;stroke-dasharray:2.59, 1.12;stroke-dashoffset:0;stroke-opacity:0.7"
         id="path18" />
    </g>
    <g
       id="line2d_10">
      <g
         id="g19">
        <use
           xlink:href="#mb0309a6863"
           x="253.29453"
           y="290.50983"
           style="fill:#1a1a1a;stroke:#1a1a1a;stroke-width:0.8"
           id="use19" />
      </g>
    </g>
    <g
       id="text_5">
      <!-- 2.0 -->
      <g
         style="fill:#1a1a1a"
         transform="matrix(0.12,0,0,-0.12,243.75266,303.12794)"
         id="g22">
        <defs
           id="defs19">
          <path
             id="DejaVuSans-32"
             d="M 1228,531 H 3431 V 0 H 469 v 531 q 359,372 979,998 621,627 780,809 303,340 423,576 121,236 121,464 0,372 -261,606 -261,235 -680,235 -297,0 -627,-103 -329,-103 -704,-313 v 638 q 381,153 712,231 332,78 607,78 725,0 1156,-363 431,-362 431,-968 0,-288 -108,-546 -107,-257 -392,-607 -78,-91 -497,-524 Q 1991,1309 1228,531 Z"
             transform="scale(0.015625)" />
        </defs>
        <use
           xlink:href="#DejaVuSans-32"
           id="use20" />
        <use
           xlink:href="#DejaVuSans-2e"
           x="63.623047"
           id="use21" />
        <use
           xlink:href="#DejaVuSans-30"
           x="95.410156"
           id="use22" />
      </g>
    </g>
  </g>
  <g
     id="xtick_6"
     transform="translate(-50.541406,-20.208125)">
    <g
       id="line2d_11">
      <path
         d="M 297.93453,290.50981 V 24.397812"
         clip-path="url(#p405a44f149)"
         style="fill:none;stroke:#b0b0b0;stroke-width:0.7;stroke-dasharray:2.59, 1.12;stroke-dashoffset:0;stroke-opacity:0.7"
         id="path22" />
    </g>
    <g
       id="line2d_12">
      <g
         id="g23">
        <use
           xlink:href="#mb0309a6863"
           x="297.93454"
           y="290.50983"
           style="fill:#1a1a1a;stroke:#1a1a1a;stroke-width:0.8"
           id="use23" />
      </g>
    </g>
    <g
       id="text_6">
      <!-- 2.5 -->
      <g
         style="fill:#1a1a1a"
         transform="matrix(0.12,0,0,-0.12,288.39266,303.12794)"
         id="g26">
        <use
           xlink:href="#DejaVuSans-32"
           id="use24" />
        <use
           xlink:href="#DejaVuSans-2e"
           x="63.623047"
           id="use25" />
        <use
           xlink:href="#DejaVuSans-35"
           x="95.410156"
           id="use26" />
      </g>
    </g>
  </g>
  <g
     id="xtick_7"
     transform="translate(-50.541406,-20.208125)">
    <g
       id="line2d_13">
      <path
         d="M 342.57453,290.50981 V 24.397812"
         clip-path="url(#p405a44f149)"
         style="fill:none;stroke:#b0b0b0;stroke-width:0.7;stroke-dasharray:2.59, 1.12;stroke-dashoffset:0;stroke-opacity:0.7"
         id="path26" />
    </g>
    <g
       id="line2d_14">
      <g
         id="g27">
        <use
           xlink:href="#mb0309a6863"
           x="342.57452"
           y="290.50983"
           style="fill:#1a1a1a;stroke:#1a1a1a;stroke-width:0.8"
           id="use27" />
      </g>
    </g>
    <g
       id="text_7">
      <!-- 3.0 -->
      <g
         style="fill:#1a1a1a"
         transform="matrix(0.12,0,0,-0.12,333.03266,303.12794)"
         id="g30">
        <defs
           id="defs27">
          <path
             id="DejaVuSans-33"
             d="m 2597,2516 q 453,-97 707,-404 255,-306 255,-756 0,-690 -475,-1069 -475,-378 -1350,-378 -293,0 -604,58 -311,58 -642,174 v 609 q 262,-153 574,-231 313,-78 654,-78 593,0 904,234 311,234 311,681 0,413 -289,645 -289,233 -804,233 h -544 v 519 h 569 q 465,0 712,186 247,186 247,536 0,359 -255,551 -254,193 -729,193 -260,0 -557,-57 -297,-56 -653,-174 v 562 q 360,100 674,150 314,50 592,50 719,0 1137,-327 419,-326 419,-882 0,-388 -222,-655 -222,-267 -631,-370 z"
             transform="scale(0.015625)" />
        </defs>
        <use
           xlink:href="#DejaVuSans-33"
           id="use28" />
        <use
           xlink:href="#DejaVuSans-2e"
           x="63.623047"
           id="use29" />
        <use
           xlink:href="#DejaVuSans-30"
           x="95.410156"
           id="use30" />
      </g>
    </g>
  </g>
  <g
     id="text_8"
     transform="translate(-50.541406,-20.208125)">
    <!-- x -->
    <g
       style="fill:#1a1a1a"
       transform="matrix(0.12,0,0,-0.12,205.10328,318.74169)"
       id="g31">
      <defs
         id="defs30">
        <path
           id="DejaVuSans-78"
           d="M 3513,3500 2247,1797 3578,0 H 2900 L 1881,1375 863,0 H 184 L 1544,1831 300,3500 h 678 l 928,-1247 928,1247 z"
           transform="scale(0.015625)" />
      </defs>
      <use
         xlink:href="#DejaVuSans-78"
         id="use31" />
    </g>
  </g>
  <g
     id="ytick_1"
     transform="translate(-50.541406,-20.208125)">
    <g
       id="line2d_15">
      <path
         d="M 74.734531,290.50981 H 342.57453"
         clip-path="url(#p405a44f149)"
         style="fill:none;stroke:#b0b0b0;stroke-width:0.7;stroke-dasharray:2.59, 1.12;stroke-dashoffset:0;stroke-opacity:0.7"
         id="path31" />
    </g>
    <g
       id="line2d_16">
      <defs
         id="defs31">
        <path
           id="m332e14bd93"
           d="M 0,0 H 3.5"
           style="stroke:#1a1a1a;stroke-width:0.8" />
      </defs>
      <g
         id="g32">
        <use
           xlink:href="#m332e14bd93"
           x="74.734528"
           y="290.50983"
           style="fill:#1a1a1a;stroke:#1a1a1a;stroke-width:0.8"
           id="use32" />
      </g>
    </g>
    <g
       id="text_9">
      <!-- 0 -->
      <g
         style="fill:#1a1a1a"
         transform="matrix(0.12,0,0,-0.12,63.599531,295.06887)"
         id="g33">
        <use
           xlink:href="#DejaVuSans-30"
           id="use33" />
      </g>
    </g>
  </g>
  <g
     id="ytick_2"
     transform="translate(-50.541406,-20.208125)">
    <g
       id="line2d_17">
      <path
         d="M 74.734531,237.28741 H 342.57453"
         clip-path="url(#p405a44f149)"
         style="fill:none;stroke:#b0b0b0;stroke-width:0.7;stroke-dasharray:2.59, 1.12;stroke-dashoffset:0;stroke-opacity:0.7"
         id="path33" />
    </g>
    <g
       id="line2d_18">
      <g
         id="g34">
        <use
           xlink:href="#m332e14bd93"
           x="74.734528"
           y="237.28741"
           style="fill:#1a1a1a;stroke:#1a1a1a;stroke-width:0.8"
           id="use34" />
      </g>
    </g>
    <g
       id="text_10">
      <!-- 1 -->
      <g
         style="fill:#1a1a1a"
         transform="matrix(0.12,0,0,-0.12,63.599531,241.84647)"
         id="g35">
        <use
           xlink:href="#DejaVuSans-31"
           id="use35" />
      </g>
    </g>
  </g>
  <g
     id="ytick_3"
     transform="translate(-50.541406,-20.208125)">
    <g
       id="line2d_19">
      <path
         d="M 74.734531,184.06501 H 342.57453"
         clip-path="url(#p405a44f149)"
         style="fill:none;stroke:#b0b0b0;stroke-width:0.7;stroke-dasharray:2.59, 1.12;stroke-dashoffset:0;stroke-opacity:0.7"
         id="path35" />
    </g>
    <g
       id="line2d_20">
      <g
         id="g36">
        <use
           xlink:href="#m332e14bd93"
           x="74.734528"
           y="184.06502"
           style="fill:#1a1a1a;stroke:#1a1a1a;stroke-width:0.8"
           id="use36" />
      </g>
    </g>
    <g
       id="text_11">
      <!-- 2 -->
      <g
         style="fill:#1a1a1a"
         transform="matrix(0.12,0,0,-0.12,63.599531,188.62407)"
         id="g37">
        <use
           xlink:href="#DejaVuSans-32"
           id="use37" />
      </g>
    </g>
  </g>
  <g
     id="ytick_4"
     transform="translate(-50.541406,-20.208125)">
    <g
       id="line2d_21">
      <path
         d="M 74.734531,130.84261 H 342.57453"
         clip-path="url(#p405a44f149)"
         style="fill:none;stroke:#b0b0b0;stroke-width:0.7;stroke-dasharray:2.59, 1.12;stroke-dashoffset:0;stroke-opacity:0.7"
         id="path37" />
    </g>
    <g
       id="line2d_22">
      <g
         id="g38">
        <use
           xlink:href="#m332e14bd93"
           x="74.734528"
           y="130.84261"
           style="fill:#1a1a1a;stroke:#1a1a1a;stroke-width:0.8"
           id="use38" />
      </g>
    </g>
    <g
       id="text_12">
      <!-- 3 -->
      <g
         style="fill:#1a1a1a"
         transform="matrix(0.12,0,0,-0.12,63.599531,135.40167)"
         id="g39">
        <use
           xlink:href="#DejaVuSans-33"
           id="use39" />
      </g>
    </g>
  </g>
  <g
     id="ytick_5"
     transform="translate(-50.541406,-20.208125)">
    <g
       id="line2d_23">
      <path
         d="M 74.734531,77.620212 H 342.57453"
         clip-path="url(#p405a44f149)"
         style="fill:none;stroke:#b0b0b0;stroke-width:0.7;stroke-dasharray:2.59, 1.12;stroke-dashoffset:0;stroke-opacity:0.7"
         id="path39" />
    </g>
    <g
       id="line2d_24">
      <g
         id="g40">
        <use
           xlink:href="#m332e14bd93"
           x="74.734528"
           y="77.620209"
           style="fill:#1a1a1a;stroke:#1a1a1a;stroke-width:0.8"
           id="use40" />
      </g>
    </g>
    <g
       id="text_13">
      <!-- 4 -->
      <g
         style="fill:#1a1a1a"
         transform="matrix(0.12,0,0,-0.12,63.599531,82.179275)"
         id="g41">
        <defs
           id="defs40">
          <path
             id="DejaVuSans-34"
             d="M 2419,4116 825,1625 h 1594 z m -166,550 h 794 V 1625 h 666 V 1100 H 3047 V 0 H 2419 V 1100 H 313 v 609 z"
             transform="scale(0.015625)" />
        </defs>
        <use
           xlink:href="#DejaVuSans-34"
           id="use41" />
      </g>
    </g>
  </g>
  <g
     id="ytick_6"
     transform="translate(-50.541406,-20.208125)">
    <g
       id="line2d_25">
      <path
         d="M 74.734531,24.397812 H 342.57453"
         clip-path="url(#p405a44f149)"
         style="fill:none;stroke:#b0b0b0;stroke-width:0.7;stroke-dasharray:2.59, 1.12;stroke-dashoffset:0;stroke-opacity:0.7"
         id="path41" />
    </g>
    <g
       id="line2d_26">
      <g
         id="g42">
        <use
           xlink:href="#m332e14bd93"
           x="74.734528"
           y="24.397812"
           style="fill:#1a1a1a;stroke:#1a1a1a;stroke-width:0.8"
           id="use42" />
      </g>
    </g>
    <g
       id="text_14">
      <!-- 5 -->
      <g
         style="fill:#1a1a1a"
         transform="matrix(0.12,0,0,-0.12,63.599531,28.956875)"
         id="g43">
        <use
           xlink:href="#DejaVuSans-35"
           id="use43" />
      </g>
    </g>
  </g>
  <g
     id="text_15"
     transform="translate(-50.541406,-20.208125)">
    <!-- y -->
    <g
       style="fill:#1a1a1a"
       transform="matrix(0,-0.12,-0.12,0,57.103906,161.00506)"
       id="g44">
      <defs
         id="defs43">
        <path
           id="DejaVuSans-79"
           d="m 2059,-325 q -243,-625 -475,-815 -231,-191 -618,-191 H 506 v 481 h 338 q 237,0 368,113 132,112 291,531 L 1606,56 191,3500 H 800 L 1894,763 2988,3500 h 609 z"
           transform="scale(0.015625)" />
      </defs>
      <use
         xlink:href="#DejaVuSans-79"
         id="use44" />
    </g>
  </g>
  <path
     d="M 164.01453,237.28741"
     clip-path="url(#p405a44f149)"
     style="fill:none;stroke:#ff0000;stroke-width:1.5;stroke-linecap:square"
     id="path44"
     transform="translate(-50.541406,-20.208125)" />
  <g
     clip-path="url(#p405a44f149)"
     id="g45"
     transform="translate(-50.541406,-20.208125)">
    <use
       xlink:href="#ma4ec53129b"
       x="164.01453"
       y="237.28741"
       style="fill:#ff0000"
       id="use45" />
  </g>
  <path
     d="M 253.29453,77.620212"
     clip-path="url(#p405a44f149)"
     style="fill:none;stroke:#0000ff;stroke-width:1.5;stroke-linecap:square"
     id="path45"
     transform="translate(-50.541406,-20.208125)" />
  <g
     clip-path="url(#p405a44f149)"
     id="g46"
     transform="translate(-50.541406,-20.208125)">
    <use
       xlink:href="#m3813ee2cf7"
       x="253.29453"
       y="77.620209"
       style="fill:#0000ff"
       id="use46" />
  </g>
  <path
     d="m 164.01453,237.28741 89.28,-159.667198"
     clip-path="url(#p405a44f149)"
     style="fill:none;stroke:#000000;stroke-width:1.5;stroke-linecap:square"
     id="path46"
     transform="translate(-50.541406,-20.208125)" />
  <path
     d="M 74.734531,290.50981 H 342.57453"
     clip-path="url(#p405a44f149)"
     style="fill:none;stroke:#000000;stroke-linecap:square"
     id="path47"
     transform="translate(-50.541406,-20.208125)" />
  <path
     d="M 74.734531,290.50981 V 24.397812"
     clip-path="url(#p405a44f149)"
     style="fill:none;stroke:#000000;stroke-linecap:square"
     id="path48"
     transform="translate(-50.541406,-20.208125)" />
  <path
     d="M 24.193125,270.30168 V 4.189687"
     style="fill:none;stroke:#1a1a1a;stroke-linecap:square;stroke-linejoin:miter"
     id="path49" />
  <path
     d="M 24.193125,270.30168 H 292.03312"
     style="fill:none;stroke:#1a1a1a;stroke-linecap:square;stroke-linejoin:miter"
     id="path50" />
  <g
     id="patch_5"
     transform="translate(-50.541406,-24.708125)">
    <path
       d="m 212.28703,76.432187 h 123.2875 q 2,0 2,-2 V 31.397812 q 0,-2 -2,-2 h -123.2875 q -2,0 -2,2 v 43.034375 q 0,2 2,2 z"
       style="opacity:0.8;fill:#ffffff;stroke:#cccccc;stroke-linejoin:miter"
       id="path106" />
  </g>
  <g
     id="line2d_32"
     transform="translate(-50.541406,-20.208125)">
    <path
       d="m 214.28703,37.49625 h 10 10"
       style="fill:none;stroke:#ff0000;stroke-width:1.5;stroke-linecap:square"
       id="path107" />
    <g
       id="g107">
      <use
         xlink:href="#ma4ec53129b"
         x="224.28703"
         y="37.49625"
         style="fill:#ff0000"
         id="use107" />
    </g>
  </g>
  <g
     id="text_17"
     transform="translate(-50.541406,-20.208125)">
    <!-- (1,1) -->
    <g
       style="fill:#333333"
       transform="matrix(0.1,0,0,-0.1,242.28703,40.99625)"
       id="g112">
      <use
         xlink:href="#DejaVuSans-28"
         id="use108" />
      <use
         xlink:href="#DejaVuSans-31"
         x="39.013672"
         id="use109" />
      <use
         xlink:href="#DejaVuSans-2c"
         x="102.63672"
         id="use110" />
      <use
         xlink:href="#DejaVuSans-31"
         x="134.42383"
         id="use111" />
      <use
         xlink:href="#DejaVuSans-29"
         x="198.04688"
         id="use112" />
    </g>
  </g>
  <g
     id="line2d_33"
     transform="translate(-50.541406,-20.208125)">
    <path
       d="m 214.28703,52.174375 h 10 10"
       style="fill:none;stroke:#0000ff;stroke-width:1.5;stroke-linecap:square"
       id="path112" />
    <g
       id="g113">
      <use
         xlink:href="#m3813ee2cf7"
         x="224.28703"
         y="52.174374"
         style="fill:#0000ff"
         id="use113" />
    </g>
  </g>
  <g
     id="text_18"
     transform="translate(-50.541406,-20.208125)">
    <!-- (2,4) -->
    <g
       style="fill:#333333"
       transform="matrix(0.1,0,0,-0.1,242.28703,55.674375)"
       id="g118">
      <use
         xlink:href="#DejaVuSans-28"
         id="use114" />
      <use
         xlink:href="#DejaVuSans-32"
         x="39.013672"
         id="use115" />
      <use
         xlink:href="#DejaVuSans-2c"
         x="102.63672"
         id="use116" />
      <use
         xlink:href="#DejaVuSans-34"
         x="134.42383"
         id="use117" />
      <use
         xlink:href="#DejaVuSans-29"
         x="198.04688"
         id="use118" />
    </g>
  </g>
  <g
     id="line2d_34"
     transform="translate(-50.541406,-20.208125)">
    <path
       d="m 214.28703,66.8525 h 10 10"
       style="fill:none;stroke:#000000;stroke-width:1.5;stroke-linecap:square"
       id="path118" />
  </g>
  <g
     id="text_19"
     transform="translate(-50.541406,-20.208125)">
    <!-- Camino más corto -->
    <g
       style="fill:#333333"
       transform="matrix(0.1,0,0,-0.1,242.28703,70.3525)"
       id="g134">
      <use
         xlink:href="#DejaVuSans-43"
         id="use119" />
      <use
         xlink:href="#DejaVuSans-61"
         x="69.824219"
         id="use120" />
      <use
         xlink:href="#DejaVuSans-6d"
         x="131.10352"
         id="use121" />
      <use
         xlink:href="#DejaVuSans-69"
         x="228.51562"
         id="use122" />
      <use
         xlink:href="#DejaVuSans-6e"
         x="256.29883"
         id="use123" />
      <use
         xlink:href="#DejaVuSans-6f"
         x="319.67773"
         id="use124" />
      <use
         xlink:href="#DejaVuSans-20"
         x="380.85938"
         id="use125" />
      <use
         xlink:href="#DejaVuSans-6d"
         x="412.64648"
         id="use126" />
      <use
         xlink:href="#DejaVuSans-e1"
         x="510.05859"
         id="use127" />
      <use
         xlink:href="#DejaVuSans-73"
         x="571.33789"
         id="use128" />
      <use
         xlink:href="#DejaVuSans-20"
         x="623.4375"
         id="use129" />
      <use
         xlink:href="#DejaVuSans-63"
         x="655.22461"
         id="use130" />
      <use
         xlink:href="#DejaVuSans-6f"
         x="710.20508"
         id="use131" />
      <use
         xlink:href="#DejaVuSans-72"
         x="771.38672"
         id="use132" />
      <use
         xlink:href="#DejaVuSans-74"
         x="812.5"
         id="use133" />
      <use
         xlink:href="#DejaVuSans-6f"
         x="851.70898"
         id="use134" />
    </g>
  </g>
  <defs
     id="defs134">
    <clipPath
       id="p405a44f149">
      <rect
         x="74.734528"
         y="24.397812"
         width="267.84"
         height="266.112"
         id="rect134" />
    </clipPath>
  </defs>
</svg>
