<?xml version="1.0" encoding="UTF-8"?>
<svg xmlns="http://www.w3.org/2000/svg" xmlns:xlink="http://www.w3.org/1999/xlink" width="290" height="146.767837" viewBox="0 0 290 146.767837">
<path fill="none" stroke-width="1.16183" stroke-linecap="butt" stroke-linejoin="miter" stroke="rgb(52.941176%, 52.941176%, 54.901961%)" stroke-opacity="1" stroke-miterlimit="4" d="M 71.382442 44.503336 L 141.180715 44.503336 L 141.180715 61.699178 L 71.382442 61.699178 Z M 71.382442 44.503336 " transform="matrix(1.358659, 0, 0, 1.358659, 0, 0)"/>
<path fill-rule="nonzero" fill="rgb(0%, 0%, 0%)" fill-opacity="1" d="M 106.230469 77.347656 L 106.230469 65.648438 L 111.496094 65.648438 C 112.429688 65.648438 113.199219 65.835938 113.820312 66.203125 C 114.457031 66.574219 114.902344 67.027344 115.152344 67.582031 C 115.40625 68.125 115.535156 68.726562 115.535156 69.40625 C 115.535156 70.074219 115.40625 70.679688 115.152344 71.234375 C 114.902344 71.773438 114.457031 72.222656 113.820312 72.589844 C 113.199219 72.964844 112.429688 73.144531 111.496094 73.144531 L 108.808594 73.144531 L 108.808594 77.347656 Z M 108.808594 67.644531 L 108.808594 71.148438 L 110.800781 71.148438 C 111.488281 71.148438 112.035156 71.03125 112.445312 70.789062 C 112.855469 70.53125 113.0625 70.074219 113.0625 69.40625 C 113.0625 68.726562 112.855469 68.269531 112.445312 68.027344 C 112.035156 67.773438 111.488281 67.644531 110.800781 67.644531 Z M 108.808594 67.644531 "/>
<path fill-rule="nonzero" fill="rgb(0%, 0%, 0%)" fill-opacity="1" d="M 117.136719 77.347656 L 117.136719 65.648438 L 122.167969 65.648438 C 123.757812 65.648438 125.039062 66.148438 126.015625 67.136719 C 126.984375 68.128906 127.472656 69.554688 127.472656 71.425781 C 127.472656 73.199219 127.019531 74.625 126.121094 75.714844 C 125.214844 76.804688 123.898438 77.347656 122.167969 77.347656 Z M 119.714844 67.8125 L 119.714844 75.179688 L 121.996094 75.179688 C 122.828125 75.179688 123.519531 74.902344 124.070312 74.332031 C 124.628906 73.769531 124.914062 72.886719 124.914062 71.679688 C 124.914062 70.421875 124.652344 69.46875 124.132812 68.816406 C 123.625 68.148438 122.757812 67.8125 121.53125 67.8125 Z M 119.714844 67.8125 "/>
<path fill-rule="nonzero" fill="rgb(0%, 0%, 0%)" fill-opacity="1" d="M 129.246094 77.347656 L 129.246094 65.648438 L 137.449219 65.648438 L 137.449219 67.8125 L 131.824219 67.8125 L 131.824219 70.511719 L 136.707031 70.511719 L 136.707031 72.507812 L 131.824219 72.507812 L 131.824219 77.347656 Z M 129.246094 77.347656 "/>
<path fill-rule="nonzero" fill="rgb(0%, 0%, 0%)" fill-opacity="1" d="M 138.941406 77.347656 L 138.941406 65.648438 L 141.519531 65.648438 L 141.519531 75.179688 L 147.207031 75.179688 L 147.207031 77.347656 Z M 138.941406 77.347656 "/>
<path fill-rule="nonzero" fill="rgb(0%, 0%, 0%)" fill-opacity="1" d="M 153.664062 74.078125 L 153.664062 73.207031 C 153.558594 73.28125 153.429688 73.347656 153.261719 73.421875 C 153.101562 73.476562 152.953125 73.519531 152.816406 73.546875 C 152.6875 73.566406 152.503906 73.582031 152.265625 73.609375 C 152.023438 73.644531 151.847656 73.671875 151.71875 73.695312 C 151.292969 73.78125 150.960938 73.917969 150.722656 74.101562 C 150.480469 74.269531 150.367188 74.554688 150.367188 74.945312 C 150.367188 75.660156 150.832031 76.011719 151.78125 76.011719 C 153.03125 76.011719 153.664062 75.371094 153.664062 74.078125 Z M 150.617188 71.488281 L 148.292969 71.488281 C 148.359375 70.484375 148.769531 69.761719 149.519531 69.324219 C 150.265625 68.871094 151.175781 68.644531 152.265625 68.644531 C 154.730469 68.644531 155.964844 69.449219 155.964844 71.066406 L 155.964844 75.457031 C 155.964844 76.410156 156.058594 77.039062 156.265625 77.347656 L 153.914062 77.347656 C 153.816406 77.039062 153.757812 76.761719 153.746094 76.519531 C 153.082031 77.230469 152.140625 77.582031 150.914062 77.582031 C 150.050781 77.582031 149.355469 77.367188 148.820312 76.945312 C 148.296875 76.511719 148.039062 75.871094 148.039062 75.035156 C 148.039062 74.585938 148.113281 74.195312 148.269531 73.867188 C 148.425781 73.527344 148.652344 73.269531 148.949219 73.101562 C 149.246094 72.921875 149.539062 72.785156 149.835938 72.699219 C 150.132812 72.601562 150.492188 72.523438 150.914062 72.464844 C 151.066406 72.441406 151.265625 72.417969 151.507812 72.402344 C 151.742188 72.375 151.933594 72.347656 152.078125 72.316406 C 152.210938 72.289062 152.378906 72.261719 152.5625 72.230469 C 152.761719 72.207031 152.910156 72.167969 153.027344 72.125 C 153.136719 72.082031 153.242188 72.027344 153.34375 71.957031 C 153.453125 71.882812 153.535156 71.800781 153.578125 71.699219 C 153.632812 71.605469 153.664062 71.484375 153.664062 71.339844 C 153.664062 70.886719 153.527344 70.585938 153.261719 70.425781 C 153.003906 70.273438 152.636719 70.191406 152.160156 70.191406 C 151.199219 70.191406 150.6875 70.628906 150.617188 71.488281 Z M 150.617188 71.488281 "/>
<path fill-rule="nonzero" fill="rgb(0%, 0%, 0%)" fill-opacity="1" d="M 160.589844 77.347656 L 160.589844 67.8125 L 157.101562 67.8125 L 157.101562 65.648438 L 166.660156 65.648438 L 166.660156 67.8125 L 163.171875 67.8125 L 163.171875 77.347656 Z M 160.589844 77.347656 "/>
<path fill-rule="nonzero" fill="rgb(0%, 0%, 0%)" fill-opacity="1" d="M 173.964844 73.675781 L 167.855469 73.675781 C 167.925781 75.109375 168.617188 75.820312 169.925781 75.820312 C 170.375 75.820312 170.777344 75.714844 171.128906 75.503906 C 171.480469 75.277344 171.691406 75.011719 171.765625 74.714844 L 173.816406 74.714844 C 173.179688 76.628906 171.855469 77.582031 169.84375 77.582031 C 168.53125 77.582031 167.480469 77.171875 166.691406 76.351562 C 165.914062 75.515625 165.53125 74.441406 165.53125 73.121094 C 165.53125 71.839844 165.929688 70.765625 166.734375 69.917969 C 167.539062 69.066406 168.574219 68.644531 169.84375 68.644531 C 171.222656 68.644531 172.273438 69.144531 172.992188 70.128906 C 173.71875 71.105469 174.050781 72.289062 173.964844 73.675781 Z M 167.855469 72.210938 L 171.640625 72.210938 C 171.523438 71.589844 171.324219 71.136719 171.023438 70.851562 C 170.742188 70.554688 170.328125 70.402344 169.777344 70.402344 C 169.128906 70.402344 168.648438 70.597656 168.339844 70.976562 C 168.046875 71.359375 167.882812 71.773438 167.855469 72.210938 Z M 167.855469 72.210938 "/>
<path fill-rule="nonzero" fill="rgb(0%, 0%, 0%)" fill-opacity="1" d="M 174.339844 77.347656 L 178.441406 71.210938 L 174.679688 65.648438 L 177.660156 65.648438 L 179.945312 69.386719 L 182.3125 65.648438 L 185.121094 65.648438 L 181.378906 71.234375 L 185.4375 77.347656 L 182.394531 77.347656 L 179.835938 73.292969 L 177.234375 77.347656 Z M 174.339844 77.347656 "/>
<path fill="none" stroke-width="1.25197" stroke-linecap="butt" stroke-linejoin="miter" stroke="rgb(52.941176%, 52.941176%, 54.901961%)" stroke-opacity="1" stroke-miterlimit="4" d="M 44.046198 52.093542 C 64.255123 52.093542 64.255123 52.093542 64.255123 52.093542 " transform="matrix(1.358659, 0, 0, 1.358659, 0, 0)"/>
<path fill-rule="evenodd" fill="rgb(52.941176%, 52.941176%, 54.901961%)" fill-opacity="1" d="M 84.929688 66.023438 L 97.980469 70.777344 L 84.929688 75.542969 C 87.300781 72.769531 87.300781 68.804688 84.929688 66.023438 Z M 84.929688 66.023438 "/>
<path fill="none" stroke-width="1.23917" stroke-linecap="butt" stroke-linejoin="miter" stroke="rgb(52.941176%, 52.941176%, 54.901961%)" stroke-opacity="1" stroke-miterlimit="4" d="M 141.108838 52.487428 C 160.909502 52.487428 160.909502 52.487428 160.909502 52.487428 " transform="matrix(1.358659, 0, 0, 1.358659, 0, 0)"/>
<path fill-rule="evenodd" fill="rgb(52.941176%, 52.941176%, 54.901961%)" fill-opacity="1" d="M 216.269531 66.59375 L 229.195312 71.3125 L 216.269531 76.027344 C 218.621094 73.277344 218.621094 69.355469 216.269531 66.59375 Z M 216.269531 66.59375 "/>
<path fill="none" stroke-width="1.46871" stroke-linecap="butt" stroke-linejoin="miter" stroke="rgb(50.196078%, 50.196078%, 50.196078%)" stroke-opacity="1" stroke-miterlimit="4" d="M 3.441918 23.729518 L 42.614716 23.729518 C 43.697475 23.729518 44.57812 24.606381 44.57812 25.687368 L 44.57812 77.732834 C 44.57812 78.816695 43.697475 79.693559 42.614716 79.693559 L 3.441918 79.693559 C 2.359158 79.693559 1.481401 78.816695 1.481401 77.732834 L 1.481401 25.687368 C 1.481401 24.606381 2.359158 23.729518 3.441918 23.729518 Z M 3.441918 23.729518 " transform="matrix(1.35288, 0, 0, 1.358713, 0.120842, -1.722069)"/>
<path fill="none" stroke-width="2" stroke-linecap="butt" stroke-linejoin="miter" stroke="rgb(50.196078%, 50.196078%, 50.196078%)" stroke-opacity="1" stroke-miterlimit="4" d="M 7.524643 35.416245 C 25.827611 35.416245 25.827611 35.416245 25.827611 35.416245 " transform="matrix(1.35288, 0, 0, 1.358713, 0.120842, -1.722069)"/>
<path fill="none" stroke-width="2" stroke-linecap="butt" stroke-linejoin="miter" stroke="rgb(50.196078%, 50.196078%, 50.196078%)" stroke-opacity="1" stroke-miterlimit="4" d="M 7.524643 42.117785 C 31.21831 42.117785 31.21831 42.117785 31.21831 42.117785 " transform="matrix(1.35288, 0, 0, 1.358713, 0.120842, -1.722069)"/>
<path fill="none" stroke-width="2" stroke-linecap="butt" stroke-linejoin="miter" stroke="rgb(50.196078%, 50.196078%, 50.196078%)" stroke-opacity="1" stroke-miterlimit="4" d="M 7.686335 48.491579 C 37.426132 48.491579 37.426132 48.491579 37.426132 48.491579 " transform="matrix(1.35288, 0, 0, 1.358713, 0.120842, -1.722069)"/>
<path fill="none" stroke-width="2" stroke-linecap="butt" stroke-linejoin="miter" stroke="rgb(50.196078%, 50.196078%, 50.196078%)" stroke-opacity="1" stroke-miterlimit="4" d="M 32.087405 23.706518 L 31.599442 35.370245 L 44.630092 35.370245 " transform="matrix(1.35288, 0, 0, 1.358713, 0.120842, -1.722069)"/>
<path fill="none" stroke-width="2" stroke-linecap="butt" stroke-linejoin="miter" stroke="rgb(50.196078%, 50.196078%, 50.196078%)" stroke-opacity="1" stroke-miterlimit="4" d="M 32.690863 23.833016 L 44.601219 35.220747 " transform="matrix(1.35288, 0, 0, 1.358713, 0.120842, -1.722069)"/>
<path fill-rule="nonzero" fill="rgb(0%, 0%, 0%)" fill-opacity="1" d="M 10.929688 84.386719 L 10.929688 83.410156 L 10.90625 83.410156 C 10.441406 84.207031 9.667969 84.597656 8.582031 84.597656 C 7.484375 84.597656 6.628906 84.195312 6.023438 83.390625 C 5.414062 82.582031 5.117188 81.605469 5.117188 80.460938 C 5.117188 79.347656 5.414062 78.398438 6.023438 77.636719 C 6.628906 76.863281 7.460938 76.46875 8.519531 76.46875 C 8.996094 76.46875 9.4375 76.566406 9.851562 76.761719 C 10.253906 76.96875 10.574219 77.246094 10.800781 77.613281 L 10.820312 77.613281 L 10.820312 73.726562 L 12.9375 73.726562 L 12.9375 84.386719 Z M 10.90625 80.5 C 10.90625 79.796875 10.757812 79.21875 10.464844 78.761719 C 10.175781 78.292969 9.722656 78.058594 9.089844 78.058594 C 8.453125 78.058594 7.980469 78.292969 7.671875 78.761719 C 7.378906 79.230469 7.226562 79.816406 7.226562 80.523438 C 7.226562 81.199219 7.382812 81.792969 7.695312 82.285156 C 8.015625 82.765625 8.480469 83.003906 9.089844 83.003906 C 9.734375 83.003906 10.199219 82.773438 10.480469 82.304688 C 10.765625 81.839844 10.90625 81.238281 10.90625 80.5 Z M 14.304688 80.542969 C 14.304688 79.300781 14.667969 78.308594 15.382812 77.570312 C 16.101562 76.839844 17.054688 76.46875 18.257812 76.46875 C 19.46875 76.46875 20.4375 76.839844 21.152344 77.570312 C 21.882812 78.308594 22.253906 79.300781 22.253906 80.542969 C 22.253906 81.761719 21.882812 82.75 21.152344 83.496094 C 20.4375 84.230469 19.46875 84.597656 18.257812 84.597656 C 17.054688 84.597656 16.101562 84.230469 15.382812 83.496094 C 14.667969 82.75 14.304688 81.761719 14.304688 80.542969 Z M 16.839844 78.785156 C 16.558594 79.246094 16.417969 79.835938 16.417969 80.542969 C 16.417969 81.257812 16.558594 81.839844 16.839844 82.304688 C 17.136719 82.773438 17.609375 83.003906 18.257812 83.003906 C 18.933594 83.003906 19.410156 82.773438 19.695312 82.304688 C 19.992188 81.839844 20.136719 81.257812 20.136719 80.542969 C 20.136719 79.835938 19.992188 79.246094 19.695312 78.785156 C 19.410156 78.304688 18.933594 78.058594 18.257812 78.058594 C 17.609375 78.058594 17.136719 78.304688 16.839844 78.785156 Z M 30.910156 79.375 L 28.835938 79.375 C 28.710938 78.5 28.191406 78.058594 27.292969 78.058594 C 26.671875 78.058594 26.21875 78.316406 25.921875 78.824219 C 25.636719 79.324219 25.5 79.902344 25.5 80.566406 C 25.5 81.21875 25.636719 81.792969 25.921875 82.285156 C 26.203125 82.765625 26.640625 83.003906 27.234375 83.003906 C 27.707031 83.003906 28.085938 82.867188 28.375 82.582031 C 28.667969 82.300781 28.847656 81.917969 28.921875 81.433594 L 30.953125 81.433594 C 30.824219 82.453125 30.425781 83.238281 29.765625 83.789062 C 29.117188 84.335938 28.277344 84.597656 27.25 84.597656 C 26.113281 84.597656 25.183594 84.230469 24.460938 83.496094 C 23.742188 82.761719 23.386719 81.8125 23.386719 80.648438 C 23.386719 79.40625 23.730469 78.398438 24.417969 77.636719 C 25.121094 76.863281 26.078125 76.46875 27.292969 76.46875 C 28.265625 76.46875 29.097656 76.722656 29.789062 77.230469 C 30.476562 77.730469 30.851562 78.445312 30.910156 79.375 Z M 32.234375 84.386719 L 32.234375 82.09375 L 34.582031 82.09375 L 34.582031 84.386719 Z M 38.96875 74.367188 L 38.96875 76.679688 L 40.511719 76.679688 L 40.511719 78.082031 L 38.96875 78.082031 L 38.96875 81.902344 C 38.96875 82.273438 39.023438 82.515625 39.136719 82.625 C 39.25 82.742188 39.484375 82.792969 39.855469 82.792969 C 40.09375 82.792969 40.308594 82.78125 40.511719 82.753906 L 40.511719 84.40625 C 40.214844 84.449219 39.800781 84.46875 39.261719 84.46875 C 38.515625 84.46875 37.921875 84.34375 37.488281 84.089844 C 37.066406 83.835938 36.855469 83.355469 36.855469 82.644531 L 36.855469 78.082031 L 35.566406 78.082031 L 35.566406 76.679688 L 36.855469 76.679688 L 36.855469 74.367188 Z M 48.792969 81.050781 L 43.253906 81.050781 C 43.308594 82.359375 43.9375 83.003906 45.136719 83.003906 C 45.542969 83.003906 45.902344 82.910156 46.214844 82.710938 C 46.535156 82.496094 46.730469 82.265625 46.804688 82.007812 L 48.664062 82.007812 C 48.097656 83.738281 46.902344 84.597656 45.070312 84.597656 C 43.875 84.597656 42.914062 84.226562 42.199219 83.472656 C 41.492188 82.726562 41.140625 81.746094 41.140625 80.542969 C 41.140625 79.371094 41.507812 78.398438 42.238281 77.636719 C 42.96875 76.863281 43.914062 76.46875 45.070312 76.46875 C 46.324219 76.46875 47.277344 76.914062 47.925781 77.804688 C 48.585938 78.695312 48.878906 79.78125 48.792969 81.050781 Z M 43.253906 79.691406 L 46.699219 79.691406 C 46.601562 79.140625 46.414062 78.734375 46.152344 78.460938 C 45.882812 78.199219 45.5 78.058594 45.011719 78.058594 C 44.417969 78.058594 43.980469 78.238281 43.699219 78.589844 C 43.429688 78.929688 43.28125 79.300781 43.253906 79.691406 Z M 49.246094 84.386719 L 52.015625 80.332031 L 49.480469 76.679688 L 51.890625 76.679688 L 53.242188 78.675781 L 54.574219 76.679688 L 56.921875 76.679688 L 54.382812 80.289062 L 57.238281 84.386719 L 54.828125 84.386719 L 53.21875 81.945312 L 51.613281 84.386719 Z M 4.648438 73.722656 "/>
<path fill-rule="nonzero" fill="rgb(100%, 100%, 100%)" fill-opacity="0.94902" stroke-width="1.46871" stroke-linecap="butt" stroke-linejoin="miter" stroke="rgb(31.372549%, 65.882353%, 84.705882%)" stroke-opacity="1" stroke-miterlimit="4" d="M 32.937462 127.184801 L 72.11026 127.184801 C 73.193019 127.184801 74.070776 128.061665 74.070776 129.145527 L 74.070776 181.190993 C 74.070776 182.274854 73.193019 183.151718 72.11026 183.151718 L 32.937462 183.151718 C 31.854702 183.151718 30.976945 182.274854 30.976945 181.190993 L 30.976945 129.145527 C 30.976945 128.061665 31.854702 127.184801 32.937462 127.184801 Z M 32.937462 127.184801 " transform="matrix(1.35288, 0, 0, 1.358713, 187.599724, -141.471687)"/>
<path fill="none" stroke-width="2" stroke-linecap="butt" stroke-linejoin="miter" stroke="rgb(28.627451%, 61.960784%, 81.176471%)" stroke-opacity="1" stroke-miterlimit="4" d="M 37.020187 138.874403 C 55.320268 138.874403 55.320268 138.874403 55.320268 138.874403 " transform="matrix(1.35288, 0, 0, 1.358713, 187.599724, -141.471687)"/>
<path fill="none" stroke-width="2" stroke-linecap="butt" stroke-linejoin="miter" stroke="rgb(31.372549%, 65.490196%, 84.705882%)" stroke-opacity="1" stroke-miterlimit="4" d="M 37.020187 145.575944 C 60.710967 145.575944 60.710967 145.575944 60.710967 145.575944 " transform="matrix(1.35288, 0, 0, 1.358713, 187.599724, -141.471687)"/>
<path fill="none" stroke-width="2" stroke-linecap="butt" stroke-linejoin="miter" stroke="rgb(30.980392%, 65.098039%, 84.313725%)" stroke-opacity="1" stroke-miterlimit="4" d="M 37.181879 151.946863 C 66.921676 151.946863 66.921676 151.946863 66.921676 151.946863 " transform="matrix(1.35288, 0, 0, 1.358713, 187.599724, -141.471687)"/>
<path fill-rule="nonzero" fill="rgb(100%, 100%, 100%)" fill-opacity="0.847059" stroke-width="2" stroke-linecap="butt" stroke-linejoin="miter" stroke="rgb(30.196078%, 63.921569%, 82.745098%)" stroke-opacity="1" stroke-miterlimit="4" d="M 61.582949 127.161802 L 61.089211 138.828404 L 74.125636 138.828404 " transform="matrix(1.35288, 0, 0, 1.358713, 187.599724, -141.471687)"/>
<path fill-rule="nonzero" fill="rgb(0%, 0%, 100%)" fill-opacity="0.341176" stroke-width="2.14949" stroke-linecap="butt" stroke-linejoin="miter" stroke="rgb(28.627451%, 61.960784%, 80.784314%)" stroke-opacity="1" stroke-miterlimit="4" d="M 61.25379 126.854181 L 74.20937 138.949152 " transform="matrix(1.35288, 0, 0, 1.358713, 187.599724, -141.471687)"/>
<path fill-rule="nonzero" fill="rgb(30.980392%, 65.490196%, 84.705882%)" fill-opacity="0.996078" d="M 235.511719 94.410156 L 235.511719 73.238281 L 242.914062 73.238281 C 244.207031 73.238281 245.292969 73.574219 246.164062 74.25 C 247.046875 74.925781 247.671875 75.757812 248.03125 76.734375 C 248.390625 77.714844 248.578125 78.820312 248.578125 80.035156 C 248.578125 81.261719 248.390625 82.363281 248.03125 83.339844 C 247.671875 84.324219 247.046875 85.148438 246.164062 85.824219 C 245.292969 86.488281 244.207031 86.816406 242.914062 86.816406 L 239.117188 86.816406 L 239.117188 94.410156 Z M 239.117188 76.855469 L 239.117188 83.199219 L 241.921875 83.199219 C 242.894531 83.199219 243.660156 82.980469 244.222656 82.542969 C 244.789062 82.097656 245.082031 81.261719 245.082031 80.035156 C 245.082031 78.820312 244.789062 77.984375 244.222656 77.53125 C 243.660156 77.085938 242.894531 76.855469 241.921875 76.855469 Z M 250.828125 94.410156 L 250.828125 73.238281 L 257.890625 73.238281 C 260.121094 73.238281 261.917969 74.144531 263.292969 75.9375 C 264.664062 77.722656 265.351562 80.316406 265.351562 83.703125 C 265.351562 86.90625 264.710938 89.492188 263.441406 91.46875 C 262.171875 93.433594 260.320312 94.410156 257.890625 94.410156 Z M 254.433594 77.167969 L 254.433594 90.503906 L 257.652344 90.503906 C 258.804688 90.503906 259.78125 89.992188 260.566406 88.960938 C 261.351562 87.9375 261.738281 86.332031 261.738281 84.160156 C 261.738281 81.882812 261.378906 80.144531 260.65625 78.953125 C 259.933594 77.765625 258.714844 77.167969 256.992188 77.167969 Z M 267.84375 94.410156 L 267.84375 73.238281 L 279.375 73.238281 L 279.375 77.167969 L 271.453125 77.167969 L 271.453125 82.066406 L 278.308594 82.066406 L 278.308594 85.65625 L 271.453125 85.65625 L 271.453125 94.410156 Z M 233.925781 73.253906 "/>
</svg>
