<?xml version="1.0" encoding="UTF-8"?>
<svg xmlns="http://www.w3.org/2000/svg" xmlns:xlink="http://www.w3.org/1999/xlink" width="300" height="126.761021" viewBox="0 0 300 126.761021">
<defs>
<clipPath id="clip-0">
<path clip-rule="nonzero" d="M 229 105 L 271 105 L 271 112 L 229 112 Z M 229 105 "/>
</clipPath>
<clipPath id="clip-1">
<path clip-rule="nonzero" d="M 203.613281 91.730469 L 288.878906 91.730469 C 290.273438 91.730469 291.402344 93.144531 291.402344 94.898438 L 291.402344 108.539062 C 291.402344 110.292969 290.273438 111.707031 288.878906 111.707031 L 203.613281 111.707031 C 202.222656 111.707031 201.09375 110.292969 201.09375 108.539062 L 201.09375 94.898438 C 201.09375 93.144531 202.222656 91.730469 203.613281 91.730469 Z M 203.613281 91.730469 "/>
</clipPath>
</defs>
<path fill="none" stroke-width="1.54051" stroke-linecap="butt" stroke-linejoin="miter" stroke="rgb(52.941176%, 52.941176%, 54.901961%)" stroke-opacity="1" stroke-miterlimit="4" d="M 64.354546 44.671746 L 157.185412 44.671746 L 157.185412 67.47149 L 64.354546 67.47149 Z M 64.354546 44.671746 " transform="matrix(1.170518, 0, 0, 1.170518, 0, 0)"/>
<path fill="none" stroke-width="0.89357" stroke-linecap="butt" stroke-linejoin="miter" stroke="rgb(52.941176%, 52.941176%, 54.901961%)" stroke-opacity="1" stroke-miterlimit="4" d="M 169.085864 33.939314 C 188.141271 34.249674 188.141271 33.939314 188.141271 33.939314 " transform="matrix(1.170518, 0, 0, 1.170518, 0, 0)"/>
<path fill="none" stroke-width="0.87634" stroke-linecap="butt" stroke-linejoin="miter" stroke="rgb(52.941176%, 52.941176%, 54.901961%)" stroke-opacity="1" stroke-miterlimit="4" d="M 169.216015 72.784311 C 186.999949 73.10802 186.999949 72.784311 186.999949 72.784311 " transform="matrix(1.170518, 0, 0, 1.170518, 0, 0)"/>
<path fill-rule="nonzero" fill="rgb(0%, 0%, 0%)" fill-opacity="1" d="M 84.277344 71.929688 L 84.277344 60.632812 L 87.207031 60.632812 L 87.207031 62.160156 L 87.246094 62.160156 C 88.105469 60.9375 89.261719 60.328125 90.703125 60.328125 C 92.332031 60.328125 93.433594 60.957031 94.003906 62.207031 C 94.363281 61.667969 94.839844 61.222656 95.417969 60.871094 C 96.003906 60.511719 96.667969 60.328125 97.40625 60.328125 C 98.691406 60.328125 99.699219 60.65625 100.425781 61.3125 C 101.167969 61.949219 101.535156 62.972656 101.535156 64.371094 L 101.535156 71.929688 L 98.4375 71.929688 L 98.4375 65.527344 C 98.4375 65.179688 98.425781 64.886719 98.414062 64.652344 C 98.394531 64.417969 98.355469 64.171875 98.285156 63.910156 C 98.207031 63.652344 98.109375 63.445312 97.972656 63.300781 C 97.847656 63.152344 97.660156 63.027344 97.40625 62.929688 C 97.175781 62.824219 96.886719 62.777344 96.535156 62.777344 C 95.152344 62.777344 94.457031 63.726562 94.457031 65.636719 L 94.457031 71.929688 L 91.359375 71.929688 L 91.359375 65.597656 C 91.359375 65.566406 91.359375 65.511719 91.359375 65.4375 C 91.359375 65.089844 91.347656 64.828125 91.335938 64.652344 C 91.335938 64.476562 91.300781 64.253906 91.222656 63.980469 C 91.167969 63.683594 91.074219 63.472656 90.941406 63.339844 C 90.824219 63.199219 90.644531 63.066406 90.394531 62.949219 C 90.144531 62.832031 89.839844 62.777344 89.480469 62.777344 C 89.285156 62.777344 89.089844 62.8125 88.886719 62.882812 C 88.683594 62.957031 88.457031 63.082031 88.214844 63.257812 C 87.960938 63.417969 87.753906 63.683594 87.597656 64.066406 C 87.449219 64.429688 87.378906 64.863281 87.378906 65.371094 L 87.378906 71.929688 Z M 111.023438 67.558594 L 111.023438 66.402344 C 110.90625 66.503906 110.738281 66.597656 110.519531 66.683594 C 110.300781 66.753906 110.097656 66.808594 109.902344 66.839844 C 109.734375 66.867188 109.480469 66.902344 109.167969 66.949219 C 108.84375 66.988281 108.605469 67.027344 108.445312 67.054688 C 107.859375 67.171875 107.410156 67.355469 107.085938 67.605469 C 106.769531 67.832031 106.605469 68.207031 106.605469 68.71875 C 106.605469 69.679688 107.246094 70.160156 108.511719 70.160156 C 110.183594 70.160156 111.023438 69.292969 111.023438 67.558594 Z M 106.957031 64.105469 L 103.855469 64.105469 C 103.941406 62.765625 104.480469 61.804688 105.46875 61.222656 C 106.476562 60.628906 107.707031 60.328125 109.167969 60.328125 C 112.472656 60.328125 114.121094 61.402344 114.121094 63.539062 L 114.121094 69.417969 C 114.121094 70.667969 114.257812 71.507812 114.515625 71.929688 L 111.371094 71.929688 C 111.238281 71.519531 111.164062 71.15625 111.152344 70.839844 C 110.261719 71.769531 108.996094 72.234375 107.347656 72.234375 C 106.214844 72.234375 105.285156 71.953125 104.578125 71.386719 C 103.863281 70.800781 103.503906 69.957031 103.503906 68.847656 C 103.503906 68.238281 103.605469 67.710938 103.808594 67.277344 C 104.027344 66.839844 104.339844 66.503906 104.730469 66.269531 C 105.121094 66.023438 105.515625 65.839844 105.910156 65.722656 C 106.316406 65.597656 106.800781 65.488281 107.347656 65.417969 C 107.554688 65.390625 107.816406 65.363281 108.136719 65.332031 C 108.457031 65.285156 108.714844 65.25 108.902344 65.222656 C 109.105469 65.191406 109.332031 65.15625 109.582031 65.113281 C 109.828125 65.066406 110.019531 65.015625 110.167969 64.957031 C 110.332031 64.898438 110.472656 64.828125 110.605469 64.738281 C 110.753906 64.640625 110.855469 64.523438 110.910156 64.386719 C 110.980469 64.261719 111.023438 64.105469 111.023438 63.933594 C 111.023438 63.324219 110.847656 62.910156 110.496094 62.707031 C 110.144531 62.507812 109.652344 62.402344 109.011719 62.402344 C 107.742188 62.402344 107.058594 62.972656 106.957031 64.105469 Z M 116.8125 71.929688 L 116.8125 56.324219 L 119.910156 56.324219 L 119.910156 64.699219 L 123.824219 60.632812 L 127.496094 60.632812 L 123.234375 64.785156 L 127.972656 71.929688 L 124.21875 71.929688 L 121.113281 66.886719 L 119.910156 68.039062 L 119.910156 71.929688 Z M 139.777344 67.035156 L 131.625 67.035156 C 131.714844 68.941406 132.636719 69.894531 134.402344 69.894531 C 135 69.894531 135.527344 69.75 135.996094 69.464844 C 136.457031 69.152344 136.746094 68.8125 136.847656 68.433594 L 139.574219 68.433594 C 138.75 70.96875 136.988281 72.234375 134.292969 72.234375 C 132.527344 72.234375 131.121094 71.691406 130.074219 70.597656 C 129.042969 69.492188 128.527344 68.058594 128.527344 66.292969 C 128.527344 64.574219 129.050781 63.152344 130.121094 62.035156 C 131.199219 60.894531 132.585938 60.328125 134.292969 60.328125 C 136.125 60.328125 137.527344 60.984375 138.488281 62.292969 C 139.464844 63.605469 139.894531 65.183594 139.777344 67.035156 Z M 131.625 65.066406 L 136.667969 65.066406 C 136.527344 64.253906 136.261719 63.652344 135.867188 63.257812 C 135.488281 62.859375 134.929688 62.667969 134.203125 62.667969 C 133.332031 62.667969 132.691406 62.917969 132.28125 63.425781 C 131.871094 63.9375 131.652344 64.488281 131.625 65.066406 Z M 147.246094 71.929688 L 147.246094 68.390625 L 140.785156 68.390625 L 140.785156 65.550781 L 147.421875 56.636719 L 150.199219 56.636719 L 150.199219 65.835938 L 152.230469 65.835938 L 152.230469 68.390625 L 150.199219 68.390625 L 150.199219 71.929688 Z M 147.246094 65.835938 L 147.246094 60.519531 L 147.183594 60.519531 L 143.226562 65.835938 Z M 153.761719 71.929688 L 153.761719 56.324219 L 156.863281 56.324219 L 156.863281 62.207031 L 156.925781 62.207031 C 157.308594 61.59375 157.792969 61.128906 158.390625 60.808594 C 159.003906 60.488281 159.613281 60.328125 160.222656 60.328125 C 161.785156 60.328125 162.863281 60.722656 163.457031 61.503906 C 164.058594 62.292969 164.355469 63.449219 164.355469 64.980469 L 164.355469 71.929688 L 161.253906 71.929688 L 161.253906 65.550781 C 161.253906 64.605469 161.105469 63.902344 160.792969 63.449219 C 160.488281 63 159.980469 62.777344 159.261719 62.777344 C 158.417969 62.777344 157.808594 63.027344 157.429688 63.539062 C 157.050781 64.050781 156.863281 64.875 156.863281 66.003906 L 156.863281 71.929688 Z M 170.648438 57.246094 L 170.648438 60.632812 L 172.921875 60.632812 L 172.921875 62.707031 L 170.648438 62.707031 L 170.648438 68.300781 C 170.648438 68.824219 170.738281 69.175781 170.910156 69.351562 C 171.089844 69.527344 171.433594 69.613281 171.960938 69.613281 C 172.3125 69.613281 172.628906 69.585938 172.921875 69.527344 L 172.921875 71.953125 C 172.480469 72.023438 171.878906 72.058594 171.105469 72.058594 C 169.996094 72.058594 169.125 71.871094 168.488281 71.488281 C 167.859375 71.113281 167.550781 70.40625 167.550781 69.375 L 167.550781 62.707031 L 165.667969 62.707031 L 165.667969 60.632812 L 167.550781 60.632812 L 167.550781 57.246094 Z M 170.648438 57.246094 "/>
<path fill="none" stroke-width="1.19575" stroke-linecap="butt" stroke-linejoin="miter" stroke="rgb(52.941176%, 52.941176%, 54.901961%)" stroke-opacity="1" stroke-miterlimit="4" d="M 42.953089 54.706704 C 56.899244 54.706704 56.899244 54.706704 56.899244 54.706704 " transform="matrix(1.170518, 0, 0, 1.170518, 0, 0)"/>
<path fill-rule="evenodd" fill="rgb(52.941176%, 52.941176%, 54.901961%)" fill-opacity="1" d="M 63.402344 59.839844 L 75.574219 64.265625 L 63.402344 68.695312 C 65.613281 66.117188 65.613281 62.433594 63.402344 59.839844 Z M 63.402344 59.839844 "/>
<path fill="none" stroke-width="0.850754" stroke-linecap="butt" stroke-linejoin="miter" stroke="rgb(52.941176%, 52.941176%, 54.901961%)" stroke-opacity="1" stroke-miterlimit="4" d="M 156.384485 55.227307 C 163.449335 55.227307 163.449335 55.227307 163.449335 55.227307 " transform="matrix(1.170518, 0, 0, 1.170518, 0, 0)"/>
<path fill-rule="evenodd" fill="rgb(52.941176%, 52.941176%, 54.901961%)" fill-opacity="1" d="M 189.964844 61.589844 L 199.054688 64.898438 L 189.964844 68.199219 C 191.621094 66.277344 191.621094 63.519531 189.964844 61.589844 Z M 189.964844 61.589844 "/>
<path fill="none" stroke-width="0.977344" stroke-linecap="butt" stroke-linejoin="miter" stroke="rgb(52.941176%, 52.941176%, 54.901961%)" stroke-opacity="1" stroke-miterlimit="4" d="M 254.888589 93.858723 C 254.888589 42.138812 254.888589 42.138812 254.888589 42.138812 " transform="matrix(1.170518, 0, 0, 1.170518, 0, 0)"/>
<path fill="none" stroke-width="0.82" stroke-linecap="butt" stroke-linejoin="miter" stroke="rgb(52.941176%, 52.941176%, 54.901961%)" stroke-opacity="1" stroke-miterlimit="4" d="M 232.662843 93.031098 C 255.886411 93.341457 255.886411 93.031098 255.886411 93.031098 " transform="matrix(1.170518, 0, 0, 1.170518, 0, 0)"/>
<path fill="none" stroke-width="0.895" stroke-linecap="butt" stroke-linejoin="miter" stroke="rgb(52.941176%, 52.941176%, 54.901961%)" stroke-opacity="1" stroke-miterlimit="4" d="M 240.842318 41.988638 C 255.699528 42.128801 255.699528 41.988638 255.699528 41.988638 " transform="matrix(1.170518, 0, 0, 1.170518, 0, 0)"/>
<path fill-rule="evenodd" fill="rgb(52.941176%, 52.941176%, 54.901961%)" fill-opacity="1" d="M 281.910156 49.148438 L 284.554688 46.550781 L 275.367188 49.082031 L 284.507812 51.792969 Z M 281.910156 49.148438 "/>
<path fill-rule="evenodd" fill="rgb(52.941176%, 52.941176%, 54.901961%)" fill-opacity="1" d="M 212.957031 36.113281 L 223.128906 39.816406 L 212.957031 43.511719 C 214.808594 41.355469 214.808594 38.273438 212.957031 36.113281 Z M 212.957031 36.113281 "/>
<path fill-rule="evenodd" fill="rgb(52.941176%, 52.941176%, 54.901961%)" fill-opacity="1" d="M 212.472656 81.433594 L 222.644531 85.136719 L 212.472656 88.832031 C 214.324219 86.675781 214.324219 83.597656 212.472656 81.433594 Z M 212.472656 81.433594 "/>
<path fill-rule="nonzero" fill="rgb(0%, 0%, 0%)" fill-opacity="1" stroke-width="1" stroke-linecap="butt" stroke-linejoin="miter" stroke="rgb(50.196078%, 50.196078%, 50.196078%)" stroke-opacity="1" stroke-miterlimit="4" d="M 169.159283 34.009395 C 169.159283 72.557382 170.010268 72.557382 170.010268 72.557382 " transform="matrix(1.170518, 0, 0, 1.170518, 0, 0)"/>
<path fill="none" stroke-width="1.46871" stroke-linecap="butt" stroke-linejoin="miter" stroke="rgb(50.196078%, 50.196078%, 50.196078%)" stroke-opacity="1" stroke-miterlimit="4" d="M 3.439869 23.727562 L 42.615248 23.727562 C 43.696501 23.727562 44.577521 24.605245 44.577521 25.686498 L 44.577521 77.730117 C 44.577521 78.818044 43.696501 79.69239 42.615248 79.69239 L 3.439869 79.69239 C 2.358616 79.69239 1.480933 78.818044 1.480933 77.730117 L 1.480933 25.686498 C 1.480933 24.605245 2.358616 23.727562 3.439869 23.727562 Z M 3.439869 23.727562 " transform="matrix(1.170518, 0, 0, 1.170518, -0.874083, 1.937411)"/>
<path fill="none" stroke-width="2" stroke-linecap="butt" stroke-linejoin="miter" stroke="rgb(50.196078%, 50.196078%, 50.196078%)" stroke-opacity="1" stroke-miterlimit="4" d="M 7.5246 35.41777 C 25.8258 35.41777 25.8258 35.41777 25.8258 35.41777 " transform="matrix(1.170518, 0, 0, 1.170518, -0.874083, 1.937411)"/>
<path fill="none" stroke-width="2" stroke-linecap="butt" stroke-linejoin="miter" stroke="rgb(50.196078%, 50.196078%, 50.196078%)" stroke-opacity="1" stroke-miterlimit="4" d="M 7.5246 42.115528 C 31.215376 42.115528 31.215376 42.115528 31.215376 42.115528 " transform="matrix(1.170518, 0, 0, 1.170518, -0.874083, 1.937411)"/>
<path fill="none" stroke-width="2" stroke-linecap="butt" stroke-linejoin="miter" stroke="rgb(50.196078%, 50.196078%, 50.196078%)" stroke-opacity="1" stroke-miterlimit="4" d="M 7.688123 48.486241 C 37.422567 48.486241 37.422567 48.486241 37.422567 48.486241 " transform="matrix(1.170518, 0, 0, 1.170518, -0.874083, 1.937411)"/>
<path fill="none" stroke-width="2" stroke-linecap="butt" stroke-linejoin="miter" stroke="rgb(50.196078%, 50.196078%, 50.196078%)" stroke-opacity="1" stroke-miterlimit="4" d="M 32.086385 23.704201 L 31.595817 35.371049 L 44.627579 35.371049 " transform="matrix(1.170518, 0, 0, 1.170518, -0.874083, 1.937411)"/>
<path fill="none" stroke-width="2" stroke-linecap="butt" stroke-linejoin="miter" stroke="rgb(50.196078%, 50.196078%, 50.196078%)" stroke-opacity="1" stroke-miterlimit="4" d="M 32.687081 23.834352 L 44.600882 35.217538 " transform="matrix(1.170518, 0, 0, 1.170518, -0.874083, 1.937411)"/>
<path fill-rule="nonzero" fill="rgb(0%, 0%, 0%)" fill-opacity="1" d="M 8.480469 76.121094 L 8.480469 75.277344 L 8.460938 75.277344 C 8.058594 75.960938 7.382812 76.300781 6.445312 76.300781 C 5.496094 76.300781 4.753906 75.957031 4.230469 75.257812 C 3.707031 74.566406 3.445312 73.722656 3.445312 72.738281 C 3.445312 71.777344 3.707031 70.964844 4.230469 70.300781 C 4.753906 69.632812 5.480469 69.300781 6.394531 69.300781 C 6.800781 69.300781 7.191406 69.386719 7.542969 69.550781 C 7.898438 69.726562 8.167969 69.964844 8.367188 70.285156 L 8.386719 70.285156 L 8.386719 66.9375 L 10.214844 66.9375 L 10.214844 76.121094 Z M 8.460938 72.773438 C 8.460938 72.164062 8.332031 71.667969 8.074219 71.273438 C 7.828125 70.871094 7.433594 70.667969 6.886719 70.667969 C 6.332031 70.667969 5.925781 70.871094 5.660156 71.273438 C 5.402344 71.671875 5.273438 72.183594 5.273438 72.792969 C 5.273438 73.378906 5.410156 73.878906 5.675781 74.308594 C 5.957031 74.722656 6.355469 74.929688 6.886719 74.929688 C 7.441406 74.929688 7.847656 74.730469 8.089844 74.324219 C 8.332031 73.921875 8.460938 73.40625 8.460938 72.773438 Z M 11.394531 72.808594 C 11.394531 71.738281 11.707031 70.878906 12.328125 70.246094 C 12.957031 69.613281 13.78125 69.300781 14.816406 69.300781 C 15.867188 69.300781 16.699219 69.613281 17.324219 70.246094 C 17.953125 70.878906 18.277344 71.738281 18.277344 72.808594 C 18.277344 73.855469 17.953125 74.707031 17.324219 75.351562 C 16.699219 75.984375 15.867188 76.300781 14.816406 76.300781 C 13.78125 76.300781 12.957031 75.984375 12.328125 75.351562 C 11.707031 74.707031 11.394531 73.855469 11.394531 72.808594 Z M 13.59375 71.292969 C 13.347656 71.695312 13.222656 72.199219 13.222656 72.808594 C 13.222656 73.425781 13.347656 73.921875 13.59375 74.324219 C 13.851562 74.730469 14.253906 74.929688 14.816406 74.929688 C 15.402344 74.929688 15.816406 74.730469 16.058594 74.324219 C 16.316406 73.921875 16.449219 73.425781 16.449219 72.808594 C 16.449219 72.199219 16.316406 71.695312 16.058594 71.292969 C 15.816406 70.878906 15.402344 70.667969 14.816406 70.667969 C 14.253906 70.667969 13.851562 70.878906 13.59375 71.292969 Z M 25.761719 71.800781 L 23.972656 71.800781 C 23.859375 71.050781 23.414062 70.667969 22.636719 70.667969 C 22.097656 70.667969 21.703125 70.886719 21.445312 71.324219 C 21.199219 71.761719 21.082031 72.257812 21.082031 72.824219 C 21.082031 73.386719 21.199219 73.878906 21.445312 74.308594 C 21.691406 74.722656 22.074219 74.929688 22.582031 74.929688 C 22.992188 74.929688 23.320312 74.8125 23.574219 74.566406 C 23.824219 74.320312 23.980469 73.992188 24.046875 73.574219 L 25.800781 73.574219 C 25.691406 74.457031 25.347656 75.128906 24.777344 75.609375 C 24.214844 76.074219 23.488281 76.300781 22.597656 76.300781 C 21.613281 76.300781 20.808594 75.984375 20.183594 75.351562 C 19.566406 74.71875 19.253906 73.902344 19.253906 72.902344 C 19.253906 71.832031 19.550781 70.964844 20.152344 70.300781 C 20.761719 69.632812 21.585938 69.300781 22.636719 69.300781 C 23.480469 69.300781 24.191406 69.515625 24.796875 69.957031 C 25.386719 70.382812 25.714844 70.996094 25.761719 71.800781 Z M 26.910156 76.121094 L 26.910156 74.144531 L 28.941406 74.144531 L 28.941406 76.121094 Z M 32.738281 67.488281 L 32.738281 69.480469 L 34.074219 69.480469 L 34.074219 70.6875 L 32.738281 70.6875 L 32.738281 73.980469 C 32.738281 74.296875 32.785156 74.507812 32.882812 74.601562 C 32.980469 74.699219 33.1875 74.746094 33.503906 74.746094 C 33.707031 74.746094 33.894531 74.738281 34.074219 74.714844 L 34.074219 76.136719 C 33.816406 76.171875 33.457031 76.191406 32.996094 76.191406 C 32.34375 76.191406 31.832031 76.082031 31.457031 75.863281 C 31.089844 75.644531 30.910156 75.234375 30.910156 74.621094 L 30.910156 70.6875 L 29.792969 70.6875 L 29.792969 69.480469 L 30.910156 69.480469 L 30.910156 67.488281 Z M 41.238281 73.246094 L 36.445312 73.246094 C 36.492188 74.371094 37.035156 74.929688 38.074219 74.929688 C 38.425781 74.929688 38.738281 74.847656 39.003906 74.671875 C 39.285156 74.488281 39.449219 74.292969 39.515625 74.066406 L 41.128906 74.066406 C 40.640625 75.5625 39.597656 76.300781 38.015625 76.300781 C 36.980469 76.300781 36.152344 75.984375 35.53125 75.332031 C 34.917969 74.691406 34.617188 73.847656 34.617188 72.808594 C 34.617188 71.800781 34.933594 70.964844 35.566406 70.300781 C 36.199219 69.632812 37.019531 69.300781 38.015625 69.300781 C 39.097656 69.300781 39.925781 69.679688 40.488281 70.449219 C 41.058594 71.214844 41.308594 72.152344 41.238281 73.246094 Z M 36.445312 72.074219 L 39.425781 72.074219 C 39.339844 71.601562 39.183594 71.25 38.953125 71.015625 C 38.71875 70.785156 38.390625 70.667969 37.964844 70.667969 C 37.453125 70.667969 37.074219 70.824219 36.832031 71.128906 C 36.597656 71.417969 36.46875 71.738281 36.445312 72.074219 Z M 41.628906 76.121094 L 44.027344 72.628906 L 41.832031 69.480469 L 43.917969 69.480469 L 45.089844 71.199219 L 46.242188 69.480469 L 48.269531 69.480469 L 46.074219 72.589844 L 48.542969 76.121094 L 46.457031 76.121094 L 45.070312 74.015625 L 43.683594 76.121094 Z M 3.046875 66.933594 "/>
<path fill-rule="nonzero" fill="rgb(100%, 100%, 100%)" fill-opacity="0.94902" stroke-width="1.46871" stroke-linecap="butt" stroke-linejoin="miter" stroke="rgb(31.372549%, 65.882353%, 84.705882%)" stroke-opacity="1" stroke-miterlimit="4" d="M 32.936623 127.184263 L 72.108665 127.184263 C 73.193255 127.184263 74.070938 128.061947 74.070938 129.143199 L 74.070938 181.186818 C 74.070938 182.274745 73.193255 183.149091 72.108665 183.149091 L 32.936623 183.149091 C 31.852033 183.149091 30.97435 182.274745 30.97435 181.186818 L 30.97435 129.143199 C 30.97435 128.061947 31.852033 127.184263 32.936623 127.184263 Z M 32.936623 127.184263 " transform="matrix(1.170518, 0, 0, 1.170518, 188.326012, -145.890942)"/>
<path fill="none" stroke-width="2" stroke-linecap="butt" stroke-linejoin="miter" stroke="rgb(28.627451%, 61.960784%, 81.176471%)" stroke-opacity="1" stroke-miterlimit="4" d="M 37.018017 138.874472 C 55.319217 138.874472 55.319217 138.874472 55.319217 138.874472 " transform="matrix(1.170518, 0, 0, 1.170518, 188.326012, -145.890942)"/>
<path fill="none" stroke-width="2" stroke-linecap="butt" stroke-linejoin="miter" stroke="rgb(31.372549%, 65.490196%, 84.705882%)" stroke-opacity="1" stroke-miterlimit="4" d="M 37.018017 145.57223 C 60.708793 145.57223 60.708793 145.57223 60.708793 145.57223 " transform="matrix(1.170518, 0, 0, 1.170518, 188.326012, -145.890942)"/>
<path fill="none" stroke-width="2" stroke-linecap="butt" stroke-linejoin="miter" stroke="rgb(30.980392%, 65.098039%, 84.313725%)" stroke-opacity="1" stroke-miterlimit="4" d="M 37.18154 151.942943 C 66.922658 151.942943 66.922658 151.942943 66.922658 151.942943 " transform="matrix(1.170518, 0, 0, 1.170518, 188.326012, -145.890942)"/>
<path fill-rule="nonzero" fill="rgb(100%, 100%, 100%)" fill-opacity="0.847059" stroke-width="2" stroke-linecap="butt" stroke-linejoin="miter" stroke="rgb(30.196078%, 63.921569%, 82.745098%)" stroke-opacity="1" stroke-miterlimit="4" d="M 61.579802 127.160903 L 61.089234 138.827751 L 74.124334 138.827751 " transform="matrix(1.170518, 0, 0, 1.170518, 188.326012, -145.890942)"/>
<path fill-rule="nonzero" fill="rgb(0%, 0%, 100%)" fill-opacity="0.341176" stroke-width="2.14949" stroke-linecap="butt" stroke-linejoin="miter" stroke="rgb(28.627451%, 61.960784%, 80.784314%)" stroke-opacity="1" stroke-miterlimit="4" d="M 61.256094 126.853881 L 74.211101 138.94789 " transform="matrix(1.170518, 0, 0, 1.170518, 188.326012, -145.890942)"/>
<path fill-rule="nonzero" fill="rgb(30.980392%, 65.490196%, 84.705882%)" fill-opacity="0.996078" d="M 229.417969 56.964844 L 229.417969 38.746094 L 231.820312 38.746094 L 231.820312 45.726562 L 236.230469 45.726562 L 236.230469 38.746094 L 238.621094 38.746094 L 238.621094 56.964844 L 236.230469 56.964844 L 236.230469 49.113281 L 231.820312 49.113281 L 231.820312 56.964844 Z M 243.140625 56.964844 L 243.140625 42.113281 L 239.878906 42.113281 L 239.878906 38.746094 L 248.792969 38.746094 L 248.792969 42.113281 L 245.53125 42.113281 L 245.53125 56.964844 Z M 250.035156 56.964844 L 250.035156 38.746094 L 253.417969 38.746094 L 255.960938 51.261719 L 255.988281 51.261719 L 258.410156 38.746094 L 261.773438 38.746094 L 261.773438 56.964844 L 259.542969 56.964844 L 259.542969 44.050781 L 259.5 44.050781 L 256.839844 56.964844 L 254.988281 56.964844 L 252.316406 44.167969 L 252.285156 44.167969 L 252.285156 56.964844 Z M 263.878906 56.964844 L 263.878906 38.746094 L 266.277344 38.746094 L 266.277344 53.605469 L 271.582031 53.605469 L 271.582031 56.964844 Z M 228.375 38.742188 "/>
<path fill-rule="nonzero" fill="rgb(100%, 100%, 100%)" fill-opacity="0.94902" stroke-width="1.46871" stroke-linecap="butt" stroke-linejoin="miter" stroke="rgb(31.372549%, 65.882353%, 84.705882%)" stroke-opacity="1" stroke-miterlimit="4" d="M 32.940805 127.18246 L 72.113213 127.18246 C 73.194465 127.18246 74.070774 128.05887 74.070774 129.145294 L 74.070774 181.188643 C 74.070774 182.275067 73.194465 183.151476 72.113213 183.151476 L 32.940805 183.151476 C 31.852486 183.151476 30.979711 182.275067 30.979711 181.188643 L 30.979711 129.145294 C 30.979711 128.05887 31.852486 127.18246 32.940805 127.18246 Z M 32.940805 127.18246 " transform="matrix(1.10549, 0, 0, 0.967193, 190.935848, -51.091953)"/>
<path fill="none" stroke-width="2" stroke-linecap="butt" stroke-linejoin="miter" stroke="rgb(28.627451%, 61.960784%, 81.176471%)" stroke-opacity="1" stroke-miterlimit="4" d="M 37.022 138.874646 C 55.322009 138.874646 55.322009 138.874646 55.322009 138.874646 " transform="matrix(1.10549, 0, 0, 0.967193, 190.935848, -51.091953)"/>
<path fill="none" stroke-width="2" stroke-linecap="butt" stroke-linejoin="miter" stroke="rgb(31.372549%, 65.490196%, 84.705882%)" stroke-opacity="1" stroke-miterlimit="4" d="M 37.022 145.574934 C 60.714134 145.574934 60.714134 145.574934 60.714134 145.574934 " transform="matrix(1.10549, 0, 0, 0.967193, 190.935848, -51.091953)"/>
<path fill="none" stroke-width="2" stroke-linecap="butt" stroke-linejoin="miter" stroke="rgb(30.980392%, 65.098039%, 84.313725%)" stroke-opacity="1" stroke-miterlimit="4" d="M 37.184541 151.948084 C 66.918965 151.948084 66.918965 151.948084 66.918965 151.948084 " transform="matrix(1.10549, 0, 0, 0.967193, 190.935848, -51.091953)"/>
<path fill-rule="nonzero" fill="rgb(100%, 100%, 100%)" fill-opacity="0.847059" stroke-width="2" stroke-linecap="butt" stroke-linejoin="miter" stroke="rgb(30.196078%, 63.921569%, 82.745098%)" stroke-opacity="1" stroke-miterlimit="4" d="M 61.583376 127.162267 L 61.095753 138.826181 L 74.123776 138.826181 " transform="matrix(1.10549, 0, 0, 0.967193, 190.935848, -51.091953)"/>
<path fill-rule="nonzero" fill="rgb(0%, 0%, 100%)" fill-opacity="0.341176" stroke-width="2.14949" stroke-linecap="butt" stroke-linejoin="miter" stroke="rgb(28.627451%, 61.960784%, 80.784314%)" stroke-opacity="1" stroke-miterlimit="4" d="M 61.25476 126.855322 L 74.20858 138.947343 " transform="matrix(1.10549, 0, 0, 0.967193, 190.935848, -51.091953)"/>
<path fill-rule="nonzero" fill="rgb(30.980392%, 65.490196%, 84.705882%)" fill-opacity="0.996078" d="M 236.613281 110.34375 L 234.605469 110.34375 C 234.46875 109.242188 233.972656 108.691406 233.097656 108.691406 C 232.5 108.691406 232.058594 109.007812 231.773438 109.628906 C 231.492188 110.253906 231.347656 110.980469 231.347656 111.816406 C 231.347656 112.617188 231.480469 113.332031 231.761719 113.941406 C 232.035156 114.539062 232.464844 114.839844 233.058594 114.839844 C 233.507812 114.839844 233.871094 114.667969 234.152344 114.328125 C 234.433594 113.972656 234.609375 113.496094 234.679688 112.894531 L 236.652344 112.894531 C 236.519531 114.160156 236.136719 115.128906 235.5 115.808594 C 234.867188 116.484375 234.050781 116.816406 233.066406 116.816406 C 231.949219 116.816406 231.042969 116.363281 230.339844 115.449219 C 229.644531 114.527344 229.300781 113.347656 229.300781 111.902344 C 229.300781 110.378906 229.636719 109.128906 230.308594 108.164062 C 230.996094 107.199219 231.925781 106.710938 233.109375 106.710938 C 234.050781 106.710938 234.847656 107.035156 235.519531 107.667969 C 236.179688 108.292969 236.542969 109.183594 236.613281 110.34375 Z M 237.441406 113.441406 L 239.386719 113.441406 C 239.394531 113.996094 239.550781 114.410156 239.839844 114.675781 C 240.144531 114.933594 240.515625 115.058594 240.957031 115.058594 C 241.3125 115.058594 241.621094 114.960938 241.894531 114.769531 C 242.15625 114.574219 242.292969 114.261719 242.292969 113.832031 C 242.292969 113.636719 242.238281 113.472656 242.152344 113.339844 C 242.0625 113.191406 241.902344 113.0625 241.675781 112.949219 C 241.453125 112.828125 241.21875 112.730469 240.980469 112.660156 C 240.746094 112.574219 240.402344 112.472656 239.972656 112.339844 C 239.628906 112.246094 239.332031 112.144531 239.085938 112.03125 C 238.851562 111.917969 238.613281 111.773438 238.363281 111.589844 C 238.125 111.398438 237.9375 111.152344 237.808594 110.859375 C 237.675781 110.554688 237.609375 110.199219 237.609375 109.792969 C 237.609375 109.207031 237.699219 108.707031 237.878906 108.292969 C 238.066406 107.863281 238.324219 107.535156 238.644531 107.320312 C 238.96875 107.097656 239.308594 106.945312 239.671875 106.855469 C 240.027344 106.761719 240.425781 106.710938 240.855469 106.710938 C 241.761719 106.710938 242.519531 106.949219 243.117188 107.425781 C 243.722656 107.90625 244.058594 108.691406 244.144531 109.777344 L 242.191406 109.777344 C 242.136719 108.910156 241.675781 108.472656 240.796875 108.472656 C 240.035156 108.472656 239.660156 108.769531 239.660156 109.355469 C 239.660156 109.496094 239.675781 109.613281 239.714844 109.722656 C 239.761719 109.832031 239.832031 109.933594 239.929688 110.015625 C 240.023438 110.085938 240.113281 110.15625 240.199219 110.214844 C 240.292969 110.269531 240.421875 110.320312 240.582031 110.378906 C 240.746094 110.433594 240.878906 110.472656 240.996094 110.507812 C 241.121094 110.550781 241.277344 110.597656 241.476562 110.652344 C 241.6875 110.707031 241.851562 110.746094 241.972656 110.785156 C 242.71875 111.003906 243.292969 111.308594 243.714844 111.703125 C 244.128906 112.082031 244.339844 112.675781 244.339844 113.484375 C 244.339844 114.644531 244.011719 115.496094 243.355469 116.035156 C 242.714844 116.558594 241.902344 116.816406 240.9375 116.816406 C 239.972656 116.816406 239.152344 116.554688 238.488281 116.015625 C 237.824219 115.476562 237.472656 114.621094 237.441406 113.441406 Z M 245.175781 113.441406 L 247.125 113.441406 C 247.128906 113.996094 247.285156 114.410156 247.582031 114.675781 C 247.878906 114.933594 248.25 115.058594 248.691406 115.058594 C 249.046875 115.058594 249.363281 114.960938 249.628906 114.769531 C 249.890625 114.574219 250.027344 114.261719 250.027344 113.832031 C 250.027344 113.636719 249.980469 113.472656 249.886719 113.339844 C 249.800781 113.191406 249.644531 113.0625 249.417969 112.949219 C 249.1875 112.828125 248.953125 112.730469 248.71875 112.660156 C 248.480469 112.574219 248.144531 112.472656 247.710938 112.339844 C 247.363281 112.246094 247.074219 112.144531 246.824219 112.03125 C 246.585938 111.917969 246.347656 111.773438 246.097656 111.589844 C 245.859375 111.398438 245.675781 111.152344 245.542969 110.859375 C 245.410156 110.554688 245.34375 110.199219 245.34375 109.792969 C 245.34375 109.207031 245.4375 108.707031 245.621094 108.292969 C 245.808594 107.863281 246.058594 107.535156 246.386719 107.320312 C 246.703125 107.097656 247.050781 106.945312 247.410156 106.855469 C 247.769531 106.761719 248.160156 106.710938 248.589844 106.710938 C 249.503906 106.710938 250.253906 106.949219 250.851562 107.425781 C 251.457031 107.90625 251.800781 108.691406 251.878906 109.777344 L 249.925781 109.777344 C 249.878906 108.910156 249.417969 108.472656 248.53125 108.472656 C 247.769531 108.472656 247.394531 108.769531 247.394531 109.355469 C 247.394531 109.496094 247.410156 109.613281 247.453125 109.722656 C 247.5 109.832031 247.570312 109.933594 247.664062 110.015625 C 247.757812 110.085938 247.851562 110.15625 247.933594 110.214844 C 248.027344 110.269531 248.15625 110.320312 248.320312 110.378906 C 248.480469 110.433594 248.621094 110.472656 248.730469 110.507812 C 248.855469 110.550781 249.019531 110.597656 249.214844 110.652344 C 249.421875 110.707031 249.589844 110.746094 249.714844 110.785156 C 250.453125 111.003906 251.035156 111.308594 251.449219 111.703125 C 251.863281 112.082031 252.074219 112.675781 252.074219 113.484375 C 252.074219 114.644531 251.746094 115.496094 251.097656 116.035156 C 250.449219 116.558594 249.644531 116.816406 248.675781 116.816406 C 247.710938 116.816406 246.890625 116.554688 246.230469 116.015625 C 245.558594 115.476562 245.207031 114.621094 245.175781 113.441406 Z M 264.488281 107.027344 L 264.488281 109.152344 L 259.191406 111.867188 L 264.488281 114.582031 L 264.488281 116.714844 L 257.175781 112.96875 L 257.175781 110.765625 Z M 265.910156 112.617188 L 265.910156 110.363281 L 270.238281 110.363281 L 270.238281 112.617188 Z M 228.753906 103.308594 "/>
<g clip-path="url(#clip-0)">
<g clip-path="url(#clip-1)">
<path fill-rule="nonzero" fill="rgb(100%, 0%, 100%)" fill-opacity="0.996078" d="M 236.769531 110.601562 L 234.761719 110.601562 C 234.628906 109.152344 234.128906 108.425781 233.253906 108.425781 C 232.660156 108.425781 232.21875 108.839844 231.933594 109.660156 C 231.652344 110.484375 231.503906 111.445312 231.503906 112.542969 C 231.503906 113.605469 231.636719 114.542969 231.917969 115.355469 C 232.191406 116.160156 232.617188 116.558594 233.199219 116.558594 C 233.660156 116.558594 234.027344 116.339844 234.308594 115.878906 C 234.589844 115.417969 234.769531 114.777344 234.839844 113.972656 L 236.8125 113.972656 C 236.691406 115.652344 236.300781 116.941406 235.660156 117.84375 C 235.027344 118.734375 234.210938 119.179688 233.214844 119.179688 C 232.101562 119.179688 231.191406 118.570312 230.496094 117.363281 C 229.800781 116.152344 229.457031 114.585938 229.457031 112.664062 C 229.457031 110.628906 229.792969 108.980469 230.464844 107.699219 C 231.152344 106.429688 232.082031 105.785156 233.269531 105.785156 C 234.210938 105.785156 235.007812 106.207031 235.675781 107.042969 C 236.347656 107.886719 236.714844 109.074219 236.769531 110.601562 Z M 237.605469 114.699219 L 239.554688 114.699219 C 239.558594 115.425781 239.714844 115.96875 240.003906 116.320312 C 240.308594 116.675781 240.683594 116.855469 241.128906 116.855469 C 241.488281 116.855469 241.804688 116.722656 242.066406 116.464844 C 242.332031 116.191406 242.464844 115.78125 242.464844 115.230469 C 242.464844 114.972656 242.417969 114.746094 242.324219 114.550781 C 242.246094 114.355469 242.082031 114.1875 241.847656 114.042969 C 241.617188 113.882812 241.382812 113.753906 241.148438 113.652344 C 240.917969 113.558594 240.585938 113.433594 240.152344 113.269531 C 239.808594 113.121094 239.511719 112.980469 239.269531 112.832031 C 239.027344 112.6875 238.785156 112.496094 238.542969 112.253906 C 238.292969 111.996094 238.101562 111.667969 237.972656 111.28125 C 237.847656 110.882812 237.785156 110.410156 237.785156 109.875 C 237.785156 109.101562 237.878906 108.445312 238.058594 107.894531 C 238.238281 107.332031 238.488281 106.898438 238.808594 106.613281 C 239.132812 106.308594 239.472656 106.097656 239.835938 105.980469 C 240.191406 105.847656 240.589844 105.785156 241.03125 105.785156 C 241.945312 105.785156 242.695312 106.101562 243.292969 106.730469 C 243.894531 107.363281 244.242188 108.398438 244.316406 109.851562 L 242.367188 109.851562 C 242.320312 108.691406 241.855469 108.113281 240.972656 108.113281 C 240.214844 108.113281 239.835938 108.511719 239.835938 109.292969 C 239.835938 109.476562 239.855469 109.636719 239.894531 109.78125 C 239.941406 109.925781 240.003906 110.058594 240.09375 110.167969 C 240.1875 110.269531 240.277344 110.355469 240.363281 110.4375 C 240.457031 110.503906 240.585938 110.574219 240.75 110.652344 C 240.917969 110.71875 241.058594 110.769531 241.171875 110.824219 C 241.292969 110.871094 241.457031 110.933594 241.660156 111.019531 C 241.863281 111.082031 242.035156 111.136719 242.15625 111.1875 C 242.894531 111.492188 243.472656 111.910156 243.890625 112.417969 C 244.316406 112.921875 244.535156 113.699219 244.535156 114.769531 C 244.535156 116.308594 244.207031 117.425781 243.550781 118.136719 C 242.902344 118.832031 242.089844 119.179688 241.121094 119.179688 C 240.152344 119.179688 239.324219 118.828125 238.660156 118.113281 C 237.988281 117.402344 237.636719 116.269531 237.605469 114.699219 Z M 245.355469 114.699219 L 247.308594 114.699219 C 247.3125 115.425781 247.464844 115.96875 247.761719 116.320312 C 248.0625 116.675781 248.4375 116.855469 248.886719 116.855469 C 249.246094 116.855469 249.558594 116.722656 249.824219 116.464844 C 250.089844 116.191406 250.222656 115.78125 250.222656 115.230469 C 250.222656 114.972656 250.171875 114.746094 250.082031 114.550781 C 249.996094 114.355469 249.832031 114.1875 249.597656 114.042969 C 249.371094 113.882812 249.136719 113.753906 248.902344 113.652344 C 248.671875 113.558594 248.339844 113.433594 247.902344 113.269531 C 247.566406 113.121094 247.265625 112.980469 247.027344 112.832031 C 246.785156 112.6875 246.542969 112.496094 246.300781 112.253906 C 246.046875 111.996094 245.859375 111.667969 245.730469 111.28125 C 245.601562 110.882812 245.542969 110.410156 245.542969 109.875 C 245.542969 109.101562 245.628906 108.445312 245.8125 107.894531 C 245.988281 107.332031 246.246094 106.898438 246.566406 106.613281 C 246.886719 106.308594 247.230469 106.097656 247.59375 105.980469 C 247.949219 105.847656 248.347656 105.785156 248.789062 105.785156 C 249.699219 105.785156 250.453125 106.101562 251.050781 106.730469 C 251.652344 107.363281 251.996094 108.398438 252.074219 109.851562 L 250.125 109.851562 C 250.074219 108.691406 249.613281 108.113281 248.730469 108.113281 C 247.96875 108.113281 247.59375 108.511719 247.59375 109.292969 C 247.59375 109.476562 247.613281 109.636719 247.644531 109.78125 C 247.691406 109.925781 247.761719 110.058594 247.847656 110.167969 C 247.941406 110.269531 248.035156 110.355469 248.121094 110.4375 C 248.207031 110.503906 248.339844 110.574219 248.503906 110.652344 C 248.671875 110.71875 248.816406 110.769531 248.929688 110.824219 C 249.050781 110.871094 249.214844 110.933594 249.417969 111.019531 C 249.621094 111.082031 249.785156 111.136719 249.914062 111.1875 C 250.652344 111.492188 251.226562 111.910156 251.648438 112.417969 C 252.074219 112.921875 252.285156 113.699219 252.285156 114.769531 C 252.285156 116.308594 251.957031 117.425781 251.308594 118.136719 C 250.660156 118.832031 249.847656 119.179688 248.871094 119.179688 C 247.902344 119.179688 247.082031 118.828125 246.410156 118.113281 C 245.746094 117.402344 245.390625 116.269531 245.355469 114.699219 Z M 264.714844 106.195312 L 264.714844 109.03125 L 259.417969 112.617188 L 264.714844 116.199219 L 264.714844 119.035156 L 257.386719 114.066406 L 257.386719 111.164062 Z M 266.144531 113.628906 L 266.144531 110.628906 L 270.488281 110.628906 L 270.488281 113.628906 Z M 228.902344 101.292969 "/>
</g>
</g>
<path fill-rule="nonzero" fill="rgb(100%, 100%, 100%)" fill-opacity="0.996078" stroke-width="2" stroke-linecap="butt" stroke-linejoin="miter" stroke="rgb(100%, 0%, 100%)" stroke-opacity="1" stroke-miterlimit="4" d="M 107.988424 68.03214 C 107.988424 95.934461 107.988424 95.934461 107.988424 95.934461 C 124.253932 95.934461 124.253932 95.934461 124.253932 95.934461 " transform="matrix(1.170518, 0, 0, 1.170518, 0, 0)"/>
<path fill-rule="nonzero" fill="rgb(100%, 0%, 100%)" fill-opacity="1" d="M 155.273438 111.269531 L 153.535156 111.269531 C 153.421875 110.53125 152.988281 110.15625 152.238281 110.15625 C 151.710938 110.15625 151.324219 110.371094 151.082031 110.792969 C 150.839844 111.210938 150.722656 111.703125 150.722656 112.261719 C 150.722656 112.808594 150.832031 113.285156 151.066406 113.691406 C 151.308594 114.089844 151.6875 114.292969 152.199219 114.292969 C 152.589844 114.292969 152.90625 114.175781 153.152344 113.941406 C 153.394531 113.714844 153.542969 113.394531 153.609375 112.992188 L 155.308594 112.992188 C 155.199219 113.832031 154.871094 114.488281 154.316406 114.949219 C 153.773438 115.410156 153.066406 115.640625 152.199219 115.640625 C 151.238281 115.640625 150.445312 115.332031 149.839844 114.707031 C 149.238281 114.089844 148.945312 113.296875 148.945312 112.335938 C 148.945312 111.300781 149.238281 110.460938 149.824219 109.808594 C 150.402344 109.148438 151.214844 108.820312 152.238281 108.820312 C 153.046875 108.820312 153.746094 109.035156 154.316406 109.457031 C 154.902344 109.894531 155.222656 110.496094 155.273438 111.269531 Z M 156.113281 112.242188 C 156.113281 111.210938 156.410156 110.378906 157.027344 109.753906 C 157.628906 109.128906 158.4375 108.820312 159.441406 108.820312 C 160.457031 108.820312 161.273438 109.128906 161.871094 109.753906 C 162.480469 110.378906 162.785156 111.210938 162.785156 112.242188 C 162.785156 113.269531 162.480469 114.089844 161.871094 114.707031 C 161.273438 115.332031 160.457031 115.640625 159.441406 115.640625 C 158.4375 115.640625 157.628906 115.332031 157.027344 114.707031 C 156.410156 114.089844 156.113281 113.269531 156.113281 112.242188 Z M 158.25 110.761719 C 158.003906 111.152344 157.878906 111.644531 157.878906 112.242188 C 157.878906 112.828125 158.003906 113.316406 158.25 113.707031 C 158.488281 114.097656 158.886719 114.292969 159.441406 114.292969 C 159.996094 114.292969 160.402344 114.097656 160.644531 113.707031 C 160.886719 113.316406 161.011719 112.828125 161.011719 112.242188 C 161.011719 111.644531 160.886719 111.152344 160.644531 110.761719 C 160.402344 110.355469 159.996094 110.15625 159.441406 110.15625 C 158.886719 110.15625 158.488281 110.355469 158.25 110.761719 Z M 163.941406 115.457031 L 163.941406 109.003906 L 165.621094 109.003906 L 165.621094 109.898438 L 165.660156 109.898438 C 165.878906 109.546875 166.167969 109.277344 166.519531 109.097656 C 166.871094 108.914062 167.246094 108.820312 167.636719 108.820312 C 168.519531 108.820312 169.144531 109.050781 169.480469 109.5 C 169.824219 109.949219 169.992188 110.613281 169.992188 111.492188 L 169.992188 115.457031 L 168.222656 115.457031 L 168.222656 111.820312 C 168.222656 111.269531 168.128906 110.871094 167.949219 110.613281 C 167.769531 110.355469 167.488281 110.230469 167.085938 110.230469 C 166.597656 110.230469 166.246094 110.378906 166.027344 110.667969 C 165.816406 110.957031 165.714844 111.433594 165.714844 112.078125 L 165.714844 115.457031 Z M 171.726562 115.457031 L 171.726562 110.191406 L 170.667969 110.191406 L 170.667969 109.003906 L 171.726562 109.003906 L 171.726562 108.511719 C 171.726562 107.917969 171.910156 107.441406 172.277344 107.085938 C 172.652344 106.714844 173.191406 106.535156 173.886719 106.535156 C 174.003906 106.535156 174.175781 106.546875 174.398438 106.570312 C 174.628906 106.589844 174.769531 106.589844 174.820312 106.589844 L 174.820312 107.90625 C 174.609375 107.882812 174.398438 107.871094 174.175781 107.871094 C 173.929688 107.871094 173.761719 107.933594 173.648438 108.050781 C 173.550781 108.164062 173.503906 108.355469 173.503906 108.621094 L 173.503906 109.003906 L 174.726562 109.003906 L 174.726562 110.191406 L 173.503906 110.191406 L 173.503906 115.457031 Z M 175.558594 115.457031 L 175.558594 109.003906 L 177.332031 109.003906 L 177.332031 115.457031 Z M 177.332031 106.535156 L 177.332031 108 L 175.558594 108 L 175.558594 106.535156 Z M 184.921875 109.003906 L 184.921875 115.035156 C 184.921875 115.292969 184.902344 115.535156 184.871094 115.753906 C 184.832031 115.980469 184.738281 116.230469 184.59375 116.503906 C 184.457031 116.785156 184.269531 117.019531 184.042969 117.214844 C 183.816406 117.410156 183.480469 117.574219 183.058594 117.707031 C 182.644531 117.84375 182.152344 117.914062 181.574219 117.914062 C 180.855469 117.914062 180.210938 117.730469 179.636719 117.378906 C 179.074219 117.023438 178.78125 116.507812 178.738281 115.828125 L 180.496094 115.828125 C 180.632812 116.417969 181.066406 116.722656 181.816406 116.722656 C 182.292969 116.722656 182.648438 116.578125 182.894531 116.285156 C 183.136719 115.992188 183.253906 115.605469 183.238281 115.128906 L 183.238281 114.269531 L 183.222656 114.269531 C 183.042969 114.605469 182.769531 114.847656 182.417969 115.019531 C 182.0625 115.195312 181.6875 115.277344 181.285156 115.277344 C 180.371094 115.277344 179.675781 114.980469 179.214844 114.363281 C 178.753906 113.753906 178.523438 112.972656 178.523438 112.019531 C 178.523438 111.136719 178.761719 110.378906 179.253906 109.753906 C 179.753906 109.128906 180.433594 108.820312 181.300781 108.820312 C 182.191406 108.820312 182.832031 109.171875 183.222656 109.863281 L 183.238281 109.863281 L 183.238281 109.003906 Z M 181.722656 113.941406 C 182.207031 113.941406 182.582031 113.769531 182.835938 113.433594 C 183.105469 113.082031 183.238281 112.652344 183.238281 112.148438 C 183.238281 111.5625 183.117188 111.089844 182.878906 110.722656 C 182.644531 110.347656 182.253906 110.15625 181.722656 110.15625 C 181.253906 110.15625 180.902344 110.339844 180.660156 110.691406 C 180.417969 111.042969 180.300781 111.480469 180.300781 112.003906 C 180.300781 112.542969 180.410156 112.996094 180.644531 113.371094 C 180.871094 113.753906 181.238281 113.941406 181.722656 113.941406 Z M 186.421875 115.457031 L 186.421875 113.542969 L 188.378906 113.542969 L 188.378906 115.457031 Z M 195.949219 111.269531 L 194.214844 111.269531 C 194.105469 110.53125 193.667969 110.15625 192.914062 110.15625 C 192.394531 110.15625 192.003906 110.371094 191.765625 110.792969 C 191.519531 111.210938 191.394531 111.703125 191.394531 112.261719 C 191.394531 112.808594 191.511719 113.285156 191.746094 113.691406 C 191.988281 114.089844 192.371094 114.292969 192.878906 114.292969 C 193.265625 114.292969 193.582031 114.175781 193.828125 113.941406 C 194.074219 113.714844 194.226562 113.394531 194.285156 112.992188 L 195.988281 112.992188 C 195.878906 113.832031 195.550781 114.488281 195 114.949219 C 194.457031 115.410156 193.746094 115.640625 192.878906 115.640625 C 191.910156 115.640625 191.128906 115.332031 190.519531 114.707031 C 189.917969 114.089844 189.621094 113.296875 189.621094 112.335938 C 189.621094 111.300781 189.914062 110.460938 190.5 109.808594 C 191.085938 109.148438 191.894531 108.820312 192.914062 108.820312 C 193.730469 108.820312 194.425781 109.035156 195 109.457031 C 195.585938 109.894531 195.902344 110.496094 195.949219 111.269531 Z M 197.371094 115.457031 L 197.371094 110.191406 L 196.3125 110.191406 L 196.3125 109.003906 L 197.371094 109.003906 L 197.371094 108.511719 C 197.371094 107.917969 197.554688 107.441406 197.925781 107.085938 C 198.300781 106.714844 198.839844 106.535156 199.527344 106.535156 C 199.652344 106.535156 199.824219 106.546875 200.042969 106.570312 C 200.273438 106.589844 200.414062 106.589844 200.464844 106.589844 L 200.464844 107.90625 C 200.253906 107.882812 200.042969 107.871094 199.824219 107.871094 C 199.574219 107.871094 199.40625 107.933594 199.292969 108.050781 C 199.195312 108.164062 199.148438 108.355469 199.148438 108.621094 L 199.148438 109.003906 L 200.371094 109.003906 L 200.371094 110.191406 L 199.148438 110.191406 L 199.148438 115.457031 Z M 207.347656 109.003906 L 207.347656 115.035156 C 207.347656 115.292969 207.328125 115.535156 207.292969 115.753906 C 207.253906 115.980469 207.164062 116.230469 207.019531 116.503906 C 206.882812 116.785156 206.695312 117.019531 206.464844 117.214844 C 206.230469 117.410156 205.902344 117.574219 205.480469 117.707031 C 205.066406 117.84375 204.566406 117.914062 204 117.914062 C 203.277344 117.914062 202.636719 117.730469 202.058594 117.378906 C 201.496094 117.023438 201.199219 116.507812 201.164062 115.828125 L 202.921875 115.828125 C 203.050781 116.417969 203.488281 116.722656 204.234375 116.722656 C 204.714844 116.722656 205.066406 116.578125 205.316406 116.285156 C 205.558594 115.992188 205.667969 115.605469 205.664062 115.128906 L 205.664062 114.269531 L 205.644531 114.269531 C 205.464844 114.605469 205.195312 114.847656 204.839844 115.019531 C 204.488281 115.195312 204.113281 115.277344 203.707031 115.277344 C 202.792969 115.277344 202.101562 114.980469 201.636719 114.363281 C 201.175781 113.753906 200.949219 112.972656 200.949219 112.019531 C 200.949219 111.136719 201.1875 110.378906 201.675781 109.753906 C 202.175781 109.128906 202.855469 108.820312 203.722656 108.820312 C 204.609375 108.820312 205.253906 109.171875 205.644531 109.863281 L 205.664062 109.863281 L 205.664062 109.003906 Z M 204.144531 113.941406 C 204.632812 113.941406 205.007812 113.769531 205.261719 113.433594 C 205.527344 113.082031 205.664062 112.652344 205.664062 112.148438 C 205.664062 111.5625 205.542969 111.089844 205.300781 110.722656 C 205.066406 110.347656 204.679688 110.15625 204.144531 110.15625 C 203.675781 110.15625 203.324219 110.339844 203.085938 110.691406 C 202.839844 111.042969 202.714844 111.480469 202.714844 112.003906 C 202.714844 112.542969 202.832031 112.996094 203.066406 113.371094 C 203.296875 113.753906 203.652344 113.941406 204.144531 113.941406 Z M 148.472656 106.546875 "/>
<path fill="none" stroke-width="2" stroke-linecap="butt" stroke-linejoin="miter" stroke="rgb(100%, 0%, 100%)" stroke-opacity="1" stroke-miterlimit="4" d="M 179.858343 96.051263 C 191.495156 96.051263 191.495156 96.051263 191.495156 96.051263 " transform="matrix(1.170518, 0, 0, 1.170518, 0, 0)"/>
</svg>
