<?xml version="1.0" encoding="UTF-8"?>
<svg xmlns="http://www.w3.org/2000/svg" xmlns:xlink="http://www.w3.org/1999/xlink" width="90" height="31.5" viewBox="0 0 90 31.5">
<path fill-rule="nonzero" fill="rgb(66.665649%, 69.802856%, 67.0578%)" fill-opacity="1" d="M 2.558594 0.335938 L 87.570312 0.484375 C 88.757812 0.484375 89.820312 0.308594 89.820312 2.855469 L 89.71875 30.851562 L 0.410156 30.851562 L 0.410156 2.75 C 0.410156 1.496094 0.53125 0.335938 2.558594 0.335938 Z M 2.558594 0.335938 "/>
<path fill-rule="nonzero" fill="rgb(0%, 0%, 0%)" fill-opacity="1" d="M 88.316406 0 L 1.6875 0 C 0.757812 0 0 0.757812 0 1.683594 L 0 31.121094 C 0 31.328125 0.171875 31.5 0.378906 31.5 L 89.621094 31.5 C 89.828125 31.5 90 31.328125 90 31.121094 L 90 1.683594 C 90 0.757812 89.242188 0 88.316406 0 Z M 1.6875 0.761719 L 88.316406 0.761719 C 88.824219 0.761719 89.238281 1.175781 89.238281 1.683594 C 89.238281 1.683594 89.238281 13.527344 89.238281 22.097656 L 27.320312 22.097656 C 25.050781 26.199219 20.679688 28.984375 15.660156 28.984375 C 10.640625 28.984375 6.269531 26.203125 4.003906 22.097656 L 0.761719 22.097656 C 0.761719 13.527344 0.761719 1.683594 0.761719 1.683594 C 0.761719 1.175781 1.175781 0.761719 1.6875 0.761719 Z M 1.6875 0.761719 "/>
<path fill-rule="nonzero" fill="rgb(100%, 100%, 100%)" fill-opacity="1" d="M 25.890625 14.660156 C 25.894531 20.304688 21.320312 24.886719 15.671875 24.890625 C 10.023438 24.894531 5.445312 20.316406 5.441406 14.671875 C 5.441406 14.667969 5.441406 14.664062 5.441406 14.660156 C 5.4375 9.011719 10.011719 4.429688 15.660156 4.425781 C 21.308594 4.425781 25.890625 9 25.890625 14.644531 C 25.890625 14.648438 25.890625 14.65625 25.890625 14.660156 Z M 25.890625 14.660156 "/>
<path fill-rule="nonzero" fill="rgb(0%, 0%, 0%)" fill-opacity="1" d="M 23.980469 6.332031 C 26.246094 8.597656 27.378906 11.375 27.378906 14.660156 C 27.378906 17.945312 26.265625 20.691406 24.039062 22.898438 C 21.671875 25.226562 18.878906 26.390625 15.652344 26.390625 C 12.464844 26.390625 9.71875 25.234375 7.410156 22.929688 C 5.105469 20.621094 3.953125 17.867188 3.953125 14.660156 C 3.953125 11.453125 5.105469 8.675781 7.410156 6.332031 C 9.660156 4.0625 12.40625 2.929688 15.652344 2.929688 C 18.9375 2.929688 21.710938 4.0625 23.980469 6.332031 Z M 8.9375 7.855469 C 7.019531 9.792969 6.0625 12.058594 6.0625 14.660156 C 6.0625 17.261719 7.011719 19.511719 8.910156 21.410156 C 10.804688 23.304688 13.066406 24.253906 15.6875 24.253906 C 18.308594 24.253906 20.585938 23.296875 22.523438 21.378906 C 24.359375 19.601562 25.28125 17.359375 25.28125 14.660156 C 25.28125 11.984375 24.34375 9.707031 22.476562 7.839844 C 20.609375 5.972656 18.347656 5.039062 15.6875 5.039062 C 13.027344 5.039062 10.777344 5.976562 8.9375 7.855469 Z M 13.984375 13.515625 C 13.691406 12.878906 13.253906 12.558594 12.667969 12.558594 C 11.632812 12.558594 11.117188 13.253906 11.117188 14.648438 C 11.117188 16.039062 11.632812 16.734375 12.667969 16.734375 C 13.351562 16.734375 13.835938 16.394531 14.128906 15.714844 L 15.5625 16.480469 C 14.878906 17.691406 13.855469 18.300781 12.488281 18.300781 C 11.433594 18.300781 10.589844 17.976562 9.957031 17.332031 C 9.320312 16.683594 9.003906 15.792969 9.003906 14.660156 C 9.003906 13.542969 9.332031 12.65625 9.984375 12 C 10.640625 11.34375 11.453125 11.015625 12.429688 11.015625 C 13.875 11.015625 14.910156 11.585938 15.535156 12.722656 Z M 20.726562 13.515625 C 20.433594 12.878906 20.003906 12.558594 19.4375 12.558594 C 18.382812 12.558594 17.855469 13.253906 17.855469 14.648438 C 17.855469 16.039062 18.382812 16.734375 19.4375 16.734375 C 20.121094 16.734375 20.597656 16.394531 20.871094 15.714844 L 22.335938 16.480469 C 21.65625 17.691406 20.632812 18.300781 19.269531 18.300781 C 18.214844 18.300781 17.375 17.976562 16.738281 17.332031 C 16.105469 16.683594 15.789062 15.792969 15.789062 14.660156 C 15.789062 13.542969 16.109375 12.65625 16.753906 12 C 17.398438 11.34375 18.214844 11.015625 19.210938 11.015625 C 20.652344 11.015625 21.683594 11.585938 22.308594 12.722656 Z M 20.726562 13.515625 "/>
<path fill-rule="nonzero" fill="rgb(100%, 100%, 100%)" fill-opacity="1" d="M 36.070312 24.5625 C 36.304688 24.5625 36.523438 24.582031 36.71875 24.625 C 36.914062 24.664062 37.082031 24.734375 37.21875 24.828125 C 37.359375 24.921875 37.464844 25.050781 37.542969 25.207031 C 37.621094 25.363281 37.660156 25.558594 37.660156 25.792969 C 37.660156 26.042969 37.601562 26.25 37.488281 26.417969 C 37.375 26.582031 37.207031 26.71875 36.984375 26.828125 C 37.289062 26.914062 37.519531 27.070312 37.671875 27.289062 C 37.820312 27.511719 37.898438 27.777344 37.898438 28.085938 C 37.898438 28.335938 37.847656 28.554688 37.75 28.738281 C 37.652344 28.921875 37.523438 29.070312 37.359375 29.1875 C 37.191406 29.300781 37.003906 29.386719 36.792969 29.441406 C 36.582031 29.5 36.363281 29.527344 36.140625 29.527344 L 33.726562 29.527344 L 33.726562 24.5625 Z M 35.929688 26.570312 C 36.125 26.570312 36.285156 26.523438 36.410156 26.429688 C 36.535156 26.335938 36.597656 26.1875 36.597656 25.980469 C 36.597656 25.863281 36.578125 25.769531 36.535156 25.695312 C 36.496094 25.621094 36.4375 25.5625 36.367188 25.519531 C 36.300781 25.480469 36.21875 25.449219 36.128906 25.433594 C 36.039062 25.417969 35.945312 25.410156 35.847656 25.410156 L 34.824219 25.410156 L 34.824219 26.570312 Z M 35.996094 28.675781 C 36.101562 28.675781 36.203125 28.667969 36.300781 28.644531 C 36.398438 28.625 36.484375 28.589844 36.558594 28.542969 C 36.632812 28.492188 36.691406 28.425781 36.738281 28.34375 C 36.78125 28.261719 36.804688 28.152344 36.804688 28.023438 C 36.804688 27.769531 36.730469 27.585938 36.585938 27.476562 C 36.441406 27.367188 36.253906 27.316406 36.015625 27.316406 L 34.824219 27.316406 L 34.824219 28.675781 Z M 35.996094 28.675781 "/>
<path fill-rule="nonzero" fill="rgb(100%, 100%, 100%)" fill-opacity="1" d="M 38.089844 24.5625 L 39.316406 24.5625 L 40.480469 26.523438 L 41.632812 24.5625 L 42.851562 24.5625 L 41.007812 27.621094 L 41.007812 29.527344 L 39.914062 29.527344 L 39.914062 27.59375 Z M 38.089844 24.5625 "/>
<path fill-rule="nonzero" fill="rgb(100%, 100%, 100%)" fill-opacity="1" d="M 54.386719 24.5625 L 56.464844 27.890625 L 56.476562 27.890625 L 56.476562 24.5625 L 57.5 24.5625 L 57.5 29.527344 L 56.40625 29.527344 L 54.339844 26.203125 L 54.324219 26.203125 L 54.324219 29.527344 L 53.300781 29.527344 L 53.300781 24.5625 Z M 54.386719 24.5625 "/>
<path fill-rule="nonzero" fill="rgb(100%, 100%, 100%)" fill-opacity="1" d="M 61.644531 25.882812 C 61.582031 25.777344 61.5 25.6875 61.402344 25.609375 C 61.304688 25.53125 61.195312 25.46875 61.070312 25.425781 C 60.949219 25.378906 60.820312 25.359375 60.6875 25.359375 C 60.441406 25.359375 60.230469 25.40625 60.058594 25.5 C 59.886719 25.59375 59.75 25.722656 59.640625 25.882812 C 59.535156 26.042969 59.457031 26.226562 59.410156 26.429688 C 59.359375 26.632812 59.335938 26.84375 59.335938 27.0625 C 59.335938 27.269531 59.359375 27.472656 59.410156 27.667969 C 59.457031 27.867188 59.535156 28.042969 59.640625 28.203125 C 59.75 28.359375 59.886719 28.484375 60.058594 28.582031 C 60.230469 28.675781 60.441406 28.722656 60.6875 28.722656 C 61.019531 28.722656 61.28125 28.621094 61.46875 28.417969 C 61.65625 28.214844 61.769531 27.945312 61.8125 27.609375 L 62.871094 27.609375 C 62.84375 27.921875 62.769531 28.203125 62.65625 28.453125 C 62.539062 28.703125 62.386719 28.917969 62.195312 29.09375 C 62.003906 29.269531 61.78125 29.40625 61.527344 29.496094 C 61.273438 29.589844 60.992188 29.636719 60.6875 29.636719 C 60.304688 29.636719 59.964844 29.570312 59.660156 29.4375 C 59.355469 29.308594 59.097656 29.125 58.890625 28.894531 C 58.679688 28.660156 58.519531 28.386719 58.410156 28.074219 C 58.296875 27.761719 58.242188 27.425781 58.242188 27.0625 C 58.242188 26.691406 58.296875 26.347656 58.410156 26.027344 C 58.519531 25.710938 58.679688 25.433594 58.890625 25.195312 C 59.097656 24.960938 59.355469 24.773438 59.660156 24.640625 C 59.964844 24.503906 60.304688 24.4375 60.6875 24.4375 C 60.960938 24.4375 61.21875 24.476562 61.460938 24.558594 C 61.707031 24.636719 61.921875 24.75 62.117188 24.902344 C 62.308594 25.050781 62.46875 25.238281 62.59375 25.460938 C 62.71875 25.683594 62.796875 25.941406 62.828125 26.226562 L 61.769531 26.226562 C 61.753906 26.101562 61.710938 25.988281 61.644531 25.882812 Z M 61.644531 25.882812 "/>
<path fill-rule="nonzero" fill="rgb(100%, 100%, 100%)" fill-opacity="1" d="M 73.765625 24.5625 L 75.839844 27.890625 L 75.851562 27.890625 L 75.851562 24.5625 L 76.878906 24.5625 L 76.878906 29.527344 L 75.785156 29.527344 L 73.71875 26.203125 L 73.703125 26.203125 L 73.703125 29.527344 L 72.679688 29.527344 L 72.679688 24.5625 Z M 73.765625 24.5625 "/>
<path fill-rule="nonzero" fill="rgb(100%, 100%, 100%)" fill-opacity="1" d="M 79.980469 24.5625 C 80.300781 24.5625 80.597656 24.613281 80.875 24.714844 C 81.152344 24.816406 81.390625 24.96875 81.59375 25.171875 C 81.792969 25.375 81.953125 25.632812 82.066406 25.9375 C 82.179688 26.242188 82.238281 26.601562 82.238281 27.015625 C 82.238281 27.378906 82.191406 27.710938 82.097656 28.015625 C 82.003906 28.324219 81.863281 28.589844 81.675781 28.808594 C 81.488281 29.03125 81.253906 29.207031 80.972656 29.335938 C 80.691406 29.464844 80.363281 29.527344 79.980469 29.527344 L 77.835938 29.527344 L 77.835938 24.5625 Z M 79.902344 28.605469 C 80.0625 28.605469 80.214844 28.582031 80.363281 28.53125 C 80.511719 28.480469 80.644531 28.394531 80.761719 28.277344 C 80.875 28.160156 80.96875 28.003906 81.039062 27.816406 C 81.109375 27.625 81.144531 27.394531 81.144531 27.121094 C 81.144531 26.871094 81.117188 26.644531 81.070312 26.441406 C 81.019531 26.242188 80.941406 26.070312 80.828125 25.925781 C 80.71875 25.78125 80.570312 25.671875 80.386719 25.59375 C 80.203125 25.519531 79.976562 25.480469 79.710938 25.480469 L 78.929688 25.480469 L 78.929688 28.605469 Z M 79.902344 28.605469 "/>
<path fill-rule="nonzero" fill="rgb(100%, 100%, 100%)" fill-opacity="1" d="M 65.851562 11.234375 C 65.855469 15.363281 62.511719 18.707031 58.386719 18.710938 C 54.261719 18.714844 50.914062 15.371094 50.910156 11.246094 C 50.910156 11.242188 50.910156 11.238281 50.910156 11.234375 C 50.90625 7.109375 54.25 3.765625 58.375 3.761719 C 62.5 3.757812 65.847656 7.101562 65.851562 11.226562 C 65.851562 11.226562 65.851562 11.230469 65.851562 11.234375 Z M 65.851562 11.234375 "/>
<path fill-rule="nonzero" fill="rgb(0%, 0%, 0%)" fill-opacity="1" d="M 58.371094 2.539062 C 60.808594 2.539062 62.867188 3.378906 64.550781 5.0625 C 66.234375 6.742188 67.078125 8.800781 67.078125 11.234375 C 67.078125 13.671875 66.25 15.707031 64.597656 17.34375 C 62.839844 19.070312 60.765625 19.933594 58.371094 19.933594 C 56.003906 19.933594 53.964844 19.078125 52.253906 17.367188 C 50.539062 15.65625 49.683594 13.613281 49.683594 11.234375 C 49.683594 8.859375 50.539062 6.800781 52.253906 5.0625 C 53.921875 3.378906 55.960938 2.539062 58.371094 2.539062 Z M 51.640625 8.898438 C 51.382812 9.632812 51.25 10.410156 51.25 11.234375 C 51.25 13.164062 51.957031 14.828125 53.363281 16.234375 C 54.769531 17.640625 56.445312 18.34375 58.390625 18.34375 C 60.335938 18.34375 62.027344 17.632812 63.464844 16.214844 C 63.945312 15.75 64.339844 15.242188 64.652344 14.691406 L 61.375 13.234375 C 61.152344 14.335938 60.167969 15.082031 58.980469 15.167969 L 58.980469 16.507812 L 57.980469 16.507812 L 57.980469 15.167969 C 57.003906 15.15625 56.0625 14.757812 55.339844 14.128906 L 56.539062 12.917969 C 57.117188 13.460938 57.691406 13.707031 58.480469 13.707031 C 58.992188 13.707031 59.554688 13.507812 59.554688 12.839844 C 59.554688 12.605469 59.464844 12.441406 59.320312 12.320312 L 58.492188 11.949219 L 57.460938 11.492188 C 56.949219 11.261719 56.515625 11.070312 56.082031 10.878906 Z M 58.390625 4.105469 C 56.417969 4.105469 54.75 4.800781 53.382812 6.191406 C 53.011719 6.566406 52.691406 6.957031 52.417969 7.367188 L 55.742188 8.847656 C 56.039062 7.925781 56.917969 7.363281 57.980469 7.304688 L 57.980469 5.960938 L 58.980469 5.960938 L 58.980469 7.304688 C 59.667969 7.335938 60.421875 7.523438 61.164062 8.101562 L 60.023438 9.273438 C 59.601562 8.976562 59.070312 8.765625 58.535156 8.765625 C 58.105469 8.765625 57.492188 8.898438 57.492188 9.441406 C 57.492188 9.523438 57.519531 9.597656 57.570312 9.660156 L 58.683594 10.15625 L 59.4375 10.492188 C 59.917969 10.707031 60.378906 10.910156 60.832031 11.113281 L 65.289062 13.097656 C 65.4375 12.515625 65.511719 11.894531 65.511719 11.234375 C 65.511719 9.25 64.8125 7.570312 63.421875 6.191406 C 62.042969 4.800781 60.367188 4.105469 58.390625 4.105469 Z M 58.390625 4.105469 "/>
<path fill-rule="nonzero" fill="rgb(100%, 100%, 100%)" fill-opacity="1" d="M 86 11.234375 C 86.003906 15.621094 82.453125 19.175781 78.070312 19.179688 C 73.683594 19.183594 70.128906 15.632812 70.125 11.246094 C 70.125 11.242188 70.125 11.238281 70.125 11.234375 C 70.121094 6.851562 73.671875 3.296875 78.058594 3.292969 C 82.441406 3.289062 86 6.839844 86 11.222656 C 86 11.226562 86 11.230469 86 11.234375 Z M 86 11.234375 "/>
<path fill-rule="nonzero" fill="rgb(0%, 0%, 0%)" fill-opacity="1" d="M 77.9375 2.539062 C 75.53125 2.539062 73.488281 3.378906 71.820312 5.0625 C 70.109375 6.800781 69.253906 8.859375 69.253906 11.234375 C 69.253906 13.613281 70.109375 15.65625 71.820312 17.367188 C 73.53125 19.078125 75.574219 19.933594 77.9375 19.933594 C 80.332031 19.933594 82.410156 19.070312 84.164062 17.34375 C 85.820312 15.707031 86.648438 13.671875 86.648438 11.234375 C 86.648438 8.800781 85.804688 6.742188 84.121094 5.0625 C 82.4375 3.378906 80.375 2.539062 77.9375 2.539062 Z M 77.960938 4.105469 C 79.933594 4.105469 81.609375 4.800781 82.988281 6.191406 C 84.382812 7.570312 85.078125 9.25 85.078125 11.234375 C 85.078125 13.234375 84.398438 14.894531 83.03125 16.214844 C 81.59375 17.632812 79.90625 18.34375 77.960938 18.34375 C 76.015625 18.34375 74.339844 17.640625 72.929688 16.234375 C 71.523438 14.828125 70.820312 13.164062 70.820312 11.234375 C 70.820312 9.308594 71.53125 7.625 72.953125 6.191406 C 74.316406 4.800781 75.984375 4.105469 77.960938 4.105469 Z M 77.960938 4.105469 "/>
<path fill-rule="nonzero" fill="rgb(0%, 0%, 0%)" fill-opacity="1" d="M 81.234375 9.175781 L 74.914062 9.175781 L 74.914062 10.671875 L 81.234375 10.671875 Z M 81.234375 11.96875 L 74.914062 11.96875 L 74.914062 13.464844 L 81.234375 13.464844 Z M 81.234375 11.96875 "/>
<path fill-rule="nonzero" fill="rgb(100%, 100%, 100%)" fill-opacity="1" d="M 46.878906 11.414062 C 46.878906 15.859375 43.269531 19.464844 38.824219 19.464844 C 34.375 19.464844 30.769531 15.859375 30.769531 11.414062 C 30.769531 6.964844 34.375 3.359375 38.824219 3.359375 C 43.269531 3.359375 46.878906 6.964844 46.878906 11.414062 Z M 46.878906 11.414062 "/>
<path fill-rule="nonzero" fill="rgb(0%, 0%, 0%)" fill-opacity="1" d="M 41.152344 9.082031 C 41.152344 8.773438 40.902344 8.519531 40.59375 8.519531 L 37.035156 8.519531 C 36.726562 8.519531 36.472656 8.773438 36.472656 9.082031 L 36.472656 12.640625 L 37.464844 12.640625 L 37.464844 16.851562 L 40.160156 16.851562 L 40.160156 12.640625 L 41.152344 12.640625 Z M 41.152344 9.082031 "/>
<path fill-rule="nonzero" fill="rgb(0%, 0%, 0%)" fill-opacity="1" d="M 40.03125 6.835938 C 40.03125 7.507812 39.484375 8.050781 38.8125 8.050781 C 38.140625 8.050781 37.597656 7.507812 37.597656 6.835938 C 37.597656 6.164062 38.140625 5.621094 38.8125 5.621094 C 39.484375 5.621094 40.03125 6.164062 40.03125 6.835938 Z M 40.03125 6.835938 "/>
<path fill-rule="evenodd" fill="rgb(0%, 0%, 0%)" fill-opacity="1" d="M 38.800781 2.539062 C 36.394531 2.539062 34.355469 3.378906 32.683594 5.0625 C 30.972656 6.800781 30.117188 8.859375 30.117188 11.234375 C 30.117188 13.613281 30.972656 15.65625 32.683594 17.367188 C 34.398438 19.078125 36.4375 19.929688 38.800781 19.929688 C 41.195312 19.929688 43.273438 19.070312 45.027344 17.34375 C 46.683594 15.707031 47.511719 13.671875 47.511719 11.234375 C 47.511719 8.800781 46.667969 6.742188 44.984375 5.0625 C 43.300781 3.378906 41.242188 2.539062 38.800781 2.539062 Z M 38.824219 4.105469 C 40.796875 4.105469 42.472656 4.800781 43.851562 6.191406 C 45.246094 7.566406 45.941406 9.25 45.941406 11.234375 C 45.941406 13.234375 45.261719 14.894531 43.898438 16.214844 C 42.460938 17.632812 40.769531 18.34375 38.824219 18.34375 C 36.878906 18.34375 35.203125 17.640625 33.796875 16.234375 C 32.386719 14.828125 31.683594 13.164062 31.683594 11.234375 C 31.683594 9.308594 32.394531 7.625 33.816406 6.191406 C 35.183594 4.800781 36.851562 4.105469 38.824219 4.105469 Z M 38.824219 4.105469 "/>
</svg>
