<?xml version="1.0" encoding="UTF-8"?>
<svg xmlns="http://www.w3.org/2000/svg" xmlns:xlink="http://www.w3.org/1999/xlink" width="250" height="120.459617" viewBox="0 0 250 120.459617">
<defs>
<filter id="filter-remove-color" x="0%" y="0%" width="100%" height="100%">
<feColorMatrix color-interpolation-filters="sRGB" values="0 0 0 0 1 0 0 0 0 1 0 0 0 0 1 0 0 0 1 0" />
</filter>
<clipPath id="clip-0">
<path clip-rule="nonzero" d="M 0 2.058594 L 246.347656 2.058594 L 246.347656 121 L 0 121 Z M 0 2.058594 "/>
</clipPath>
<mask id="mask-0">
<g filter="url(#filter-remove-color)">
<rect x="-25" y="-12.045962" width="300" height="144.55154" fill="rgb(0%, 0%, 0%)" fill-opacity="0.92338"/>
</g>
</mask>
<clipPath id="clip-1">
<path clip-rule="nonzero" d="M 0 16 L 143 16 L 143 121 L 0 121 Z M 0 16 "/>
</clipPath>
<clipPath id="clip-2">
<rect x="0" y="0" width="250" height="121"/>
</clipPath>
<g id="source-21" clip-path="url(#clip-2)">
<g clip-path="url(#clip-1)">
<path fill="none" stroke-width="2.86369" stroke-linecap="butt" stroke-linejoin="miter" stroke="rgb(0%, 0%, 50.196078%)" stroke-opacity="1" stroke-miterlimit="10" d="M 0.0000496946 -0.00107366 C 11.277635 10.895188 27.15747 19.19962 43.98056 22.193448 C 60.798466 25.187275 78.569992 22.875786 92.915744 16.544318 C 107.375516 10.487901 121.280737 -0.820938 130.676997 -15.091867 C 140.073257 -29.362796 144.965739 -46.595816 144.815441 -62.279027 " transform="matrix(0.753707, 0, 0, -0.738499, 3.039025, 64.139832)"/>
</g>
</g>
<mask id="mask-1">
<g filter="url(#filter-remove-color)">
<rect x="-25" y="-12.045962" width="300" height="144.55154" fill="rgb(0%, 0%, 0%)" fill-opacity="0.92338"/>
</g>
</mask>
<clipPath id="clip-3">
<path clip-rule="nonzero" d="M 81 35 L 224 35 L 224 121 L 81 121 Z M 81 35 "/>
</clipPath>
<clipPath id="clip-4">
<rect x="0" y="0" width="250" height="121"/>
</clipPath>
<g id="source-26" clip-path="url(#clip-4)">
<g clip-path="url(#clip-3)">
<path fill="none" stroke-width="2.86369" stroke-linecap="butt" stroke-linejoin="miter" stroke="rgb(0%, 0%, 50.196078%)" stroke-opacity="1" stroke-miterlimit="10" d="M -0.000119114 0.0011996 C -7.385486 8.935076 -18.611245 16.297987 -30.930555 19.561576 C -43.244684 22.825165 -56.641999 21.984143 -67.484236 17.879532 C -78.41458 14.012946 -89.189442 6.004722 -96.48152 -4.441936 C -103.778782 -14.883305 -107.603624 -27.752531 -107.474057 -39.347 " transform="matrix(0.753707, 0, 0, -0.738499, 193.191496, 81.075105)"/>
</g>
</g>
<clipPath id="clip-5">
<path clip-rule="nonzero" d="M 0 2.058594 L 246.347656 2.058594 L 246.347656 121 L 0 121 Z M 0 2.058594 "/>
</clipPath>
<mask id="mask-2">
<g filter="url(#filter-remove-color)">
<rect x="-25" y="-12.045962" width="300" height="144.55154" fill="rgb(0%, 0%, 0%)" fill-opacity="0.92338"/>
</g>
</mask>
<clipPath id="clip-6">
<path clip-rule="nonzero" d="M 27 52 L 143 52 L 143 121 L 27 121 Z M 27 52 "/>
</clipPath>
<clipPath id="clip-7">
<rect x="0" y="0" width="250" height="121"/>
</clipPath>
<g id="source-41" clip-path="url(#clip-7)">
<g clip-path="url(#clip-6)">
<path fill="none" stroke-width="2.86369" stroke-linecap="butt" stroke-linejoin="miter" stroke="rgb(0%, 0%, 50.196078%)" stroke-opacity="1" stroke-miterlimit="10" d="M 0.0022473 -0.000262937 C 3.267357 7.135202 9.750932 13.953299 17.675302 17.793438 C 25.599671 21.644156 34.964835 22.516915 42.588607 20.665608 C 50.269389 19.057616 58.34924 14.23364 63.848099 7.352069 C 69.346959 0.470498 72.264827 -8.473958 72.140442 -16.318208 " transform="matrix(0.753707, 0, 0, -0.738499, 57.814712, 98.081837)"/>
</g>
</g>
<clipPath id="clip-8">
<path clip-rule="nonzero" d="M 0 2.058594 L 246.347656 2.058594 L 246.347656 121 L 0 121 Z M 0 2.058594 "/>
</clipPath>
<mask id="mask-3">
<g filter="url(#filter-remove-color)">
<rect x="-25" y="-12.045962" width="300" height="144.55154" fill="rgb(0%, 0%, 0%)" fill-opacity="0.92338"/>
</g>
</mask>
<clipPath id="clip-9">
<path clip-rule="nonzero" d="M 24 35 L 143 35 L 143 121 L 24 121 Z M 24 35 "/>
</clipPath>
<clipPath id="clip-10">
<rect x="0" y="0" width="250" height="121"/>
</clipPath>
<g id="source-50" clip-path="url(#clip-10)">
<g clip-path="url(#clip-9)">
<path fill="none" stroke-width="2.86369" stroke-linecap="butt" stroke-linejoin="miter" stroke="rgb(0%, 0%, 50.196078%)" stroke-opacity="1" stroke-miterlimit="10" d="M 0.00024784 -0.00216778 C 8.629466 2.2194 18.274497 2.478583 27.453083 0.553224 C 36.636852 -1.377424 45.35936 -5.503193 52.366389 -11.009508 C 59.41488 -16.452349 65.551213 -23.899891 69.67147 -32.33127 C 73.786545 -40.762649 75.89591 -50.177866 75.854448 -59.085295 " transform="matrix(0.753707, 0, 0, -0.738499, 55.015438, 66.498399)"/>
</g>
</g>
<mask id="mask-4">
<g filter="url(#filter-remove-color)">
<rect x="-25" y="-12.045962" width="300" height="144.55154" fill="rgb(0%, 0%, 0%)" fill-opacity="0.92338"/>
</g>
</mask>
<clipPath id="clip-11">
<path clip-rule="nonzero" d="M 81 52 L 182 52 L 182 121 L 81 121 Z M 81 52 "/>
</clipPath>
<clipPath id="clip-12">
<rect x="0" y="0" width="250" height="121"/>
</clipPath>
<g id="source-55" clip-path="url(#clip-12)">
<g clip-path="url(#clip-11)">
<path fill="none" stroke-width="2.86369" stroke-linecap="butt" stroke-linejoin="miter" stroke="rgb(0%, 0%, 50.196078%)" stroke-opacity="1" stroke-miterlimit="10" d="M 0.0009028 -0.000725476 C -5.477226 2.204974 -11.888243 3.120048 -18.117865 2.43242 C -24.35267 1.744792 -30.406079 -0.545539 -35.272648 -3.893759 C -40.175495 -7.183795 -44.534157 -11.970745 -47.467574 -17.508796 C -50.40099 -23.052137 -51.909159 -29.34658 -51.878063 -35.254892 " transform="matrix(0.753707, 0, 0, -0.738499, 151.288382, 84.09712)"/>
</g>
</g>
<mask id="mask-5">
<g filter="url(#filter-remove-color)">
<rect x="-25" y="-12.045962" width="300" height="144.55154" fill="rgb(0%, 0%, 0%)" fill-opacity="0.92338"/>
</g>
</mask>
<clipPath id="clip-13">
<path clip-rule="nonzero" d="M 81 0 L 250 0 L 250 121 L 81 121 Z M 81 0 "/>
</clipPath>
<clipPath id="clip-14">
<rect x="0" y="0" width="250" height="121"/>
</clipPath>
<g id="source-60" clip-path="url(#clip-14)">
<g clip-path="url(#clip-13)">
<path fill="none" stroke-width="2.86369" stroke-linecap="butt" stroke-linejoin="miter" stroke="rgb(0%, 0%, 50.196078%)" stroke-opacity="1" stroke-miterlimit="10" d="M 0.00191426 -0.00000495551 C -2.579077 9.002634 -6.865182 18.185115 -12.923774 26.553021 C -18.982367 34.915637 -26.813447 42.463679 -35.769177 48.271492 C -44.724906 54.084595 -54.810468 58.157469 -64.91676 60.278537 C -75.028234 62.399606 -85.16044 62.563579 -94.432315 61.246506 C -103.709373 59.950592 -113.395865 56.988501 -122.527807 52.159236 C -131.654566 47.324681 -140.221592 40.62824 -147.223439 32.567123 C -154.225285 24.506005 -159.667135 15.090788 -163.175832 5.379363 C -166.684529 -4.337352 -168.27044 -14.344986 -168.260074 -23.712598 L -168.260074 103.451007 " transform="matrix(0.753707, 0, 0, -0.738499, 239.00637, 92.62109)"/>
</g>
</g>
</defs>
<path fill-rule="nonzero" fill="rgb(1.568627%, 2.352941%, 2.352941%)" fill-opacity="1" d="M 3.839844 61.976562 C 4.476562 61.832031 5.300781 62.457031 5.316406 63.097656 C 5.464844 63.722656 4.824219 64.527344 4.171875 64.542969 C 3.535156 64.6875 2.710938 64.0625 2.695312 63.421875 C 2.550781 62.796875 3.1875 61.992188 3.839844 61.976562 "/>
<path fill-rule="nonzero" fill="rgb(1.568627%, 2.352941%, 2.352941%)" fill-opacity="1" d="M 238.464844 90.097656 C 239.101562 89.953125 239.921875 90.582031 239.9375 91.21875 C 240.085938 91.84375 239.445312 92.648438 238.792969 92.664062 C 238.15625 92.808594 237.335938 92.183594 237.320312 91.542969 C 237.171875 90.917969 237.8125 90.113281 238.464844 90.097656 "/>
<path fill-rule="nonzero" fill="rgb(1.568627%, 2.352941%, 2.352941%)" fill-opacity="1" d="M 149.886719 82.363281 C 150.519531 82.222656 151.34375 82.847656 151.359375 83.488281 C 151.507812 84.109375 150.867188 84.917969 150.214844 84.933594 C 149.578125 85.078125 148.757812 84.449219 148.742188 83.808594 C 148.59375 83.1875 149.234375 82.378906 149.886719 82.363281 "/>
<path fill-rule="nonzero" fill="rgb(1.568627%, 2.352941%, 2.352941%)" fill-opacity="1" d="M 56.136719 64.917969 C 56.769531 64.773438 57.59375 65.398438 57.609375 66.039062 C 57.757812 66.660156 57.117188 67.46875 56.464844 67.484375 C 55.828125 67.628906 55.007812 67 54.992188 66.363281 C 54.84375 65.738281 55.484375 64.933594 56.136719 64.917969 "/>
<path fill-rule="nonzero" fill="rgb(1.568627%, 2.352941%, 2.352941%)" fill-opacity="1" d="M 58.246094 95.644531 C 58.882812 95.5 59.703125 96.125 59.71875 96.765625 C 59.867188 97.386719 59.226562 98.195312 58.574219 98.210938 C 57.9375 98.355469 57.117188 97.726562 57.101562 97.089844 C 56.953125 96.464844 57.59375 95.660156 58.246094 95.644531 "/>
<path fill-rule="nonzero" fill="rgb(1.568627%, 2.352941%, 2.352941%)" fill-opacity="1" d="M 112.023438 14.941406 C 112.660156 14.796875 113.484375 15.421875 113.5 16.0625 C 113.644531 16.683594 113.007812 17.492188 112.355469 17.507812 C 111.71875 17.652344 110.894531 17.023438 110.878906 16.386719 C 110.730469 15.761719 111.371094 14.957031 112.023438 14.941406 "/>
<path fill-rule="nonzero" fill="rgb(1.568627%, 2.352941%, 2.352941%)" fill-opacity="1" d="M 192.160156 78.816406 C 192.796875 78.671875 193.617188 79.296875 193.636719 79.9375 C 193.78125 80.5625 193.144531 81.367188 192.488281 81.382812 C 191.855469 81.527344 191.03125 80.902344 191.015625 80.261719 C 190.867188 79.636719 191.507812 78.832031 192.160156 78.816406 "/>
<g clip-path="url(#clip-0)">
<g mask="url(#mask-0)">
<use xlink:href="#source-21"/>
</g>
<g mask="url(#mask-1)">
<use xlink:href="#source-26"/>
</g>
</g>
<path fill="none" stroke-width="0.324" stroke-linecap="butt" stroke-linejoin="miter" stroke="rgb(1.568627%, 2.352941%, 2.352941%)" stroke-opacity="1" stroke-miterlimit="10" d="M -0.00248664 -0.000691342 C -0.868 -0.0218491 -1.712782 -1.111475 -1.521022 -1.957787 C -1.500291 -2.825256 -0.406738 -3.671568 0.438044 -3.475858 C 1.303557 -3.4547 2.153522 -2.365074 1.956579 -1.518763 C 1.935848 -0.651293 0.842296 0.195018 -0.00248664 -0.000691342 Z M -0.00248664 -0.000691342 " transform="matrix(0.753707, 0, 0, -0.738499, 3.841718, 61.976052)"/>
<path fill="none" stroke-width="0.324" stroke-linecap="butt" stroke-linejoin="miter" stroke="rgb(1.568627%, 2.352941%, 2.352941%)" stroke-opacity="1" stroke-miterlimit="10" d="M 0.00159739 -0.00126787 C -0.863916 -0.0224257 -1.713881 -1.112052 -1.516938 -1.958363 C -1.496207 -2.820543 -0.407837 -3.672144 0.436945 -3.476435 C 1.302459 -3.455277 2.152424 -2.360361 1.955481 -1.519339 C 1.93475 -0.65187 0.84638 0.194442 0.00159739 -0.00126787 Z M 0.00159739 -0.00126787 " transform="matrix(0.753707, 0, 0, -0.738499, 58.24489, 95.643595)"/>
<path fill="none" stroke-width="0.324" stroke-linecap="butt" stroke-linejoin="miter" stroke="rgb(1.568627%, 2.352941%, 2.352941%)" stroke-opacity="1" stroke-miterlimit="10" d="M 0.00182086 0.00254942 C -0.863692 -0.0186084 -1.713657 -1.113524 -1.516714 -1.954546 C -1.495983 -2.822015 -0.407614 -3.673617 0.437169 -3.477907 C 1.302682 -3.456749 2.152647 -2.361834 1.955704 -1.520811 C 1.934973 -0.653342 0.841421 0.19297 0.00182086 0.00254942 Z M 0.00182086 0.00254942 " transform="matrix(0.753707, 0, 0, -0.738499, 149.885346, 82.365164)"/>
<path fill="none" stroke-width="0.324" stroke-linecap="butt" stroke-linejoin="miter" stroke="rgb(1.568627%, 2.352941%, 2.352941%)" stroke-opacity="1" stroke-miterlimit="10" d="M 0.00151086 0.000362762 C -0.864002 -0.020795 -1.713967 -1.110421 -1.517024 -1.956733 C -1.496293 -2.824202 -0.407924 -3.670514 0.436859 -3.474804 C 1.302372 -3.453646 2.152337 -2.36402 1.955394 -1.517709 C 1.934663 -0.655529 0.846293 0.196072 0.00151086 0.000362762 Z M 0.00151086 0.000362762 " transform="matrix(0.753707, 0, 0, -0.738499, 238.463705, 90.097924)"/>
<path fill="none" stroke-width="0.324" stroke-linecap="butt" stroke-linejoin="miter" stroke="rgb(1.568627%, 2.352941%, 2.352941%)" stroke-opacity="1" stroke-miterlimit="10" d="M 0.000350705 -0.000901636 C -0.865163 -0.0220594 -1.715128 -1.111686 -1.518184 -1.957997 C -1.497454 -2.825467 -0.403901 -3.671778 0.435699 -3.476069 C 1.306395 -3.454911 2.151177 -2.365285 1.959417 -1.518973 C 1.933503 -0.651504 0.845133 0.194808 0.000350705 -0.000901636 Z M 0.000350705 -0.000901636 " transform="matrix(0.753707, 0, 0, -0.738499, 192.159892, 78.81574)"/>
<g clip-path="url(#clip-5)">
<g mask="url(#mask-2)">
<use xlink:href="#source-41"/>
</g>
</g>
<path fill="none" stroke-width="0.324" stroke-linecap="butt" stroke-linejoin="miter" stroke="rgb(1.568627%, 2.352941%, 2.352941%)" stroke-opacity="1" stroke-miterlimit="10" d="M 0.00193711 -0.00247196 C -0.863576 -0.0236298 -1.713541 -1.113256 -1.516598 -1.959567 C -1.495867 -2.821747 -0.407497 -3.673348 0.437285 -3.477639 C 1.302798 -3.456481 2.152763 -2.361565 1.95582 -1.520543 C 1.935089 -0.653074 0.841537 0.193238 0.00193711 -0.00247196 Z M 0.00193711 -0.00247196 " transform="matrix(0.753707, 0, 0, -0.738499, 56.135259, 64.916143)"/>
<path fill="none" stroke-width="0.324" stroke-linecap="butt" stroke-linejoin="miter" stroke="rgb(1.568627%, 2.352941%, 2.352941%)" stroke-opacity="1" stroke-miterlimit="10" d="M -0.000749105 -0.0021645 C -0.866262 -0.0233223 -1.716227 -1.112948 -1.519284 -1.95926 C -1.498553 -2.82144 -0.405001 -3.673041 0.439782 -3.477331 C 1.305295 -3.456174 2.150077 -2.361258 1.958317 -1.520236 C 1.937586 -0.652767 0.844033 0.193545 -0.000749105 -0.0021645 Z M -0.000749105 -0.0021645 " transform="matrix(0.753707, 0, 0, -0.738499, 112.024002, 14.939808)"/>
<g clip-path="url(#clip-8)">
<g mask="url(#mask-3)">
<use xlink:href="#source-50"/>
</g>
<g mask="url(#mask-4)">
<use xlink:href="#source-55"/>
</g>
<g mask="url(#mask-5)">
<use xlink:href="#source-60"/>
</g>
</g>
<path fill="none" stroke-width="0.971" stroke-linecap="butt" stroke-linejoin="miter" stroke="rgb(41.176471%, 64.705882%, 44.705882%)" stroke-opacity="1" stroke-miterlimit="10" d="M -0.000385834 -0.00238177 L 237.331867 -0.00238177 " transform="matrix(0.934114, 0, 0, -0.738499, 22.75036, 110.271679)"/>
<path fill-rule="nonzero" fill="rgb(100%, 100%, 100%)" fill-opacity="1" stroke-width="0.081" stroke-linecap="butt" stroke-linejoin="miter" stroke="rgb(1.568627%, 2.352941%, 2.352941%)" stroke-opacity="1" stroke-miterlimit="10" d="M -0.000149661 0.000913338 C -0.000149661 -0.268848 -0.217824 -0.485716 -0.487325 -0.485716 C -0.751643 -0.485716 -0.969317 -0.268848 -0.969317 0.000913338 C -0.969317 0.265386 -0.751643 0.487542 -0.487325 0.487542 C -0.217824 0.487542 -0.000149661 0.265386 -0.000149661 0.000913338 " transform="matrix(0.753707, 0, 0, -0.738499, 112.5548, 16.223331)"/>
<path fill-rule="nonzero" fill="rgb(100%, 100%, 100%)" fill-opacity="1" stroke-width="0.081" stroke-linecap="butt" stroke-linejoin="miter" stroke="rgb(1.568627%, 2.352941%, 2.352941%)" stroke-opacity="1" stroke-miterlimit="10" d="M 0.00239868 0.000448163 C 0.00239868 -0.269314 -0.220458 -0.486181 -0.484776 -0.486181 C -0.754278 -0.486181 -0.971952 -0.269314 -0.971952 0.000448163 C -0.971952 0.264921 -0.754278 0.487077 -0.484776 0.487077 C -0.220458 0.487077 0.00239868 0.264921 0.00239868 0.000448163 " transform="matrix(0.753707, 0, 0, -0.738499, 150.416161, 83.648768)"/>
<path fill-rule="nonzero" fill="rgb(100%, 100%, 100%)" fill-opacity="1" stroke-width="0.081" stroke-linecap="butt" stroke-linejoin="miter" stroke="rgb(1.568627%, 2.352941%, 2.352941%)" stroke-opacity="1" stroke-miterlimit="10" d="M -0.000149661 0.000913338 C -0.000149661 -0.268848 -0.217824 -0.485716 -0.487325 -0.485716 C -0.751643 -0.485716 -0.969317 -0.268848 -0.969317 0.000913338 C -0.969317 0.265386 -0.751643 0.487542 -0.487325 0.487542 C -0.217824 0.487542 -0.000149661 0.265386 -0.000149661 0.000913338 " transform="matrix(0.753707, 0, 0, -0.738499, 112.5548, 16.223331)"/>
<path fill-rule="nonzero" fill="rgb(100%, 100%, 100%)" fill-opacity="1" stroke-width="0.081" stroke-linecap="butt" stroke-linejoin="miter" stroke="rgb(1.568627%, 2.352941%, 2.352941%)" stroke-opacity="1" stroke-miterlimit="10" d="M -0.000149661 0.000913338 C -0.000149661 -0.268848 -0.217824 -0.485716 -0.487325 -0.485716 C -0.751643 -0.485716 -0.969317 -0.268848 -0.969317 0.000913338 C -0.969317 0.265386 -0.751643 0.487542 -0.487325 0.487542 C -0.217824 0.487542 -0.000149661 0.265386 -0.000149661 0.000913338 " transform="matrix(0.753707, 0, 0, -0.738499, 112.5548, 16.223331)"/>
<path fill-rule="nonzero" fill="rgb(100%, 100%, 100%)" fill-opacity="1" stroke-width="0.081" stroke-linecap="butt" stroke-linejoin="miter" stroke="rgb(1.568627%, 2.352941%, 2.352941%)" stroke-opacity="1" stroke-miterlimit="10" d="M 0.0014399 0.00192032 C 0.0014399 -0.267841 -0.216234 -0.484709 -0.485735 -0.484709 C -0.750054 -0.484709 -0.97291 -0.267841 -0.97291 0.00192032 C -0.97291 0.266393 -0.750054 0.48326 -0.485735 0.48326 C -0.216234 0.48326 0.0014399 0.266393 0.0014399 0.00192032 " transform="matrix(0.753707, 0, 0, -0.738499, 58.776258, 96.927199)"/>
<path fill-rule="nonzero" fill="rgb(100%, 100%, 100%)" fill-opacity="1" stroke-width="0.081" stroke-linecap="butt" stroke-linejoin="miter" stroke="rgb(1.568627%, 2.352941%, 2.352941%)" stroke-opacity="1" stroke-miterlimit="10" d="M 0.0014399 0.00192032 C 0.0014399 -0.267841 -0.216234 -0.484709 -0.485735 -0.484709 C -0.750054 -0.484709 -0.97291 -0.267841 -0.97291 0.00192032 C -0.97291 0.266393 -0.750054 0.48326 -0.485735 0.48326 C -0.216234 0.48326 0.0014399 0.266393 0.0014399 0.00192032 " transform="matrix(0.753707, 0, 0, -0.738499, 58.776258, 96.927199)"/>
<path fill-rule="nonzero" fill="rgb(100%, 100%, 100%)" fill-opacity="1" stroke-width="0.081" stroke-linecap="butt" stroke-linejoin="miter" stroke="rgb(1.568627%, 2.352941%, 2.352941%)" stroke-opacity="1" stroke-miterlimit="10" d="M 0.000993403 0.00224241 C 0.000993403 -0.267519 -0.216681 -0.484387 -0.486182 -0.484387 C -0.7505 -0.484387 -0.973357 -0.267519 -0.973357 0.00224241 C -0.973357 0.266715 -0.7505 0.483582 -0.486182 0.483582 C -0.216681 0.483582 0.000993403 0.266715 0.000993403 0.00224241 " transform="matrix(0.753707, 0, 0, -0.738499, 192.690658, 80.099312)"/>
<path fill-rule="nonzero" fill="rgb(100%, 100%, 100%)" fill-opacity="1" stroke-width="0.081" stroke-linecap="butt" stroke-linejoin="miter" stroke="rgb(1.568627%, 2.352941%, 2.352941%)" stroke-opacity="1" stroke-miterlimit="10" d="M 0.0014399 0.00192032 C 0.0014399 -0.267841 -0.216234 -0.484709 -0.485735 -0.484709 C -0.750054 -0.484709 -0.97291 -0.267841 -0.97291 0.00192032 C -0.97291 0.266393 -0.750054 0.48326 -0.485735 0.48326 C -0.216234 0.48326 0.0014399 0.266393 0.0014399 0.00192032 " transform="matrix(0.753707, 0, 0, -0.738499, 58.776258, 96.927199)"/>
<path fill-rule="nonzero" fill="rgb(100%, 100%, 100%)" fill-opacity="1" stroke-width="0.357961" stroke-linecap="butt" stroke-linejoin="miter" stroke="rgb(1.568627%, 2.352941%, 2.352941%)" stroke-opacity="1" stroke-miterlimit="10" d="M -0.000297245 0.000240041 C -0.000297245 -0.266877 -0.217971 -0.485067 -0.484881 -0.485067 C -0.751791 -0.485067 -0.97076 -0.266877 -0.97076 0.000240041 C -0.97076 0.266696 -0.751791 0.484886 -0.484881 0.484886 C -0.217971 0.484886 -0.000297245 0.266696 -0.000297245 0.000240041 " transform="matrix(6.02966, 0, 0, -5.90799, 61.33773, 96.927199)"/>
<path fill-rule="nonzero" fill="rgb(100%, 100%, 100%)" fill-opacity="1" stroke-width="0.081" stroke-linecap="butt" stroke-linejoin="miter" stroke="rgb(1.568627%, 2.352941%, 2.352941%)" stroke-opacity="1" stroke-miterlimit="10" d="M 0.000993403 0.00224241 C 0.000993403 -0.267519 -0.216681 -0.484387 -0.486182 -0.484387 C -0.7505 -0.484387 -0.973357 -0.267519 -0.973357 0.00224241 C -0.973357 0.266715 -0.7505 0.483582 -0.486182 0.483582 C -0.216681 0.483582 0.000993403 0.266715 0.000993403 0.00224241 " transform="matrix(0.753707, 0, 0, -0.738499, 192.690658, 80.099312)"/>
<path fill-rule="nonzero" fill="rgb(100%, 100%, 100%)" fill-opacity="1" stroke-width="0.081" stroke-linecap="butt" stroke-linejoin="miter" stroke="rgb(1.568627%, 2.352941%, 2.352941%)" stroke-opacity="1" stroke-miterlimit="10" d="M 0.000993403 0.00224241 C 0.000993403 -0.267519 -0.216681 -0.484387 -0.486182 -0.484387 C -0.7505 -0.484387 -0.973357 -0.267519 -0.973357 0.00224241 C -0.973357 0.266715 -0.7505 0.483582 -0.486182 0.483582 C -0.216681 0.483582 0.000993403 0.266715 0.000993403 0.00224241 " transform="matrix(0.753707, 0, 0, -0.738499, 192.690658, 80.099312)"/>
<path fill-rule="nonzero" fill="rgb(100%, 100%, 100%)" fill-opacity="1" stroke-width="0.081" stroke-linecap="butt" stroke-linejoin="miter" stroke="rgb(1.568627%, 2.352941%, 2.352941%)" stroke-opacity="1" stroke-miterlimit="10" d="M 0.00253655 0.000716232 C 0.00253655 -0.269046 -0.22032 -0.485913 -0.484639 -0.485913 C -0.75414 -0.485913 -0.971814 -0.269046 -0.971814 0.000716232 C -0.971814 0.265189 -0.75414 0.487345 -0.484639 0.487345 C -0.22032 0.487345 0.00253655 0.265189 0.00253655 0.000716232 " transform="matrix(0.753707, 0, 0, -0.738499, 56.666057, 66.199748)"/>
<path fill-rule="nonzero" fill="rgb(100%, 100%, 100%)" fill-opacity="1" stroke-width="0.081" stroke-linecap="butt" stroke-linejoin="miter" stroke="rgb(1.568627%, 2.352941%, 2.352941%)" stroke-opacity="1" stroke-miterlimit="10" d="M 0.00253655 0.000716232 C 0.00253655 -0.269046 -0.22032 -0.485913 -0.484639 -0.485913 C -0.75414 -0.485913 -0.971814 -0.269046 -0.971814 0.000716232 C -0.971814 0.265189 -0.75414 0.487345 -0.484639 0.487345 C -0.22032 0.487345 0.00253655 0.265189 0.00253655 0.000716232 " transform="matrix(0.753707, 0, 0, -0.738499, 56.666057, 66.199748)"/>
<path fill-rule="nonzero" fill="rgb(100%, 100%, 100%)" fill-opacity="1" stroke-width="0.357961" stroke-linecap="butt" stroke-linejoin="miter" stroke="rgb(1.568627%, 2.352941%, 2.352941%)" stroke-opacity="1" stroke-miterlimit="10" d="M 0.000294782 0.000280302 C 0.000294782 -0.266837 -0.218027 -0.485026 -0.484937 -0.485026 C -0.751847 -0.485026 -0.970816 -0.266837 -0.970816 0.000280302 C -0.970816 0.266736 -0.751847 0.484926 -0.484937 0.484926 C -0.218027 0.484926 0.000294782 0.266736 0.000294782 0.000280302 " transform="matrix(6.02966, 0, 0, -5.90799, 195.252129, 80.099312)"/>
<path fill-rule="nonzero" fill="rgb(100%, 100%, 100%)" fill-opacity="1" stroke-width="0.081" stroke-linecap="butt" stroke-linejoin="miter" stroke="rgb(1.568627%, 2.352941%, 2.352941%)" stroke-opacity="1" stroke-miterlimit="10" d="M 0.00253655 0.000716232 C 0.00253655 -0.269046 -0.22032 -0.485913 -0.484639 -0.485913 C -0.75414 -0.485913 -0.971814 -0.269046 -0.971814 0.000716232 C -0.971814 0.265189 -0.75414 0.487345 -0.484639 0.487345 C -0.22032 0.487345 0.00253655 0.265189 0.00253655 0.000716232 " transform="matrix(0.753707, 0, 0, -0.738499, 56.666057, 66.199748)"/>
<path fill-rule="nonzero" fill="rgb(100%, 100%, 100%)" fill-opacity="1" stroke-width="0.357961" stroke-linecap="butt" stroke-linejoin="miter" stroke="rgb(1.568627%, 2.352941%, 2.352941%)" stroke-opacity="1" stroke-miterlimit="10" d="M -0.000162867 0.000089529 C -0.000162867 -0.267028 -0.217837 -0.485217 -0.484747 -0.485217 C -0.752304 -0.485217 -0.971274 -0.267028 -0.971274 0.000089529 C -0.971274 0.267207 -0.752304 0.484735 -0.484747 0.484735 C -0.217837 0.484735 -0.000162867 0.267207 -0.000162867 0.000089529 " transform="matrix(6.02966, 0, 0, -5.90799, 59.227545, 66.199748)"/>
<path fill-rule="nonzero" fill="rgb(100%, 100%, 100%)" fill-opacity="1" stroke-width="0.081" stroke-linecap="butt" stroke-linejoin="miter" stroke="rgb(1.568627%, 2.352941%, 2.352941%)" stroke-opacity="1" stroke-miterlimit="10" d="M -0.00188719 0.00245271 C -0.00188719 -0.267309 -0.219561 -0.484176 -0.48388 -0.484176 C -0.753381 -0.484176 -0.971055 -0.267309 -0.971055 0.00245271 C -0.971055 0.266925 -0.753381 0.483792 -0.48388 0.483792 C -0.219561 0.483792 -0.00188719 0.266925 -0.00188719 0.00245271 " transform="matrix(0.753707, 0, 0, -0.738499, 4.372516, 63.259624)"/>
<path fill-rule="nonzero" fill="rgb(100%, 100%, 100%)" fill-opacity="1" stroke-width="0.081" stroke-linecap="butt" stroke-linejoin="miter" stroke="rgb(1.568627%, 2.352941%, 2.352941%)" stroke-opacity="1" stroke-miterlimit="10" d="M -0.00188719 0.00245271 C -0.00188719 -0.267309 -0.219561 -0.484176 -0.48388 -0.484176 C -0.753381 -0.484176 -0.971055 -0.267309 -0.971055 0.00245271 C -0.971055 0.266925 -0.753381 0.483792 -0.48388 0.483792 C -0.219561 0.483792 -0.00188719 0.266925 -0.00188719 0.00245271 " transform="matrix(0.753707, 0, 0, -0.738499, 4.372516, 63.259624)"/>
<path fill-rule="nonzero" fill="rgb(100%, 100%, 100%)" fill-opacity="1" stroke-width="0.081" stroke-linecap="butt" stroke-linejoin="miter" stroke="rgb(1.568627%, 2.352941%, 2.352941%)" stroke-opacity="1" stroke-miterlimit="10" d="M 0.00211031 -0.00173849 C 0.00211031 -0.266211 -0.215564 -0.483078 -0.485065 -0.483078 C -0.754566 -0.483078 -0.97224 -0.266211 -0.97224 -0.00173849 C -0.97224 0.268023 -0.754566 0.484891 -0.485065 0.484891 C -0.215564 0.484891 0.00211031 0.268023 0.00211031 -0.00173849 " transform="matrix(0.753707, 0, 0, -0.738499, 238.994503, 91.381529)"/>
<path fill-rule="nonzero" fill="rgb(100%, 100%, 100%)" fill-opacity="1" stroke-width="0.081" stroke-linecap="butt" stroke-linejoin="miter" stroke="rgb(1.568627%, 2.352941%, 2.352941%)" stroke-opacity="1" stroke-miterlimit="10" d="M -0.00188719 0.00245271 C -0.00188719 -0.267309 -0.219561 -0.484176 -0.48388 -0.484176 C -0.753381 -0.484176 -0.971055 -0.267309 -0.971055 0.00245271 C -0.971055 0.266925 -0.753381 0.483792 -0.48388 0.483792 C -0.219561 0.483792 -0.00188719 0.266925 -0.00188719 0.00245271 " transform="matrix(0.753707, 0, 0, -0.738499, 4.372516, 63.259624)"/>
<path fill-rule="nonzero" fill="rgb(100%, 100%, 100%)" fill-opacity="1" stroke-width="0.357961" stroke-linecap="butt" stroke-linejoin="miter" stroke="rgb(1.568627%, 2.352941%, 2.352941%)" stroke-opacity="1" stroke-miterlimit="10" d="M -0.0000666445 0.000306589 C -0.0000666445 -0.266811 -0.217741 -0.485 -0.485298 -0.485 C -0.752208 -0.485 -0.971178 -0.266811 -0.971178 0.000306589 C -0.971178 0.266763 -0.752208 0.484952 -0.485298 0.484952 C -0.217741 0.484952 -0.0000666445 0.266763 -0.0000666445 0.000306589 " transform="matrix(6.02966, 0, 0, -5.90799, 6.933996, 63.259624)"/>
<path fill-rule="nonzero" fill="rgb(100%, 100%, 100%)" fill-opacity="1" stroke-width="0.081" stroke-linecap="butt" stroke-linejoin="miter" stroke="rgb(1.568627%, 2.352941%, 2.352941%)" stroke-opacity="1" stroke-miterlimit="10" d="M 0.00239868 0.000448163 C 0.00239868 -0.269314 -0.220458 -0.486181 -0.484776 -0.486181 C -0.754278 -0.486181 -0.971952 -0.269314 -0.971952 0.000448163 C -0.971952 0.264921 -0.754278 0.487077 -0.484776 0.487077 C -0.220458 0.487077 0.00239868 0.264921 0.00239868 0.000448163 " transform="matrix(0.753707, 0, 0, -0.738499, 150.416161, 83.648768)"/>
<path fill-rule="nonzero" fill="rgb(100%, 100%, 100%)" fill-opacity="1" stroke-width="0.357961" stroke-linecap="butt" stroke-linejoin="miter" stroke="rgb(1.568627%, 2.352941%, 2.352941%)" stroke-opacity="1" stroke-miterlimit="10" d="M 0.000151899 0.000114167 C 0.000151899 -0.267003 -0.21817 -0.485193 -0.48508 -0.485193 C -0.751989 -0.485193 -0.970959 -0.267003 -0.970959 0.000114167 C -0.970959 0.267231 -0.751989 0.48476 -0.48508 0.48476 C -0.21817 0.48476 0.000151899 0.267231 0.000151899 0.000114167 " transform="matrix(6.02966, 0, 0, -5.90799, 115.116272, 16.223331)"/>
<path fill-rule="nonzero" fill="rgb(100%, 100%, 100%)" fill-opacity="1" stroke-width="0.081" stroke-linecap="butt" stroke-linejoin="miter" stroke="rgb(1.568627%, 2.352941%, 2.352941%)" stroke-opacity="1" stroke-miterlimit="10" d="M 0.00211031 -0.00173849 C 0.00211031 -0.266211 -0.215564 -0.483078 -0.485065 -0.483078 C -0.754566 -0.483078 -0.97224 -0.266211 -0.97224 -0.00173849 C -0.97224 0.268023 -0.754566 0.484891 -0.485065 0.484891 C -0.215564 0.484891 0.00211031 0.268023 0.00211031 -0.00173849 " transform="matrix(0.753707, 0, 0, -0.738499, 238.994503, 91.381529)"/>
<path fill-rule="nonzero" fill="rgb(100%, 100%, 100%)" fill-opacity="1" stroke-width="0.081" stroke-linecap="butt" stroke-linejoin="miter" stroke="rgb(1.568627%, 2.352941%, 2.352941%)" stroke-opacity="1" stroke-miterlimit="10" d="M 0.00211031 -0.00173849 C 0.00211031 -0.266211 -0.215564 -0.483078 -0.485065 -0.483078 C -0.754566 -0.483078 -0.97224 -0.266211 -0.97224 -0.00173849 C -0.97224 0.268023 -0.754566 0.484891 -0.485065 0.484891 C -0.215564 0.484891 0.00211031 0.268023 0.00211031 -0.00173849 " transform="matrix(0.753707, 0, 0, -0.738499, 238.994503, 91.381529)"/>
<path fill-rule="nonzero" fill="rgb(100%, 100%, 100%)" fill-opacity="1" stroke-width="0.081" stroke-linecap="butt" stroke-linejoin="miter" stroke="rgb(1.568627%, 2.352941%, 2.352941%)" stroke-opacity="1" stroke-miterlimit="10" d="M 0.00239868 0.000448163 C 0.00239868 -0.269314 -0.220458 -0.486181 -0.484776 -0.486181 C -0.754278 -0.486181 -0.971952 -0.269314 -0.971952 0.000448163 C -0.971952 0.264921 -0.754278 0.487077 -0.484776 0.487077 C -0.220458 0.487077 0.00239868 0.264921 0.00239868 0.000448163 " transform="matrix(0.753707, 0, 0, -0.738499, 150.416161, 83.648768)"/>
<path fill-rule="nonzero" fill="rgb(100%, 100%, 100%)" fill-opacity="1" stroke-width="0.357961" stroke-linecap="butt" stroke-linejoin="miter" stroke="rgb(1.568627%, 2.352941%, 2.352941%)" stroke-opacity="1" stroke-miterlimit="10" d="M -0.000213445 -0.000217311 C -0.000213445 -0.266673 -0.217887 -0.484863 -0.484797 -0.484863 C -0.751707 -0.484863 -0.970677 -0.266673 -0.970677 -0.000217311 C -0.970677 0.2669 -0.751707 0.485089 -0.484797 0.485089 C -0.217887 0.485089 -0.000213445 0.2669 -0.000213445 -0.000217311 " transform="matrix(6.02966, 0, 0, -5.90799, 241.555974, 91.381529)"/>
<path fill-rule="nonzero" fill="rgb(100%, 100%, 100%)" fill-opacity="1" stroke-width="0.357961" stroke-linecap="butt" stroke-linejoin="miter" stroke="rgb(1.568627%, 2.352941%, 2.352941%)" stroke-opacity="1" stroke-miterlimit="10" d="M -0.000177398 0.0000560204 C -0.000177398 -0.267061 -0.217851 -0.485251 -0.484761 -0.485251 C -0.752319 -0.485251 -0.971288 -0.267061 -0.971288 0.0000560204 C -0.971288 0.267173 -0.752319 0.484702 -0.484761 0.484702 C -0.217851 0.484702 -0.000177398 0.267173 -0.000177398 0.0000560204 " transform="matrix(6.02966, 0, 0, -5.90799, 152.977632, 83.648768)"/>
<path fill-rule="nonzero" fill="rgb(0%, 0%, 0%)" fill-opacity="1" d="M 109.367188 7.515625 C 108.875 8.339844 108.386719 8.515625 107.839844 8.554688 C 107.683594 8.574219 107.5625 8.574219 107.5625 8.808594 C 107.5625 8.886719 107.644531 8.945312 107.742188 8.945312 C 108.074219 8.945312 108.464844 8.90625 108.796875 8.90625 C 109.226562 8.90625 109.660156 8.945312 110.050781 8.945312 C 110.128906 8.945312 110.285156 8.945312 110.285156 8.710938 C 110.285156 8.574219 110.1875 8.554688 110.089844 8.554688 C 109.816406 8.535156 109.503906 8.4375 109.503906 8.125 C 109.503906 7.964844 109.582031 7.828125 109.679688 7.652344 L 110.636719 6.066406 L 113.769531 6.066406 C 113.789062 6.324219 113.964844 8.027344 113.964844 8.144531 C 113.964844 8.515625 113.320312 8.554688 113.066406 8.554688 C 112.886719 8.554688 112.769531 8.554688 112.769531 8.808594 C 112.769531 8.945312 112.910156 8.945312 112.949219 8.945312 C 113.457031 8.945312 113.984375 8.90625 114.492188 8.90625 C 114.808594 8.90625 115.609375 8.945312 115.921875 8.945312 C 115.980469 8.945312 116.136719 8.945312 116.136719 8.691406 C 116.136719 8.554688 116.019531 8.554688 115.84375 8.554688 C 115.082031 8.554688 115.082031 8.476562 115.042969 8.105469 L 114.277344 0.3125 C 114.257812 0.0585938 114.257812 0 114.042969 0 C 113.847656 0 113.789062 0.0976562 113.710938 0.214844 Z M 110.871094 5.675781 L 113.320312 1.546875 L 113.730469 5.675781 Z M 110.871094 5.675781 "/>
<path fill-rule="nonzero" fill="rgb(0%, 0%, 0%)" fill-opacity="1" d="M 2.773438 77.085938 C 2.65625 77.578125 2.617188 77.675781 1.636719 77.675781 C 1.421875 77.675781 1.304688 77.675781 1.304688 77.929688 C 1.304688 78.066406 1.421875 78.066406 1.636719 78.066406 L 6.101562 78.066406 C 8.078125 78.066406 9.546875 76.597656 9.546875 75.363281 C 9.546875 74.464844 8.820312 73.742188 7.609375 73.601562 C 8.898438 73.367188 10.210938 72.449219 10.210938 71.253906 C 10.210938 70.335938 9.390625 69.53125 7.902344 69.53125 L 3.691406 69.53125 C 3.457031 69.53125 3.339844 69.53125 3.339844 69.785156 C 3.339844 69.921875 3.457031 69.921875 3.691406 69.921875 C 3.710938 69.921875 3.945312 69.921875 4.164062 69.941406 C 4.378906 69.980469 4.496094 69.980469 4.496094 70.15625 C 4.496094 70.195312 4.476562 70.234375 4.457031 70.394531 Z M 4.652344 73.484375 L 5.433594 70.394531 C 5.550781 69.960938 5.570312 69.921875 6.101562 69.921875 L 7.726562 69.921875 C 8.820312 69.921875 9.074219 70.667969 9.074219 71.214844 C 9.074219 72.3125 8 73.484375 6.492188 73.484375 Z M 4.105469 77.675781 C 3.925781 77.675781 3.90625 77.675781 3.828125 77.675781 C 3.691406 77.65625 3.652344 77.636719 3.652344 77.539062 C 3.652344 77.5 3.652344 77.480469 3.730469 77.265625 L 4.59375 73.78125 L 6.941406 73.78125 C 8.136719 73.78125 8.390625 74.699219 8.390625 75.226562 C 8.390625 76.460938 7.273438 77.675781 5.789062 77.675781 Z M 4.105469 77.675781 "/>
<path fill-rule="nonzero" fill="rgb(0%, 0%, 0%)" fill-opacity="1" d="M 49.464844 64.636719 C 49.464844 64.597656 49.445312 64.5 49.328125 64.5 C 49.289062 64.5 49.269531 64.519531 49.132812 64.65625 L 48.269531 65.617188 C 48.152344 65.441406 47.585938 64.5 46.195312 64.5 C 43.394531 64.5 40.597656 67.261719 40.597656 70.15625 C 40.597656 72.214844 42.066406 73.582031 43.984375 73.582031 C 45.058594 73.582031 46.019531 73.09375 46.683594 72.507812 C 47.839844 71.488281 48.054688 70.351562 48.054688 70.3125 C 48.054688 70.175781 47.917969 70.175781 47.898438 70.175781 C 47.820312 70.175781 47.761719 70.214844 47.742188 70.3125 C 47.625 70.667969 47.332031 71.566406 46.46875 72.292969 C 45.609375 72.976562 44.824219 73.191406 44.179688 73.191406 C 43.0625 73.191406 41.734375 72.546875 41.734375 70.609375 C 41.734375 69.882812 41.988281 67.867188 43.238281 66.398438 C 44.003906 65.519531 45.175781 64.890625 46.292969 64.890625 C 47.566406 64.890625 48.308594 65.851562 48.308594 67.300781 C 48.308594 67.808594 48.269531 67.808594 48.269531 67.945312 C 48.269531 68.0625 48.40625 68.0625 48.445312 68.0625 C 48.601562 68.0625 48.601562 68.042969 48.679688 67.808594 Z M 49.464844 64.636719 "/>
<path fill-rule="nonzero" fill="rgb(0%, 0%, 0%)" fill-opacity="1" d="M 42.238281 101.992188 C 42.121094 102.484375 42.101562 102.582031 41.101562 102.582031 C 40.90625 102.582031 40.769531 102.582031 40.769531 102.816406 C 40.769531 102.972656 40.867188 102.972656 41.101562 102.972656 L 45.253906 102.972656 C 47.835938 102.972656 50.304688 100.328125 50.304688 97.609375 C 50.304688 95.847656 49.246094 94.4375 47.367188 94.4375 L 43.179688 94.4375 C 42.941406 94.4375 42.804688 94.4375 42.804688 94.671875 C 42.804688 94.828125 42.902344 94.828125 43.160156 94.828125 C 43.316406 94.828125 43.550781 94.847656 43.6875 94.847656 C 43.902344 94.886719 43.960938 94.90625 43.960938 95.0625 C 43.960938 95.101562 43.960938 95.140625 43.921875 95.300781 Z M 44.941406 95.300781 C 45.058594 94.867188 45.078125 94.828125 45.625 94.828125 L 46.957031 94.828125 C 48.167969 94.828125 49.207031 95.496094 49.207031 97.140625 C 49.207031 97.746094 48.972656 99.800781 47.894531 101.171875 C 47.542969 101.640625 46.566406 102.582031 45.019531 102.582031 L 43.609375 102.582031 C 43.433594 102.582031 43.414062 102.582031 43.335938 102.582031 C 43.21875 102.5625 43.179688 102.542969 43.179688 102.445312 C 43.179688 102.40625 43.179688 102.386719 43.238281 102.171875 Z M 44.941406 95.300781 "/>
<path fill-rule="nonzero" fill="rgb(0%, 0%, 0%)" fill-opacity="1" d="M 159.136719 93.339844 C 159.15625 93.28125 159.195312 93.203125 159.195312 93.164062 C 159.195312 93.164062 159.195312 93.027344 159.039062 93.027344 C 158.921875 93.027344 158.902344 93.105469 158.882812 93.183594 C 158.058594 95.023438 157.609375 95.863281 155.476562 95.863281 L 153.65625 95.863281 C 153.476562 95.863281 153.4375 95.863281 153.378906 95.863281 C 153.242188 95.84375 153.203125 95.824219 153.203125 95.726562 C 153.203125 95.6875 153.203125 95.667969 153.261719 95.453125 L 154.125 92.027344 L 155.355469 92.027344 C 156.414062 92.027344 156.414062 92.300781 156.414062 92.617188 C 156.414062 92.695312 156.414062 92.851562 156.335938 93.222656 C 156.316406 93.28125 156.296875 93.320312 156.296875 93.359375 C 156.296875 93.417969 156.335938 93.496094 156.453125 93.496094 C 156.550781 93.496094 156.589844 93.4375 156.648438 93.242188 L 157.355469 90.324219 C 157.355469 90.246094 157.296875 90.1875 157.199219 90.1875 C 157.101562 90.1875 157.0625 90.265625 157.039062 90.402344 C 156.765625 91.363281 156.550781 91.65625 155.398438 91.65625 L 154.222656 91.65625 L 154.964844 88.640625 C 155.082031 88.191406 155.101562 88.152344 155.652344 88.152344 L 157.414062 88.152344 C 158.921875 88.152344 159.3125 88.503906 159.3125 89.542969 C 159.3125 89.835938 159.3125 89.855469 159.253906 90.207031 C 159.253906 90.265625 159.234375 90.363281 159.234375 90.421875 C 159.234375 90.480469 159.273438 90.578125 159.390625 90.578125 C 159.527344 90.578125 159.546875 90.5 159.566406 90.265625 L 159.820312 88.09375 C 159.859375 87.761719 159.800781 87.761719 159.488281 87.761719 L 153.164062 87.761719 C 152.929688 87.761719 152.792969 87.761719 152.792969 88.015625 C 152.792969 88.152344 152.910156 88.152344 153.144531 88.152344 C 153.617188 88.152344 153.96875 88.152344 153.96875 88.367188 C 153.96875 88.425781 153.96875 88.445312 153.890625 88.679688 L 152.246094 95.277344 C 152.128906 95.765625 152.109375 95.863281 151.109375 95.863281 C 150.894531 95.863281 150.757812 95.863281 150.757812 96.097656 C 150.757812 96.257812 150.875 96.257812 151.109375 96.257812 L 157.589844 96.257812 C 157.882812 96.257812 157.902344 96.238281 157.980469 96.039062 Z M 159.136719 93.339844 "/>
<path fill-rule="nonzero" fill="rgb(0%, 0%, 0%)" fill-opacity="1" d="M 194.785156 91.085938 L 196 91.085938 C 196.941406 91.085938 197.039062 91.28125 197.039062 91.632812 C 197.039062 91.730469 197.039062 91.867188 196.960938 92.257812 C 196.921875 92.316406 196.921875 92.355469 196.921875 92.394531 C 196.921875 92.496094 197 92.535156 197.058594 92.535156 C 197.195312 92.535156 197.195312 92.496094 197.253906 92.277344 L 197.9375 89.558594 C 197.976562 89.421875 197.976562 89.402344 197.976562 89.363281 C 197.976562 89.34375 197.957031 89.226562 197.820312 89.226562 C 197.703125 89.226562 197.683594 89.285156 197.644531 89.5 C 197.371094 90.457031 197.097656 90.695312 196.019531 90.695312 L 194.882812 90.695312 L 195.6875 87.523438 C 195.804688 87.070312 195.824219 87.03125 196.371094 87.03125 L 198.015625 87.03125 C 199.542969 87.03125 199.835938 87.445312 199.835938 88.402344 C 199.835938 88.695312 199.835938 88.734375 199.796875 89.089844 C 199.777344 89.246094 199.777344 89.265625 199.777344 89.304688 C 199.777344 89.363281 199.816406 89.460938 199.933594 89.460938 C 200.070312 89.460938 200.070312 89.382812 200.089844 89.148438 L 200.347656 86.972656 C 200.386719 86.640625 200.328125 86.640625 200.011719 86.640625 L 193.886719 86.640625 C 193.652344 86.640625 193.515625 86.640625 193.515625 86.894531 C 193.515625 87.03125 193.632812 87.03125 193.867188 87.03125 C 194.335938 87.03125 194.6875 87.03125 194.6875 87.25 C 194.6875 87.308594 194.6875 87.328125 194.609375 87.5625 L 192.964844 94.15625 C 192.847656 94.648438 192.828125 94.746094 191.832031 94.746094 C 191.617188 94.746094 191.476562 94.746094 191.476562 94.980469 C 191.476562 95.136719 191.636719 95.136719 191.675781 95.136719 C 192.027344 95.136719 192.964844 95.097656 193.320312 95.097656 C 193.730469 95.097656 194.765625 95.136719 195.179688 95.136719 C 195.296875 95.136719 195.433594 95.136719 195.433594 94.902344 C 195.433594 94.804688 195.375 94.765625 195.375 94.765625 C 195.335938 94.746094 195.296875 94.746094 195.019531 94.746094 C 194.746094 94.746094 194.6875 94.746094 194.375 94.726562 C 194.003906 94.6875 193.964844 94.628906 193.964844 94.472656 C 193.964844 94.453125 193.964844 94.375 194.023438 94.199219 Z M 194.785156 91.085938 "/>
<path fill-rule="nonzero" fill="rgb(0%, 0%, 0%)" fill-opacity="1" d="M 250 94.859375 C 250 94.820312 249.980469 94.722656 249.863281 94.722656 C 249.824219 94.722656 249.804688 94.742188 249.667969 94.878906 L 248.804688 95.839844 C 248.6875 95.664062 248.121094 94.722656 246.730469 94.722656 C 243.933594 94.722656 241.132812 97.484375 241.132812 100.378906 C 241.132812 102.378906 242.523438 103.804688 244.539062 103.804688 C 245.085938 103.804688 245.65625 103.6875 246.105469 103.511719 C 246.730469 103.257812 246.964844 103.003906 247.179688 102.75 C 247.300781 103.0625 247.632812 103.511719 247.75 103.511719 C 247.808594 103.511719 247.847656 103.472656 247.847656 103.472656 C 247.867188 103.453125 247.984375 102.964844 248.042969 102.710938 L 248.277344 101.75 C 248.335938 101.535156 248.394531 101.320312 248.453125 101.105469 C 248.589844 100.558594 248.589844 100.519531 249.316406 100.519531 C 249.375 100.519531 249.511719 100.5 249.511719 100.261719 C 249.511719 100.164062 249.453125 100.125 249.355469 100.125 C 249.058594 100.125 248.316406 100.164062 248.042969 100.164062 C 247.652344 100.164062 246.671875 100.125 246.28125 100.125 C 246.183594 100.125 246.027344 100.125 246.027344 100.378906 C 246.027344 100.519531 246.125 100.519531 246.398438 100.519531 C 246.417969 100.519531 246.769531 100.519531 247.0625 100.535156 C 247.398438 100.574219 247.457031 100.613281 247.457031 100.773438 C 247.457031 100.890625 247.320312 101.4375 247.179688 101.90625 C 246.828125 103.277344 245.222656 103.414062 244.773438 103.414062 C 243.578125 103.414062 242.269531 102.710938 242.269531 100.792969 C 242.269531 100.398438 242.386719 98.34375 243.695312 96.71875 C 244.382812 95.878906 245.597656 95.113281 246.828125 95.113281 C 248.101562 95.113281 248.84375 96.074219 248.84375 97.523438 C 248.84375 98.03125 248.804688 98.03125 248.804688 98.167969 C 248.804688 98.285156 248.941406 98.285156 248.980469 98.285156 C 249.140625 98.285156 249.140625 98.265625 249.21875 98.03125 Z M 250 94.859375 "/>
<path fill-rule="nonzero" fill="rgb(0%, 0%, 0%)" fill-opacity="1" d="M 237.894531 119.617188 C 238.03125 120.125 238.480469 120.460938 239.011719 120.460938 C 239.441406 120.460938 239.734375 120.164062 239.929688 119.773438 C 240.144531 119.324219 240.304688 118.5625 240.304688 118.542969 C 240.304688 118.40625 240.203125 118.40625 240.164062 118.40625 C 240.027344 118.40625 240.027344 118.464844 239.988281 118.640625 C 239.8125 119.34375 239.578125 120.1875 239.050781 120.1875 C 238.796875 120.1875 238.660156 120.027344 238.660156 119.617188 C 238.660156 119.34375 238.816406 118.757812 238.914062 118.304688 L 239.265625 116.957031 C 239.304688 116.78125 239.421875 116.308594 239.480469 116.113281 C 239.539062 115.820312 239.65625 115.351562 239.65625 115.273438 C 239.65625 115.058594 239.480469 114.941406 239.304688 114.941406 C 239.246094 114.941406 238.914062 114.957031 238.816406 115.371094 C 238.582031 116.289062 238.03125 118.484375 237.875 119.128906 C 237.855469 119.1875 237.367188 120.1875 236.445312 120.1875 C 235.800781 120.1875 235.683594 119.617188 235.683594 119.167969 C 235.683594 118.464844 236.035156 117.484375 236.347656 116.625 C 236.503906 116.230469 236.5625 116.054688 236.5625 115.820312 C 236.5625 115.273438 236.171875 114.800781 235.546875 114.800781 C 234.351562 114.800781 233.902344 116.625 233.902344 116.722656 C 233.902344 116.859375 234.019531 116.859375 234.039062 116.859375 C 234.175781 116.859375 234.175781 116.820312 234.234375 116.621094 C 234.546875 115.546875 235.039062 115.078125 235.507812 115.078125 C 235.625 115.078125 235.820312 115.097656 235.820312 115.488281 C 235.820312 115.78125 235.683594 116.152344 235.605469 116.328125 C 235.136719 117.582031 234.878906 118.34375 234.878906 118.953125 C 234.878906 120.144531 235.742188 120.460938 236.40625 120.460938 C 237.230469 120.460938 237.679688 119.890625 237.894531 119.617188 Z M 237.894531 119.617188 "/>
</svg>
