<?xml version="1.0" encoding="UTF-8"?>
<svg xmlns="http://www.w3.org/2000/svg" xmlns:xlink="http://www.w3.org/1999/xlink" width="700" height="392.307692" viewBox="0 0 700 392.307692">
<path fill-rule="nonzero" fill="rgb(100%, 90.196078%, 50.196078%)" fill-opacity="1" d="M 14.738281 4.554688 L 162.019531 4.554688 L 162.019531 83.203125 L 14.738281 83.203125 Z M 14.738281 4.554688 "/>
<path fill-rule="nonzero" fill="rgb(100%, 90.196078%, 50.196078%)" fill-opacity="1" d="M 193.992188 5.375 L 341.289062 5.375 L 341.289062 84.027344 L 193.992188 84.027344 Z M 193.992188 5.375 "/>
<path fill-rule="nonzero" fill="rgb(100%, 90.196078%, 50.196078%)" fill-opacity="1" d="M 373.332031 3.949219 L 520.625 3.949219 L 520.625 82.601562 L 373.332031 82.601562 Z M 373.332031 3.949219 "/>
<path fill-rule="nonzero" fill="rgb(0%, 0%, 0%)" fill-opacity="1" d="M 17.613281 110.546875 L 17.613281 90.453125 L 23.09375 90.453125 L 23.09375 110.546875 Z M 23.09375 82.796875 L 23.09375 87.34375 L 17.613281 87.34375 L 17.613281 82.796875 Z M 23.09375 82.796875 "/>
<path fill-rule="nonzero" fill="rgb(0%, 0%, 0%)" fill-opacity="1" d="M 27.570312 110.546875 L 27.570312 90.453125 L 32.742188 90.453125 L 32.742188 93.175781 L 32.820312 93.175781 C 34.339844 91 36.371094 89.910156 38.917969 89.910156 C 41.800781 89.910156 43.742188 91.023438 44.746094 93.253906 C 45.386719 92.292969 46.226562 91.503906 47.253906 90.882812 C 48.28125 90.234375 49.453125 89.910156 50.765625 89.910156 C 53.03125 89.910156 54.804688 90.492188 56.089844 91.660156 C 57.402344 92.800781 58.058594 94.613281 58.058594 97.101562 L 58.058594 110.546875 L 52.578125 110.546875 L 52.578125 99.160156 C 52.578125 98.539062 52.566406 98.019531 52.542969 97.605469 C 52.515625 97.191406 52.4375 96.75 52.308594 96.285156 C 52.179688 95.816406 52 95.453125 51.769531 95.195312 C 51.539062 94.9375 51.203125 94.714844 50.765625 94.535156 C 50.355469 94.355469 49.839844 94.261719 49.222656 94.261719 C 46.777344 94.261719 45.554688 95.960938 45.554688 99.355469 L 45.554688 110.546875 L 40.074219 110.546875 L 40.074219 99.277344 C 40.074219 99.226562 40.074219 99.132812 40.074219 99.003906 C 40.074219 98.382812 40.0625 97.917969 40.035156 97.605469 C 40.035156 97.292969 39.972656 96.894531 39.84375 96.402344 C 39.742188 95.882812 39.574219 95.507812 39.34375 95.273438 C 39.136719 95.015625 38.816406 94.78125 38.378906 94.574219 C 37.941406 94.367188 37.398438 94.261719 36.757812 94.261719 C 36.421875 94.261719 36.074219 94.328125 35.714844 94.457031 C 35.355469 94.585938 34.957031 94.808594 34.519531 95.117188 C 34.082031 95.402344 33.71875 95.882812 33.4375 96.554688 C 33.179688 97.203125 33.050781 97.980469 33.050781 98.886719 L 33.050781 110.546875 Z M 27.570312 110.546875 "/>
<path fill-rule="nonzero" fill="rgb(0%, 0%, 0%)" fill-opacity="1" d="M 74.808594 102.773438 L 74.808594 100.714844 C 74.601562 100.894531 74.308594 101.066406 73.921875 101.21875 C 73.535156 101.351562 73.175781 101.441406 72.839844 101.492188 C 72.53125 101.542969 72.09375 101.609375 71.527344 101.6875 C 70.960938 101.765625 70.539062 101.828125 70.253906 101.878906 C 69.226562 102.089844 68.429688 102.410156 67.863281 102.851562 C 67.296875 103.265625 67.011719 103.929688 67.011719 104.835938 C 67.011719 106.542969 68.132812 107.398438 70.371094 107.398438 C 73.328125 107.398438 74.808594 105.859375 74.808594 102.773438 Z M 67.632812 96.632812 L 62.152344 96.632812 C 62.304688 94.25 63.257812 92.539062 65.007812 91.503906 C 66.78125 90.441406 68.957031 89.910156 71.527344 89.910156 C 77.371094 89.910156 80.289062 91.816406 80.289062 95.625 L 80.289062 106.078125 C 80.289062 108.304688 80.519531 109.796875 80.984375 110.546875 L 75.425781 110.546875 C 75.195312 109.824219 75.066406 109.175781 75.039062 108.605469 C 73.472656 110.261719 71.234375 111.09375 68.324219 111.09375 C 66.320312 111.09375 64.683594 110.585938 63.425781 109.578125 C 62.164062 108.539062 61.535156 107.035156 61.535156 105.066406 C 61.535156 103.980469 61.714844 103.046875 62.074219 102.269531 C 62.460938 101.492188 63 100.894531 63.695312 100.480469 C 64.390625 100.042969 65.082031 99.71875 65.777344 99.511719 C 66.5 99.277344 67.347656 99.09375 68.324219 98.964844 C 68.6875 98.914062 69.148438 98.863281 69.714844 98.808594 C 70.28125 98.734375 70.730469 98.667969 71.066406 98.617188 C 71.425781 98.5625 71.824219 98.5 72.261719 98.421875 C 72.699219 98.34375 73.046875 98.253906 73.304688 98.148438 C 73.585938 98.046875 73.84375 97.917969 74.074219 97.761719 C 74.332031 97.578125 74.511719 97.371094 74.617188 97.140625 C 74.746094 96.90625 74.808594 96.632812 74.808594 96.324219 C 74.808594 95.234375 74.5 94.507812 73.882812 94.148438 C 73.265625 93.785156 72.390625 93.601562 71.257812 93.601562 C 69.019531 93.601562 67.8125 94.613281 67.632812 96.632812 Z M 67.632812 96.632812 "/>
<path fill-rule="nonzero" fill="rgb(0%, 0%, 0%)" fill-opacity="1" d="M 103.714844 90.453125 L 103.714844 109.265625 C 103.714844 110.042969 103.652344 110.78125 103.523438 111.480469 C 103.417969 112.179688 103.148438 112.957031 102.710938 113.8125 C 102.273438 114.667969 101.695312 115.394531 100.976562 115.988281 C 100.28125 116.609375 99.277344 117.128906 97.964844 117.542969 C 96.652344 117.957031 95.121094 118.164062 93.371094 118.164062 C 91.132812 118.164062 89.140625 117.621094 87.390625 116.535156 C 85.640625 115.445312 84.703125 113.839844 84.574219 111.714844 L 90.015625 111.714844 C 90.453125 113.554688 91.816406 114.472656 94.105469 114.472656 C 95.570312 114.472656 96.679688 114.019531 97.425781 113.113281 C 98.171875 112.207031 98.53125 111 98.503906 109.5 L 98.503906 106.855469 L 98.429688 106.855469 C 97.863281 107.867188 97.039062 108.644531 95.957031 109.1875 C 94.878906 109.707031 93.707031 109.964844 92.445312 109.964844 C 89.617188 109.964844 87.480469 109.019531 86.039062 107.128906 C 84.625 105.234375 83.917969 102.8125 83.917969 99.859375 C 83.917969 97.085938 84.675781 94.742188 86.195312 92.824219 C 87.710938 90.882812 89.808594 89.910156 92.484375 89.910156 C 95.238281 89.910156 97.21875 90.984375 98.429688 93.136719 L 98.503906 93.136719 L 98.503906 90.453125 Z M 93.835938 105.804688 C 95.328125 105.804688 96.472656 105.273438 97.269531 104.210938 C 98.09375 103.125 98.503906 101.804688 98.503906 100.25 C 98.503906 98.433594 98.132812 96.957031 97.386719 95.816406 C 96.664062 94.652344 95.480469 94.070312 93.835938 94.070312 C 92.367188 94.070312 91.261719 94.613281 90.515625 95.699219 C 89.769531 96.789062 89.398438 98.148438 89.398438 99.78125 C 89.398438 101.441406 89.746094 102.867188 90.4375 104.058594 C 91.160156 105.222656 92.292969 105.804688 93.835938 105.804688 Z M 93.835938 105.804688 "/>
<path fill-rule="nonzero" fill="rgb(0%, 0%, 0%)" fill-opacity="1" d="M 127.023438 101.84375 L 112.628906 101.84375 C 112.785156 105.234375 114.417969 106.933594 117.53125 106.933594 C 118.585938 106.933594 119.527344 106.675781 120.347656 106.15625 C 121.171875 105.613281 121.671875 105.003906 121.855469 104.328125 L 126.679688 104.328125 C 125.210938 108.835938 122.097656 111.09375 117.339844 111.09375 C 114.226562 111.09375 111.742188 110.121094 109.890625 108.175781 C 108.0625 106.207031 107.148438 103.65625 107.148438 100.519531 C 107.148438 97.464844 108.089844 94.9375 109.96875 92.941406 C 111.871094 90.921875 114.328125 89.910156 117.339844 89.910156 C 120.582031 89.910156 123.050781 91.074219 124.75 93.40625 C 126.472656 95.738281 127.230469 98.550781 127.023438 101.84375 Z M 112.628906 98.34375 L 121.546875 98.34375 C 121.289062 96.894531 120.8125 95.816406 120.117188 95.117188 C 119.449219 94.417969 118.46875 94.070312 117.183594 94.070312 C 115.640625 94.070312 114.507812 94.523438 113.789062 95.429688 C 113.066406 96.335938 112.683594 97.308594 112.628906 98.34375 Z M 112.628906 98.34375 "/>
<path fill-rule="nonzero" fill="rgb(0%, 0%, 0%)" fill-opacity="1" d="M 129.300781 104.019531 L 134.511719 104.019531 C 134.539062 105.160156 134.949219 106.011719 135.746094 106.582031 C 136.546875 107.128906 137.535156 107.398438 138.71875 107.398438 C 139.671875 107.398438 140.507812 107.191406 141.226562 106.777344 C 141.949219 106.363281 142.308594 105.714844 142.308594 104.835938 C 142.308594 104.421875 142.179688 104.070312 141.921875 103.785156 C 141.691406 103.472656 141.265625 103.203125 140.648438 102.96875 C 140.03125 102.710938 139.402344 102.503906 138.757812 102.347656 C 138.140625 102.191406 137.253906 101.984375 136.09375 101.726562 C 135.167969 101.519531 134.382812 101.296875 133.742188 101.066406 C 133.097656 100.832031 132.441406 100.519531 131.773438 100.132812 C 131.128906 99.71875 130.628906 99.199219 130.265625 98.578125 C 129.933594 97.957031 129.765625 97.21875 129.765625 96.363281 C 129.765625 95.144531 130.011719 94.09375 130.5 93.214844 C 130.988281 92.332031 131.65625 91.660156 132.503906 91.191406 C 133.378906 90.726562 134.292969 90.402344 135.246094 90.222656 C 136.222656 90.015625 137.292969 89.910156 138.449219 89.910156 C 140.894531 89.910156 142.914062 90.414062 144.507812 91.425781 C 146.128906 92.410156 147.042969 94.042969 147.246094 96.324219 L 142.039062 96.324219 C 141.910156 94.507812 140.660156 93.601562 138.292969 93.601562 C 136.261719 93.601562 135.246094 94.222656 135.246094 95.46875 C 135.246094 95.753906 135.296875 96.011719 135.398438 96.246094 C 135.527344 96.453125 135.707031 96.648438 135.941406 96.828125 C 136.199219 96.984375 136.441406 97.125 136.671875 97.253906 C 136.929688 97.359375 137.277344 97.476562 137.714844 97.605469 C 138.152344 97.710938 138.527344 97.800781 138.835938 97.878906 C 139.167969 97.957031 139.605469 98.058594 140.148438 98.1875 C 140.6875 98.292969 141.125 98.382812 141.460938 98.460938 C 143.441406 98.925781 144.984375 99.5625 146.089844 100.363281 C 147.222656 101.167969 147.789062 102.410156 147.789062 104.097656 C 147.789062 106.53125 146.914062 108.304688 145.164062 109.421875 C 143.441406 110.535156 141.277344 111.09375 138.679688 111.09375 C 136.082031 111.09375 133.894531 110.535156 132.121094 109.421875 C 130.34375 108.28125 129.40625 106.480469 129.300781 104.019531 Z M 129.300781 104.019531 "/>
<path fill-rule="nonzero" fill="rgb(0%, 0%, 0%)" fill-opacity="1" d="M 255.769531 97.527344 L 250.40625 97.527344 C 250.046875 95.222656 248.695312 94.070312 246.355469 94.070312 C 244.757812 94.070312 243.574219 94.730469 242.804688 96.050781 C 242.058594 97.347656 241.683594 98.863281 241.683594 100.597656 C 241.683594 102.28125 242.046875 103.757812 242.765625 105.027344 C 243.511719 106.296875 244.667969 106.933594 246.238281 106.933594 C 247.472656 106.933594 248.464844 106.570312 249.210938 105.84375 C 249.957031 105.121094 250.417969 104.121094 250.601562 102.851562 L 255.886719 102.851562 C 255.550781 105.496094 254.523438 107.53125 252.800781 108.953125 C 251.101562 110.378906 248.925781 111.09375 246.277344 111.09375 C 243.292969 111.09375 240.863281 110.132812 238.984375 108.214844 C 237.132812 106.296875 236.203125 103.824219 236.203125 100.792969 C 236.203125 97.578125 237.105469 94.960938 238.90625 92.941406 C 240.734375 90.921875 243.230469 89.910156 246.394531 89.910156 C 248.914062 89.910156 251.0625 90.570312 252.839844 91.890625 C 254.640625 93.214844 255.617188 95.09375 255.769531 97.527344 Z M 255.769531 97.527344 "/>
<path fill-rule="nonzero" fill="rgb(0%, 0%, 0%)" fill-opacity="1" d="M 258.007812 104.019531 L 263.21875 104.019531 C 263.246094 105.160156 263.65625 106.011719 264.453125 106.582031 C 265.253906 107.128906 266.242188 107.398438 267.425781 107.398438 C 268.378906 107.398438 269.214844 107.191406 269.933594 106.777344 C 270.65625 106.363281 271.015625 105.714844 271.015625 104.835938 C 271.015625 104.421875 270.886719 104.070312 270.628906 103.785156 C 270.398438 103.472656 269.972656 103.203125 269.355469 102.96875 C 268.738281 102.710938 268.109375 102.503906 267.464844 102.347656 C 266.847656 102.191406 265.960938 101.984375 264.800781 101.726562 C 263.875 101.519531 263.089844 101.296875 262.449219 101.066406 C 261.804688 100.832031 261.148438 100.519531 260.480469 100.132812 C 259.835938 99.71875 259.335938 99.199219 258.972656 98.578125 C 258.640625 97.957031 258.472656 97.21875 258.472656 96.363281 C 258.472656 95.144531 258.71875 94.09375 259.207031 93.214844 C 259.695312 92.332031 260.363281 91.660156 261.210938 91.191406 C 262.085938 90.726562 263 90.402344 263.953125 90.222656 C 264.929688 90.015625 266 89.910156 267.15625 89.910156 C 269.601562 89.910156 271.621094 90.414062 273.214844 91.425781 C 274.835938 92.410156 275.75 94.042969 275.957031 96.324219 L 270.746094 96.324219 C 270.617188 94.507812 269.367188 93.601562 267 93.601562 C 264.96875 93.601562 263.953125 94.222656 263.953125 95.46875 C 263.953125 95.753906 264.003906 96.011719 264.105469 96.246094 C 264.234375 96.453125 264.417969 96.648438 264.648438 96.828125 C 264.90625 96.984375 265.148438 97.125 265.378906 97.253906 C 265.636719 97.359375 265.984375 97.476562 266.421875 97.605469 C 266.859375 97.710938 267.234375 97.800781 267.542969 97.878906 C 267.875 97.957031 268.3125 98.058594 268.855469 98.1875 C 269.394531 98.292969 269.832031 98.382812 270.167969 98.460938 C 272.148438 98.925781 273.691406 99.5625 274.796875 100.363281 C 275.929688 101.167969 276.496094 102.410156 276.496094 104.097656 C 276.496094 106.53125 275.621094 108.304688 273.871094 109.421875 C 272.148438 110.535156 269.984375 111.09375 267.386719 111.09375 C 264.789062 111.09375 262.601562 110.535156 260.828125 109.421875 C 259.050781 108.28125 258.113281 106.480469 258.007812 104.019531 Z M 258.007812 104.019531 "/>
<path fill-rule="nonzero" fill="rgb(0%, 0%, 0%)" fill-opacity="1" d="M 278.734375 104.019531 L 283.945312 104.019531 C 283.96875 105.160156 284.382812 106.011719 285.179688 106.582031 C 285.976562 107.128906 286.96875 107.398438 288.152344 107.398438 C 289.101562 107.398438 289.9375 107.191406 290.660156 106.777344 C 291.378906 106.363281 291.738281 105.714844 291.738281 104.835938 C 291.738281 104.421875 291.609375 104.070312 291.355469 103.785156 C 291.121094 103.472656 290.699219 103.203125 290.082031 102.96875 C 289.460938 102.710938 288.832031 102.503906 288.1875 102.347656 C 287.570312 102.191406 286.683594 101.984375 285.527344 101.726562 C 284.601562 101.519531 283.816406 101.296875 283.171875 101.066406 C 282.527344 100.832031 281.871094 100.519531 281.203125 100.132812 C 280.5625 99.71875 280.058594 99.199219 279.699219 98.578125 C 279.363281 97.957031 279.195312 97.21875 279.195312 96.363281 C 279.195312 95.144531 279.441406 94.09375 279.929688 93.214844 C 280.417969 92.332031 281.089844 91.660156 281.9375 91.191406 C 282.8125 90.726562 283.726562 90.402344 284.675781 90.222656 C 285.65625 90.015625 286.722656 89.910156 287.878906 89.910156 C 290.324219 89.910156 292.34375 90.414062 293.941406 91.425781 C 295.558594 92.410156 296.472656 94.042969 296.679688 96.324219 L 291.46875 96.324219 C 291.339844 94.507812 290.09375 93.601562 287.726562 93.601562 C 285.695312 93.601562 284.675781 94.222656 284.675781 95.46875 C 284.675781 95.753906 284.730469 96.011719 284.832031 96.246094 C 284.960938 96.453125 285.140625 96.648438 285.371094 96.828125 C 285.628906 96.984375 285.875 97.125 286.105469 97.253906 C 286.363281 97.359375 286.710938 97.476562 287.148438 97.605469 C 287.585938 97.710938 287.957031 97.800781 288.265625 97.878906 C 288.601562 97.957031 289.039062 98.058594 289.578125 98.1875 C 290.117188 98.292969 290.554688 98.382812 290.890625 98.460938 C 292.871094 98.925781 294.414062 99.5625 295.523438 100.363281 C 296.652344 101.167969 297.21875 102.410156 297.21875 104.097656 C 297.21875 106.53125 296.34375 108.304688 294.59375 109.421875 C 292.871094 110.535156 290.710938 111.09375 288.113281 111.09375 C 285.511719 111.09375 283.328125 110.535156 281.550781 109.421875 C 279.777344 108.28125 278.835938 106.480469 278.734375 104.019531 Z M 278.734375 104.019531 "/>
<path fill-rule="nonzero" fill="rgb(0%, 0%, 0%)" fill-opacity="1" d="M 426.351562 117.464844 L 426.351562 112.917969 C 426.660156 113.023438 427.058594 113.074219 427.546875 113.074219 C 428.964844 113.074219 429.671875 112.476562 429.671875 111.285156 L 429.671875 90.453125 L 435.152344 90.453125 L 435.152344 111.558594 C 435.152344 113.707031 434.648438 115.25 433.644531 116.183594 C 432.640625 117.140625 430.804688 117.621094 428.128906 117.621094 C 427.714844 117.621094 427.125 117.570312 426.351562 117.464844 Z M 435.152344 82.796875 L 435.152344 87.34375 L 429.671875 87.34375 L 429.671875 82.796875 Z M 435.152344 82.796875 "/>
<path fill-rule="nonzero" fill="rgb(0%, 0%, 0%)" fill-opacity="1" d="M 438.933594 104.019531 L 444.144531 104.019531 C 444.167969 105.160156 444.582031 106.011719 445.378906 106.582031 C 446.175781 107.128906 447.167969 107.398438 448.351562 107.398438 C 449.300781 107.398438 450.136719 107.191406 450.859375 106.777344 C 451.578125 106.363281 451.9375 105.714844 451.9375 104.835938 C 451.9375 104.421875 451.808594 104.070312 451.554688 103.785156 C 451.320312 103.472656 450.898438 103.203125 450.28125 102.96875 C 449.660156 102.710938 449.03125 102.503906 448.386719 102.347656 C 447.769531 102.191406 446.882812 101.984375 445.726562 101.726562 C 444.800781 101.519531 444.015625 101.296875 443.371094 101.066406 C 442.726562 100.832031 442.070312 100.519531 441.402344 100.132812 C 440.761719 99.71875 440.257812 99.199219 439.898438 98.578125 C 439.5625 97.957031 439.394531 97.21875 439.394531 96.363281 C 439.394531 95.144531 439.640625 94.09375 440.128906 93.214844 C 440.617188 92.332031 441.289062 91.660156 442.136719 91.191406 C 443.011719 90.726562 443.925781 90.402344 444.875 90.222656 C 445.855469 90.015625 446.921875 89.910156 448.078125 89.910156 C 450.523438 89.910156 452.542969 90.414062 454.140625 91.425781 C 455.757812 92.410156 456.671875 94.042969 456.878906 96.324219 L 451.667969 96.324219 C 451.539062 94.507812 450.292969 93.601562 447.925781 93.601562 C 445.894531 93.601562 444.875 94.222656 444.875 95.46875 C 444.875 95.753906 444.929688 96.011719 445.03125 96.246094 C 445.160156 96.453125 445.339844 96.648438 445.570312 96.828125 C 445.828125 96.984375 446.074219 97.125 446.304688 97.253906 C 446.5625 97.359375 446.910156 97.476562 447.347656 97.605469 C 447.785156 97.710938 448.15625 97.800781 448.464844 97.878906 C 448.800781 97.957031 449.238281 98.058594 449.777344 98.1875 C 450.316406 98.292969 450.753906 98.382812 451.089844 98.460938 C 453.070312 98.925781 454.613281 99.5625 455.722656 100.363281 C 456.851562 101.167969 457.417969 102.410156 457.417969 104.097656 C 457.417969 106.53125 456.542969 108.304688 454.792969 109.421875 C 453.070312 110.535156 450.910156 111.09375 448.3125 111.09375 C 445.710938 111.09375 443.527344 110.535156 441.75 109.421875 C 439.976562 108.28125 439.035156 106.480469 438.933594 104.019531 Z M 438.933594 104.019531 "/>
<path fill="none" stroke-width="0.493556" stroke-linecap="butt" stroke-linejoin="miter" stroke="rgb(4.313725%, 15.686275%, 4.313725%)" stroke-opacity="1" stroke-miterlimit="4" d="M 0.245781 0.245781 L 139.031953 0.245781 L 139.031953 57.469141 L 0.245781 57.469141 Z M 0.245781 0.245781 " transform="matrix(3.846154, 0, 0, 3.846154, 0, 0)"/>
<path fill-rule="nonzero" fill="rgb(0%, 0%, 0%)" fill-opacity="1" d="M 25.792969 147.996094 L 25.792969 138.105469 L 28.914062 138.105469 L 28.914062 164.683594 L 25.792969 164.683594 L 25.792969 162.273438 C 25.273438 163.21875 24.578125 163.941406 23.707031 164.445312 C 22.847656 164.933594 21.851562 165.179688 20.722656 165.179688 C 18.425781 165.179688 16.617188 164.285156 15.292969 162.496094 C 13.984375 160.699219 13.328125 158.222656 13.328125 155.066406 C 13.328125 151.957031 13.988281 149.523438 15.3125 147.757812 C 16.632812 145.980469 18.4375 145.09375 20.722656 145.09375 C 21.863281 145.09375 22.871094 145.34375 23.742188 145.84375 C 24.609375 146.332031 25.296875 147.050781 25.792969 147.996094 Z M 16.617188 155.136719 C 16.617188 157.570312 17 159.410156 17.769531 160.652344 C 18.539062 161.894531 19.675781 162.511719 21.179688 162.511719 C 22.683594 162.511719 23.824219 161.886719 24.605469 160.636719 C 25.398438 159.382812 25.792969 157.550781 25.792969 155.136719 C 25.792969 152.710938 25.398438 150.875 24.605469 149.636719 C 23.824219 148.382812 22.683594 147.757812 21.179688 147.757812 C 19.675781 147.757812 18.539062 148.378906 17.769531 149.617188 C 17 150.859375 16.617188 152.699219 16.617188 155.136719 Z M 16.617188 155.136719 "/>
<path fill-rule="nonzero" fill="rgb(0%, 0%, 0%)" fill-opacity="1" d="M 42.597656 147.757812 C 41.015625 147.757812 39.816406 148.378906 39.003906 149.617188 C 38.1875 150.859375 37.78125 152.699219 37.78125 155.136719 C 37.78125 157.558594 38.1875 159.398438 39.003906 160.652344 C 39.816406 161.894531 41.015625 162.511719 42.597656 162.511719 C 44.191406 162.511719 45.398438 161.894531 46.210938 160.652344 C 47.023438 159.398438 47.433594 157.558594 47.433594 155.136719 C 47.433594 152.699219 47.023438 150.859375 46.210938 149.617188 C 45.398438 148.378906 44.191406 147.757812 42.597656 147.757812 Z M 42.597656 145.09375 C 45.234375 145.09375 47.246094 145.953125 48.636719 147.671875 C 50.039062 149.390625 50.738281 151.878906 50.738281 155.136719 C 50.738281 158.402344 50.042969 160.898438 48.652344 162.617188 C 47.261719 164.324219 45.242188 165.179688 42.597656 165.179688 C 39.964844 165.179688 37.949219 164.324219 36.558594 162.617188 C 35.167969 160.898438 34.472656 158.402344 34.472656 155.136719 C 34.472656 151.878906 35.167969 149.390625 36.558594 147.671875 C 37.949219 145.953125 39.964844 145.09375 42.597656 145.09375 Z M 42.597656 145.09375 "/>
<path fill-rule="nonzero" fill="rgb(0%, 0%, 0%)" fill-opacity="1" d="M 71.054688 163.710938 C 70.21875 164.199219 69.351562 164.5625 68.460938 164.800781 C 67.578125 165.054688 66.671875 165.179688 65.746094 165.179688 C 62.808594 165.179688 60.507812 164.289062 58.84375 162.511719 C 57.191406 160.738281 56.367188 158.277344 56.367188 155.136719 C 56.367188 151.992188 57.191406 149.53125 58.84375 147.757812 C 60.507812 145.980469 62.808594 145.09375 65.746094 145.09375 C 66.664062 145.09375 67.554688 145.210938 68.425781 145.449219 C 69.296875 145.691406 70.171875 146.058594 71.054688 146.5625 L 71.054688 149.859375 C 70.230469 149.117188 69.398438 148.582031 68.5625 148.25 C 67.738281 147.921875 66.796875 147.757812 65.746094 147.757812 C 63.789062 147.757812 62.285156 148.394531 61.234375 149.667969 C 60.183594 150.945312 59.65625 152.765625 59.65625 155.136719 C 59.65625 157.492188 60.183594 159.3125 61.234375 160.601562 C 62.296875 161.875 63.800781 162.511719 65.746094 162.511719 C 66.832031 162.511719 67.804688 162.347656 68.664062 162.019531 C 69.523438 161.675781 70.320312 161.152344 71.054688 160.445312 Z M 71.054688 163.710938 "/>
<path fill-rule="nonzero" fill="rgb(0%, 0%, 0%)" fill-opacity="1" d="M 82.261719 159.472656 L 86.539062 159.472656 L 86.539062 164.683594 L 82.261719 164.683594 Z M 82.261719 159.472656 "/>
<path fill-rule="nonzero" fill="rgb(0%, 0%, 0%)" fill-opacity="1" d="M 112.875 163.710938 C 112.039062 164.199219 111.171875 164.5625 110.28125 164.800781 C 109.398438 165.054688 108.492188 165.179688 107.566406 165.179688 C 104.625 165.179688 102.324219 164.289062 100.664062 162.511719 C 99.011719 160.738281 98.1875 158.277344 98.1875 155.136719 C 98.1875 151.992188 99.011719 149.53125 100.664062 147.757812 C 102.324219 145.980469 104.625 145.09375 107.566406 145.09375 C 108.480469 145.09375 109.375 145.210938 110.246094 145.449219 C 111.117188 145.691406 111.992188 146.058594 112.875 146.5625 L 112.875 149.859375 C 112.050781 149.117188 111.21875 148.582031 110.382812 148.25 C 109.554688 147.921875 108.617188 147.757812 107.566406 147.757812 C 105.609375 147.757812 104.105469 148.394531 103.054688 149.667969 C 102.003906 150.945312 101.476562 152.765625 101.476562 155.136719 C 101.476562 157.492188 102.003906 159.3125 103.054688 160.601562 C 104.117188 161.875 105.621094 162.511719 107.566406 162.511719 C 108.652344 162.511719 109.625 162.347656 110.484375 162.019531 C 111.34375 161.675781 112.140625 161.152344 112.875 160.445312 Z M 112.875 163.710938 "/>
<path fill-rule="nonzero" fill="rgb(0%, 0%, 0%)" fill-opacity="1" d="M 132.292969 146.21875 L 132.292969 149.292969 C 131.398438 148.769531 130.5 148.378906 129.59375 148.117188 C 128.691406 147.851562 127.769531 147.722656 126.832031 147.722656 C 125.417969 147.722656 124.359375 147.957031 123.660156 148.421875 C 122.96875 148.878906 122.625 149.578125 122.625 150.523438 C 122.625 151.378906 122.882812 152.015625 123.40625 152.4375 C 123.925781 152.859375 125.21875 153.269531 127.289062 153.667969 L 128.542969 153.90625 C 130.09375 154.203125 131.261719 154.792969 132.054688 155.679688 C 132.855469 156.570312 133.257812 157.726562 133.257812 159.148438 C 133.257812 161.039062 132.589844 162.519531 131.257812 163.589844 C 129.921875 164.648438 128.070312 165.179688 125.695312 165.179688 C 124.753906 165.179688 123.773438 165.074219 122.742188 164.871094 C 121.714844 164.675781 120.601562 164.382812 119.402344 163.980469 L 119.402344 160.738281 C 120.566406 161.339844 121.679688 161.796875 122.742188 162.105469 C 123.804688 162.398438 124.8125 162.546875 125.761719 162.546875 C 127.140625 162.546875 128.210938 162.269531 128.96875 161.710938 C 129.726562 161.140625 130.105469 160.351562 130.105469 159.335938 C 130.105469 157.878906 128.71875 156.871094 125.949219 156.3125 L 125.8125 156.28125 L 124.644531 156.039062 C 122.84375 155.6875 121.535156 155.09375 120.707031 154.265625 C 119.882812 153.421875 119.46875 152.277344 119.46875 150.832031 C 119.46875 148.996094 120.085938 147.585938 121.320312 146.59375 C 122.550781 145.59375 124.308594 145.09375 126.59375 145.09375 C 127.609375 145.09375 128.589844 145.1875 129.527344 145.382812 C 130.464844 145.566406 131.386719 145.84375 132.292969 146.21875 Z M 132.292969 146.21875 "/>
<path fill-rule="nonzero" fill="rgb(0%, 0%, 0%)" fill-opacity="1" d="M 153.203125 146.21875 L 153.203125 149.292969 C 152.308594 148.769531 151.410156 148.378906 150.503906 148.117188 C 149.601562 147.851562 148.679688 147.722656 147.738281 147.722656 C 146.328125 147.722656 145.269531 147.957031 144.570312 148.421875 C 143.878906 148.878906 143.535156 149.578125 143.535156 150.523438 C 143.535156 151.378906 143.792969 152.015625 144.3125 152.4375 C 144.835938 152.859375 146.128906 153.269531 148.199219 153.667969 L 149.453125 153.90625 C 151.003906 154.203125 152.171875 154.792969 152.964844 155.679688 C 153.765625 156.570312 154.167969 157.726562 154.167969 159.148438 C 154.167969 161.039062 153.5 162.519531 152.167969 163.589844 C 150.832031 164.648438 148.976562 165.179688 146.605469 165.179688 C 145.664062 165.179688 144.683594 165.074219 143.652344 164.871094 C 142.625 164.675781 141.511719 164.382812 140.3125 163.980469 L 140.3125 160.738281 C 141.476562 161.339844 142.589844 161.796875 143.652344 162.105469 C 144.714844 162.398438 145.722656 162.546875 146.671875 162.546875 C 148.050781 162.546875 149.121094 162.269531 149.878906 161.710938 C 150.632812 161.140625 151.011719 160.351562 151.011719 159.335938 C 151.011719 157.878906 149.628906 156.871094 146.859375 156.3125 L 146.722656 156.28125 L 145.550781 156.039062 C 143.753906 155.6875 142.441406 155.09375 141.617188 154.265625 C 140.792969 153.421875 140.378906 152.277344 140.378906 150.832031 C 140.378906 148.996094 140.996094 147.585938 142.226562 146.59375 C 143.460938 145.59375 145.21875 145.09375 147.503906 145.09375 C 148.519531 145.09375 149.5 145.1875 150.4375 145.382812 C 151.375 145.566406 152.296875 145.84375 153.203125 146.21875 Z M 153.203125 146.21875 "/>
<path fill-rule="nonzero" fill="rgb(0%, 0%, 0%)" fill-opacity="1" d="M 27.96875 193.667969 L 27.96875 183.777344 L 31.089844 183.777344 L 31.089844 210.355469 L 27.96875 210.355469 L 27.96875 207.945312 C 27.449219 208.890625 26.753906 209.613281 25.882812 210.113281 C 25.023438 210.605469 24.027344 210.847656 22.898438 210.847656 C 20.601562 210.847656 18.792969 209.957031 17.46875 208.167969 C 16.160156 206.367188 15.503906 203.890625 15.503906 200.738281 C 15.503906 197.628906 16.164062 195.191406 17.488281 193.425781 C 18.808594 191.652344 20.613281 190.761719 22.898438 190.761719 C 24.039062 190.761719 25.046875 191.011719 25.917969 191.515625 C 26.785156 192.003906 27.46875 192.722656 27.96875 193.667969 Z M 18.792969 200.804688 C 18.792969 203.242188 19.175781 205.082031 19.945312 206.324219 C 20.714844 207.5625 21.851562 208.183594 23.355469 208.183594 C 24.859375 208.183594 26 207.558594 26.78125 206.304688 C 27.574219 205.054688 27.96875 203.21875 27.96875 200.804688 C 27.96875 198.378906 27.574219 196.546875 26.78125 195.304688 C 26 194.054688 24.859375 193.425781 23.355469 193.425781 C 21.851562 193.425781 20.714844 194.046875 19.945312 195.289062 C 19.175781 196.53125 18.792969 198.371094 18.792969 200.804688 Z M 18.792969 200.804688 "/>
<path fill-rule="nonzero" fill="rgb(0%, 0%, 0%)" fill-opacity="1" d="M 44.773438 193.425781 C 43.191406 193.425781 41.992188 194.046875 41.179688 195.289062 C 40.363281 196.53125 39.957031 198.371094 39.957031 200.804688 C 39.957031 203.230469 40.363281 205.070312 41.179688 206.324219 C 41.992188 207.5625 43.191406 208.183594 44.773438 208.183594 C 46.367188 208.183594 47.570312 207.5625 48.386719 206.324219 C 49.199219 205.070312 49.605469 203.230469 49.605469 200.804688 C 49.605469 198.371094 49.199219 196.53125 48.386719 195.289062 C 47.570312 194.046875 46.367188 193.425781 44.773438 193.425781 Z M 44.773438 190.761719 C 47.40625 190.761719 49.421875 191.621094 50.8125 193.34375 C 52.214844 195.0625 52.914062 197.550781 52.914062 200.804688 C 52.914062 204.074219 52.21875 206.566406 50.828125 208.285156 C 49.4375 209.996094 47.417969 210.847656 44.773438 210.847656 C 42.140625 210.847656 40.125 209.996094 38.734375 208.285156 C 37.34375 206.566406 36.648438 204.074219 36.648438 200.804688 C 36.648438 197.550781 37.34375 195.0625 38.734375 193.34375 C 40.125 191.621094 42.140625 190.761719 44.773438 190.761719 Z M 44.773438 190.761719 "/>
<path fill-rule="nonzero" fill="rgb(0%, 0%, 0%)" fill-opacity="1" d="M 73.230469 209.378906 C 72.394531 209.871094 71.527344 210.234375 70.636719 210.472656 C 69.753906 210.722656 68.847656 210.847656 67.921875 210.847656 C 64.980469 210.847656 62.679688 209.960938 61.019531 208.183594 C 59.367188 206.40625 58.542969 203.949219 58.542969 200.804688 C 58.542969 197.664062 59.367188 195.203125 61.019531 193.425781 C 62.679688 191.652344 64.980469 190.761719 67.921875 190.761719 C 68.835938 190.761719 69.730469 190.882812 70.601562 191.121094 C 71.472656 191.359375 72.347656 191.730469 73.230469 192.230469 L 73.230469 195.527344 C 72.40625 194.789062 71.574219 194.253906 70.738281 193.921875 C 69.910156 193.59375 68.972656 193.425781 67.921875 193.425781 C 65.964844 193.425781 64.460938 194.066406 63.410156 195.339844 C 62.359375 196.617188 61.832031 198.4375 61.832031 200.804688 C 61.832031 203.164062 62.359375 204.984375 63.410156 206.273438 C 64.472656 207.546875 65.976562 208.183594 67.921875 208.183594 C 69.007812 208.183594 69.980469 208.019531 70.839844 207.6875 C 71.699219 207.347656 72.496094 206.824219 73.230469 206.117188 Z M 73.230469 209.378906 "/>
<path fill-rule="nonzero" fill="rgb(0%, 0%, 0%)" fill-opacity="1" d="M 84.4375 205.144531 L 88.714844 205.144531 L 88.714844 210.355469 L 84.4375 210.355469 Z M 84.4375 205.144531 "/>
<path fill-rule="nonzero" fill="rgb(0%, 0%, 0%)" fill-opacity="1" d="M 114.878906 198.5 L 114.878906 210.355469 L 111.742188 210.355469 L 111.742188 198.5 C 111.742188 196.78125 111.441406 195.515625 110.84375 194.707031 C 110.246094 193.898438 109.304688 193.496094 108.027344 193.496094 C 106.570312 193.496094 105.445312 194.019531 104.652344 195.066406 C 103.875 196.101562 103.484375 197.59375 103.484375 199.542969 L 103.484375 210.355469 L 100.363281 210.355469 L 100.363281 183.777344 L 103.484375 183.777344 L 103.484375 194.09375 C 104.039062 193 104.789062 192.175781 105.738281 191.617188 C 106.6875 191.046875 107.8125 190.761719 109.113281 190.761719 C 111.046875 190.761719 112.488281 191.40625 113.4375 192.691406 C 114.398438 193.96875 114.878906 195.902344 114.878906 198.5 Z M 114.878906 198.5 "/>
<path fill-rule="nonzero" fill="rgb(0%, 0%, 0%)" fill-opacity="1" d="M 128.378906 185.792969 L 128.378906 191.222656 L 135.46875 191.222656 L 135.46875 193.667969 L 128.378906 193.667969 L 128.378906 204.050781 C 128.378906 205.464844 128.644531 206.449219 129.175781 207.007812 C 129.707031 207.5625 130.632812 207.84375 131.957031 207.84375 L 135.46875 207.84375 L 135.46875 210.355469 L 131.652344 210.355469 C 129.3125 210.355469 127.660156 209.882812 126.699219 208.9375 C 125.738281 207.992188 125.257812 206.363281 125.257812 204.050781 L 125.257812 193.667969 L 120.1875 193.667969 L 120.1875 191.222656 L 125.257812 191.222656 L 125.257812 185.792969 Z M 128.378906 185.792969 "/>
<path fill-rule="nonzero" fill="rgb(0%, 0%, 0%)" fill-opacity="1" d="M 150.339844 193.171875 C 150.722656 192.351562 151.210938 191.75 151.796875 191.359375 C 152.398438 190.960938 153.117188 190.761719 153.953125 190.761719 C 155.476562 190.761719 156.550781 191.359375 157.175781 192.554688 C 157.808594 193.742188 158.125 195.976562 158.125 199.269531 L 158.125 210.355469 L 155.273438 210.355469 L 155.273438 199.40625 C 155.273438 196.707031 155.121094 195.03125 154.816406 194.382812 C 154.523438 193.722656 153.980469 193.394531 153.1875 193.394531 C 152.285156 193.394531 151.664062 193.746094 151.324219 194.453125 C 150.996094 195.148438 150.832031 196.796875 150.832031 199.40625 L 150.832031 210.355469 L 147.980469 210.355469 L 147.980469 199.40625 C 147.980469 196.671875 147.816406 194.988281 147.492188 194.351562 C 147.171875 193.710938 146.597656 193.394531 145.761719 193.394531 C 144.933594 193.394531 144.359375 193.746094 144.03125 194.453125 C 143.714844 195.148438 143.554688 196.796875 143.554688 199.40625 L 143.554688 210.355469 L 140.722656 210.355469 L 140.722656 191.222656 L 143.554688 191.222656 L 143.554688 192.863281 C 143.929688 192.179688 144.390625 191.664062 144.945312 191.308594 C 145.511719 190.945312 146.152344 190.761719 146.863281 190.761719 C 147.722656 190.761719 148.433594 190.960938 149 191.359375 C 149.578125 191.757812 150.023438 192.363281 150.339844 193.171875 Z M 150.339844 193.171875 "/>
<path fill-rule="nonzero" fill="rgb(0%, 0%, 0%)" fill-opacity="1" d="M 170.621094 203.417969 C 170.621094 204.832031 170.875 205.894531 171.386719 206.613281 C 171.90625 207.332031 172.667969 207.6875 173.675781 207.6875 L 177.320312 207.6875 L 177.320312 210.355469 L 173.371094 210.355469 C 171.503906 210.355469 170.054688 209.75 169.027344 208.542969 C 168.011719 207.335938 167.5 205.628906 167.5 203.417969 L 167.5 186.050781 L 162.5 186.050781 L 162.5 183.589844 L 170.621094 183.589844 Z M 170.621094 203.417969 "/>
<path fill-rule="nonzero" fill="rgb(0%, 0%, 0%)" fill-opacity="1" d="M 164.253906 250.984375 L 169.535156 250.984375 C 169.535156 252.546875 170.042969 253.714844 171.0625 254.484375 C 172.105469 255.230469 173.425781 255.601562 175.023438 255.601562 C 175.785156 255.601562 176.492188 255.535156 177.140625 255.394531 C 177.8125 255.230469 178.425781 254.902344 178.980469 254.414062 C 179.558594 253.925781 179.851562 253.28125 179.851562 252.488281 C 179.851562 252.117188 179.78125 251.777344 179.640625 251.476562 C 179.527344 251.171875 179.316406 250.90625 179.015625 250.671875 C 178.714844 250.414062 178.414062 250.203125 178.113281 250.042969 C 177.835938 249.878906 177.429688 249.714844 176.898438 249.550781 C 176.363281 249.390625 175.914062 249.261719 175.542969 249.167969 C 175.195312 249.050781 174.6875 248.910156 174.015625 248.746094 C 173.34375 248.585938 172.832031 248.457031 172.484375 248.363281 C 171.398438 248.082031 170.484375 247.792969 169.742188 247.488281 C 169 247.183594 168.238281 246.765625 167.449219 246.230469 C 166.664062 245.691406 166.070312 245.015625 165.679688 244.199219 C 165.285156 243.359375 165.089844 242.382812 165.089844 241.261719 C 165.089844 239.652344 165.550781 238.253906 166.476562 237.0625 C 167.425781 235.875 168.585938 235.023438 169.949219 234.511719 C 171.316406 233.972656 172.789062 233.707031 174.363281 233.707031 C 176.191406 233.707031 177.824219 233.960938 179.257812 234.476562 C 180.695312 234.988281 181.886719 235.875 182.835938 237.132812 C 183.808594 238.371094 184.296875 239.910156 184.296875 241.75 L 179.015625 241.75 C 178.878906 239.234375 177.246094 237.972656 174.117188 237.972656 C 173.121094 237.972656 172.242188 238.207031 171.480469 238.671875 C 170.738281 239.140625 170.367188 239.851562 170.367188 240.808594 C 170.367188 241.714844 170.761719 242.359375 171.546875 242.730469 C 172.335938 243.105469 174.40625 243.722656 177.765625 244.585938 C 179.964844 245.144531 181.597656 245.832031 182.664062 246.648438 C 184.308594 247.929688 185.128906 249.667969 185.128906 251.859375 C 185.128906 254.238281 184.226562 256.175781 182.421875 257.667969 C 180.613281 259.136719 178.078125 259.871094 174.8125 259.871094 C 171.828125 259.871094 169.3125 259.113281 167.277344 257.597656 C 165.238281 256.082031 164.230469 253.878906 164.253906 250.984375 Z M 164.253906 250.984375 "/>
<path fill-rule="nonzero" fill="rgb(0%, 0%, 0%)" fill-opacity="1" d="M 187.976562 259.277344 L 187.976562 241.191406 L 192.910156 241.191406 L 192.910156 259.277344 Z M 192.910156 234.300781 L 192.910156 238.394531 L 187.976562 238.394531 L 187.976562 234.300781 Z M 192.910156 234.300781 "/>
<path fill-rule="nonzero" fill="rgb(0%, 0%, 0%)" fill-opacity="1" d="M 203.050781 235.769531 L 203.050781 241.191406 L 206.664062 241.191406 L 206.664062 244.515625 L 203.050781 244.515625 L 203.050781 253.46875 C 203.050781 254.308594 203.191406 254.867188 203.46875 255.148438 C 203.746094 255.429688 204.300781 255.570312 205.136719 255.570312 C 205.691406 255.570312 206.199219 255.523438 206.664062 255.429688 L 206.664062 259.3125 C 205.96875 259.429688 205.007812 259.484375 203.78125 259.484375 C 202.019531 259.484375 200.632812 259.183594 199.613281 258.578125 C 198.617188 257.96875 198.121094 256.839844 198.121094 255.183594 L 198.121094 244.515625 L 195.132812 244.515625 L 195.132812 241.191406 L 198.121094 241.191406 L 198.121094 235.769531 Z M 203.050781 235.769531 "/>
<path fill-rule="nonzero" fill="rgb(0%, 0%, 0%)" fill-opacity="1" d="M 209.164062 259.277344 L 209.164062 241.191406 L 214.097656 241.191406 L 214.097656 259.277344 Z M 214.097656 234.300781 L 214.097656 238.394531 L 209.164062 238.394531 L 209.164062 234.300781 Z M 214.097656 234.300781 "/>
<path fill-rule="nonzero" fill="rgb(0%, 0%, 0%)" fill-opacity="1" d="M 217.433594 250.25 C 217.433594 247.359375 218.277344 245.050781 219.96875 243.324219 C 221.65625 241.578125 223.902344 240.703125 226.707031 240.703125 C 229.53125 240.703125 231.789062 241.578125 233.480469 243.324219 C 235.167969 245.050781 236.015625 247.359375 236.015625 250.25 C 236.015625 253.121094 235.167969 255.429688 233.480469 257.175781 C 231.789062 258.902344 229.53125 259.765625 226.707031 259.765625 C 223.902344 259.765625 221.65625 258.902344 219.96875 257.175781 C 218.277344 255.429688 217.433594 253.121094 217.433594 250.25 Z M 223.371094 246.125 C 222.699219 247.21875 222.363281 248.597656 222.363281 250.25 C 222.363281 251.90625 222.699219 253.28125 223.371094 254.378906 C 224.066406 255.476562 225.175781 256.023438 226.707031 256.023438 C 228.257812 256.023438 229.367188 255.476562 230.039062 254.378906 C 230.734375 253.28125 231.082031 251.90625 231.082031 250.25 C 231.082031 248.597656 230.734375 247.21875 230.039062 246.125 C 229.367188 245.003906 228.257812 244.445312 226.707031 244.445312 C 225.175781 244.445312 224.066406 245.003906 223.371094 246.125 Z M 223.371094 246.125 "/>
<path fill-rule="nonzero" fill="rgb(0%, 0%, 0%)" fill-opacity="1" d="M 270.019531 234.300781 L 263.351562 259.277344 L 257.929688 259.277344 L 253.726562 242.277344 L 253.660156 242.277344 L 249.527344 259.277344 L 244.003906 259.277344 L 237.4375 234.300781 L 242.890625 234.300781 L 246.816406 251.300781 L 246.886719 251.300781 L 251.191406 234.300781 L 256.296875 234.300781 L 260.535156 251.511719 L 260.605469 251.511719 L 264.667969 234.300781 Z M 270.019531 234.300781 "/>
<path fill-rule="nonzero" fill="rgb(0%, 0%, 0%)" fill-opacity="1" d="M 287.734375 251.441406 L 274.777344 251.441406 C 274.914062 254.496094 276.386719 256.023438 279.1875 256.023438 C 280.136719 256.023438 280.984375 255.789062 281.722656 255.324219 C 282.464844 254.832031 282.917969 254.285156 283.078125 253.679688 L 287.421875 253.679688 C 286.101562 257.738281 283.296875 259.765625 279.015625 259.765625 C 276.210938 259.765625 273.976562 258.890625 272.3125 257.140625 C 270.667969 255.371094 269.84375 253.074219 269.84375 250.25 C 269.84375 247.5 270.691406 245.226562 272.378906 243.429688 C 274.09375 241.613281 276.304688 240.703125 279.015625 240.703125 C 281.933594 240.703125 284.15625 241.75 285.683594 243.851562 C 287.234375 245.949219 287.917969 248.480469 287.734375 251.441406 Z M 274.777344 248.292969 L 282.800781 248.292969 C 282.570312 246.988281 282.140625 246.019531 281.515625 245.390625 C 280.914062 244.761719 280.035156 244.445312 278.875 244.445312 C 277.484375 244.445312 276.46875 244.851562 275.820312 245.667969 C 275.171875 246.484375 274.824219 247.359375 274.777344 248.292969 Z M 274.777344 248.292969 "/>
<path fill-rule="nonzero" fill="rgb(0%, 0%, 0%)" fill-opacity="1" d="M 290.648438 259.277344 L 290.648438 234.300781 L 295.582031 234.300781 L 295.582031 243.394531 L 295.652344 243.394531 C 296.832031 241.601562 298.71875 240.703125 301.3125 240.703125 C 303.304688 240.703125 305.042969 241.519531 306.523438 243.152344 C 308.003906 244.78125 308.746094 247.136719 308.746094 250.214844 C 308.746094 253.316406 308.003906 255.683594 306.523438 257.316406 C 305.042969 258.949219 303.304688 259.765625 301.3125 259.765625 C 298.394531 259.765625 296.425781 258.832031 295.410156 256.96875 L 295.339844 256.96875 L 295.339844 259.277344 Z M 303.8125 250.25 C 303.8125 248.597656 303.457031 247.21875 302.738281 246.125 C 302.042969 245.003906 301 244.445312 299.613281 244.445312 C 298.222656 244.445312 297.167969 245.003906 296.449219 246.125 C 295.757812 247.21875 295.410156 248.597656 295.410156 250.25 C 295.410156 251.882812 295.769531 253.261719 296.484375 254.378906 C 297.203125 255.476562 298.246094 256.023438 299.613281 256.023438 C 300.976562 256.023438 302.019531 255.476562 302.738281 254.378906 C 303.457031 253.261719 303.8125 251.882812 303.8125 250.25 Z M 303.8125 250.25 "/>
<path fill-rule="nonzero" fill="rgb(100%, 90.196078%, 50.196078%)" fill-opacity="1" d="M 552.386719 2.644531 L 699.683594 2.644531 L 699.683594 81.296875 L 552.386719 81.296875 Z M 552.386719 2.644531 "/>
<path fill-rule="nonzero" fill="rgb(0%, 0%, 0%)" fill-opacity="1" d="M 547.726562 114.015625 L 547.726562 89.039062 L 558.910156 89.039062 C 560.878906 89.039062 562.523438 89.4375 563.84375 90.230469 C 565.1875 91.023438 566.125 92 566.65625 93.167969 C 567.210938 94.308594 567.492188 95.605469 567.492188 97.050781 C 567.492188 98.496094 567.210938 99.800781 566.65625 100.96875 C 566.125 102.109375 565.1875 103.078125 563.84375 103.871094 C 562.523438 104.664062 560.878906 105.058594 558.910156 105.058594 L 553.179688 105.058594 L 553.179688 114.015625 Z M 553.179688 93.308594 L 553.179688 100.792969 L 557.417969 100.792969 C 558.898438 100.792969 560.070312 100.535156 560.925781 100.023438 C 561.78125 99.488281 562.210938 98.496094 562.210938 97.050781 C 562.210938 95.605469 561.78125 94.625 560.925781 94.113281 C 560.070312 93.574219 558.898438 93.308594 557.417969 93.308594 Z M 553.179688 93.308594 "/>
<path fill-rule="nonzero" fill="rgb(0%, 0%, 0%)" fill-opacity="1" d="M 581.558594 107.019531 L 581.558594 105.164062 C 581.371094 105.328125 581.105469 105.480469 580.757812 105.621094 C 580.410156 105.734375 580.085938 105.816406 579.785156 105.863281 C 579.507812 105.910156 579.113281 105.96875 578.605469 106.039062 C 578.097656 106.109375 577.714844 106.167969 577.460938 106.214844 C 576.53125 106.402344 575.816406 106.691406 575.304688 107.089844 C 574.796875 107.460938 574.542969 108.054688 574.542969 108.871094 C 574.542969 110.410156 575.550781 111.179688 577.5625 111.179688 C 580.226562 111.179688 581.558594 109.792969 581.558594 107.019531 Z M 575.097656 101.492188 L 570.164062 101.492188 C 570.304688 99.347656 571.160156 97.808594 572.734375 96.875 C 574.332031 95.917969 576.289062 95.441406 578.605469 95.441406 C 583.863281 95.441406 586.488281 97.15625 586.488281 100.582031 L 586.488281 109.992188 C 586.488281 111.996094 586.699219 113.339844 587.113281 114.015625 L 582.113281 114.015625 C 581.90625 113.363281 581.789062 112.777344 581.765625 112.265625 C 580.355469 113.757812 578.339844 114.503906 575.722656 114.503906 C 573.917969 114.503906 572.445312 114.050781 571.3125 113.140625 C 570.175781 112.207031 569.609375 110.855469 569.609375 109.082031 C 569.609375 108.101562 569.773438 107.261719 570.097656 106.5625 C 570.441406 105.863281 570.929688 105.328125 571.554688 104.953125 C 572.179688 104.558594 572.804688 104.265625 573.429688 104.082031 C 574.078125 103.871094 574.84375 103.707031 575.722656 103.589844 C 576.046875 103.542969 576.464844 103.496094 576.972656 103.449219 C 577.480469 103.382812 577.886719 103.324219 578.1875 103.277344 C 578.511719 103.230469 578.871094 103.171875 579.265625 103.101562 C 579.660156 103.03125 579.972656 102.949219 580.203125 102.855469 C 580.457031 102.761719 580.691406 102.644531 580.898438 102.507812 C 581.128906 102.34375 581.292969 102.15625 581.382812 101.945312 C 581.5 101.738281 581.558594 101.492188 581.558594 101.210938 C 581.558594 100.234375 581.28125 99.578125 580.722656 99.253906 C 580.167969 98.925781 579.382812 98.761719 578.363281 98.761719 C 576.347656 98.761719 575.257812 99.671875 575.097656 101.492188 Z M 575.097656 101.492188 "/>
<path fill-rule="nonzero" fill="rgb(0%, 0%, 0%)" fill-opacity="1" d="M 607.816406 95.929688 L 607.816406 120.382812 L 602.882812 120.382812 L 602.882812 111.742188 L 602.816406 111.742188 C 602.28125 112.671875 601.496094 113.375 600.453125 113.839844 C 599.410156 114.28125 598.3125 114.503906 597.152344 114.503906 C 596.273438 114.503906 595.40625 114.339844 594.546875 114.015625 C 593.714844 113.664062 592.902344 113.140625 592.117188 112.441406 C 591.351562 111.742188 590.726562 110.761719 590.242188 109.503906 C 589.777344 108.21875 589.546875 106.75 589.546875 105.09375 C 589.546875 102.414062 590.242188 100.140625 591.628906 98.273438 C 593.042969 96.386719 595.035156 95.441406 597.605469 95.441406 C 600.199219 95.441406 602.015625 96.375 603.058594 98.238281 L 603.128906 98.238281 L 603.128906 95.929688 Z M 594.480469 104.988281 C 594.480469 106.644531 594.816406 108.023438 595.484375 109.117188 C 596.15625 110.214844 597.246094 110.761719 598.75 110.761719 C 600.234375 110.761719 601.320312 110.226562 602.015625 109.152344 C 602.710938 108.078125 603.058594 106.714844 603.058594 105.058594 C 603.058594 103.449219 602.710938 102.074219 602.015625 100.933594 C 601.34375 99.765625 600.289062 99.183594 598.855469 99.183594 C 597.375 99.183594 596.273438 99.742188 595.554688 100.863281 C 594.835938 101.980469 594.480469 103.359375 594.480469 104.988281 Z M 594.480469 104.988281 "/>
<path fill-rule="nonzero" fill="rgb(0%, 0%, 0%)" fill-opacity="1" d="M 628.378906 95.929688 L 628.378906 114.015625 L 623.691406 114.015625 L 623.691406 111.496094 L 623.585938 111.496094 C 622.984375 112.476562 622.183594 113.222656 621.1875 113.734375 C 620.214844 114.246094 619.1875 114.503906 618.097656 114.503906 C 615.621094 114.503906 613.90625 113.875 612.957031 112.617188 C 612.007812 111.355469 611.53125 109.503906 611.53125 107.054688 L 611.53125 95.929688 L 616.464844 95.929688 L 616.464844 106.144531 C 616.464844 107.660156 616.707031 108.78125 617.195312 109.503906 C 617.679688 110.226562 618.492188 110.585938 619.625 110.585938 C 620.96875 110.585938 621.941406 110.179688 622.542969 109.363281 C 623.144531 108.546875 623.445312 107.230469 623.445312 105.410156 L 623.445312 95.929688 Z M 628.378906 95.929688 "/>
<path fill-rule="nonzero" fill="rgb(0%, 0%, 0%)" fill-opacity="1" d="M 649.148438 106.179688 L 636.195312 106.179688 C 636.332031 109.234375 637.804688 110.761719 640.605469 110.761719 C 641.554688 110.761719 642.398438 110.527344 643.140625 110.0625 C 643.882812 109.574219 644.332031 109.023438 644.496094 108.417969 L 648.835938 108.417969 C 647.515625 112.476562 644.714844 114.503906 640.429688 114.503906 C 637.628906 114.503906 635.394531 113.628906 633.726562 111.882812 C 632.082031 110.109375 631.261719 107.8125 631.261719 104.988281 C 631.261719 102.238281 632.105469 99.964844 633.796875 98.167969 C 635.511719 96.351562 637.722656 95.441406 640.429688 95.441406 C 643.347656 95.441406 645.570312 96.488281 647.101562 98.589844 C 648.652344 100.6875 649.335938 103.21875 649.148438 106.179688 Z M 636.195312 103.03125 L 644.21875 103.03125 C 643.984375 101.726562 643.558594 100.757812 642.933594 100.128906 C 642.332031 99.5 641.449219 99.183594 640.292969 99.183594 C 638.902344 99.183594 637.882812 99.589844 637.234375 100.40625 C 636.585938 101.222656 636.238281 102.097656 636.195312 103.03125 Z M 636.195312 103.03125 "/>
<path fill-rule="nonzero" fill="rgb(0%, 0%, 0%)" fill-opacity="1" d="M 658.320312 90.507812 L 658.320312 95.929688 L 661.929688 95.929688 L 661.929688 99.253906 L 658.320312 99.253906 L 658.320312 108.207031 C 658.320312 109.046875 658.457031 109.605469 658.734375 109.886719 C 659.015625 110.167969 659.570312 110.308594 660.402344 110.308594 C 660.960938 110.308594 661.46875 110.261719 661.929688 110.167969 L 661.929688 114.050781 C 661.238281 114.167969 660.277344 114.222656 659.046875 114.222656 C 657.289062 114.222656 655.898438 113.921875 654.878906 113.316406 C 653.886719 112.707031 653.386719 111.578125 653.386719 109.921875 L 653.386719 99.253906 L 650.398438 99.253906 L 650.398438 95.929688 L 653.386719 95.929688 L 653.386719 90.507812 Z M 658.320312 90.507812 "/>
<path fill-rule="nonzero" fill="rgb(0%, 0%, 0%)" fill-opacity="1" d="M 681.3125 106.179688 L 668.355469 106.179688 C 668.496094 109.234375 669.964844 110.761719 672.769531 110.761719 C 673.71875 110.761719 674.5625 110.527344 675.304688 110.0625 C 676.046875 109.574219 676.496094 109.023438 676.660156 108.417969 L 681 108.417969 C 679.679688 112.476562 676.878906 114.503906 672.59375 114.503906 C 669.792969 114.503906 667.558594 113.628906 665.890625 111.882812 C 664.246094 110.109375 663.425781 107.8125 663.425781 104.988281 C 663.425781 102.238281 664.269531 99.964844 665.960938 98.167969 C 667.675781 96.351562 669.886719 95.441406 672.59375 95.441406 C 675.511719 95.441406 677.734375 96.488281 679.261719 98.589844 C 680.816406 100.6875 681.5 103.21875 681.3125 106.179688 Z M 668.355469 103.03125 L 676.378906 103.03125 C 676.148438 101.726562 675.722656 100.757812 675.09375 100.128906 C 674.492188 99.5 673.613281 99.183594 672.457031 99.183594 C 671.066406 99.183594 670.046875 99.589844 669.398438 100.40625 C 668.75 101.222656 668.402344 102.097656 668.355469 103.03125 Z M 668.355469 103.03125 "/>
<path fill-rule="nonzero" fill="rgb(0%, 0%, 0%)" fill-opacity="1" d="M 683.363281 108.136719 L 688.050781 108.136719 C 688.074219 109.164062 688.445312 109.933594 689.164062 110.445312 C 689.878906 110.9375 690.773438 111.179688 691.835938 111.179688 C 692.695312 111.179688 693.445312 110.996094 694.09375 110.621094 C 694.742188 110.25 695.066406 109.664062 695.066406 108.871094 C 695.066406 108.5 694.953125 108.183594 694.71875 107.929688 C 694.511719 107.648438 694.128906 107.402344 693.574219 107.195312 C 693.019531 106.960938 692.449219 106.773438 691.871094 106.632812 C 691.316406 106.492188 690.515625 106.308594 689.476562 106.074219 C 688.640625 105.886719 687.933594 105.691406 687.355469 105.480469 C 686.777344 105.269531 686.1875 104.988281 685.585938 104.640625 C 685.007812 104.265625 684.554688 103.800781 684.230469 103.242188 C 683.929688 102.679688 683.777344 102.015625 683.777344 101.246094 C 683.777344 100.152344 684 99.207031 684.4375 98.414062 C 684.878906 97.621094 685.480469 97.015625 686.246094 96.59375 C 687.03125 96.175781 687.855469 95.882812 688.710938 95.71875 C 689.589844 95.535156 690.550781 95.441406 691.59375 95.441406 C 693.792969 95.441406 695.613281 95.894531 697.046875 96.804688 C 698.507812 97.691406 699.328125 99.160156 699.511719 101.210938 L 694.824219 101.210938 C 694.707031 99.578125 693.585938 98.761719 691.457031 98.761719 C 689.625 98.761719 688.710938 99.324219 688.710938 100.441406 C 688.710938 100.699219 688.757812 100.933594 688.851562 101.140625 C 688.964844 101.328125 689.128906 101.503906 689.335938 101.667969 C 689.566406 101.808594 689.789062 101.933594 689.996094 102.050781 C 690.226562 102.144531 690.539062 102.25 690.933594 102.367188 C 691.328125 102.460938 691.664062 102.542969 691.941406 102.613281 C 692.242188 102.679688 692.636719 102.773438 693.121094 102.890625 C 693.609375 102.984375 694.003906 103.066406 694.304688 103.136719 C 696.085938 103.554688 697.476562 104.128906 698.472656 104.851562 C 699.492188 105.574219 700 106.691406 700 108.207031 C 700 110.398438 699.210938 111.996094 697.636719 113 C 696.085938 114.003906 694.140625 114.503906 691.800781 114.503906 C 689.464844 114.503906 687.496094 114.003906 685.898438 113 C 684.300781 111.972656 683.453125 110.351562 683.363281 108.136719 Z M 683.363281 108.136719 "/>
<path fill-rule="nonzero" fill="rgb(0%, 0%, 0%)" fill-opacity="1" d="M 25.195312 312.109375 L 25.195312 302.21875 L 28.316406 302.21875 L 28.316406 328.796875 L 25.195312 328.796875 L 25.195312 326.386719 C 24.675781 327.332031 23.980469 328.054688 23.109375 328.554688 C 22.25 329.046875 21.257812 329.289062 20.125 329.289062 C 17.832031 329.289062 16.019531 328.398438 14.699219 326.609375 C 13.386719 324.808594 12.730469 322.332031 12.730469 319.179688 C 12.730469 316.070312 13.390625 313.632812 14.714844 311.871094 C 16.039062 310.09375 17.839844 309.203125 20.125 309.203125 C 21.265625 309.203125 22.273438 309.457031 23.144531 309.957031 C 24.015625 310.445312 24.699219 311.164062 25.195312 312.109375 Z M 16.019531 319.246094 C 16.019531 321.683594 16.40625 323.523438 17.175781 324.765625 C 17.941406 326.003906 19.078125 326.625 20.582031 326.625 C 22.085938 326.625 23.230469 326 24.007812 324.746094 C 24.800781 323.496094 25.195312 321.660156 25.195312 319.246094 C 25.195312 316.824219 24.800781 314.988281 24.007812 313.75 C 23.230469 312.496094 22.085938 311.871094 20.582031 311.871094 C 19.078125 311.871094 17.941406 312.488281 17.175781 313.730469 C 16.40625 314.972656 16.019531 316.8125 16.019531 319.246094 Z M 16.019531 319.246094 "/>
<path fill-rule="nonzero" fill="rgb(0%, 0%, 0%)" fill-opacity="1" d="M 42 311.871094 C 40.417969 311.871094 39.21875 312.488281 38.40625 313.730469 C 37.59375 314.972656 37.183594 316.8125 37.183594 319.246094 C 37.183594 321.671875 37.59375 323.511719 38.40625 324.765625 C 39.21875 326.003906 40.417969 326.625 42 326.625 C 43.597656 326.625 44.800781 326.003906 45.613281 324.765625 C 46.429688 323.511719 46.835938 321.671875 46.835938 319.246094 C 46.835938 316.8125 46.429688 314.972656 45.613281 313.730469 C 44.800781 312.488281 43.597656 311.871094 42 311.871094 Z M 42 309.203125 C 44.636719 309.203125 46.648438 310.066406 48.039062 311.785156 C 49.441406 313.503906 50.144531 315.992188 50.144531 319.246094 C 50.144531 322.515625 49.445312 325.007812 48.054688 326.730469 C 46.664062 328.4375 44.648438 329.289062 42 329.289062 C 39.367188 329.289062 37.355469 328.4375 35.964844 326.730469 C 34.574219 325.007812 33.878906 322.515625 33.878906 319.246094 C 33.878906 315.992188 34.574219 313.503906 35.964844 311.785156 C 37.355469 310.066406 39.367188 309.203125 42 309.203125 Z M 42 309.203125 "/>
<path fill-rule="nonzero" fill="rgb(0%, 0%, 0%)" fill-opacity="1" d="M 70.457031 327.820312 C 69.621094 328.3125 68.757812 328.675781 67.863281 328.914062 C 66.980469 329.164062 66.078125 329.289062 65.148438 329.289062 C 62.210938 329.289062 59.910156 328.402344 58.246094 326.625 C 56.597656 324.851562 55.773438 322.390625 55.773438 319.246094 C 55.773438 316.105469 56.597656 313.644531 58.246094 311.871094 C 59.910156 310.09375 62.210938 309.203125 65.148438 309.203125 C 66.066406 309.203125 66.960938 309.324219 67.828125 309.5625 C 68.699219 309.800781 69.578125 310.171875 70.457031 310.671875 L 70.457031 313.96875 C 69.632812 313.230469 68.800781 312.695312 67.964844 312.363281 C 67.140625 312.035156 66.203125 311.871094 65.148438 311.871094 C 63.195312 311.871094 61.691406 312.507812 60.640625 313.78125 C 59.585938 315.058594 59.0625 316.878906 59.0625 319.246094 C 59.0625 321.605469 59.585938 323.425781 60.640625 324.714844 C 61.703125 325.988281 63.207031 326.625 65.148438 326.625 C 66.234375 326.625 67.207031 326.460938 68.066406 326.132812 C 68.925781 325.789062 69.722656 325.265625 70.457031 324.558594 Z M 70.457031 327.820312 "/>
<path fill-rule="nonzero" fill="rgb(0%, 0%, 0%)" fill-opacity="1" d="M 81.667969 323.585938 L 85.941406 323.585938 L 85.941406 328.796875 L 81.667969 328.796875 Z M 81.667969 323.585938 "/>
<path fill-rule="nonzero" fill="rgb(0%, 0%, 0%)" fill-opacity="1" d="M 104.695312 304.234375 L 104.695312 309.667969 L 111.785156 309.667969 L 111.785156 312.109375 L 104.695312 312.109375 L 104.695312 322.492188 C 104.695312 323.90625 104.960938 324.890625 105.496094 325.449219 C 106.027344 326.003906 106.953125 326.285156 108.277344 326.285156 L 111.785156 326.285156 L 111.785156 328.796875 L 107.96875 328.796875 C 105.628906 328.796875 103.980469 328.324219 103.019531 327.378906 C 102.058594 326.433594 101.578125 324.804688 101.578125 322.492188 L 101.578125 312.109375 L 96.503906 312.109375 L 96.503906 309.667969 L 101.578125 309.667969 L 101.578125 304.234375 Z M 104.695312 304.234375 "/>
<path fill-rule="nonzero" fill="rgb(0%, 0%, 0%)" fill-opacity="1" d="M 134.050781 318.445312 L 134.050781 319.980469 L 120.535156 319.980469 L 120.535156 320.085938 C 120.535156 322.167969 121.074219 323.78125 122.148438 324.917969 C 123.230469 326.058594 124.757812 326.625 126.726562 326.625 C 127.722656 326.625 128.761719 326.46875 129.847656 326.148438 C 130.933594 325.828125 132.089844 325.34375 133.324219 324.695312 L 133.324219 327.820312 C 132.136719 328.3125 130.988281 328.675781 129.878906 328.914062 C 128.785156 329.164062 127.722656 329.289062 126.691406 329.289062 C 123.742188 329.289062 121.433594 328.402344 119.773438 326.625 C 118.109375 324.839844 117.28125 322.378906 117.28125 319.246094 C 117.28125 316.195312 118.09375 313.757812 119.722656 311.9375 C 121.351562 310.117188 123.519531 309.203125 126.234375 309.203125 C 128.652344 309.203125 130.558594 310.03125 131.949219 311.679688 C 133.351562 313.332031 134.050781 315.585938 134.050781 318.445312 Z M 130.933594 317.523438 C 130.886719 315.679688 130.453125 314.277344 129.625 313.320312 C 128.8125 312.351562 127.636719 311.871094 126.097656 311.871094 C 124.59375 311.871094 123.355469 312.371094 122.382812 313.371094 C 121.410156 314.375 120.835938 315.761719 120.65625 317.539062 Z M 130.933594 317.523438 "/>
<path fill-rule="nonzero" fill="rgb(0%, 0%, 0%)" fill-opacity="1" d="M 155.0625 309.667969 L 148.261719 318.820312 L 155.726562 328.796875 L 152.113281 328.796875 L 146.550781 321.125 L 141.003906 328.796875 L 137.390625 328.796875 L 144.855469 318.820312 L 138.054688 309.667969 L 141.511719 309.667969 L 146.550781 316.582031 L 151.554688 309.667969 Z M 155.0625 309.667969 "/>
<path fill-rule="nonzero" fill="rgb(0%, 0%, 0%)" fill-opacity="1" d="M 27.300781 380.453125 C 26.460938 380.941406 25.597656 381.308594 24.703125 381.546875 C 23.824219 381.796875 22.917969 381.921875 21.992188 381.921875 C 19.050781 381.921875 16.75 381.035156 15.089844 379.257812 C 13.4375 377.480469 12.613281 375.023438 12.613281 371.878906 C 12.613281 368.734375 13.4375 366.277344 15.089844 364.5 C 16.75 362.722656 19.050781 361.835938 21.992188 361.835938 C 22.90625 361.835938 23.800781 361.957031 24.671875 362.195312 C 25.542969 362.433594 26.417969 362.804688 27.300781 363.304688 L 27.300781 366.601562 C 26.472656 365.859375 25.644531 365.324219 24.804688 364.996094 C 23.980469 364.664062 23.042969 364.5 21.992188 364.5 C 20.035156 364.5 18.53125 365.136719 17.480469 366.414062 C 16.429688 367.6875 15.902344 369.511719 15.902344 371.878906 C 15.902344 374.234375 16.429688 376.058594 17.480469 377.34375 C 18.542969 378.621094 20.046875 379.257812 21.992188 379.257812 C 23.078125 379.257812 24.046875 379.09375 24.90625 378.761719 C 25.765625 378.421875 26.5625 377.898438 27.300781 377.191406 Z M 27.300781 380.453125 "/>
<path fill-rule="nonzero" fill="rgb(0%, 0%, 0%)" fill-opacity="1" d="M 40.660156 364.5 C 39.078125 364.5 37.878906 365.121094 37.066406 366.363281 C 36.253906 367.601562 35.84375 369.441406 35.84375 371.878906 C 35.84375 374.304688 36.253906 376.144531 37.066406 377.394531 C 37.878906 378.636719 39.078125 379.257812 40.660156 379.257812 C 42.257812 379.257812 43.460938 378.636719 44.273438 377.394531 C 45.089844 376.144531 45.496094 374.304688 45.496094 371.878906 C 45.496094 369.441406 45.089844 367.601562 44.273438 366.363281 C 43.460938 365.121094 42.257812 364.5 40.660156 364.5 Z M 40.660156 361.835938 C 43.296875 361.835938 45.308594 362.695312 46.699219 364.414062 C 48.101562 366.132812 48.800781 368.621094 48.800781 371.878906 C 48.800781 375.148438 48.105469 377.640625 46.714844 379.359375 C 45.324219 381.066406 43.308594 381.921875 40.660156 381.921875 C 38.027344 381.921875 36.015625 381.066406 34.625 379.359375 C 33.234375 377.640625 32.539062 375.148438 32.539062 371.878906 C 32.539062 368.621094 33.234375 366.132812 34.625 364.414062 C 36.015625 362.695312 38.027344 361.835938 40.660156 361.835938 Z M 40.660156 361.835938 "/>
<path fill-rule="nonzero" fill="rgb(0%, 0%, 0%)" fill-opacity="1" d="M 68.949219 369.574219 L 68.949219 381.425781 L 65.8125 381.425781 L 65.8125 369.574219 C 65.8125 367.855469 65.511719 366.589844 64.914062 365.78125 C 64.3125 364.972656 63.375 364.570312 62.097656 364.570312 C 60.640625 364.570312 59.515625 365.09375 58.722656 366.140625 C 57.941406 367.175781 57.550781 368.667969 57.550781 370.613281 L 57.550781 381.425781 L 54.429688 381.425781 L 54.429688 362.296875 L 57.550781 362.296875 L 57.550781 365.167969 C 58.105469 364.074219 58.859375 363.246094 59.808594 362.691406 C 60.757812 362.121094 61.882812 361.835938 63.183594 361.835938 C 65.117188 361.835938 66.558594 362.480469 67.507812 363.765625 C 68.46875 365.042969 68.949219 366.976562 68.949219 369.574219 Z M 68.949219 369.574219 "/>
<path fill-rule="nonzero" fill="rgb(0%, 0%, 0%)" fill-opacity="1" d="M 90.0625 354.851562 L 90.0625 357.464844 L 86.519531 357.464844 C 85.398438 357.464844 84.617188 357.695312 84.175781 358.164062 C 83.746094 358.621094 83.53125 359.433594 83.53125 360.605469 L 83.53125 362.296875 L 90.0625 362.296875 L 90.0625 364.738281 L 83.53125 364.738281 L 83.53125 381.425781 L 80.414062 381.425781 L 80.414062 364.738281 L 75.339844 364.738281 L 75.339844 362.296875 L 80.414062 362.296875 L 80.414062 360.964844 C 80.414062 358.871094 80.886719 357.328125 81.835938 356.335938 C 82.796875 355.34375 84.289062 354.851562 86.3125 354.851562 Z M 90.0625 354.851562 "/>
<path fill-rule="nonzero" fill="rgb(0%, 0%, 0%)" fill-opacity="1" d="M 97.285156 362.296875 L 105.273438 362.296875 L 105.273438 378.984375 L 111.464844 378.984375 L 111.464844 381.425781 L 95.960938 381.425781 L 95.960938 378.984375 L 102.152344 378.984375 L 102.152344 364.738281 L 97.285156 364.738281 Z M 102.152344 354.851562 L 105.273438 354.851562 L 105.273438 358.828125 L 102.152344 358.828125 Z M 102.152344 354.851562 "/>
<path fill-rule="nonzero" fill="rgb(0%, 0%, 0%)" fill-opacity="1" d="M 128.40625 371.707031 C 128.40625 369.351562 128.019531 367.5625 127.25 366.34375 C 126.492188 365.113281 125.386719 364.5 123.925781 364.5 C 122.402344 364.5 121.238281 365.113281 120.433594 366.34375 C 119.632812 367.5625 119.230469 369.351562 119.230469 371.707031 C 119.230469 374.066406 119.632812 375.863281 120.433594 377.105469 C 121.246094 378.335938 122.421875 378.949219 123.960938 378.949219 C 125.398438 378.949219 126.492188 378.328125 127.25 377.089844 C 128.019531 375.847656 128.40625 374.054688 128.40625 371.707031 Z M 131.527344 380.195312 C 131.527344 383.066406 130.851562 385.242188 129.507812 386.722656 C 128.160156 388.203125 126.183594 388.941406 123.570312 388.941406 C 122.710938 388.941406 121.8125 388.863281 120.875 388.703125 C 119.9375 388.542969 118.996094 388.308594 118.058594 388.003906 L 118.058594 384.894531 C 119.167969 385.417969 120.171875 385.804688 121.078125 386.054688 C 121.984375 386.304688 122.8125 386.429688 123.570312 386.429688 C 125.257812 386.429688 126.484375 385.96875 127.25 385.046875 C 128.019531 384.125 128.40625 382.660156 128.40625 380.65625 L 128.40625 378.386719 C 127.90625 379.457031 127.230469 380.253906 126.371094 380.777344 C 125.511719 381.300781 124.464844 381.5625 123.230469 381.5625 C 121.015625 381.5625 119.246094 380.667969 117.921875 378.882812 C 116.601562 377.09375 115.9375 374.703125 115.9375 371.707031 C 115.9375 368.703125 116.601562 366.304688 117.921875 364.515625 C 119.246094 362.730469 121.015625 361.835938 123.230469 361.835938 C 124.453125 361.835938 125.488281 362.082031 126.335938 362.570312 C 127.183594 363.058594 127.875 363.816406 128.40625 364.84375 L 128.40625 362.367188 L 131.527344 362.367188 Z M 131.527344 380.195312 "/>
<path fill-rule="nonzero" fill="rgb(0%, 0%, 0%)" fill-opacity="1" d="M 143.054688 376.21875 L 147.332031 376.21875 L 147.332031 381.425781 L 143.054688 381.425781 Z M 143.054688 376.21875 "/>
<path fill-rule="nonzero" fill="rgb(0%, 0%, 0%)" fill-opacity="1" d="M 173.667969 380.453125 C 172.832031 380.941406 171.964844 381.308594 171.074219 381.546875 C 170.191406 381.796875 169.285156 381.921875 168.359375 381.921875 C 165.417969 381.921875 163.117188 381.035156 161.457031 379.257812 C 159.804688 377.480469 158.980469 375.023438 158.980469 371.878906 C 158.980469 368.734375 159.804688 366.277344 161.457031 364.5 C 163.117188 362.722656 165.417969 361.835938 168.359375 361.835938 C 169.273438 361.835938 170.167969 361.957031 171.039062 362.195312 C 171.910156 362.433594 172.785156 362.804688 173.667969 363.304688 L 173.667969 366.601562 C 172.839844 365.859375 172.011719 365.324219 171.175781 364.996094 C 170.347656 364.664062 169.410156 364.5 168.359375 364.5 C 166.402344 364.5 164.898438 365.136719 163.847656 366.414062 C 162.796875 367.6875 162.269531 369.511719 162.269531 371.878906 C 162.269531 374.234375 162.796875 376.058594 163.847656 377.34375 C 164.910156 378.621094 166.414062 379.257812 168.359375 379.257812 C 169.445312 379.257812 170.417969 379.09375 171.277344 378.761719 C 172.136719 378.421875 172.933594 377.898438 173.667969 377.191406 Z M 173.667969 380.453125 "/>
<path fill-rule="nonzero" fill="rgb(0%, 0%, 0%)" fill-opacity="1" d="M 194.609375 354.851562 L 194.609375 357.464844 L 191.066406 357.464844 C 189.945312 357.464844 189.167969 357.695312 188.726562 358.164062 C 188.296875 358.621094 188.082031 359.433594 188.082031 360.605469 L 188.082031 362.296875 L 194.609375 362.296875 L 194.609375 364.738281 L 188.082031 364.738281 L 188.082031 381.425781 L 184.960938 381.425781 L 184.960938 364.738281 L 179.890625 364.738281 L 179.890625 362.296875 L 184.960938 362.296875 L 184.960938 360.964844 C 184.960938 358.871094 185.433594 357.328125 186.386719 356.335938 C 187.347656 355.34375 188.839844 354.851562 190.863281 354.851562 Z M 194.609375 354.851562 "/>
<path fill-rule="nonzero" fill="rgb(0%, 0%, 0%)" fill-opacity="1" d="M 212.042969 371.707031 C 212.042969 369.351562 211.660156 367.5625 210.890625 366.34375 C 210.132812 365.113281 209.023438 364.5 207.566406 364.5 C 206.039062 364.5 204.875 365.113281 204.074219 366.34375 C 203.269531 367.5625 202.867188 369.351562 202.867188 371.707031 C 202.867188 374.066406 203.269531 375.863281 204.074219 377.105469 C 204.886719 378.335938 206.0625 378.949219 207.601562 378.949219 C 209.035156 378.949219 210.132812 378.328125 210.890625 377.089844 C 211.660156 375.847656 212.042969 374.054688 212.042969 371.707031 Z M 215.164062 380.195312 C 215.164062 383.066406 214.492188 385.242188 213.144531 386.722656 C 211.800781 388.203125 209.820312 388.941406 207.210938 388.941406 C 206.351562 388.941406 205.453125 388.863281 204.511719 388.703125 C 203.574219 388.542969 202.636719 388.308594 201.699219 388.003906 L 201.699219 384.894531 C 202.804688 385.417969 203.8125 385.804688 204.71875 386.054688 C 205.621094 386.304688 206.453125 386.429688 207.210938 386.429688 C 208.894531 386.429688 210.121094 385.96875 210.890625 385.046875 C 211.660156 384.125 212.042969 382.660156 212.042969 380.65625 L 212.042969 378.386719 C 211.546875 379.457031 210.867188 380.253906 210.007812 380.777344 C 209.148438 381.300781 208.101562 381.5625 206.871094 381.5625 C 204.65625 381.5625 202.886719 380.667969 201.5625 378.882812 C 200.238281 377.09375 199.578125 374.703125 199.578125 371.707031 C 199.578125 368.703125 200.238281 366.304688 201.5625 364.515625 C 202.886719 362.730469 204.65625 361.835938 206.871094 361.835938 C 208.09375 361.835938 209.125 362.082031 209.972656 362.570312 C 210.824219 363.058594 211.511719 363.816406 212.042969 364.84375 L 212.042969 362.367188 L 215.164062 362.367188 Z M 215.164062 380.195312 "/>
<path fill-rule="nonzero" fill="rgb(0%, 0%, 0%)" fill-opacity="1" d="M 288.550781 324.28125 L 288.550781 333.964844 L 285.410156 333.964844 L 285.410156 307.5625 L 288.550781 307.5625 L 288.550781 310.003906 C 289.070312 309.058594 289.757812 308.339844 290.617188 307.851562 C 291.488281 307.351562 292.488281 307.101562 293.621094 307.101562 C 295.914062 307.101562 297.714844 307.992188 299.015625 309.78125 C 300.324219 311.570312 300.980469 314.046875 300.980469 317.210938 C 300.980469 320.320312 300.324219 322.761719 299.015625 324.539062 C 297.703125 326.304688 295.90625 327.183594 293.621094 327.183594 C 292.46875 327.183594 291.457031 326.941406 290.585938 326.449219 C 289.726562 325.949219 289.046875 325.226562 288.550781 324.28125 Z M 297.707031 317.140625 C 297.707031 314.707031 297.324219 312.867188 296.554688 311.625 C 295.796875 310.382812 294.667969 309.765625 293.164062 309.765625 C 291.648438 309.765625 290.5 310.390625 289.71875 311.644531 C 288.941406 312.882812 288.550781 314.71875 288.550781 317.140625 C 288.550781 319.554688 288.941406 321.390625 289.71875 322.640625 C 290.5 323.894531 291.648438 324.519531 293.164062 324.519531 C 294.667969 324.519531 295.796875 323.902344 296.554688 322.660156 C 297.324219 321.417969 297.707031 319.578125 297.707031 317.140625 Z M 297.707031 317.140625 "/>
<path fill-rule="nonzero" fill="rgb(0%, 0%, 0%)" fill-opacity="1" d="M 313.9375 319.753906 C 313.9375 321.167969 314.191406 322.230469 314.699219 322.949219 C 315.21875 323.667969 315.984375 324.027344 316.988281 324.027344 L 320.636719 324.027344 L 320.636719 326.691406 L 316.683594 326.691406 C 314.820312 326.691406 313.371094 326.085938 312.34375 324.878906 C 311.324219 323.671875 310.816406 321.964844 310.816406 319.753906 L 310.816406 302.386719 L 305.8125 302.386719 L 305.8125 299.925781 L 313.9375 299.925781 Z M 313.9375 319.753906 "/>
<path fill-rule="nonzero" fill="rgb(0%, 0%, 0%)" fill-opacity="1" d="M 335.914062 317.074219 L 334.878906 317.074219 C 333.058594 317.074219 331.6875 317.398438 330.757812 318.046875 C 329.84375 318.683594 329.386719 319.640625 329.386719 320.917969 C 329.386719 322.066406 329.730469 322.960938 330.417969 323.597656 C 331.109375 324.238281 332.066406 324.554688 333.285156 324.554688 C 335.003906 324.554688 336.355469 323.957031 337.339844 322.761719 C 338.324219 321.554688 338.820312 319.890625 338.832031 317.773438 L 338.832031 317.074219 Z M 341.96875 315.777344 L 341.96875 326.691406 L 338.832031 326.691406 L 338.832031 323.855469 C 338.164062 324.992188 337.324219 325.835938 336.304688 326.382812 C 335.296875 326.917969 334.070312 327.183594 332.625 327.183594 C 330.691406 327.183594 329.148438 326.640625 327.996094 325.546875 C 326.839844 324.441406 326.265625 322.964844 326.265625 321.121094 C 326.265625 318.992188 326.972656 317.375 328.382812 316.269531 C 329.808594 315.167969 331.894531 314.613281 334.644531 314.613281 L 338.832031 314.613281 L 338.832031 314.121094 C 338.820312 312.59375 338.4375 311.488281 337.679688 310.804688 C 336.921875 310.113281 335.710938 309.765625 334.050781 309.765625 C 332.988281 309.765625 331.914062 309.917969 330.828125 310.226562 C 329.742188 310.53125 328.683594 310.984375 327.65625 311.574219 L 327.65625 308.433594 C 328.808594 307.988281 329.910156 307.65625 330.960938 307.441406 C 332.023438 307.214844 333.054688 307.101562 334.050781 307.101562 C 335.621094 307.101562 336.960938 307.332031 338.070312 307.800781 C 339.1875 308.265625 340.09375 308.96875 340.78125 309.902344 C 341.210938 310.46875 341.515625 311.175781 341.699219 312.019531 C 341.878906 312.851562 341.96875 314.101562 341.96875 315.777344 Z M 341.96875 315.777344 "/>
<path fill-rule="nonzero" fill="rgb(0%, 0%, 0%)" fill-opacity="1" d="M 362.742188 314.835938 L 362.742188 326.691406 L 359.605469 326.691406 L 359.605469 314.835938 C 359.605469 313.117188 359.304688 311.851562 358.707031 311.046875 C 358.109375 310.238281 357.167969 309.832031 355.890625 309.832031 C 354.433594 309.832031 353.308594 310.355469 352.515625 311.402344 C 351.738281 312.441406 351.347656 313.929688 351.347656 315.878906 L 351.347656 326.691406 L 348.226562 326.691406 L 348.226562 307.5625 L 351.347656 307.5625 L 351.347656 310.429688 C 351.902344 309.335938 352.652344 308.511719 353.601562 307.953125 C 354.550781 307.382812 355.675781 307.101562 356.976562 307.101562 C 358.910156 307.101562 360.351562 307.742188 361.300781 309.03125 C 362.261719 310.304688 362.742188 312.242188 362.742188 314.835938 Z M 362.742188 314.835938 "/>
<path fill-rule="nonzero" fill="rgb(0%, 0%, 0%)" fill-opacity="1" d="M 376.242188 302.128906 L 376.242188 307.5625 L 383.332031 307.5625 L 383.332031 310.003906 L 376.242188 310.003906 L 376.242188 320.386719 C 376.242188 321.800781 376.507812 322.785156 377.039062 323.34375 C 377.570312 323.902344 378.496094 324.179688 379.820312 324.179688 L 383.332031 324.179688 L 383.332031 326.691406 L 379.515625 326.691406 C 377.175781 326.691406 375.523438 326.21875 374.5625 325.273438 C 373.601562 324.328125 373.121094 322.699219 373.121094 320.386719 L 373.121094 310.003906 L 368.050781 310.003906 L 368.050781 307.5625 L 373.121094 307.5625 L 373.121094 302.128906 Z M 376.242188 302.128906 "/>
<path fill-rule="nonzero" fill="rgb(0%, 0%, 0%)" fill-opacity="1" d="M 391.078125 307.5625 L 399.066406 307.5625 L 399.066406 324.246094 L 405.257812 324.246094 L 405.257812 326.691406 L 389.757812 326.691406 L 389.757812 324.246094 L 395.945312 324.246094 L 395.945312 310.003906 L 391.078125 310.003906 Z M 395.945312 300.113281 L 399.066406 300.113281 L 399.066406 304.09375 L 395.945312 304.09375 Z M 395.945312 300.113281 "/>
<path fill-rule="nonzero" fill="rgb(0%, 0%, 0%)" fill-opacity="1" d="M 418.484375 319.753906 C 418.484375 321.167969 418.738281 322.230469 419.25 322.949219 C 419.769531 323.667969 420.53125 324.027344 421.539062 324.027344 L 425.183594 324.027344 L 425.183594 326.691406 L 421.234375 326.691406 C 419.367188 326.691406 417.917969 326.085938 416.890625 324.878906 C 415.875 323.671875 415.363281 321.964844 415.363281 319.753906 L 415.363281 302.386719 L 410.363281 302.386719 L 410.363281 299.925781 L 418.484375 299.925781 Z M 418.484375 319.753906 "/>
<path fill-rule="nonzero" fill="rgb(0%, 0%, 0%)" fill-opacity="1" d="M 439.394531 319.753906 C 439.394531 321.167969 439.648438 322.230469 440.15625 322.949219 C 440.679688 323.667969 441.441406 324.027344 442.449219 324.027344 L 446.09375 324.027344 L 446.09375 326.691406 L 442.140625 326.691406 C 440.277344 326.691406 438.828125 326.085938 437.800781 324.878906 C 436.78125 323.671875 436.273438 321.964844 436.273438 319.753906 L 436.273438 302.386719 L 431.269531 302.386719 L 431.269531 299.925781 L 439.394531 299.925781 Z M 439.394531 319.753906 "/>
<path fill-rule="nonzero" fill="rgb(0%, 0%, 0%)" fill-opacity="1" d="M 461.371094 317.074219 L 460.339844 317.074219 C 458.519531 317.074219 457.144531 317.398438 456.21875 318.046875 C 455.300781 318.683594 454.84375 319.640625 454.84375 320.917969 C 454.84375 322.066406 455.1875 322.960938 455.878906 323.597656 C 456.566406 324.238281 457.523438 324.554688 458.746094 324.554688 C 460.460938 324.554688 461.8125 323.957031 462.796875 322.761719 C 463.78125 321.554688 464.277344 319.890625 464.289062 317.773438 L 464.289062 317.074219 Z M 467.425781 315.777344 L 467.425781 326.691406 L 464.289062 326.691406 L 464.289062 323.855469 C 463.621094 324.992188 462.78125 325.835938 461.761719 326.382812 C 460.757812 326.917969 459.53125 327.183594 458.082031 327.183594 C 456.148438 327.183594 454.605469 326.640625 453.453125 325.546875 C 452.300781 324.441406 451.722656 322.964844 451.722656 321.121094 C 451.722656 318.992188 452.429688 317.375 453.84375 316.269531 C 455.265625 315.167969 457.351562 314.613281 460.101562 314.613281 L 464.289062 314.613281 L 464.289062 314.121094 C 464.277344 312.59375 463.894531 311.488281 463.136719 310.804688 C 462.378906 310.113281 461.167969 309.765625 459.507812 309.765625 C 458.445312 309.765625 457.371094 309.917969 456.285156 310.226562 C 455.199219 310.53125 454.140625 310.984375 453.113281 311.574219 L 453.113281 308.433594 C 454.265625 307.988281 455.371094 307.65625 456.421875 307.441406 C 457.484375 307.214844 458.511719 307.101562 459.507812 307.101562 C 461.078125 307.101562 462.417969 307.332031 463.527344 307.800781 C 464.644531 308.265625 465.550781 308.96875 466.242188 309.902344 C 466.671875 310.46875 466.976562 311.175781 467.15625 312.019531 C 467.335938 312.851562 467.425781 314.101562 467.425781 315.777344 Z M 467.425781 315.777344 "/>
<path fill-rule="nonzero" fill="rgb(0%, 0%, 0%)" fill-opacity="1" d="M 478.671875 321.480469 L 482.945312 321.480469 L 482.945312 326.691406 L 478.671875 326.691406 Z M 478.671875 321.480469 "/>
<path fill-rule="nonzero" fill="rgb(0%, 0%, 0%)" fill-opacity="1" d="M 501.699219 302.128906 L 501.699219 307.5625 L 508.789062 307.5625 L 508.789062 310.003906 L 501.699219 310.003906 L 501.699219 320.386719 C 501.699219 321.800781 501.964844 322.785156 502.496094 323.34375 C 503.027344 323.902344 503.957031 324.179688 505.277344 324.179688 L 508.789062 324.179688 L 508.789062 326.691406 L 504.972656 326.691406 C 502.632812 326.691406 500.980469 326.21875 500.019531 325.273438 C 499.058594 324.328125 498.578125 322.699219 498.578125 320.386719 L 498.578125 310.003906 L 493.507812 310.003906 L 493.507812 307.5625 L 498.578125 307.5625 L 498.578125 302.128906 Z M 501.699219 302.128906 "/>
<path fill-rule="nonzero" fill="rgb(0%, 0%, 0%)" fill-opacity="1" d="M 531.054688 316.339844 L 531.054688 317.878906 L 517.539062 317.878906 L 517.539062 317.980469 C 517.539062 320.0625 518.074219 321.675781 519.148438 322.8125 C 520.234375 323.953125 521.761719 324.519531 523.730469 324.519531 C 524.722656 324.519531 525.765625 324.363281 526.847656 324.042969 C 527.933594 323.722656 529.09375 323.238281 530.328125 322.589844 L 530.328125 325.714844 C 529.140625 326.207031 527.992188 326.570312 526.882812 326.808594 C 525.785156 327.058594 524.722656 327.183594 523.695312 327.183594 C 520.742188 327.183594 518.4375 326.296875 516.777344 324.519531 C 515.113281 322.734375 514.28125 320.273438 514.28125 317.140625 C 514.28125 314.089844 515.097656 311.652344 516.722656 309.832031 C 518.351562 308.011719 520.523438 307.101562 523.238281 307.101562 C 525.65625 307.101562 527.5625 307.925781 528.953125 309.578125 C 530.355469 311.226562 531.054688 313.480469 531.054688 316.339844 Z M 527.933594 315.417969 C 527.890625 313.574219 527.453125 312.171875 526.628906 311.214844 C 525.816406 310.246094 524.640625 309.765625 523.101562 309.765625 C 521.597656 309.765625 520.359375 310.265625 519.386719 311.265625 C 518.414062 312.269531 517.839844 313.660156 517.65625 315.433594 Z M 527.933594 315.417969 "/>
<path fill-rule="nonzero" fill="rgb(0%, 0%, 0%)" fill-opacity="1" d="M 552.066406 307.5625 L 545.265625 316.714844 L 552.726562 326.691406 L 549.117188 326.691406 L 543.554688 319.019531 L 538.007812 326.691406 L 534.394531 326.691406 L 541.855469 316.714844 L 535.054688 307.5625 L 538.515625 307.5625 L 543.554688 314.476562 L 548.554688 307.5625 Z M 552.066406 307.5625 "/>
<path fill-rule="nonzero" fill="rgb(0%, 0%, 0%)" fill-opacity="1" d="M 298.433594 374.679688 L 298.433594 376.21875 L 284.917969 376.21875 L 284.917969 376.320312 C 284.917969 378.40625 285.453125 380.015625 286.527344 381.15625 C 287.613281 382.292969 289.140625 382.863281 291.105469 382.863281 C 292.101562 382.863281 293.140625 382.703125 294.226562 382.382812 C 295.3125 382.066406 296.472656 381.582031 297.703125 380.933594 L 297.703125 384.058594 C 296.515625 384.546875 295.371094 384.914062 294.261719 385.152344 C 293.164062 385.402344 292.101562 385.527344 291.074219 385.527344 C 288.121094 385.527344 285.816406 384.640625 284.152344 382.863281 C 282.492188 381.074219 281.660156 378.617188 281.660156 375.484375 C 281.660156 372.433594 282.472656 369.996094 284.101562 368.175781 C 285.730469 366.351562 287.902344 365.441406 290.613281 365.441406 C 293.035156 365.441406 294.941406 366.265625 296.332031 367.917969 C 297.730469 369.570312 298.433594 371.824219 298.433594 374.679688 Z M 295.3125 373.757812 C 295.265625 371.914062 294.832031 370.515625 294.007812 369.558594 C 293.191406 368.589844 292.015625 368.105469 290.480469 368.105469 C 288.976562 368.105469 287.738281 368.605469 286.765625 369.609375 C 285.792969 370.609375 285.214844 372 285.035156 373.777344 Z M 295.3125 373.757812 "/>
<path fill-rule="nonzero" fill="rgb(0%, 0%, 0%)" fill-opacity="1" d="M 310.660156 385.375 L 310.660156 368.34375 L 305.285156 368.34375 L 305.285156 365.902344 L 313.78125 365.902344 L 313.78125 385.375 C 313.78125 387.59375 313.269531 389.300781 312.253906 390.496094 C 311.246094 391.703125 309.8125 392.308594 307.945312 392.308594 L 303.636719 392.308594 L 303.636719 389.644531 L 307.605469 389.644531 C 308.625 389.644531 309.386719 389.285156 309.894531 388.566406 C 310.40625 387.863281 310.660156 386.796875 310.660156 385.375 Z M 310.660156 358.457031 L 313.78125 358.457031 L 313.78125 362.433594 L 310.660156 362.433594 Z M 310.660156 358.457031 "/>
<path fill-rule="nonzero" fill="rgb(0%, 0%, 0%)" fill-opacity="1" d="M 340.253906 374.679688 L 340.253906 376.21875 L 326.734375 376.21875 L 326.734375 376.320312 C 326.734375 378.40625 327.273438 380.015625 328.347656 381.15625 C 329.433594 382.292969 330.957031 382.863281 332.925781 382.863281 C 333.921875 382.863281 334.960938 382.703125 336.046875 382.382812 C 337.132812 382.066406 338.289062 381.582031 339.523438 380.933594 L 339.523438 384.058594 C 338.335938 384.546875 337.1875 384.914062 336.082031 385.152344 C 334.984375 385.402344 333.921875 385.527344 332.890625 385.527344 C 329.941406 385.527344 327.632812 384.640625 325.972656 382.863281 C 324.308594 381.074219 323.480469 378.617188 323.480469 375.484375 C 323.480469 372.433594 324.292969 369.996094 325.921875 368.175781 C 327.550781 366.351562 329.71875 365.441406 332.433594 365.441406 C 334.855469 365.441406 336.757812 366.265625 338.148438 367.917969 C 339.550781 369.570312 340.253906 371.824219 340.253906 374.679688 Z M 337.132812 373.757812 C 337.085938 371.914062 336.652344 370.515625 335.824219 369.558594 C 335.011719 368.589844 333.835938 368.105469 332.296875 368.105469 C 330.792969 368.105469 329.558594 368.605469 328.585938 369.609375 C 327.613281 370.609375 327.035156 372 326.855469 373.777344 Z M 337.132812 373.757812 "/>
<path fill-rule="nonzero" fill="rgb(0%, 0%, 0%)" fill-opacity="1" d="M 353.769531 367.847656 C 354.152344 367.03125 354.636719 366.425781 355.226562 366.039062 C 355.824219 365.640625 356.542969 365.441406 357.378906 365.441406 C 358.90625 365.441406 359.980469 366.039062 360.601562 367.234375 C 361.234375 368.417969 361.550781 370.65625 361.550781 373.945312 L 361.550781 385.03125 L 358.703125 385.03125 L 358.703125 374.082031 C 358.703125 371.386719 358.550781 369.710938 358.246094 369.0625 C 357.953125 368.402344 357.410156 368.070312 356.617188 368.070312 C 355.710938 368.070312 355.089844 368.425781 354.75 369.128906 C 354.421875 369.824219 354.257812 371.476562 354.257812 374.082031 L 354.257812 385.03125 L 351.410156 385.03125 L 351.410156 374.082031 C 351.410156 371.351562 351.246094 369.664062 350.917969 369.027344 C 350.601562 368.390625 350.027344 368.070312 349.1875 368.070312 C 348.363281 368.070312 347.785156 368.425781 347.457031 369.128906 C 347.140625 369.824219 346.984375 371.476562 346.984375 374.082031 L 346.984375 385.03125 L 344.152344 385.03125 L 344.152344 365.902344 L 346.984375 365.902344 L 346.984375 367.542969 C 347.355469 366.859375 347.820312 366.339844 348.375 365.988281 C 348.941406 365.625 349.578125 365.441406 350.292969 365.441406 C 351.152344 365.441406 351.863281 365.640625 352.429688 366.039062 C 353.003906 366.4375 353.453125 367.042969 353.769531 367.847656 Z M 353.769531 367.847656 "/>
<path fill-rule="nonzero" fill="rgb(0%, 0%, 0%)" fill-opacity="1" d="M 369.574219 382.625 L 369.574219 392.308594 L 366.433594 392.308594 L 366.433594 365.902344 L 369.574219 365.902344 L 369.574219 368.34375 C 370.09375 367.398438 370.78125 366.683594 371.640625 366.191406 C 372.511719 365.691406 373.511719 365.441406 374.644531 365.441406 C 376.9375 365.441406 378.738281 366.335938 380.035156 368.121094 C 381.347656 369.910156 382.003906 372.386719 382.003906 375.550781 C 382.003906 378.660156 381.347656 381.101562 380.035156 382.878906 C 378.726562 384.644531 376.925781 385.527344 374.644531 385.527344 C 373.492188 385.527344 372.476562 385.28125 371.609375 384.792969 C 370.75 384.292969 370.070312 383.570312 369.574219 382.625 Z M 378.730469 375.484375 C 378.730469 373.046875 378.347656 371.207031 377.578125 369.96875 C 376.820312 368.726562 375.691406 368.105469 374.1875 368.105469 C 372.671875 368.105469 371.523438 368.730469 370.742188 369.984375 C 369.960938 371.226562 369.574219 373.058594 369.574219 375.484375 C 369.574219 377.898438 369.960938 379.730469 370.742188 380.984375 C 371.523438 382.238281 372.671875 382.863281 374.1875 382.863281 C 375.691406 382.863281 376.820312 382.242188 377.578125 381 C 378.347656 379.761719 378.730469 377.921875 378.730469 375.484375 Z M 378.730469 375.484375 "/>
<path fill-rule="nonzero" fill="rgb(0%, 0%, 0%)" fill-opacity="1" d="M 394.960938 378.097656 C 394.960938 379.507812 395.214844 380.574219 395.722656 381.292969 C 396.242188 382.007812 397.007812 382.367188 398.011719 382.367188 L 401.660156 382.367188 L 401.660156 385.03125 L 397.707031 385.03125 C 395.839844 385.03125 394.394531 384.429688 393.367188 383.222656 C 392.347656 382.015625 391.839844 380.304688 391.839844 378.097656 L 391.839844 360.726562 L 386.835938 360.726562 L 386.835938 358.269531 L 394.960938 358.269531 Z M 394.960938 378.097656 "/>
<path fill-rule="nonzero" fill="rgb(0%, 0%, 0%)" fill-opacity="1" d="M 415.480469 368.105469 C 413.894531 368.105469 412.699219 368.726562 411.882812 369.96875 C 411.070312 371.207031 410.664062 373.046875 410.664062 375.484375 C 410.664062 377.910156 411.070312 379.75 411.882812 381 C 412.699219 382.242188 413.894531 382.863281 415.480469 382.863281 C 417.074219 382.863281 418.277344 382.242188 419.09375 381 C 419.90625 379.75 420.3125 377.910156 420.3125 375.484375 C 420.3125 373.046875 419.90625 371.207031 419.09375 369.96875 C 418.277344 368.726562 417.074219 368.105469 415.480469 368.105469 Z M 415.480469 365.441406 C 418.113281 365.441406 420.125 366.300781 421.515625 368.019531 C 422.917969 369.738281 423.621094 372.226562 423.621094 375.484375 C 423.621094 378.753906 422.925781 381.246094 421.535156 382.964844 C 420.144531 384.671875 418.125 385.527344 415.480469 385.527344 C 412.84375 385.527344 410.832031 384.671875 409.441406 382.964844 C 408.050781 381.246094 407.355469 378.753906 407.355469 375.484375 C 407.355469 372.226562 408.050781 369.738281 409.441406 368.019531 C 410.832031 366.300781 412.84375 365.441406 415.480469 365.441406 Z M 415.480469 365.441406 "/>
<path fill-rule="nonzero" fill="rgb(0%, 0%, 0%)" fill-opacity="1" d="M 442.445312 366.570312 L 442.445312 369.644531 C 441.550781 369.117188 440.652344 368.726562 439.746094 368.464844 C 438.84375 368.203125 437.921875 368.070312 436.984375 368.070312 C 435.570312 368.070312 434.511719 368.304688 433.8125 368.773438 C 433.121094 369.226562 432.777344 369.925781 432.777344 370.871094 C 432.777344 371.726562 433.035156 372.363281 433.558594 372.785156 C 434.078125 373.207031 435.371094 373.617188 437.441406 374.015625 L 438.695312 374.253906 C 440.246094 374.550781 441.414062 375.144531 442.207031 376.03125 C 443.007812 376.917969 443.410156 378.074219 443.410156 379.496094 C 443.410156 381.386719 442.742188 382.867188 441.410156 383.9375 C 440.074219 384.996094 438.222656 385.527344 435.847656 385.527344 C 434.90625 385.527344 433.925781 385.425781 432.894531 385.21875 C 431.867188 385.027344 430.753906 384.730469 429.554688 384.332031 L 429.554688 381.085938 C 430.71875 381.691406 431.832031 382.144531 432.894531 382.453125 C 433.957031 382.75 434.964844 382.898438 435.914062 382.898438 C 437.292969 382.898438 438.363281 382.617188 439.121094 382.058594 C 439.878906 381.492188 440.257812 380.699219 440.257812 379.6875 C 440.257812 378.226562 438.871094 377.21875 436.101562 376.664062 L 435.964844 376.628906 L 434.792969 376.390625 C 432.996094 376.035156 431.6875 375.445312 430.859375 374.613281 C 430.035156 373.769531 429.621094 372.625 429.621094 371.179688 C 429.621094 369.347656 430.238281 367.933594 431.472656 366.945312 C 432.703125 365.941406 434.460938 365.441406 436.746094 365.441406 C 437.761719 365.441406 438.742188 365.539062 439.679688 365.730469 C 440.617188 365.914062 441.539062 366.191406 442.445312 366.570312 Z M 442.445312 366.570312 "/>
<path fill-rule="nonzero" fill="rgb(0%, 0%, 0%)" fill-opacity="1" d="M 455.144531 379.824219 L 459.417969 379.824219 L 459.417969 385.03125 L 455.144531 385.03125 Z M 455.144531 379.824219 "/>
<path fill-rule="nonzero" fill="rgb(0%, 0%, 0%)" fill-opacity="1" d="M 478.175781 360.472656 L 478.175781 365.902344 L 485.265625 365.902344 L 485.265625 368.34375 L 478.175781 368.34375 L 478.175781 378.730469 C 478.175781 380.140625 478.441406 381.125 478.972656 381.683594 C 479.503906 382.242188 480.429688 382.519531 481.753906 382.519531 L 485.265625 382.519531 L 485.265625 385.03125 L 481.449219 385.03125 C 479.105469 385.03125 477.457031 384.558594 476.496094 383.613281 C 475.535156 382.667969 475.054688 381.039062 475.054688 378.730469 L 475.054688 368.34375 L 469.984375 368.34375 L 469.984375 365.902344 L 475.054688 365.902344 L 475.054688 360.472656 Z M 478.175781 360.472656 "/>
<path fill-rule="nonzero" fill="rgb(0%, 0%, 0%)" fill-opacity="1" d="M 507.53125 374.679688 L 507.53125 376.21875 L 494.011719 376.21875 L 494.011719 376.320312 C 494.011719 378.40625 494.550781 380.015625 495.625 381.15625 C 496.710938 382.292969 498.234375 382.863281 500.203125 382.863281 C 501.199219 382.863281 502.238281 382.703125 503.324219 382.382812 C 504.410156 382.066406 505.570312 381.582031 506.800781 380.933594 L 506.800781 384.058594 C 505.613281 384.546875 504.464844 384.914062 503.359375 385.152344 C 502.261719 385.402344 501.199219 385.527344 500.167969 385.527344 C 497.21875 385.527344 494.914062 384.640625 493.25 382.863281 C 491.589844 381.074219 490.757812 378.617188 490.757812 375.484375 C 490.757812 372.433594 491.570312 369.996094 493.199219 368.175781 C 494.828125 366.351562 497 365.441406 499.710938 365.441406 C 502.132812 365.441406 504.035156 366.265625 505.425781 367.917969 C 506.828125 369.570312 507.53125 371.824219 507.53125 374.679688 Z M 504.410156 373.757812 C 504.363281 371.914062 503.929688 370.515625 503.105469 369.558594 C 502.289062 368.589844 501.113281 368.105469 499.574219 368.105469 C 498.074219 368.105469 496.835938 368.605469 495.863281 369.609375 C 494.890625 370.609375 494.3125 372 494.132812 373.777344 Z M 504.410156 373.757812 "/>
<path fill-rule="nonzero" fill="rgb(0%, 0%, 0%)" fill-opacity="1" d="M 528.542969 365.902344 L 521.742188 375.058594 L 529.203125 385.03125 L 525.589844 385.03125 L 520.027344 377.363281 L 514.480469 385.03125 L 510.871094 385.03125 L 518.332031 375.058594 L 511.53125 365.902344 L 514.992188 365.902344 L 520.027344 372.820312 L 525.03125 365.902344 Z M 528.542969 365.902344 "/>
</svg>
